<?xml version="1.0" standalone="no"?>
<!DOCTYPE svg PUBLIC "-//W3C//DTD SVG 1.1//EN" "http://www.w3.org/Graphics/SVG/1.1/DTD/svg11.dtd" >
<!--
2013-11-24: Created.
-->
<svg xmlns="http://www.w3.org/2000/svg">
<metadata>
Created by FontForge 20120731 at Sun Nov 24 18:08:33 2013
 By root
Created by root with FontForge 2.0 (http://fontforge.sf.net)
</metadata>
<defs>
<font id="icons" horiz-adv-x="448" >
  <font-face 
    font-family="icons"
    font-weight="500"
    font-stretch="normal"
    units-per-em="512"
    panose-1="2 0 6 3 0 0 0 0 0 0"
    ascent="448"
    descent="-64"
    bbox="-0.75 -277 525 533"
    underline-thickness="25.6"
    underline-position="-51.2"
    unicode-range="U+F100-F229"
  />
    <missing-glyph />
    <glyph glyph-name="uniF100" unicode="&#xf100;" 
d="M160 416c88 0 160 -72 160 -160s-72 -160 -160 -160s-160 72 -160 160s72 160 160 160zM160 128c71 0 128 57 128 128s-57 128 -128 128s-128 -57 -128 -128s57 -128 128 -128zM368 96l80 -80l-48 -48l-80 80v16l-41 41c12 9 23 20 32 32l41 -41h16zM64 288h192v-64h-192
v64z" />
    <glyph glyph-name="uniF101" unicode="&#xf101;" 
d="M192 288h64v-64h-64v-64h-64v64h-64v64h64v64h64v-64zM160 416c88 0 160 -72 160 -160s-72 -160 -160 -160s-160 72 -160 160s72 160 160 160zM160 128c71 0 128 57 128 128s-57 128 -128 128s-128 -57 -128 -128s57 -128 128 -128zM368 96l80 -80l-48 -48l-80 80v16
l-41 41c12 9 23 20 32 32l41 -41h16z" />
    <glyph glyph-name="uniF102" unicode="&#xf102;" horiz-adv-x="384" 
d="M140 177l174 175l70 -70l-244 -244l-140 139l70 70z" />
    <glyph glyph-name="uniF103" unicode="&#xf103;" horiz-adv-x="469" 
d="M405 299h22v-43h-22v43zM21 427v-171h-21v192h299v-21h-278zM405 -43v68h22v-89h-427v89h21v-68h384zM137 80l-21 36c-8 14 -14 23 -19 32v0c-5 -9 -10 -18 -18 -32l-19 -36h-25l50 83l-48 80h25l21 -38c6 -11 11 -19 15 -28h1c5 10 9 18 15 28l22 38h24l-50 -79l51 -84
h-24zM322 152c-1 23 -2 50 -2 70h-1c-6 -19 -12 -40 -20 -62l-29 -79h-16l-26 78c-8 23 -14 44 -19 63h-1c0 -20 -2 -48 -3 -72l-4 -70h-20l11 163h27l28 -79c7 -20 12 -37 16 -54h1c4 16 10 33 17 54l29 79h27l10 -163h-21zM379 243h21v-145h69v-18h-90v163zM405 299h22
v-43h-22v43zM21 427v-171h-21v192h299v-21h-278zM405 -43v68h22v-89h-427v89h21v-68h384zM299 448l127 -149h-127v149zM299 448l127 -149h-127v149z" />
    <glyph glyph-name="uniF104" unicode="&#xf104;" horiz-adv-x="512" 
d="M475 192c20 0 37 -17 37 -37v-54c0 -20 -17 -37 -37 -37h-54c-20 0 -37 17 -37 37v6h-64v-6c0 -20 -17 -37 -37 -37h-54c-20 0 -37 17 -37 37v6h-64v-6c0 -20 -17 -37 -37 -37h-54c-20 0 -37 17 -37 37v54c0 20 17 37 37 37h54c20 0 37 -17 37 -37v-6h64v6
c0 20 17 37 37 37h54c20 0 37 -17 37 -37v-6h64v6c0 20 17 37 37 37h54z" />
    <glyph glyph-name="uniF105" unicode="&#xf105;" 
d="M110 331l21 -21c-52 -52 -52 -136 0 -187l-21 -20c-63 63 -63 165 0 228zM338 331c63 -63 63 -165 0 -228l-21 20c52 52 52 135 0 187zM90 364c-39 -39 -61 -91 -61 -147s22 -108 61 -147l-21 -21c-45 45 -69 105 -69 168s24 123 69 168zM379 385c45 -45 69 -105 69 -168
s-24 -123 -69 -168l-21 21c39 39 61 91 61 147s-22 108 -61 147zM224 288c35 0 64 -29 64 -64c0 -24 -13 -44 -32 -55v-201h-64v201c-19 11 -32 31 -32 55c0 35 29 64 64 64z" />
    <glyph glyph-name="uniF106" unicode="&#xf106;" horiz-adv-x="443" 
d="M197 85l-23 -105l125 -44h-299v512h320v-235h-21v0h-22v0h-21v22h-192v-43h171l-8 -21h-163v-43l146 1zM277 277v-21h22v21h-22zM64 299v-43h192v43h-192zM43 128v21h-22v-21h22zM43 192v21h-22v-21h22zM43 256v21h-22v-21h22zM312 94c0 0 -33 27 -85 7l26 85
s59 20 85 -13zM411 68c-52 0 -86 20 -86 20l27 78c20 -26 91 -6 91 -6zM220 81c33 33 92 0 92 0l-19 -85c-52 26 -92 6 -92 6zM325 74c20 -26 78 -19 78 -19l-25 -81c-33 0 -76 17 -76 17zM153 -9l167 -29v-26h-64z" />
    <glyph glyph-name="uniF107" unicode="&#xf107;" horiz-adv-x="512" 
d="M256 448c141 0 256 -115 256 -256s-115 -256 -256 -256s-256 115 -256 256s115 256 256 256zM375 209c-1 30 -6 57 -13 82c-27 -8 -57 -12 -89 -13v-69h102zM137 175c1 -30 6 -57 13 -82c27 8 57 12 89 13v69h-102zM150 291c-7 -25 -12 -52 -13 -82h102v69
c-32 1 -62 5 -89 13zM273 175v-69c32 -1 62 -5 89 -13c7 25 12 52 13 82h-102zM435 322c-12 -7 -26 -14 -41 -20c8 -29 14 -60 15 -93h68c-3 42 -19 81 -42 113zM414 347c-18 18 -39 34 -62 45c12 -17 23 -36 32 -58c11 4 21 8 30 13zM351 323c-18 46 -46 79 -78 88v-99
c28 1 54 5 78 11zM239 411c-32 -9 -60 -42 -78 -88c24 -6 50 -10 78 -11v99zM128 334c9 22 20 41 32 58c-23 -11 -44 -27 -62 -45c9 -5 19 -9 30 -13zM77 322c-23 -32 -39 -71 -42 -113h68c1 33 7 64 15 93c-15 6 -29 13 -41 20zM103 175h-68c3 -42 19 -81 42 -113
c12 7 26 14 41 20c-8 29 -14 60 -15 93zM98 37c18 -18 39 -34 62 -45c-12 17 -23 36 -32 58c-11 -4 -21 -8 -30 -13zM161 61c18 -46 46 -79 78 -88v99c-28 -1 -54 -5 -78 -11zM273 -27c32 9 60 42 78 88c-24 6 -50 10 -78 11v-99zM384 50c-9 -22 -20 -41 -32 -58
c23 11 44 27 62 45c-9 5 -19 9 -30 13zM435 62c23 32 39 71 42 113h-68c-1 -33 -7 -64 -15 -93c15 -6 29 -13 41 -20z" />
    <glyph glyph-name="uniF108" unicode="&#xf108;" horiz-adv-x="416" 
d="M394 17v0v0c-21 -30 -56 -49 -95 -49s-74 19 -95 49v0v0c-14 19 -22 43 -22 69s8 49 22 68v0v0c21 30 56 49 95 49s74 -19 95 -49v0v0c14 -19 22 -42 22 -68s-8 -50 -22 -69zM381 26c11 15 18 33 19 52h-31c-1 -15 -3 -30 -7 -43c7 -3 13 -6 19 -9zM244 78
c1 -14 3 -26 6 -38c13 3 27 5 41 6v32h-47zM353 93c-1 14 -3 26 -6 38c-13 -3 -26 -5 -40 -6v-32h46zM250 131c-3 -12 -5 -24 -6 -38h47v32c-14 1 -28 3 -41 6zM307 78v0v-32c14 -1 27 -3 40 -6c3 12 5 24 6 38h-46zM400 93c-1 19 -8 37 -19 52c-6 -3 -12 -6 -19 -9
c4 -13 6 -28 7 -43h31zM371 157c-8 8 -18 15 -28 20c5 -7 10 -17 14 -27c5 2 10 5 14 7zM343 146c-8 21 -21 36 -36 40v-45c13 1 25 2 36 5zM291 186c-15 -4 -28 -19 -36 -40c11 -3 23 -4 36 -5v45zM241 150c4 10 9 20 14 27c-10 -5 -20 -12 -28 -20c4 -2 9 -5 14 -7z
M217 145c-11 -15 -18 -33 -19 -52h31c1 15 3 30 7 43c-7 3 -13 6 -19 9zM198 78c1 -19 8 -37 19 -52c6 3 12 6 19 9c-4 13 -6 28 -7 43h-31zM227 15c8 -8 18 -15 28 -20c-5 7 -10 16 -14 26c-5 -2 -10 -4 -14 -6zM255 25c8 -21 21 -36 36 -40v46c-13 -1 -25 -3 -36 -6z
M307 -15c15 4 28 19 36 40c-11 3 -23 5 -36 6v-46zM357 21c-4 -10 -8 -20 -14 -27c10 5 20 13 28 21c-4 2 -9 4 -14 6zM171 9l5 -9c27 -39 72 -64 123 -64h-299v512h320v-215c-7 1 -14 2 -21 2c-15 0 -29 -3 -43 -7v7h-192v-43h130c-7 -7 -13 -13 -18 -21h-112v-43h92
c-4 -14 -7 -28 -7 -43c0 -28 9 -54 22 -76zM277 277v-21h22v21h-22zM64 299v-43h192v43h-192zM43 128v21h-22v-21h22zM43 192v21h-22v-21h22zM43 256v21h-22v-21h22zM299 -64c7 0 14 1 21 2v-2h-21z" />
    <glyph glyph-name="uniF109" unicode="&#xf109;" horiz-adv-x="512" 
d="M504 31c11 -20 11 -44 -1 -64s-32 -31 -55 -31h-384c-23 0 -44 11 -55 31c-12 19 -12 44 -1 64l191 352c11 20 33 33 56 33v0c23 0 45 -13 56 -33zM475 -16c6 10 6 21 1 31l-193 352c-5 10 -16 17 -28 17s-23 -7 -28 -17l-191 -352c-5 -10 -6 -21 0 -31s17 -16 28 -16
h384c11 0 21 6 27 16zM448 0h-384l191 352zM282 57c0 -9 -2 -15 -6 -19s-12 -6 -22 -6s-17 2 -21 6s-6 10 -6 19s2 16 6 20s11 6 21 6s18 -2 22 -6s6 -11 6 -20zM236 110c-1 6 -1 14 -2 21s-1 15 -2 22s-2 14 -2 21v17v42h39c7 0 10 -3 10 -10v-31c0 -5 -1 -11 -1 -19
s0 -16 -1 -25s-2 -17 -3 -26s-2 -16 -3 -22h-25c-3 0 -4 0 -6 2s-3 4 -4 8z" />
    <glyph glyph-name="uniF10A" unicode="&#xf10a;" horiz-adv-x="480" 
d="M144 208h96v-96c-53 0 -96 43 -96 96zM240 304c53 0 96 -43 96 -96h-96v96zM431 224h49v-32h-49c-8 -93 -82 -167 -175 -175v-49h-32v49c-93 8 -167 82 -175 175h-49v32h49c8 93 82 167 175 175v49h32v-49c93 -8 167 -82 175 -175zM336 208h80c0 97 -79 176 -176 176v-80
c-53 0 -96 -43 -96 -96h-80c0 -97 79 -176 176 -176v80c53 0 96 43 96 96z" />
    <glyph glyph-name="uniF10B" unicode="&#xf10b;" horiz-adv-x="480" 
d="M0 264c0 13 11 24 25 24h71v-192h-71c-14 0 -25 11 -25 24v144zM128 288l128 128h32v-448h-32l-128 128v0v192zM480 252l-60 -60l60 -60l-20 -20l-60 60l-60 -60l-20 20l60 60l-60 60l20 20l60 -60l60 60z" />
    <glyph glyph-name="uniF10C" unicode="&#xf10c;" horiz-adv-x="340" 
d="M0 264c0 13 11 24 25 24h71v-192h-71c-14 0 -25 11 -25 24v144zM314 265c16 -20 26 -45 26 -73s-10 -53 -26 -73l-2 2v41c3 9 5 19 5 30c0 10 -2 21 -5 30v41zM128 288l128 128h32v-448h-32l-128 128v0v192z" />
    <glyph glyph-name="uniF10D" unicode="&#xf10d;" horiz-adv-x="480" 
d="M312 263l2 2c16 -20 26 -45 26 -73s-10 -53 -26 -73l-2 2v41c3 9 5 19 5 30c0 10 -2 21 -5 30v41zM128 288l128 128h32v-448h-32l-128 128v0v192zM0 264c0 13 11 24 25 24h71v-192h-71c-14 0 -25 11 -25 24v144zM361 317c30 -33 49 -77 49 -125s-19 -92 -49 -125l-16 17
c26 29 42 66 42 108s-16 79 -42 108zM408 369c44 -46 72 -108 72 -177s-28 -131 -72 -177l-16 17c40 42 65 98 65 160s-25 118 -65 160z" />
    <glyph glyph-name="uniF10E" unicode="&#xf10e;" horiz-adv-x="405" 
d="M0 384v43h21v-43h-21zM0 299v42h21v-42h-21zM0 213v43h21v-43h-21zM0 128v43h21v-43h-21zM0 43v42h21v-42h-21zM0 -43v43h21v-43h-21zM384 384v43h21v-43h-21zM384 299v42h21v-42h-21zM384 213v43h21v-43h-21zM384 128v43h21v-43h-21zM384 43v42h21v-42h-21zM384 -43v43
h21v-43h-21zM341 448h22v-491h-43v-21h-43v21h-42v-21h-43v21h-43v-21h-42v21h-43v-21h-21v491h42v21h43v-21h43v21h42v-21h43v21h43v-21h42v21zM85 128v21h-21v-21h21zM85 192v21h-21v-21h21zM85 256v21h-21v-21h21zM299 0v85h-86v-85h86zM299 128v43h-192v-43h192z
M299 192v43h-192v-43h192zM299 256v43h-192v-43h192zM341 128v21h-21v-21h21zM341 192v21h-21v-21h21zM341 256v21h-21v-21h21zM235 21v43h42v-43h-42z" />
    <glyph glyph-name="uniF10F" unicode="&#xf10f;" horiz-adv-x="449" 
d="M449 223v-31h-19c1 -3 1 -7 1 -10c0 -41 -41 -84 -92 -84s-94 43 -94 84c0 3 0 8 1 11h-40c1 -3 1 -8 1 -11c0 -41 -41 -85 -92 -85s-93 44 -93 85c0 3 0 8 1 11h-23v30h33c15 24 46 34 82 34c37 0 67 -9 82 -33h58c15 24 46 33 83 33c36 0 69 -10 84 -34h27zM115 121
c39 0 70 30 70 61s-31 54 -70 54s-70 -23 -70 -54s31 -61 70 -61zM338 121c39 0 70 30 70 61s-31 54 -70 54s-69 -23 -69 -54s30 -61 69 -61z" />
    <glyph glyph-name="uniF110" unicode="&#xf110;" horiz-adv-x="416" 
d="M386 89c30 -15 30 -89 30 -89h-416s0 74 30 89c28 14 55 27 130 53c-26 19 -54 55 -71 125c0 82 53 149 119 149s119 -67 119 -149c1 -55 -34 -94 -64 -117c69 -26 96 -48 123 -61zM210 88c30 0 57 57 57 57l-29 9c39 15 59 60 59 113c0 66 -30 108 -75 108
c0 0 -20 -52 -41 -73c-30 -30 -62 -5 -62 -35c0 -61 20 -93 47 -108l-3 -25s17 -46 47 -46z" />
    <glyph glyph-name="uniF111" unicode="&#xf111;" horiz-adv-x="512" 
d="M43 405v-320h149v-42h-192v405h277l128 -128v-64h-42v64h-86v85h-234zM85 299v42h171v-42h-171zM85 235v42h200l-45 -42h-155zM85 213h150l-43 -42h-107v42zM363 160c41 0 74 -34 74 -75s-33 -74 -74 -74s-75 33 -75 74s34 75 75 75zM363 21c35 0 64 29 64 64
s-29 64 -64 64s-64 -29 -64 -64s29 -64 64 -64zM502 107c6 0 10 -8 10 -14v-15c0 -5 -4 -14 -10 -14h-21c-1 0 -4 -17 -7 -25l18 -8c5 -3 7 -9 4 -14l-8 -13c-3 -5 -8 -6 -13 -3l-19 10c-6 -7 -12 -13 -19 -19l11 -19c3 -5 1 -10 -4 -13l-13 -8c-5 -3 -10 -1 -13 4l-9 18
c-8 -3 -25 -6 -25 -7v-21c0 -6 -8 -10 -14 -10h-15c-5 0 -14 4 -14 10v21c0 1 -16 4 -24 7l-9 -18c-3 -5 -9 -7 -14 -4l-13 8c-5 3 -6 8 -3 13l10 19c-7 6 -13 12 -19 19l-18 -11c-5 -3 -11 -1 -14 4l-7 13c-3 5 -2 10 3 13l19 9c-3 8 -7 25 -8 25h-21c-5 0 -10 8 -10 14v15
c0 5 5 14 10 14h21c1 0 5 16 8 24l-19 9c-5 3 -6 9 -3 14l7 12c3 5 9 7 14 4l18 -10c6 7 12 13 19 19l-10 18c-3 5 -2 11 3 14l13 7c5 3 10 2 13 -3l10 -19c8 3 24 7 24 8v21c0 6 9 10 14 10h15c5 0 14 -4 14 -10v-21c0 -1 17 -5 25 -8l8 19c3 5 9 6 14 3l13 -7
c5 -3 6 -9 3 -14l-10 -18c7 -6 13 -12 19 -19l19 10c5 3 10 2 13 -3l8 -13c3 -5 1 -10 -4 -13l-18 -10c3 -8 6 -24 7 -24h21zM363 0c47 0 85 38 85 85s-38 86 -85 86s-86 -39 -86 -86s39 -85 86 -85z" />
    <glyph glyph-name="uniF112" unicode="&#xf112;" horiz-adv-x="480" 
d="M464 240c16 -8 16 -48 16 -48v-80h-95c-11 5 -24 11 -41 17c10 19 16 44 18 71h22l16 70l-16 5c21 8 32 32 32 61c0 35 -16 58 -40 58c0 0 -20 -16 -31 -27c-14 -14 -22 -15 -24 -27c-5 5 -10 9 -15 13c6 36 31 63 62 63c35 0 64 -36 64 -80c0 -32 -7 -59 -24 -72
c30 -11 43 -18 56 -24zM392 88c24 -12 24 -72 24 -72v-48h-336v48s0 60 24 72c11 6 23 11 40 18c-6 3 -11 6 -11 6l7 6l-17 4l7 3l-6 2c-17 -9 -41 -5 -41 -5l21 -10h-103l-1 80s0 40 16 48c11 6 23 12 45 20c-9 15 -6 22 -8 38c-1 11 -5 26 -5 38c0 44 29 80 64 80
c34 0 62 -33 64 -75c-6 -6 -13 -13 -18 -21c1 5 2 10 2 16c0 35 -16 58 -41 58c0 0 -19 -16 -30 -27c-16 -16 -25 -15 -25 -31c0 -33 11 -50 26 -58l-2 -14l8 -64h32l5 21c1 -20 7 -44 9 -61c1 -6 -1 -11 -2 -15c11 4 22 12 20 29c-2 16 -8 40 -8 58c0 66 43 120 96 120
s96 -54 96 -120c0 -48 -10 -89 -36 -108c45 -16 65 -26 84 -36zM272 28l24 105l-24 8c32 12 48 48 48 91c0 53 -24 87 -61 87c0 0 -16 -41 -33 -58c-24 -24 -50 -5 -50 -29c0 -49 16 -75 38 -87l-2 -21l12 -96h48zM141 283c-1 -4 -2 -7 -3 -11l-10 3c5 2 9 5 13 8z" />
    <glyph glyph-name="uniF113" unicode="&#xf113;" horiz-adv-x="469" 
d="M381 116c24 -12 24 -73 24 -73h-341s0 61 24 73c23 11 47 23 108 44c-21 15 -45 44 -59 102c0 67 44 122 98 122s97 -55 97 -122c1 -45 -27 -77 -52 -96c57 -21 79 -39 101 -50zM237 115c24 0 46 47 46 47l-24 7c33 12 49 49 49 93c0 54 -25 89 -62 89
c0 0 -16 -43 -33 -60c-24 -24 -51 -5 -51 -29c0 -50 16 -77 38 -89l-2 -21s15 -37 39 -37zM0 448h469v-469h-469v469zM448 0v427h-427v-427h427z" />
    <glyph glyph-name="uniF114" unicode="&#xf114;" 
d="M224 416c124 0 224 -100 224 -224c0 -101 -67 -187 -160 -215v182l64 1l-128 128h96v32h-192v-32h96l-128 -128l64 -1v-182c-93 28 -160 114 -160 215c0 124 100 224 224 224z" />
    <glyph glyph-name="uniF115" unicode="&#xf115;" 
d="M288 224l46 31v0c-22 39 -62 65 -110 65c-71 0 -128 -57 -128 -128s57 -128 128 -128s128 57 128 128h96c0 -124 -100 -224 -224 -224s-224 100 -224 224s100 224 224 224c75 0 141 -37 182 -94v0l42 62v-160h-160z" />
    <glyph glyph-name="uniF116" unicode="&#xf116;" horiz-adv-x="412" 
d="M411 120c6 -26 -11 -51 -37 -57c-15 -3 -30 1 -41 11v0l-127 104l-126 -104v0c-11 -10 -27 -14 -42 -11c-26 6 -43 31 -37 57c3 13 10 23 20 30l155 128l1 -1c6 5 11 8 19 10c15 3 29 -1 40 -10v1l156 -128c10 -7 16 -17 19 -30z" />
    <glyph glyph-name="uniF117" unicode="&#xf117;" 
d="M133 274l26 -19c-10 -13 -15 -29 -15 -47c0 -12 2 -23 7 -33l-22 -27c-11 17 -17 38 -17 60c0 25 8 48 21 66zM163 189c-2 6 -3 12 -3 19c0 14 4 26 12 37l24 -17zM265 312l-22 -27c-6 2 -12 3 -19 3s-14 -1 -20 -3l-8 31c9 2 18 4 28 4c15 0 28 -3 41 -8zM90 101
c-42 26 -74 63 -90 107c30 83 116 144 224 144c24 0 46 -4 67 -9l-15 -18c-17 4 -34 6 -52 6c-91 0 -173 -56 -202 -123c15 -35 44 -66 82 -89zM208 270c5 1 10 2 16 2c3 0 5 -1 7 -1l-18 -21zM246 148l41 49c-4 -23 -20 -41 -41 -49zM375 303c34 -25 60 -57 73 -95
c-30 -83 -116 -144 -224 -144c-15 0 -31 2 -45 4l16 19c10 -1 19 -2 29 -2c91 0 173 56 202 123c-13 29 -36 57 -65 78zM204 98l26 31c41 3 74 37 74 79c0 3 -1 6 -1 9l26 30c5 -12 7 -25 7 -39c0 -62 -50 -112 -112 -112c-7 0 -14 1 -20 2zM368 400l32 -32l-320 -384
l-32 32z" />
    <glyph glyph-name="uniF118" unicode="&#xf118;" horiz-adv-x="427" 
d="M213 128v-128v0v-21l22 -43h-235v512h320v-277l-64 42v22h-192v-43h171l-22 -21h-149v-43h149zM43 128v21h-22v-21h22zM43 192v21h-22v-21h22zM43 256v21h-22v-21h22zM256 256v43h-192v-43h192zM299 256v21h-22v-21h22zM235 128l21 43l64 -43v-128l-64 -43l-21 43l64 64z
M427 128l-64 -64l64 -64l-22 -43l-64 43v128l64 43z" />
    <glyph glyph-name="uniF119" unicode="&#xf119;" 
d="M100 100l6 42l-106 111l151 28l73 135l44 -82zM448 253l-106 -111l20 -152l-138 67l-56 -27l174 243zM372 425l26 -19l-320 -448l-26 19z" />
    <glyph glyph-name="uniF11A" unicode="&#xf11a;" horiz-adv-x="384" 
d="M128 336v-32l-32 32c0 44 36 80 80 80s80 -36 80 -80v-160l-32 32v128c0 26 -22 48 -48 48s-48 -22 -48 -48zM320 320v-208l-32 32v176h32zM160 272v16h32v-48zM160 144l32 -32v-32c0 -9 7 -16 16 -16s16 7 16 16l25 -25c-8 -14 -24 -23 -41 -23c-26 0 -48 22 -48 48v64z
M208 -32c35 0 64 22 75 53l24 -24c-19 -36 -56 -61 -99 -61c-62 0 -112 50 -112 112v160l32 -32v-128c0 -44 36 -80 80 -80zM32 368l352 -352l-32 -32l-352 352z" />
    <glyph glyph-name="uniF11B" unicode="&#xf11b;" horiz-adv-x="480" 
d="M160 267h-21l-64 -43l53 192h262l82 -311h-82l-59 247h-150zM288 96h192v-128h-320v43h107h21v0v85zM137 245l23 43h192l20 -43h-235zM160 203v-43h213v43zM267 117v-85l-129 1v-81l-138 130l138 130l1 -95h128z" />
    <glyph glyph-name="uniF11C" unicode="&#xf11c;" horiz-adv-x="512" 
d="M467 154l33 -58l1 -2l1 -1v-1c0 -1 1 0 2 -2c1 -1 1 -2 1 -3l1 -3l1 -2c0 -1 0 -2 1 -4c0 -1 1 -3 1 -4s1 -3 1 -5c0 -1 1 -2 1 -4v-3l1 -3v-1v-5v-5s-1 -3 -1 -5c-1 -5 -1 -10 -3 -15c-1 -3 -2 -5 -3 -8c0 -1 -1 -3 -2 -4c0 -1 -1 -1 -2 -3c-1 -1 -1 -2 -2 -4
c-1 -1 -1 -2 -2 -4c-2 -4 -5 -7 -7 -9l-3 -3s-4 -4 -7 -6c-1 -1 -3 -2 -3 -2c-3 -3 -7 -5 -9 -6c-1 0 -2 -1 -2 -1l-2 -1l-2 -1l-3 -1l-1 -1c-3 -1 -7 -2 -10 -3l-8 -2h-3h-2l-8 -1h-220c-5 3 -9 6 -13 10c-6 6 -11 13 -15 20s-7 14 -9 22c-2 6 -2 13 -2 20c0 14 3 28 10 40
h179c24 0 46 8 66 21c6 4 12 9 17 14c9 9 16 19 22 30c2 3 4 6 5 9zM256 431c15 0 30 -5 43 -12c2 -1 3 -2 5 -3s3 -2 5 -4s4 -3 6 -5c6 -6 11 -12 15 -19h1l64 -112l48 -81v-4c-1 -11 -4 -22 -9 -32c-4 -8 -9 -14 -16 -21c-4 -4 -9 -8 -13 -11c-14 -10 -31 -15 -48 -15h-5
l-29 51l-23 40l-30 52l-9 15c-10 18 -25 33 -43 43c-17 10 -38 15 -60 15h-12l36 61c1 1 1 1 2 3c3 5 7 9 11 13c1 1 2 3 4 4c1 1 3 2 4 3c2 1 3 3 5 4s4 2 5 3l1 1c3 1 6 3 9 4l2 1l2 1h2c3 1 7 2 11 3c3 1 7 1 10 1l6 1zM160 296c15 0 29 -4 42 -11s23 -18 31 -31l4 -7
l-25 -44l-23 -41l-34 -57l-4 -6c-10 -18 -15 -39 -15 -59c0 -10 1 -19 3 -28c3 -11 7 -21 12 -30c3 -5 6 -10 9 -14h-74c-3 0 -6 1 -9 1h-2h-2c-3 1 -6 1 -9 2l-9 3l-2 1l-2 1l-3 1l-3 1c-4 2 -8 4 -10 6l-3 3l-8 7c0 1 -1 1 -1 1l-9 11c-1 1 -1 2 -1 2v0l-9 21
c-1 5 -2 9 -3 14c0 2 -1 3 -1 5v6v4l1 4v0v4s1 2 1 4c0 1 1 3 1 4s0 3 1 5c0 1 1 2 1 3l1 2l1 3c0 1 0 2 1 3l1 1l1 2l1 1v1v1l60 102l53 91c11 5 22 7 34 7h2z" />
    <glyph glyph-name="uniF11D" unicode="&#xf11d;" 
d="M387 416c34 0 61 -27 61 -61v-326c0 -34 -27 -61 -61 -61h-326c-34 0 -61 27 -61 61v326c0 34 27 61 61 61h326zM240 128c-27 0 -48 32 -48 32v32h110h2c26 0 48 21 48 48s-22 48 -48 48h-4h-108v12v3c0 26 -21 47 -48 47s-48 -23 -48 -50v-6v-134v0
c0 -64 65 -128 144 -128h59h5c26 0 48 21 48 48s-22 48 -48 48h-64z" />
    <glyph glyph-name="uniF11E" unicode="&#xf11e;" horiz-adv-x="512" 
d="M17 425h377l-17 -89h-133l-51 -266h-98l51 266h-146zM346 225l-34 -177h149l-17 -89h-244l68 355h244l-17 -89h-149z" />
    <glyph glyph-name="uniF11F" unicode="&#xf11f;" horiz-adv-x="225" 
d="M217 204c10 -6 9 -18 0 -24c-11 -6 -183 -107 -196 -114c-9 -5 -21 1 -21 13v226c0 11 11 18 22 12c9 -5 180 -104 195 -113z" />
    <glyph glyph-name="uniF120" unicode="&#xf120;" horiz-adv-x="341" 
d="M187 52c-8 -13 -25 -13 -33 0c-8 14 -142 245 -151 262c-7 12 0 28 16 28h302c14 0 25 -15 17 -29c-7 -12 -140 -241 -151 -261z" />
    <glyph glyph-name="uniF121" unicode="&#xf121;" horiz-adv-x="300" 
d="M290 209c13 -9 13 -25 0 -34c-15 -9 -245 -143 -262 -152c-11 -6 -28 3 -28 18v302c0 15 15 24 30 18c11 -6 241 -141 260 -152z" />
    <glyph glyph-name="uniF122" unicode="&#xf122;" horiz-adv-x="341" 
d="M187 51c-9 -13 -26 -13 -32 0c-9 15 -143 246 -152 263c-9 13 0 27 15 27h303c15 0 26 -12 17 -27c-6 -13 -140 -244 -151 -263z" />
    <glyph glyph-name="uniF123" unicode="&#xf123;" horiz-adv-x="417" 
d="M62 1c-8 82 -30 287 -30 287h353s-24 -207 -30 -288c-2 -32 -34 -32 -34 -32h-226c2 0 -30 0 -33 33zM297 241l-20 -223c-1 -9 6 -17 15 -18s16 6 17 15l20 223c1 9 -6 16 -15 17s-16 -5 -17 -14zM193 240v-224c0 -9 7 -16 16 -16s16 7 16 16v224c0 9 -7 16 -16 16
s-16 -7 -16 -16zM100 255c-9 -1 -16 -8 -15 -17l20 -223c1 -9 8 -16 17 -15s16 9 15 18l-20 223c-1 9 -8 15 -17 14zM302 338h115v-32h-417v32h110c0 35 43 64 96 64s96 -29 96 -64zM143 338h126c-3 22 -30 39 -63 39s-60 -17 -63 -39z" />
    <glyph glyph-name="uniF124" unicode="&#xf124;" 
d="M384 352c35 0 64 -29 64 -64v-192c0 -35 -29 -64 -64 -64h-166l54 48l-54 48h134c18 0 32 14 32 32v64c0 18 -14 32 -32 32h-32v-32l-96 80l96 80v-32h64zM224 80l-96 -80v32h-64c-35 0 -64 29 -64 64v192c0 35 29 64 64 64h166l-54 -48l54 -48h-134
c-18 0 -32 -14 -32 -32v-64c0 -18 14 -32 32 -32h32v32z" />
    <glyph glyph-name="uniF125" unicode="&#xf125;" 
d="M253 115l-69 72v141h48v-124l55 -55zM224 416c124 0 224 -100 224 -224s-100 -224 -224 -224s-224 100 -224 224s100 224 224 224zM224 16c97 0 176 79 176 176s-79 176 -176 176s-176 -79 -176 -176s79 -176 176 -176z" />
    <glyph glyph-name="uniF126" unicode="&#xf126;" horiz-adv-x="456" 
d="M239 276c66 -25 113 -89 113 -164c0 -97 -79 -176 -176 -176s-176 79 -176 176c0 75 47 139 113 164c3 -20 30 -36 63 -36s60 16 63 36zM96 128c18 0 32 14 32 32s-14 32 -32 32s-32 -14 -32 -32s14 -32 32 -32zM456 384l-27 -32l27 -32l-41 8l-2 -6
c-6 -28 -21 -66 -61 -66c-96 0 -64 128 -128 128c-17 0 -25 -18 -29 -35c17 -5 29 -16 29 -29v-32c0 -18 -22 -32 -48 -32s-48 14 -48 32v32c0 15 15 27 35 31c6 28 21 65 61 65c96 0 48 -128 128 -128c18 0 26 21 29 39l-35 -7l27 32l-27 32l41 -8l14 40l14 -40zM408 340
l21 -4l-14 16l14 16l-21 -4l-7 20l-7 -20l-21 4l14 -16l-14 -16l21 4l7 -20z" />
    <glyph glyph-name="uniF127" unicode="&#xf127;" horiz-adv-x="434" 
d="M176 304l40 -48l172 186l46 -38l-206 -268l-104 136zM352 128v-32h-288v32h288zM64 32v32h288v-32h-288zM384 0v288h32v-320h-416v382h224v-32h-192v-318h352z" />
    <glyph glyph-name="uniF128" unicode="&#xf128;" horiz-adv-x="512" 
d="M192 320v43h150v-43h-150zM299 256v43h128v-43h-128zM320 192v43h107v-43h-107zM384 448l128 -128v-277h-170l-22 42h150v235h-86v85h-234v-106h-43v149h277zM320 0c25 -13 22 -64 22 -64h-342s-3 51 22 64c12 6 21 12 36 19c-8 4 -13 7 -13 7l7 6l-17 5l7 3l-13 5l11 4
l-18 8s55 -6 51 34c-2 17 -8 43 -8 61c0 69 44 125 100 125s101 -56 101 -125c0 -50 -10 -94 -37 -114c48 -17 71 -28 91 -38zM191 -21l22 93c15 18 23 41 23 72c0 56 -24 91 -63 91c0 0 -18 -45 -35 -62c-25 -25 -52 -4 -52 -29c0 -55 19 -80 45 -91l10 -74h50z" />
    <glyph glyph-name="uniF129" unicode="&#xf129;" 
d="M224 288c53 0 96 -43 96 -96s-43 -96 -96 -96s-96 43 -96 96s43 96 96 96zM224 128c35 0 64 29 64 64s-29 64 -64 64s-64 -29 -64 -64s29 -64 64 -64zM224 416c124 0 224 -100 224 -224s-100 -224 -224 -224s-224 100 -224 224s100 224 224 224zM224 0
c106 0 192 86 192 192s-86 192 -192 192s-192 -86 -192 -192s86 -192 192 -192zM224 352c88 0 160 -72 160 -160s-72 -160 -160 -160s-160 72 -160 160s72 160 160 160zM224 64c71 0 128 57 128 128s-57 128 -128 128s-128 -57 -128 -128s57 -128 128 -128zM224 224
c18 0 32 -14 32 -32s-14 -32 -32 -32s-32 14 -32 32s14 32 32 32z" />
    <glyph glyph-name="uniF12A" unicode="&#xf12a;" horiz-adv-x="525" 
d="M333 416h192v-192l-256 -256l-192 192zM461 320c18 0 32 14 32 32s-14 32 -32 32s-32 -14 -32 -32s14 -32 32 -32zM301 416l-256 -256l169 -170l-22 -22l-192 192l256 256h45z" />
    <glyph glyph-name="uniF12B" unicode="&#xf12b;" 
d="M256 416h192v-192l-256 -256l-192 192zM384 320c18 0 32 14 32 32s-14 32 -32 32s-32 -14 -32 -32s14 -32 32 -32z" />
    <glyph glyph-name="uniF12C" unicode="&#xf12c;" 
d="M0 416h448v-448h-448v448zM160 352v-64h128v64h-128zM160 256v-64h128v64h-128zM160 160v-64h128v64h-128zM128 0v64h-96v-64h96zM128 96v64h-96v-64h96zM128 192v64h-96v-64h96zM128 288v64h-96v-64h96zM160 0h128v64h-128v-64zM416 0v64h-96v-64h96zM416 96v64h-96v-64
h96zM416 192v64h-96v-64h96zM416 288v64h-96v-64h96z" />
    <glyph glyph-name="uniF12D" unicode="&#xf12d;" 
d="M160 56h128v-56h-128v56zM304 32h16l32 -64h-256l32 64h16v-48h160v48zM0 416h448v-352h-448v352zM416 128v256h-384v-256h384zM224 240c56 0 102 -42 110 -96h-16c-8 45 -46 80 -94 80s-86 -35 -94 -80h-16c8 54 54 96 110 96zM224 256c-65 0 -118 -49 -126 -112h-50v15
c2 12 5 24 9 35l-9 5v57c3 0 5 0 8 -1l28 -16c9 11 18 21 29 30l-16 27c-4 7 -2 16 5 20l20 12c7 4 16 1 20 -6l16 -27c13 5 26 8 40 10v32c0 8 7 15 15 15h22c8 0 15 -7 15 -15v-32c14 -2 27 -5 40 -10l16 27c4 7 13 10 20 6l20 -12c7 -4 9 -13 5 -20l-16 -27
c11 -9 21 -19 30 -30l27 16c3 1 5 1 8 1v-57l-9 -5c4 -11 7 -23 9 -35v-15h-50c-8 63 -61 112 -126 112z" />
    <glyph glyph-name="uniF12E" unicode="&#xf12e;" horiz-adv-x="331" 
d="M331 533l-103 -192h-67l-161 -106l86 298h245zM161 341l-39 -106h-122zM331 341l-267 -320h-21l79 214l39 106h170z" />
    <glyph glyph-name="uniF12F" unicode="&#xf12f;" horiz-adv-x="320" 
d="M288 352c18 0 32 -14 32 -32v-256c0 -18 -14 -32 -32 -32h-256c-18 0 -32 14 -32 32v256c0 18 14 32 32 32h256z" />
    <glyph glyph-name="uniF130" unicode="&#xf130;" horiz-adv-x="445" 
d="M422 378c27 -11 29 -73 11 -126c-22 -66 -86 -109 -86 -109l-85 45s5 77 50 129c38 44 87 70 110 61zM326 109c0 0 16 4 -18 -34c-52 -58 -114 -29 -87 48c13 37 21 37 21 37zM112 45c0 0 16 5 -18 -33c-52 -58 -114 -29 -87 48c13 37 21 37 21 37zM208 315
c27 -11 29 -73 11 -126c-22 -66 -86 -110 -86 -110l-85 46s5 77 50 129c38 44 87 70 110 61z" />
    <glyph glyph-name="uniF131" unicode="&#xf131;" horiz-adv-x="486" 
d="M160 416l14 -64h-64l-14 64h64zM124 288h64l14 -64h-64zM166 96l-14 64h64l14 -64h-64zM252 288h-64l-14 64h64zM202 224h64l14 -64h-64zM288 416l14 -64h-64l-14 64h64zM252 288h64l14 -64h-64zM294 96l-14 64h64l14 -64h-64zM380 288h-64l-14 64h64zM330 224h64l14 -64
h-64zM416 416l14 -64h-64l-14 64h64zM458 224h-64l-14 64h64zM472 160l14 -64h-64l-14 64h64zM60 288l14 -64h64l14 -64h-64l42 -192h-32l-98 448h32l14 -64h64l14 -64h-64z" />
    <glyph glyph-name="uniF132" unicode="&#xf132;" horiz-adv-x="481" 
d="M32 1h75c8 -12 17 -23 28 -33h-135v448h448v-128c-10 10 -21 19 -32 27v37h-95c-10 2 -21 3 -32 3s-22 -1 -32 -3h-225v-351zM32 385h384v-1h-384v1zM224 34v30h128v-30h-128zM384 192v-30h-192v30h192zM289 322c106 0 192 -86 192 -192s-86 -192 -192 -192
s-192 86 -192 192s86 192 192 192zM289 -30c88 0 160 72 160 160s-72 160 -160 160s-160 -72 -160 -160s72 -160 160 -160zM448 -32h-5l5 5v-5zM178 97v32h222v-32h-222zM320 256v-30h-64v30h64z" />
    <glyph glyph-name="uniF133" unicode="&#xf133;" horiz-adv-x="512" 
d="M33 405h479v-82v-348v-39h-479h-16h-17v387v82h33zM341 363v-43h43v43h-43zM256 363v-43h43v43h-43zM469 -21v298h-426v-298h426zM469 320v43h-42v-43h42z" />
    <glyph glyph-name="uniF134" unicode="&#xf134;" horiz-adv-x="505" 
d="M121 178v19c-8 1 -17 4 -25 7l-9 -17c-3 -4 -9 -7 -13 -4l-12 7c-4 3 -6 9 -3 13l10 17c-7 5 -13 10 -18 17l-17 -9c-4 -3 -10 -1 -12 3l-7 12c-3 4 -1 9 3 12l17 10c-3 8 -6 16 -7 24h-19c-5 0 -9 4 -9 9v14c0 5 4 9 9 9h19c1 8 4 17 7 25l-17 9c-4 3 -6 9 -3 13l7 11
c3 4 8 7 12 4l17 -10c5 7 11 13 18 18l-10 17c-3 4 -1 10 3 12l12 7c4 3 10 1 13 -3l9 -17c8 3 17 5 25 6v20c0 5 4 9 9 9h14c5 0 9 -4 9 -9v-20c8 -1 16 -3 24 -6l10 17c3 4 8 6 12 3l12 -7c4 -3 6 -8 3 -12l-9 -17c7 -5 12 -11 17 -18l17 10c4 3 11 0 13 -4l6 -11
c3 -4 1 -10 -3 -13l-17 -9c3 -8 6 -17 7 -25h19c5 0 9 -4 9 -9v-14c0 -5 -4 -9 -9 -9h-19c-1 -8 -4 -16 -7 -24l17 -10c4 -3 6 -8 3 -12l-6 -12c-2 -4 -9 -6 -13 -3l-17 9c-5 -7 -10 -12 -17 -17l9 -17c3 -4 1 -11 -3 -13l-12 -7c-4 -3 -9 0 -12 4l-10 17
c-8 -3 -16 -6 -24 -7v-19c0 -5 -4 -9 -9 -9h-14c-5 0 -9 4 -9 9zM65 306c0 -40 32 -72 72 -72s72 32 72 72s-32 72 -72 72s-72 -32 -72 -72zM497 221c4 0 8 -3 8 -7v-11c0 -4 -4 -8 -8 -8h-16c-1 -7 -2 -14 -5 -20l14 -8c4 -2 5 -6 3 -10l-6 -10c-2 -4 -6 -4 -10 -2l-14 8
c-4 -5 -10 -11 -15 -15l8 -14c2 -4 2 -8 -2 -10l-10 -6c-4 -2 -8 -1 -10 3l-8 14c-6 -2 -13 -4 -20 -5v-16c0 -4 -4 -8 -8 -8h-11c-4 0 -7 4 -7 8v16c-7 1 -14 3 -20 5l-8 -14c-2 -4 -6 -5 -10 -3l-10 6c-4 2 -5 6 -3 10l8 14c-5 4 -11 10 -15 15l-13 -8c-4 -2 -9 -2 -11 2
l-5 10c-2 4 -1 8 3 10l13 8c-3 6 -4 13 -5 20h-16c-4 0 -7 4 -7 8v11c0 4 3 7 7 7h16c1 7 2 14 5 20l-13 8c-4 2 -5 6 -3 10l5 10c2 4 7 5 11 3l13 -8c4 5 10 10 15 14l-8 14c-2 4 -1 8 3 10l10 6c4 2 8 1 10 -3l8 -13c6 2 13 4 20 5v16c0 4 3 7 7 7h11c4 0 8 -3 8 -7v-16
c7 -1 14 -3 20 -5l8 13c2 4 6 5 10 3l10 -6c4 -2 4 -6 2 -10l-8 -14c5 -4 11 -9 15 -14l14 8c4 2 8 1 10 -3l6 -10c2 -4 1 -8 -3 -10l-14 -8c3 -6 4 -13 5 -20h16zM393 151c31 0 57 26 57 57s-26 57 -57 57s-57 -26 -57 -57s26 -57 57 -57zM290 60c4 0 7 -3 7 -6v-10
c0 -4 -3 -6 -7 -6h-13c-1 -6 -3 -12 -5 -17l12 -7c3 -2 4 -6 2 -9l-5 -8c-2 -3 -5 -4 -8 -2l-12 7c-4 -5 -8 -9 -13 -13l7 -12c2 -3 1 -6 -2 -8l-9 -5c-3 -2 -6 -1 -8 2l-7 12c-5 -2 -11 -4 -17 -5v-13c0 -4 -3 -7 -7 -7h-9c-4 0 -7 3 -7 7v13c-6 1 -12 3 -17 5l-6 -12
c-2 -3 -6 -4 -9 -2l-8 5c-3 2 -5 5 -3 8l7 12c-5 4 -9 8 -13 13l-11 -7c-3 -2 -7 -1 -9 2l-5 8c-2 3 -1 7 2 9l12 7c-2 5 -3 11 -4 17h-14c-4 0 -6 2 -6 6v10c0 4 2 6 6 6h14c1 6 2 13 4 18l-12 6c-3 2 -4 6 -2 9l5 8c2 3 6 5 9 3l11 -7c4 5 8 9 13 13l-7 11c-2 3 0 7 3 9
l8 5c3 2 7 0 9 -3l6 -11c5 2 11 3 17 4v14c0 4 3 6 7 6h10c4 0 6 -2 6 -6v-14c6 -1 12 -2 17 -4l7 11c2 3 6 5 9 3l8 -5c3 -2 4 -6 2 -9l-7 -12c5 -4 9 -7 13 -12l12 7c3 2 6 0 8 -3l5 -8c2 -3 1 -7 -2 -9l-12 -6c2 -5 4 -12 5 -18h13zM201 0c27 0 49 22 49 49
s-22 49 -49 49s-49 -22 -49 -49s22 -49 49 -49z" />
    <glyph glyph-name="uniF135" unicode="&#xf135;" horiz-adv-x="449" 
d="M58 80v1l56 -54l-83 -28v0h-1l28 82v-1zM333 383c64 0 116 -52 116 -117c0 -8 -1 -16 -2 -23l-3 -9c-1 -4 -2 -8 -4 -12s-3 -8 -5 -11s-3 -5 -5 -8c-2 -4 -4 -7 -7 -10c-2 -2 -3 -4 -5 -6v0v0c0 29 -10 133 -140 174c-4 0 -22 -15 -22 -15s142 -21 140 -187v1
c-6 -66 -49 -122 -109 -146h-1c-9 -4 -20 -7 -30 -9h-2c-10 -2 -20 -3 -31 -3c-12 0 -24 1 -35 3v0c-11 2 -22 6 -32 10h-1c-10 4 -20 10 -29 16v0c-9 6 -18 13 -26 21v0c-32 31 -51 74 -52 121v0c-1 0 -1 2 -2 2c4 151 147 173 147 173s-19 14 -23 14
c-126 -39 -143 -134 -146 -165c-7 10 -13 20 -17 32c-1 2 -1 3 -2 5l-3 12c-1 7 -2 14 -2 21c0 65 52 117 116 117c22 0 43 -7 61 -18c1 -1 3 -1 4 -2c3 -2 5 -4 7 -6c3 -3 7 -5 10 -8v0c8 1 17 2 25 2c10 0 19 -1 28 -3v0c1 1 2 1 3 2c5 4 9 9 14 13c1 1 2 1 3 1
c5 4 11 6 17 9c3 1 5 2 8 3c4 2 9 3 14 4c8 2 15 2 23 2zM289 192v0h-64v95h-31v-95h-1v-32h96v32zM335 27l55 54l28 -82z" />
    <glyph glyph-name="uniF136" unicode="&#xf136;" 
d="M112 352c9 0 16 -7 16 -16h-96c0 9 7 16 16 16h64zM256 288c53 0 96 -43 96 -96s-43 -96 -96 -96s-96 43 -96 96s43 96 96 96zM240 192c9 0 16 7 16 16s-7 16 -16 16s-16 -7 -16 -16s7 -16 16 -16zM384 320c35 0 64 -29 64 -64v-160c0 -35 -29 -64 -64 -64h-261
c-6 -9 -15 -16 -27 -16h-64c-18 0 -32 14 -32 32v208c0 35 29 64 64 64h96c0 26 22 64 48 64h96c26 0 48 -38 48 -64h32zM112 88v192c0 4 -4 8 -8 8s-8 -4 -8 -8v-192c0 -4 4 -8 8 -8s8 4 8 8zM256 64c71 0 128 57 128 128s-57 128 -128 128s-128 -57 -128 -128
s57 -128 128 -128z" />
    <glyph glyph-name="uniF137" unicode="&#xf137;" horiz-adv-x="491" 
d="M87 427h-45c-18 0 -42 -14 -42 -32v-45v-414h413h35c18 0 43 3 43 21v69v401h-404zM102 405h367v-364v-62c0 -16 -12 -22 -28 -22h-41h-379v379v41c0 16 24 28 40 28h41zM149 85h192v192h-192v-192z" />
    <glyph glyph-name="uniF138" unicode="&#xf138;" 
d="M411 415c24 -47 37 -102 37 -159c0 -159 -100 -288 -224 -288s-224 129 -224 288c0 57 13 112 37 159l6 12l13 -4c46 -14 106 -22 168 -22s122 8 168 22l13 4zM224 -0c106 0 192 115 192 256c0 47 -10 93 -28 133c-47 -13 -104 -20 -164 -20s-117 7 -164 20
c-18 -40 -28 -86 -28 -133c0 -141 86 -256 192 -256zM87 348c39 -11 87 -16 137 -16v0v-306h-1c-88 0 -159 95 -159 212c0 39 8 77 23 110z" />
    <glyph glyph-name="uniF139" unicode="&#xf139;" horiz-adv-x="512" 
d="M495 222c9 0 17 -8 17 -17v-26c0 -10 -8 -17 -17 -17h-36c-2 -16 -7 -31 -13 -45l32 -19c8 -5 11 -15 6 -23l-13 -22c-5 -8 -15 -11 -23 -6l-32 18c-10 -12 -21 -24 -33 -34l18 -31c5 -8 2 -18 -6 -23l-22 -13c-8 -5 -18 -2 -23 6l-19 32c-14 -6 -29 -11 -45 -13v-36
c0 -9 -7 -17 -17 -17h-26c-9 0 -17 8 -17 17v36c-16 2 -31 7 -45 13l-19 -32c-5 -8 -15 -11 -23 -6l-22 13c-8 5 -11 15 -6 23l18 31c-12 10 -24 22 -34 34l-31 -18c-8 -5 -18 -2 -23 6l-13 22c-5 8 -2 18 6 23l32 19c-6 14 -11 29 -13 45h-36c-9 0 -17 7 -17 17v26
c0 9 8 17 17 17h36c2 16 7 31 13 45l-32 19c-8 5 -11 15 -6 23l13 22c5 8 15 11 23 6l31 -18c10 12 22 24 34 34l-18 31c-5 8 -2 18 6 23l22 13c8 5 18 2 23 -6l19 -32c14 6 29 11 45 13v36c0 9 8 17 17 17h26c9 0 17 -8 17 -17v-36c16 -2 31 -7 45 -13l19 32
c5 8 15 11 23 6l22 -13c8 -5 11 -15 6 -23l-18 -31c12 -10 23 -22 33 -34l32 18c8 5 18 2 23 -6l13 -22c5 -8 2 -18 -6 -23l-32 -19c6 -14 11 -29 13 -45h36zM256 64c71 0 128 57 128 128s-57 128 -128 128s-128 -57 -128 -128s57 -128 128 -128z" />
    <glyph glyph-name="uniF13A" unicode="&#xf13a;" horiz-adv-x="469" 
d="M43 384v-341h128v-43h-171v427h242l-1 -3l122 -117v-94h-43v86h-85v85h-192zM277 43c8 0 15 1 22 4c13 -12 21 -28 21 -47c0 -35 -29 -64 -64 -64s-64 29 -64 64c0 28 18 51 42 60c11 -11 26 -17 43 -17zM363 128c0 -1 -1 -3 -1 -4c-23 -8 -40 -30 -42 -56
c-7 -2 -13 -4 -21 -4c-35 0 -64 29 -64 64s29 64 64 64s64 -29 64 -64zM341 43c0 43 21 64 64 64s64 -21 64 -64s-21 -64 -64 -64s-64 21 -64 64z" />
    <glyph glyph-name="uniF13B" unicode="&#xf13b;" horiz-adv-x="459" 
d="M139 160c11 0 22 2 32 5c1 -23 -2 -41 10 -58c-2 -52 -33 -96 -85 -96c-53 0 -96 43 -96 96c0 39 23 72 56 87c21 -21 51 -34 83 -34zM267 299c0 -13 -3 -25 -7 -36c-37 -9 -66 -35 -80 -69c-6 -1 -13 -2 -20 -2c-59 0 -107 48 -107 107s48 106 107 106s107 -47 107 -106
zM245 107c0 71 36 106 107 106s107 -35 107 -106s-36 -107 -107 -107s-107 36 -107 107z" />
    <glyph glyph-name="uniF13C" unicode="&#xf13c;" horiz-adv-x="320" 
d="M0 448h320v-512h-320v512zM43 128v21h-22v-21h22zM43 192v21h-22v-21h22zM43 256v21h-22v-21h22zM256 0v85h-85v-85h85zM256 128v43h-192v-43h192zM256 192v43h-192v-43h192zM256 256v43h-192v-43h192zM299 128v21h-22v-21h22zM299 192v21h-22v-21h22zM299 256v21h-22
v-21h22zM192 21v43h43v-43h-43z" />
    <glyph glyph-name="uniF13D" unicode="&#xf13d;" 
d="M224 144c-35 0 -64 29 -64 64c0 14 4 26 12 37l52 -37l-16 62c5 1 10 2 16 2c35 0 64 -29 64 -64s-29 -64 -64 -64zM224 352c108 0 194 -61 224 -144c-30 -83 -116 -144 -224 -144s-194 61 -224 144c30 83 116 144 224 144zM224 85c91 0 173 56 202 123
c-29 67 -111 123 -202 123s-173 -56 -202 -123c29 -67 111 -123 202 -123zM224 320c62 0 112 -50 112 -112s-50 -112 -112 -112s-112 50 -112 112c0 25 8 48 21 66l26 -19c-10 -13 -15 -29 -15 -47c0 -44 36 -80 80 -80s80 36 80 80s-36 80 -80 80c-7 0 -14 -1 -20 -3l-8 31
c9 2 18 4 28 4z" />
    <glyph glyph-name="uniF13E" unicode="&#xf13e;" horiz-adv-x="512" 
d="M304 448c115 0 208 -93 208 -208s-93 -208 -208 -208c-42 0 -82 12 -115 34v-1l-117 -117c-16 -17 -43 -17 -60 0s-17 43 0 60s100 101 117 117l1 1c-22 33 -34 72 -34 114c0 115 93 208 208 208zM304 112c71 0 128 57 128 128s-57 128 -128 128s-128 -57 -128 -128
s57 -128 128 -128z" />
    <glyph glyph-name="uniF13F" unicode="&#xf13f;" horiz-adv-x="512" 
d="M144 240v16h224v-16h-224zM352 31c0 -23 22 -54 48 -63h-348s1 5 -2 2c-27 8 -50 37 -50 61v33h352v-33zM144 176v16h224v-16h-224zM480 416c0 0 -32 -25 -32 -63v-2v-318c0 -29 -17 -51 -26 -60c-10 6 -20 16 -27 27h1s20 22 20 56v272v2c0 33 11 54 11 54h-312
s-19 -13 -19 -46v-242h-32v257c0 38 32 63 32 63h384zM144 112v16h224v-16h-224zM483 402c17 -13 29 -32 29 -49v-65h-48v64c0 22 10 39 19 50zM368 320v-16h-224v16h224z" />
    <glyph glyph-name="uniF140" unicode="&#xf140;" horiz-adv-x="512" 
d="M480 416c0 0 -32 -25 -32 -63v-2v-318c0 -29 -17 -51 -26 -60c-10 6 -20 16 -27 27h1s20 22 20 56v272v2c0 33 11 54 11 54h-171v-32h32v-32h-32v-32h32v-32h-32v-32h32v-96c0 -18 -14 -32 -32 -32h-32c-18 0 -32 14 -32 32v96v32h32v32h-32v32h32v32h-32v32h-77
s-19 -13 -19 -46v-242h-32v257c0 38 32 63 32 63h384zM272 140c0 9 -7 12 -16 12h-32c-9 0 -16 -3 -16 -12s7 -12 16 -12h32c9 0 16 3 16 12zM483 402c17 -13 29 -32 29 -49v-65h-48v64c0 22 10 39 19 50zM352 31c0 -23 22 -54 48 -63h-348s1 5 -2 2c-27 8 -50 37 -50 61v33
h352v-33z" />
    <glyph glyph-name="uniF141" unicode="&#xf141;" 
d="M352 416l96 -96v-352h-448v448h352zM96 400v-112h224v112h-224zM384 0v224h-320v-224h320zM192 304v80h64v-80h-64zM336 48v-16h-224v16h224zM336 112v-16h-224v16h224zM336 176v-16h-224v16h224z" />
    <glyph glyph-name="uniF142" unicode="&#xf142;" horiz-adv-x="512" 
d="M256 448c141 0 256 -115 256 -256s-115 -256 -256 -256s-256 115 -256 256s115 256 256 256zM256 -21c118 0 213 95 213 213c0 101 -70 186 -164 208c-27 -67 51 -101 -6 -101s-95 56 -114 94c-83 -29 -142 -108 -142 -201c0 -118 95 -213 213 -213zM149 203
c0 21 11 32 32 32s32 -11 32 -32s-11 -32 -32 -32s-32 11 -32 32zM299 203c0 21 11 32 32 32s32 -11 32 -32s-11 -32 -32 -32s-32 11 -32 32zM256 107c48 0 59 -28 85 -64h-25c-22 22 -26 43 -60 42s-38 -20 -60 -43l-25 1c26 37 33 64 85 64z" />
    <glyph glyph-name="uniF143" unicode="&#xf143;" horiz-adv-x="512" 
d="M506 89c8 -5 8 -18 0 -23c-9 -6 -157 -97 -168 -103c-8 -5 -18 0 -18 11v208c0 10 10 17 19 11c7 -5 154 -96 167 -104zM33 451h479v-83v-216l-43 43v128h-426v-299h213v-43h-223h-16h-17v387v83h33zM299 365v43h-43v-43h43zM384 365v43h-43v-43h43zM469 365v43h-42v-43
h42z" />
    <glyph glyph-name="uniF144" unicode="&#xf144;" horiz-adv-x="383" 
d="M371 214c16 -10 16 -33 0 -43c-18 -11 -314 -155 -335 -167c-16 -9 -36 1 -36 21v335c0 18 19 32 37 21c15 -9 309 -152 334 -167z" />
    <glyph glyph-name="uniF145" unicode="&#xf145;" 
d="M387 416c34 0 61 -27 61 -61v-326c0 -34 -27 -61 -61 -61h-326c-34 0 -61 27 -61 61v326c0 34 27 61 61 61h326zM133 64c20 0 36 17 36 37s-16 36 -36 36s-37 -16 -37 -36s17 -37 37 -37zM206 64h54c0 91 -73 164 -164 164v-54c60 0 110 -50 110 -110zM297 64v0h55
c0 141 -115 256 -256 256v-55c111 0 201 -90 201 -201z" />
    <glyph glyph-name="uniF146" unicode="&#xf146;" horiz-adv-x="416" 
d="M343 416c41 0 73 -32 73 -73v-270c0 -41 -32 -73 -73 -73h-270c-41 0 -73 32 -73 73v270c0 41 32 73 73 73h270zM367 98v220c0 27 -22 49 -49 49h-220c-27 0 -49 -22 -49 -49v-220c0 -27 22 -49 49 -49h220c27 0 49 22 49 49zM171 196l123 122l49 -49l-123 -122l-49 -49
l-98 98l49 49z" />
    <glyph glyph-name="uniF147" unicode="&#xf147;" horiz-adv-x="416" 
d="M343 416c41 0 73 -32 73 -73v-270c0 -41 -32 -73 -73 -73h-270c-41 0 -73 32 -73 73v270c0 41 32 73 73 73h270zM367 98v220c0 27 -22 49 -49 49h-220c-27 0 -49 -22 -49 -49v-220c0 -27 22 -49 49 -49h220c27 0 49 22 49 49zM269 318l49 -49l-61 -61l61 -61l-49 -49
l-61 61l-61 -61l-49 49l61 61l-61 61l49 49l61 -61z" />
    <glyph glyph-name="uniF148" unicode="&#xf148;" horiz-adv-x="416" 
d="M343 384c41 0 73 -32 73 -73v-270c0 -41 -32 -73 -73 -73h-270c-41 0 -73 32 -73 73v270c0 41 32 73 73 73h270zM49 286v-220l269 269h-220c-27 0 -49 -22 -49 -49zM367 66v220l-269 -269h220c27 0 49 22 49 49z" />
    <glyph glyph-name="uniF149" unicode="&#xf149;" 
d="M387 416c34 0 61 -27 61 -61v-326c0 -34 -27 -61 -61 -61h-326c-34 0 -61 27 -61 61v326c0 34 27 61 61 61h326zM373 29v30c-1 19 -70 50 -97 60v17h-11c-1 6 -2 14 -3 17c10 10 25 42 32 78c1 -6 2 -10 4 -10c3 0 7 16 8 28s-1 21 -4 21c-2 0 -3 -2 -4 -5
c0 43 -18 84 -76 91v-1l-1 1c-58 -7 -75 -47 -74 -90c-1 3 -3 4 -4 4c-3 0 -5 -9 -4 -21s5 -28 8 -28c2 0 2 5 3 11c7 -37 24 -69 34 -79c-1 -3 -2 -11 -3 -17h-11v-17c-27 -10 -94 -40 -95 -60v-30h298z" />
    <glyph glyph-name="uniF14A" unicode="&#xf14a;" 
d="M422 323l-197 -95c-22 -11 -54 -11 -69 0l-131 95c-10 7 -1 18 19 25l186 60c14 5 35 5 46 0l143 -60c16 -7 18 -18 3 -25zM92 316c11 -8 38 -8 58 0c19 7 25 19 13 26c12 -7 37 -7 55 0c17 7 20 16 8 22c12 -6 36 -6 52 0c15 6 17 16 5 21s-34 5 -49 0
c-16 -5 -20 -15 -8 -21c-12 6 -34 6 -51 0c-18 -6 -23 -15 -12 -22c-11 7 -35 6 -54 0c-20 -7 -28 -19 -17 -26zM158 273c14 -9 42 -9 63 0c20 9 24 22 10 30c14 -8 41 -8 59 0s19 20 5 27c14 -7 40 -7 56 0s15 18 1 24s-37 6 -52 0c-16 -6 -19 -17 -5 -24
c-14 7 -39 7 -56 0c-18 -7 -22 -19 -8 -27c-14 8 -39 8 -59 0s-27 -21 -14 -30zM151 210c14 -10 25 -32 25 -50v-192c0 -18 -11 -22 -25 -10l-131 120c-11 10 -20 31 -20 46v168c0 15 9 22 20 14zM51 181c12 -9 21 -3 21 13s-9 36 -21 45c-11 9 -21 3 -21 -13s10 -36 21 -45
zM117 36c13 -11 23 -6 23 11s-10 39 -23 50c-13 10 -23 6 -23 -11s10 -39 23 -50zM420 306c16 8 28 1 28 -14v-168c0 -15 -12 -36 -28 -46l-192 -120c-20 -12 -36 -8 -36 10v192c0 18 16 40 36 50zM263 11c19 11 33 34 33 51s-14 22 -33 11s-35 -35 -35 -52s16 -22 35 -10z
M329 111c17 10 31 31 31 47s-14 23 -31 13c-18 -10 -33 -31 -33 -48s15 -22 33 -12zM390 204c16 9 30 29 30 45s-14 21 -30 13c-17 -9 -30 -29 -30 -45s13 -22 30 -13z" />
    <glyph glyph-name="uniF14B" unicode="&#xf14b;" horiz-adv-x="226" 
d="M225 187c3 -15 -1 -29 -10 -40h1l-129 -155c-7 -10 -16 -17 -29 -20c-26 -6 -51 11 -57 37c-3 15 1 30 11 41v1l104 126l-104 126v1c-10 11 -14 26 -11 41c6 26 31 43 57 37c13 -3 22 -10 29 -20l129 -155h-1c5 -6 8 -12 10 -20z" />
    <glyph glyph-name="uniF14C" unicode="&#xf14c;" 
d="M387 416c34 0 61 -27 61 -61v-326c0 -34 -27 -61 -61 -61h-326c-34 0 -61 27 -61 61v326c0 34 27 61 61 61h326zM224 9l163 102l-36 18l-127 -80l-127 80l-36 -18zM224 70l163 102l-36 18l-127 -79l-127 79l-36 -18zM224 131l163 102l-163 81l-163 -81z" />
    <glyph glyph-name="uniF14D" unicode="&#xf14d;" horiz-adv-x="512" 
d="M256 341v-42h-171v42h171zM85 277h256v-42h-256v42zM85 171v42h235l-43 -42h-192zM192 85l-21 -42h-171v405h277l128 -128v-33l-42 -33v66h-86v85h-234v-320h149zM494 209c25 -25 25 -65 0 -90l-43 -43c1 13 -2 27 -7 39l27 26c12 12 12 33 0 45l-7 8
c-12 12 -33 12 -45 0l-75 -75c-12 -12 -12 -33 0 -45l8 -7c3 -3 5 -4 8 -6l-23 -23c-3 2 -5 3 -8 6l-7 8c-25 25 -25 64 0 89l74 75c25 25 65 25 90 0zM396 127l8 -8c25 -25 25 -65 0 -90l-75 -74c-25 -25 -65 -25 -90 0l-7 7c-25 25 -25 65 0 90l50 50c-1 -13 2 -26 7 -38
l-35 -35c-12 -12 -12 -33 0 -45l8 -7c12 -12 33 -12 45 0l74 75c12 12 12 33 0 45l-7 7c-3 3 -6 4 -9 6l23 23c3 -2 5 -3 8 -6z" />
    <glyph glyph-name="uniF14E" unicode="&#xf14e;" horiz-adv-x="299" 
d="M213 -21h86v-86h-86v86zM107 -107v86h42h43v-86h-85zM0 -107v86h85v-86h-85zM192 107h-21h-22h-21h-21v85h85v-85zM171 21h21l-43 -42l-42 42h21l21 86zM21 60l15 -15l92 62l-61 -92l15 -15h-61v60zM217 0l15 15l-61 92l91 -62l15 15v-60h-60z" />
    <glyph glyph-name="uniF14F" unicode="&#xf14f;" 
d="M114 255l46 -31h-160v160l42 -62c41 57 107 94 182 94c124 0 224 -100 224 -224c-16 0 -96 1 -96 0c0 70 -59 127 -129 127c-47 0 -87 -26 -109 -64zM334 129l-46 31h160v-160l-42 62c-41 -57 -107 -94 -182 -94c-124 0 -224 100 -224 224c16 0 96 -1 96 0
c0 -70 58 -127 128 -127c47 0 88 26 110 64z" />
    <glyph glyph-name="uniF150" unicode="&#xf150;" 
d="M224 416c124 0 224 -100 224 -224s-100 -224 -224 -224s-224 100 -224 224s100 224 224 224zM224 0c106 0 192 86 192 192s-86 192 -192 192s-192 -86 -192 -192s86 -192 192 -192zM224 352c88 0 160 -72 160 -160s-72 -160 -160 -160s-160 72 -160 160s72 160 160 160z
" />
    <glyph glyph-name="uniF151" unicode="&#xf151;" horiz-adv-x="512" 
d="M256 418c124 0 224 -100 224 -224s-100 -224 -224 -224s-224 100 -224 224s100 224 224 224zM256 2c106 0 192 86 192 192s-86 192 -192 192s-192 -86 -192 -192s86 -192 192 -192zM256 448c141 0 256 -115 256 -256s-115 -256 -256 -256s-256 115 -256 256
s115 256 256 256zM256 -30c124 0 224 100 224 224s-100 224 -224 224s-224 -100 -224 -224s100 -224 224 -224zM256 386c106 0 192 -86 192 -192s-86 -192 -192 -192s-192 86 -192 192s86 192 192 192z" />
    <glyph glyph-name="uniF152" unicode="&#xf152;" horiz-adv-x="384" 
d="M96 128c18 0 32 -14 32 -32s-14 -32 -32 -32s-32 14 -32 32s14 32 32 32zM96 224c18 0 32 -14 32 -32s-14 -32 -32 -32s-32 14 -32 32s14 32 32 32zM96 176c9 0 16 7 16 16s-7 16 -16 16s-16 -7 -16 -16s7 -16 16 -16zM224 320v-16h-64v16h64zM96 320c18 0 32 -14 32 -32
s-14 -32 -32 -32s-32 14 -32 32s14 32 32 32zM160 176v16h160v-16h-160zM160 48v16h160v-16h-160zM160 240v16h160v-16h-160zM256 416l128 -128v-320h-384v448h256zM352 0v288h-96v96h-224v-384h320zM160 112v16h160v-16h-160z" />
    <glyph glyph-name="uniF153" unicode="&#xf153;" 
d="M240 224l208 96v-224l-208 -128v256zM0 96v224l208 -96v-256zM224 416l208 -80l-208 -96l-208 96z" />
    <glyph glyph-name="uniF154" unicode="&#xf154;" horiz-adv-x="405" 
d="M85 21c0 -24 -18 -42 -42 -42v0c-24 0 -43 18 -43 42v342c0 24 19 42 43 42v0c24 0 42 -18 42 -42v-342zM192 21c0 -24 -19 -42 -43 -42v0c-24 0 -42 18 -42 42v342c0 24 18 42 42 42v0c24 0 43 -18 43 -42v-342zM299 21c0 -24 -19 -42 -43 -42v0c-24 0 -43 18 -43 42
v342c0 24 19 42 43 42v0c24 0 43 -18 43 -42v-342zM405 21c0 -24 -18 -42 -42 -42v0c-24 0 -43 18 -43 42v342c0 24 19 42 43 42v0c24 0 42 -18 42 -42v-342z" />
    <glyph glyph-name="uniF155" unicode="&#xf155;" horiz-adv-x="512" 
d="M85 21c0 -24 -18 -42 -42 -42v0c-24 0 -43 18 -43 42v342c0 24 19 42 43 42v0c24 0 42 -18 42 -42v-342zM192 21c0 -24 -19 -42 -43 -42v0c-24 0 -42 18 -42 42v342c0 24 18 42 42 42v0c24 0 43 -18 43 -42v-342zM299 21c0 -24 -19 -42 -43 -42v0c-24 0 -43 18 -43 42
v342c0 24 19 42 43 42v0c24 0 43 -18 43 -42v-342zM405 21c0 -24 -18 -42 -42 -42v0c-24 0 -43 18 -43 42v342c0 24 19 42 43 42v0c24 0 42 -18 42 -42v-342zM512 21c0 -24 -19 -42 -43 -42v0c-24 0 -42 18 -42 42v342c0 24 18 42 42 42v0c24 0 43 -18 43 -42v-342z" />
    <glyph glyph-name="uniF156" unicode="&#xf156;" horiz-adv-x="192" 
d="M85 21c0 -24 -18 -42 -42 -42v0c-24 0 -43 18 -43 42v342c0 24 19 42 43 42v0c24 0 42 -18 42 -42v-342zM192 21c0 -24 -19 -42 -43 -42v0c-24 0 -42 18 -42 42v342c0 24 18 42 42 42v0c24 0 43 -18 43 -42v-342z" />
    <glyph glyph-name="uniF157" unicode="&#xf157;" horiz-adv-x="85" 
d="M85 21c0 -24 -18 -42 -42 -42v0c-24 0 -43 18 -43 42v342c0 24 19 42 43 42v0c24 0 42 -18 42 -42v-342z" />
    <glyph glyph-name="uniF158" unicode="&#xf158;" horiz-adv-x="299" 
d="M85 21c0 -24 -18 -42 -42 -42v0c-24 0 -43 18 -43 42v342c0 24 19 42 43 42v0c24 0 42 -18 42 -42v-342zM192 21c0 -24 -19 -42 -43 -42v0c-24 0 -42 18 -42 42v342c0 24 18 42 42 42v0c24 0 43 -18 43 -42v-342zM299 21c0 -24 -19 -42 -43 -42v0c-24 0 -43 18 -43 42
v342c0 24 19 42 43 42v0c24 0 43 -18 43 -42v-342z" />
    <glyph glyph-name="uniF159" unicode="&#xf159;" horiz-adv-x="480" 
d="M451 416c16 0 29 -13 29 -29v-34h-480v63h451zM0 189v149h480v-178h-98v-192h-179l-107 107v85h-67c-16 0 -29 13 -29 29zM203 -3v78h-78zM120 241v0v-146h83c11 0 19 -9 19 -20v-83h136v249h-2h-234h-2z" />
    <glyph glyph-name="uniF15A" unicode="&#xf15a;" 
d="M224 416c124 0 224 -100 224 -224s-100 -224 -224 -224s-224 100 -224 224s100 224 224 224zM364 179c4 3 6 8 6 13s-2 11 -6 14v0l-3 1c-1 0 -1 1 -2 1l-208 112l-1 -1c-2 0 -3 1 -5 1c-9 0 -15 -6 -17 -14v0v-227v0c1 -8 8 -15 17 -15c2 0 3 0 5 1h1l208 111
c1 0 1 0 2 1l3 2v0z" />
    <glyph glyph-name="uniF15B" unicode="&#xf15b;" horiz-adv-x="288" 
d="M96 320v-48h-64v48h64zM224 96h-96v160h96v-160zM256 320v-48h-144v48h144zM112 96h-16h-16h-16v160h48v-160zM0 32v48h80v-48h-80zM96 80h192v-48h-128v-64h-32v64h-32v48z" />
    <glyph glyph-name="uniF15C" unicode="&#xf15c;" 
d="M176 224l-32 -32l-48 48l32 32zM336 384l-32 -32l-32 32l32 32zM304 320l-96 -96l-32 32l96 96zM32 16c16 16 128 140 128 140l27 -28s-123 -112 -139 -128s-48 -32 -48 -32s16 32 32 48zM352 368l96 -96l-32 -32l-96 96zM224 208l96 96l64 -64l-96 -96zM160 176l32 32
l112 -112l-32 -32z" />
    <glyph glyph-name="uniF15D" unicode="&#xf15d;" horiz-adv-x="427" 
d="M0 191c0 15 1 30 4 44l188 -64v-192c-108 11 -192 101 -192 212zM213 405c50 0 92 -14 128 -42l-149 -150l-171 64c33 76 104 128 192 128zM374 331c32 -37 53 -87 53 -140c0 -111 -86 -212 -214 -212v191z" />
    <glyph glyph-name="uniF15E" unicode="&#xf15e;" 
d="M384 213v-149h-321c16 19 63 71 113 88c29 10 66 -24 96 -24c43 -1 93 60 112 85zM400 352c26 0 48 -22 48 -48v-256c0 -26 -22 -48 -48 -48h-352c-26 0 -48 22 -48 48v256c0 26 22 48 48 48h352zM416 32v288h-384v-288h384zM128 176c-26 0 -48 22 -48 48s22 48 48 48
s48 -22 48 -48s-22 -48 -48 -48z" />
    <glyph glyph-name="uniF15F" unicode="&#xf15f;" horiz-adv-x="512" 
d="M0 64h512v-64h-512v64zM384 21v22h-256v-22h256zM128 85v235h256v-235h-256zM107 320v-235h-43v299h384v-299h-43v235h-21v21h-256v-21h-21z" />
    <glyph glyph-name="uniF160" unicode="&#xf160;" horiz-adv-x="213" 
d="M85 128l-42 43l128 128l42 -43zM0 85v64h21v-64h-21zM21 85v22h43v-22h-43z" />
    <glyph glyph-name="uniF161" unicode="&#xf161;" horiz-adv-x="320" 
d="M96 352c18 0 32 -14 32 -32v-256c0 -18 -14 -32 -32 -32h-64c-18 0 -32 14 -32 32v256c0 18 14 32 32 32h64zM288 352c18 0 32 -14 32 -32v-256c0 -18 -14 -32 -32 -32h-64c-18 0 -32 14 -32 32v256c0 18 14 32 32 32h64z" />
    <glyph glyph-name="uniF162" unicode="&#xf162;" horiz-adv-x="341" 
d="M85 448h171v-256h85l-170 -256l-171 256h85v256z" />
    <glyph glyph-name="uniF163" unicode="&#xf163;" horiz-adv-x="384" 
d="M96 80v16h192v-16h-192zM96 288v32s14 32 32 32c0 35 29 64 64 64s64 -29 64 -64c18 0 32 -14 32 -32v-32h-192zM144 336v-16h96v16s-7 16 -16 16c0 18 -14 32 -32 32s-32 -14 -32 -32c-9 0 -16 -7 -16 -16zM288 160v-16h-192v16h192zM282 384h102v-448h-384v448h102
c-2 -6 -4 -11 -5 -17c-8 -2 -14 -8 -20 -15h-45v-384h320v384h-45c-6 7 -12 13 -20 15c-1 6 -3 11 -5 17zM288 224v-16h-192v16h192z" />
    <glyph glyph-name="uniF164" unicode="&#xf164;" horiz-adv-x="471" 
d="M235 305l227 -199c10 -9 12 -24 3 -34s-24 -11 -34 -2l-196 171l-195 -171c-10 -9 -25 -8 -34 2s-8 25 2 34z" />
    <glyph glyph-name="uniF165" unicode="&#xf165;" horiz-adv-x="470" 
d="M235 64l-227 199c-10 9 -11 24 -2 34s24 11 34 2l195 -171l196 171c10 9 25 8 34 -2s7 -25 -3 -34z" />
    <glyph glyph-name="uniF166" unicode="&#xf166;" 
d="M448 316l-192 4l-23 96h115zM256 160v132h192v-324h-448v324h192v-132h64zM215 416l-23 -96l-192 -4l100 100h115z" />
    <glyph glyph-name="uniF167" unicode="&#xf167;" 
d="M448 316l-192 4l-23 96h115zM215 416l-23 -96l-192 -4l100 100h115zM256 160v132h192v-324h-192v64h64l-96 96l-96 -96h64v-64h-192v324h192v-132h64z" />
    <glyph glyph-name="uniF168" unicode="&#xf168;" 
d="M215 416l-23 -96l-192 -4l100 100h115zM448 316l-192 4l-23 96h115zM256 160v132h192v-324h-448v324h192v-132h-64l96 -96l96 96h-64z" />
    <glyph glyph-name="uniF169" unicode="&#xf169;" horiz-adv-x="449" 
d="M63 427zM383 427zM393 334c13 -19 22 -42 22 -67c0 -65 -53 -118 -118 -118c-23 0 -56 4 -74 14c14 14 21 41 21 50c0 12 -9 22 -21 22s-22 -10 -22 -22c0 -9 8 -36 22 -50c-18 -10 -52 -14 -75 -14c-65 0 -117 53 -117 118c0 25 8 48 21 67l-21 93l72 -52
c14 6 29 9 45 9c28 0 55 -10 75 -27c20 17 46 27 74 27c16 0 31 -3 45 -9l73 52zM137 213c35 0 64 29 64 64s-29 64 -64 64s-64 -29 -64 -64s29 -64 64 -64zM308 213c35 0 64 29 64 64s-29 64 -64 64s-64 -29 -64 -64s29 -64 64 -64zM116 256c0 14 7 21 21 21s22 -7 22 -21
s-8 -21 -22 -21s-21 7 -21 21zM287 256c0 14 7 21 21 21s21 -7 21 -21s-7 -21 -21 -21s-21 7 -21 21zM369 135c3 -3 2 -7 2 -9c13 -184 -79 -169 -151 -169c-82 0 -161 -21 -143 171c0 2 1 2 3 4c22 -17 27 -25 58 -25s63 1 85 18c22 -17 47 -18 78 -18s46 11 68 28zM0 100
c0 21 44 64 44 64l-2 -128s-42 43 -42 64zM405 164c0 0 44 -43 44 -64s-42 -64 -42 -64z" />
    <glyph glyph-name="uniF16A" unicode="&#xf16a;" 
d="M0 384h448v-32h-448v32zM0 -31v32h448v-32h-448zM256 289v32h192v-32h-192zM256 225v32h192v-32h-192zM256 161v32h192v-32h-192zM256 97v32h192v-32h-192zM256 33v32h192v-32h-192zM16 199l112 121v-96h64v-96h-64v-96l-112 121s-16 13 -16 23s16 23 16 23z" />
    <glyph glyph-name="uniF16B" unicode="&#xf16b;" horiz-adv-x="427" 
d="M0 427h427v-342h-427v342zM405 128v277h-384v-277h384zM152 -21v83h122v-83h-122zM192 277c0 0 -30 43 -85 22l21 64s57 34 85 0zM299 256c-55 0 -86 21 -86 21l43 86c21 -28 85 0 85 0zM192 256l-21 -85c-55 28 -86 21 -86 21l22 64c43 43 85 0 85 0zM216 260
c21 -28 83 -25 83 -25l-21 -86c-34 0 -86 22 -86 22zM107 -21v21h213v-21h-213z" />
    <glyph glyph-name="uniF16C" unicode="&#xf16c;" horiz-adv-x="427" 
d="M0 427h427v-342h-427v342zM405 128v277h-384v-277h384zM152 -21v83h122v-83h-122zM183 179c-13 29 -25 61 -35 91s-16 50 -20 93h30c5 0 8 -5 9 -11c1 -12 3 -26 6 -39l9 -39s8 -25 12 -37s9 -24 13 -34c5 11 9 23 13 36s8 27 12 41s6 28 9 42s5 20 6 41h28
c5 0 8 -6 8 -11c0 -3 -1 -8 -1 -11s-1 -7 -2 -11c-5 -26 -12 -53 -21 -80s-20 -53 -33 -79h-32c-3 0 -6 1 -7 2s-3 3 -4 6zM107 -21v21h213v-21h-213z" />
    <glyph glyph-name="uniF16D" unicode="&#xf16d;" horiz-adv-x="427" 
d="M134 170l-27 27l74 70l-73 71l24 25l60 -43v-107zM298 198l-27 -27l-58 43v106l60 43l24 -24l-73 -72zM277 64v-64h43v-21h-46h-122h-45v21h42v64h128zM0 427h427v-342h-427v342zM405 128v277h-384v-277h384z" />
    <glyph glyph-name="uniF16E" unicode="&#xf16e;" horiz-adv-x="427" 
d="M277 64v-64h43v-21h-46h-122h-45v21h42v64h128zM0 427h427v-342h-427v342zM405 128v277h-384v-277h384zM113 192c-5 0 -6 2 -6 7v164h17c2 0 4 -5 6 -6s3 -7 3 -10l2 -10c6 7 12 12 20 16s17 5 28 5c9 0 18 -2 25 -5s12 -9 16 -18c5 6 12 11 21 16s18 7 31 7
c15 0 26 -4 34 -13s10 -23 10 -42v-111h-21c-5 0 0 2 0 7v101c0 11 -6 19 -10 24s-15 7 -23 7c-9 0 -15 -1 -21 -5s-9 -7 -13 -11c1 -6 3 -11 3 -17v-106h-29c-2 0 -8 1 -9 2s-5 3 -5 5v101c0 11 -1 19 -5 24s-9 7 -17 7s-17 -2 -23 -5s2 -6 -19 -10v-124h-15z" />
    <glyph glyph-name="uniF16F" unicode="&#xf16f;" horiz-adv-x="427" 
d="M320 -43v-21h-213v21h213zM0 384h427v-341h-427v341zM405 85v278h-384v-278h384zM152 -64v84h122v-84h-122zM186 327c6 0 8 -3 8 -8v-58c4 3 9 6 15 8s13 4 21 4s16 -2 22 -5s11 -7 15 -13s8 -14 10 -23s3 -21 3 -34s-1 -24 -3 -33s-6 -17 -11 -23s-11 -10 -19 -13
s-18 -4 -29 -4s-19 1 -27 3s-15 3 -19 5c-2 1 -3 2 -4 3s-2 3 -2 6v185h20v0zM194 150c4 -1 7 -2 11 -3s8 0 13 0c6 0 11 1 15 2s8 3 11 7s5 9 6 16s2 15 2 26c0 10 -1 18 -2 25s-3 12 -5 16s-6 6 -10 8s-8 3 -13 3c-6 0 -11 -1 -16 -3s-9 -3 -12 -6v-91v0z" />
    <glyph glyph-name="uniF170" unicode="&#xf170;" 
d="M208 288l-32 -32h-144v96h144l32 -32h27l36 -32h-63zM416 288h-45l35 32h10v-32zM384 256h64l-32 -288h-384l-32 256h192l32 32h83l14 -13l14 13h48h1zM416 384l-96 -96l-96 96h64v64h64v-64h64z" />
    <glyph glyph-name="uniF171" unicode="&#xf171;" horiz-adv-x="384" 
d="M0 384h384v-384h-256l-128 128v256zM352 32v320h-320v-224h96v-96h224zM160 96v16h144v-16h-144zM304 240v-16h-224v16h224zM304 176v-16h-224v16h224z" />
    <glyph glyph-name="uniF172" unicode="&#xf172;" 
d="M384 416c35 0 64 -29 64 -64v-320c0 -35 -29 -64 -64 -64h-320c-35 0 -64 29 -64 64v320c0 35 29 64 64 64h320zM176 32l160 320h-64l-160 -320h64z" />
    <glyph glyph-name="uniF173" unicode="&#xf173;" horiz-adv-x="320" 
d="M320 281l-89 -89l89 -89l-71 -71l-89 89l-89 -89l-71 71l89 89l-89 89l71 71l89 -89l89 89z" />
    <glyph glyph-name="uniF174" unicode="&#xf174;" horiz-adv-x="420" 
d="M420 276l-146 -84l146 -84l-32 -56l-146 85v-169h-64v169l-146 -85l-32 56l146 84l-146 84l32 56l146 -85v169h64v-169l146 85z" />
    <glyph glyph-name="uniF175" unicode="&#xf175;" horiz-adv-x="409" 
d="M225 384h184v-416h-384v234l32 19v-221h224v288h96v64h-133zM377 0v64h-64v-64h64zM377 96v64h-64v-64h64zM377 192v64h-64v-64h64zM89 192v84l-73 -42l-16 28l73 42l-73 42l16 28l73 -42v84h32v-84l73 42l16 -28l-73 -42l73 -42l-16 -28l-73 42v-84h-32z" />
    <glyph glyph-name="uniF176" unicode="&#xf176;" horiz-adv-x="409" 
d="M225 384h184v-416h-384v234l32 19v-221h320v352h-133zM89 192v84l-73 -42l-16 28l73 42l-73 42l16 28l73 -42v84h32v-84l73 42l16 -28l-73 -42l73 -42l-16 -28l-73 42v-84h-32z" />
    <glyph glyph-name="uniF177" unicode="&#xf177;" horiz-adv-x="416" 
d="M80 320v-16h-16v32h320v-32h-16v16h-288zM160 192v-96h96v-64h-96v-96h-64v96h-96v64h96v96h64zM32 288h384v-320h-32v288h-320v-128h-32v160zM112 384v-16h-16v32h256v-32h-16v16h-224z" />
    <glyph glyph-name="uniF178" unicode="&#xf178;" horiz-adv-x="427" 
d="M21 442h384v-256h-384v256zM384 207v214h-341v-214h341zM64 229v170h299v-170h-299zM192 37v149h43v-149h-43zM149 58h128v-128h-128v128zM256 -49v86h-85v-86h85zM0 -27v42h171v-42h-171zM277 -27v42h150v-42h-150zM107 101v42h213v-42h-213z" />
    <glyph glyph-name="uniF179" unicode="&#xf179;" 
d="M0 -32v320h320v-320h-320zM32 256v-256h256v256h-256zM64 304v48h320v-320h-48v32h16v256h-256v-16h-32zM128 416h320v-320h-48v32h16v256h-256v-16h-32v48z" />
    <glyph glyph-name="uniF17A" unicode="&#xf17a;" horiz-adv-x="384" 
d="M223 357l161 -197h-96v-96h-192v96h-96l161 197s17 27 31 27c13 0 31 -27 31 -27zM96 -32v64h192v-64h-192z" />
    <glyph glyph-name="uniF17B" unicode="&#xf17b;" horiz-adv-x="416" 
d="M389 223c0 0 27 -17 27 -31c0 -13 -27 -31 -27 -31l-197 -161v96h-96v192h96v96zM0 96v192h64v-192h-64z" />
    <glyph glyph-name="uniF17C" unicode="&#xf17c;" horiz-adv-x="416" 
d="M224 384v-96h96v-192h-96v-96l-197 161s-27 17 -27 31c0 13 27 31 27 31zM352 288h64v-192h-64v192z" />
    <glyph glyph-name="uniF17D" unicode="&#xf17d;" horiz-adv-x="384" 
d="M288 192h96l-161 -197s-17 -27 -31 -27c-13 0 -31 27 -31 27l-161 197h96v96h192v-96zM288 384v-64h-192v64h192z" />
    <glyph glyph-name="uniF17E" unicode="&#xf17e;" horiz-adv-x="256" 
d="M0 160v64h256v-64h-256z" />
    <glyph glyph-name="uniF17F" unicode="&#xf17f;" horiz-adv-x="256" 
d="M0 64v64h256v-64h-256z" />
    <glyph glyph-name="uniF180" unicode="&#xf180;" 
d="M192 176v-16h-128v16h128zM64 32v16h128v-16h-128zM224 0v160l32 -32v-160h-256v416v32h128v-32h128v-64h-32v32h-192v-352h192zM192 112v-16h-128v16h128zM64 304h64v-16h-64v16zM64 240h80l16 -16h-96v16zM160 288h288l-144 -144z" />
    <glyph glyph-name="uniF181" unicode="&#xf181;" horiz-adv-x="469" 
d="M427 0v235l42 42v-320h-469v427h299l-43 -43h-213v-341h384zM85 43v42h299v-42h-299zM85 107v42h299v-42h-299zM235 299l42 -64l150 213l42 -64l-170 -213h-43l-64 64z" />
    <glyph glyph-name="uniF182" unicode="&#xf182;" horiz-adv-x="512" 
d="M0 384h512v-384h-512v384zM448 352h-384l192 -192zM480 48v288l-224 -224l-224 224v-288l128 128l24 -24l-120 -120h384l-120 120l24 24z" />
    <glyph glyph-name="uniF183" unicode="&#xf183;" horiz-adv-x="320" 
d="M288 224c18 0 32 -14 32 -32v-192c0 -18 -14 -32 -32 -32h-256c-18 0 -32 14 -32 32v192c0 18 14 32 32 32v64c0 71 57 128 128 128s128 -57 128 -128v-64zM80 288v-64h160v64c0 44 -36 80 -80 80s-80 -36 -80 -80z" />
    <glyph glyph-name="uniF184" unicode="&#xf184;" 
d="M0 416h448v-448h-448v448zM104 0v352h-72v-352h72zM416 0v352h-290v-352h290zM322 319v-16h-163v16h163zM352 255v-16h-193v16h193zM352 191v-16h-193v16h193zM352 63v-16h-193v16h193zM352 127v-16h-193v16h193z" />
    <glyph glyph-name="uniF185" unicode="&#xf185;" 
d="M387 416c34 0 61 -27 61 -61v-326c0 -34 -27 -61 -61 -61h-326c-34 0 -61 27 -61 61v326c0 34 27 61 61 61h326zM137 31v0v217h-69v-217h69zM132 292c7 6 10 15 10 25s-3 19 -10 25s-17 10 -29 10s-21 -4 -28 -10s-11 -15 -11 -25s4 -17 11 -24s16 -10 28 -10s22 3 29 9z
M384 31v133c0 60 -24 90 -73 90c-31 0 -56 -14 -72 -40h-1v34h-68v-217h68v124c0 14 4 25 12 34s17 13 29 13c25 0 37 -16 37 -50v-121h68z" />
    <glyph glyph-name="uniF186" unicode="&#xf186;" 
d="M420 377c37 -37 37 -97 0 -134l-64 -64c1 20 -1 39 -9 57l40 40c19 19 19 49 0 68l-11 11c-19 19 -49 19 -68 0l-112 -112c-19 -19 -19 -49 0 -68l11 -11c4 -4 9 -7 14 -9l-35 -34c-4 3 -8 6 -12 10l-12 11c-37 37 -37 97 0 134l113 113c37 37 97 37 134 0zM275 254
l11 -11c37 -37 37 -98 0 -135l-112 -112c-37 -37 -98 -37 -135 0l-11 11c-37 37 -37 98 0 135l75 75c-1 -20 2 -39 10 -57l-52 -52c-19 -19 -19 -48 0 -67l12 -11c19 -19 48 -19 67 0l112 112c19 19 19 48 0 67l-11 11c-4 4 -8 7 -13 9l34 35c4 -3 9 -6 13 -10z" />
    <glyph glyph-name="uniF187" unicode="&#xf187;" horiz-adv-x="383" 
d="M64 16v-3l32 33v-46c0 -18 -14 -32 -32 -32h-32c-18 0 -32 14 -32 32v384c0 18 14 32 32 32h32c18 0 32 -14 32 -32v-112l-32 -33v133c0 9 -7 16 -16 16s-16 -7 -16 -16v-356c0 -9 7 -16 16 -16s16 7 16 16zM354 411c37 -37 37 -99 0 -136c-29 -29 -73 -35 -108 -19
l-181 -182l-2 86l138 140c-18 36 -12 81 18 111c38 38 97 38 135 0z" />
    <glyph glyph-name="uniF188" unicode="&#xf188;" horiz-adv-x="226" 
d="M214 51v-1c10 -11 14 -26 11 -41c-6 -26 -31 -43 -57 -37c-13 3 -23 10 -30 20l-128 155h1c-5 6 -8 12 -10 20c-3 15 1 29 10 40h-1l128 155c7 10 17 17 30 20c26 6 51 -11 57 -37c3 -15 -1 -30 -11 -41v-1l-104 -126z" />
    <glyph glyph-name="uniF189" unicode="&#xf189;" horiz-adv-x="512" 
d="M345 178v14h31v-14c0 -18 -8 -35 -20 -46h1l-3 -2c-4 -3 -8 -6 -13 -8l-153 -101h-31v94h-94c-35 0 -63 28 -63 63v157c0 35 28 62 63 62h250c35 0 63 -27 63 -62v-20h-31v20c0 17 -15 31 -32 31h-250c-17 0 -32 -14 -32 -31v-157c0 -17 15 -31 32 -31h125v-94l139 97
c11 5 18 15 18 28zM502 267c0 0 10 -9 10 -12c0 -5 -10 -12 -10 -12l-76 -58l1 43h-150v64h150v43z" />
    <glyph glyph-name="uniF18A" unicode="&#xf18a;" horiz-adv-x="429" 
d="M256 126c8 0 14 -6 14 -14s-6 -14 -14 -14s-14 6 -14 14s6 14 14 14zM150 147c14 0 26 -12 26 -26s-12 -26 -26 -26s-26 12 -26 26s12 26 26 26zM275 264c0 0 154 -203 154 -267s-64 -64 -64 -64h-301s-64 0 -64 64s145 267 145 267v152h-32v32h37h116h39v-32h-30v-152z
M55 61l317 3c-30 59 -99 159 -126 200h-3v152h-66v-152c-28 -41 -94 -145 -122 -203zM195 191c0 20 17 36 37 36s36 -16 36 -36s-16 -37 -36 -37s-37 17 -37 37z" />
    <glyph glyph-name="uniF18B" unicode="&#xf18b;" 
d="M224 416c124 0 224 -100 224 -224s-100 -224 -224 -224s-224 100 -224 224s100 224 224 224zM77 190c6 9 13 17 21 24l-27 58c-11 -9 -21 -19 -31 -30zM224 0c22 0 41 19 41 41s-18 39 -39 40l-122 241l-18 -9l106 -249c-5 -7 -9 -14 -9 -23c0 -22 19 -41 41 -41z
M371 190l37 52c-45 51 -110 84 -184 84c-29 0 -55 -5 -81 -14l26 -56c17 6 36 9 55 9c61 0 114 -30 147 -75z" />
    <glyph glyph-name="uniF18C" unicode="&#xf18c;" horiz-adv-x="427" 
d="M92 241h21v-107c0 -42 -21 -55 -48 -55c-8 0 -17 2 -22 4l3 17c4 -2 10 -3 17 -3c18 0 29 8 29 39v105v0zM144 107c9 -6 23 -11 37 -11c21 0 33 12 33 28c0 15 -8 23 -30 31c-26 9 -42 23 -42 45c0 25 21 44 52 44c16 0 28 -4 35 -8l-6 -17c-5 3 -16 8 -30 8
c-22 0 -30 -13 -30 -24c0 -15 10 -23 32 -31c27 -10 40 -24 40 -47c0 -25 -17 -46 -55 -46c-15 0 -32 5 -41 11zM400 163c0 -55 -33 -84 -74 -84c-42 0 -72 33 -72 81c0 51 32 84 74 84c43 0 72 -34 72 -81zM276 160c0 -34 19 -64 51 -64c33 0 51 30 51 66
c0 32 -17 65 -51 65s-51 -32 -51 -67zM405 299h22v-43h-22v43zM21 427v-171h-21v192h299v-21h-278zM405 -43v68h22v-89h-427v89h21v-68h384zM299 448l127 -149h-127v149zM299 448l127 -149h-127v149z" />
    <glyph glyph-name="uniF18D" unicode="&#xf18d;" horiz-adv-x="213" 
d="M213 277v-170h-64v-171h-85v171h-64v170h64v171h85v-171h64zM171 149v86h-128v-86h128z" />
    <glyph glyph-name="uniF18E" unicode="&#xf18e;" horiz-adv-x="502" 
d="M462 313l40 -40l-88 -88l-40 40zM382 249l-112 112s-72 48 -72 48l8 8s124 -4 144 -24l88 -88zM222 233l80 80l40 -40l-80 -80zM245 194v0v0c9 -9 9 -25 0 -34v0l-182 -182v0c-9 -9 -25 -9 -34 0v0l-22 22v0c-9 9 -9 25 0 34v0l182 182v0c9 9 25 9 34 0v0zM430 361
l-16 -16l-40 40l16 16z" />
    <glyph glyph-name="uniF18F" unicode="&#xf18f;" horiz-adv-x="427" 
d="M201 86c10 -7 28 -15 45 -15c25 0 37 14 37 31c0 18 -10 28 -35 38c-34 13 -50 33 -50 58c0 33 25 61 65 61c19 0 36 -6 46 -13l-8 -27c-7 5 -22 12 -39 12c-20 0 -31 -14 -31 -29c0 -17 12 -25 36 -35c33 -14 49 -31 49 -62c0 -36 -25 -62 -70 -62c-21 0 -40 5 -53 14z
M135 259v-140c0 -41 -21 -48 -37 -48c-9 0 -17 2 -23 4l-5 -26c7 -3 19 -5 29 -5c36 0 67 18 67 74v141zM427 299v-363h-427v512h299l127 -149h1zM405 -43v342h-107l1 128h-278v-470h384z" />
    <glyph glyph-name="uniF190" unicode="&#xf190;" horiz-adv-x="427" 
d="M427 299v-363h-427v512h299l127 -149h1zM405 -43v342h-107l1 128h-278v-470h384zM215 119v0v140h31v-141c0 -56 -32 -74 -68 -74c-10 0 -22 2 -29 5l6 26c6 -2 14 -4 23 -4c16 0 37 7 37 48z" />
    <glyph glyph-name="uniF191" unicode="&#xf191;" 
d="M64 288c-35 0 -64 29 -64 64s29 64 64 64s64 -29 64 -64s-29 -64 -64 -64zM352 384c53 0 96 -43 96 -96v-224c0 -53 -43 -96 -96 -96h-224c-53 0 -96 43 -96 96v96h-32l64 104l64 -104h-32v-70c0 -32 26 -58 58 -58h188c32 0 58 26 58 58v204c0 32 -26 58 -58 58h-182
c0 11 -2 22 -6 32h198z" />
    <glyph glyph-name="uniF192" unicode="&#xf192;" horiz-adv-x="405" 
d="M0 -128v235l192 -86v-234zM213 21l192 86v-235l-192 -85v234zM203 192l192 -64l-182 -84l-181 84z" />
    <glyph glyph-name="uniF193" unicode="&#xf193;" horiz-adv-x="405" 
d="M0 75v234l192 -85v-235zM213 224l192 85v-234l-192 -86v235zM203 395l192 -64l-182 -84l-181 84z" />
    <glyph glyph-name="uniF194" unicode="&#xf194;" horiz-adv-x="427" 
d="M128 277h-128v128h128v-128zM128 -21h-128v128h128v-128zM427 277h-128v128h128v-128zM427 -21h-128v128h128v-128zM320 363v-43h-213v43h213zM320 64v-43h-213v43h213zM384 107h-43v213h43v-213zM85 107h-42v213h42v-213z" />
    <glyph glyph-name="uniF195" unicode="&#xf195;" horiz-adv-x="512" 
d="M416 448c53 0 96 -43 96 -96v-320c0 -53 -43 -96 -96 -96h-320c-53 0 -96 43 -96 96v320c0 53 43 96 96 96h320zM480 32v320c0 35 -29 64 -64 64h-320c-35 0 -64 -29 -64 -64v-320c0 -35 29 -64 64 -64h320c35 0 64 29 64 64zM416 384c18 0 32 -14 32 -32v-320
c0 -18 -14 -32 -32 -32h-320c-18 0 -32 14 -32 32v320c0 18 14 32 32 32h320zM288 64v160h-64v-160h64zM288 254v64h-64v-64h64z" />
    <glyph glyph-name="uniF196" unicode="&#xf196;" 
d="M0 384h448v-32h-448v32zM0 -31v32h448v-32h-448zM256 289v32h192v-32h-192zM256 225v32h192v-32h-192zM256 161v32h192v-32h-192zM256 97v32h192v-32h-192zM256 33v32h192v-32h-192zM64 32v96h-64v96h64v96l112 -121s16 -13 16 -23s-16 -23 -16 -23z" />
    <glyph glyph-name="uniF197" unicode="&#xf197;" horiz-adv-x="416" 
d="M352 96h32v-128h-384v416h384v-128h-32v96h-320v-352h320v96zM416 128h-128v-80l-160 128l160 128v-80h128v-96z" />
    <glyph glyph-name="uniF198" unicode="&#xf198;" horiz-adv-x="511" 
d="M438 243v-170h-367c19 22 73 81 130 100c33 11 75 -27 109 -27c49 -1 106 68 128 97zM456 401c30 0 55 -24 55 -54v-292c0 -30 -25 -55 -55 -55h-401c-30 0 -55 25 -55 55v292c0 30 25 54 55 54h401zM469 38v320h-426v-320h426zM146 201c-30 0 -55 24 -55 54s25 55 55 55
s55 -25 55 -55s-25 -54 -55 -54z" />
    <glyph glyph-name="uniF199" unicode="&#xf199;" horiz-adv-x="427" 
d="M85 136v36l102 63v-42l-71 -39l71 -40v-41zM239 235l102 -64v-35l-102 -63v41l72 40l-72 40v41zM427 299v-363h-427v512h299l127 -149h1zM405 -43v342h-107l1 128h-278v-470h384zM299 448l127 -149h-128z" />
    <glyph glyph-name="uniF19A" unicode="&#xf19a;" horiz-adv-x="512" 
d="M256 -64h-8l53 144h72c13 0 27 9 31 21l56 156c9 26 -5 47 -32 47h-100l-84 -230v0l-47 -131c-113 27 -197 128 -197 249c0 117 79 217 187 247l-49 -135v0l-82 -224h55l69 190h41l-70 -190h55l64 177c9 26 -5 47 -32 47h-46l53 144h11c141 0 256 -115 256 -256
s-115 -256 -256 -256zM411 270l-57 -156h-41l57 156h41z" />
    <glyph glyph-name="uniF19B" unicode="&#xf19b;" horiz-adv-x="320" 
d="M289 1c40 0 30 -31 30 -32h-161h-157c0 1 -9 32 31 32v104s39 37 101 102l1 -1c-1 0 16 0 25 0c1 -1 2 -1 3 -2c-107 -86 -97 -204 -97 -204h192s20 126 -95 204c1 1 2 1 3 2c6 -1 25 0 24 0v1c62 -65 100 -102 100 -102v-104zM161 256l-37 64l70 -1l-33 -63v0zM162 208
c-9 1 -29 0 -28 0l-1 -1c-62 65 -100 92 -100 92s-2 59 -2 85c-40 0 -30 31 -30 32h156h162c0 -1 9 -32 -31 -32c0 -26 1 -85 1 -85s-38 -27 -100 -92v1c1 0 -16 0 -25 0v1c98 105 93 175 93 175h-193s-2 -74 100 -175l-1 -1h-1zM162 207l1 1h-1c-2 0 -4 -1 -4 -1
c1 0 0 -1 1 -1h5c-1 0 -2 1 -2 1zM165 207v0s0 -1 -1 -1h1l1 1h-1zM165 207l-1 1h-1v0c1 0 2 -1 2 -1zM95 76c0 0 7 22 36 28c0 0 33 21 34 25h1c1 -4 27 -27 27 -27c29 -8 36 -32 36 -32l-2 -42l-60 3l-74 3z" />
    <glyph glyph-name="uniF19C" unicode="&#xf19c;" horiz-adv-x="480" 
d="M400 272l80 -80l-32 -32l-208 208l-208 -208l-32 32l224 224h32l96 -96v64h48v-112zM80 160l160 160l160 -160v-160h-96v-32h-128v32h-96v160zM288 0v128h-96v-128h96z" />
    <glyph glyph-name="uniF19D" unicode="&#xf19d;" horiz-adv-x="461" 
d="M253 384c115 0 208 -93 208 -208c0 -54 -21 -103 -55 -140h-6c-44 0 -83 -15 -106 -38v33c76 5 136 68 136 145c0 80 -65 146 -145 146s-146 -66 -146 -146c0 -6 0 -12 1 -17l48 1l-93 -126l-95 125h46c0 6 -1 11 -1 17c0 115 93 208 208 208zM236 257h32v-96h64v-31h-96
v127z" />
    <glyph glyph-name="uniF19E" unicode="&#xf19e;" 
d="M224 416c124 0 224 -100 224 -224s-100 -224 -224 -224s-224 100 -224 224s100 224 224 224zM248 65v48h-51v-48h51zM308 217c6 9 10 19 10 30c0 19 -9 36 -26 50s-41 22 -70 22c-28 0 -51 -7 -68 -21s-27 -33 -28 -53l47 -5c3 14 9 25 18 32s20 10 33 10
c14 0 24 -3 32 -10s12 -15 12 -24c0 -7 -2 -12 -7 -18c-3 -4 -12 -12 -27 -23s-25 -22 -30 -31s-7 -21 -7 -35v-11h47c0 13 0 22 3 27s9 13 20 21c21 16 35 29 41 39z" />
    <glyph glyph-name="uniF19F" unicode="&#xf19f;" horiz-adv-x="512" 
d="M256 448c141 0 256 -115 256 -256s-115 -256 -256 -256s-256 115 -256 256s115 256 256 256zM256 -30c124 0 224 100 224 224s-100 224 -224 224s-224 -100 -224 -224s100 -224 224 -224zM256 386c106 0 192 -86 192 -192s-86 -192 -192 -192s-192 86 -192 192
s86 192 192 192zM283 54c5 5 9 14 9 26s-4 21 -9 26c-6 5 -15 8 -28 8s-23 -3 -28 -8c-6 -5 -9 -14 -9 -26s3 -21 9 -26c5 -5 15 -8 28 -8s22 3 28 8zM337 227c1 6 2 13 2 22c0 11 -1 20 -3 29c-3 8 -7 16 -13 22s-15 11 -25 14c-10 4 -24 5 -39 5c-16 0 -29 -1 -40 -4
c-10 -3 -27 -6 -27 -9v-31c0 -4 2 -8 4 -10s7 -3 11 -3h14s14 1 20 1c5 0 9 0 13 -1c4 0 7 -1 10 -3s5 -4 7 -7s3 -7 3 -12c0 -3 -1 -5 -2 -7c-1 -3 -1 -5 -3 -8c-2 -2 -4 -5 -7 -8l-11 -11c-7 -6 -13 -13 -18 -19s-8 -15 -8 -25c0 -6 1 -14 3 -19c3 -7 7 -15 13 -15h34
l1 12c1 4 1 12 3 15c1 3 4 5 6 8c3 3 5 6 9 9c3 3 8 5 12 9c6 5 11 11 15 15s7 9 10 14s4 11 6 17z" />
    <glyph glyph-name="uniF1A0" unicode="&#xf1a0;" horiz-adv-x="483" 
d="M412 363c94 -94 94 -248 0 -342c-47 -47 -109 -70 -171 -70s-123 23 -170 70c-94 94 -94 248 0 342c47 47 108 70 170 70s124 -23 171 -70zM385 48c79 79 79 209 0 288c-38 38 -90 60 -144 60s-106 -22 -144 -60c-79 -79 -79 -209 0 -288c38 -38 90 -60 144 -60
s106 22 144 60zM311 316c23 -15 34 -36 34 -62c0 -10 -3 -20 -9 -30s-18 -24 -36 -38c-14 -11 -22 -22 -26 -29c-3 -6 -5 -8 -5 -29h-70v16c0 12 2 22 5 29s9 15 14 21s18 17 37 33c11 9 17 18 17 26s-2 14 -7 19s-12 7 -21 7c-10 0 -19 -3 -26 -10c-6 -6 -10 -16 -12 -30
l-68 8c3 25 13 46 29 62c17 16 43 24 78 24c27 0 49 -6 66 -17zM201 78c0 25 12 37 37 37s37 -12 37 -37s-12 -36 -37 -36s-37 11 -37 36z" />
    <glyph glyph-name="uniF1A1" unicode="&#xf1a1;" horiz-adv-x="479" 
d="M423 363c193 -97 -182 -395 -182 -395s-379 298 -186 395c112 56 184 -43 184 -43s72 99 184 43z" />
    <glyph glyph-name="uniF1A2" unicode="&#xf1a2;" horiz-adv-x="469" 
d="M0 64h469v-107h-469v107zM448 0v21h-149v-21h149zM427 405v-320h-384v320h384zM384 149v214h-299v-214h299z" />
    <glyph glyph-name="uniF1A3" unicode="&#xf1a3;" 
d="M192 32v128h-32v160h128v-64h-32v-224h-64zM160 160v-128h-96v128h96zM0 416h448v-448h-448v448zM416 0v352h-384v-352h384zM384 32h-96v224h96v-224z" />
    <glyph glyph-name="uniF1A4" unicode="&#xf1a4;" horiz-adv-x="398" 
d="M195 116l11 11l113 -113l-11 -11zM200 166l11 12l113 -113l-11 -12zM285 161l113 -113l-11 -12l-114 113zM144 337l143 -144h-127v-64l-112 112l-48 -48v192h192z" />
    <glyph glyph-name="uniF1A5" unicode="&#xf1a5;" horiz-adv-x="480" 
d="M32 256c0 -71 57 -128 128 -128v-32c-88 0 -160 72 -160 160s72 160 160 160s160 -72 160 -160h-32c0 71 -57 128 -128 128s-128 -57 -128 -128zM160 320c35 0 64 -29 64 -64h-64v-64c-35 0 -64 29 -64 64s29 64 64 64zM336 177l144 -144h-128v-64l-112 112l-48 -48v192
h192z" />
    <glyph glyph-name="uniF1A6" unicode="&#xf1a6;" horiz-adv-x="363" 
d="M242 411l121 -128v-299h-363v427h242zM320 27v256h-85v85h-192v-341h277z" />
    <glyph glyph-name="uniF1A7" unicode="&#xf1a7;" horiz-adv-x="464" 
d="M458 66c4 -1 7 -5 6 -9l-3 -11c-1 -4 -5 -7 -9 -6l-16 5c-3 -6 -6 -13 -10 -18l11 -12c3 -3 3 -7 0 -10l-8 -8c-3 -3 -7 -3 -10 0l-12 11c-6 -4 -11 -7 -17 -10l4 -16c1 -4 -2 -8 -6 -9l-10 -3c-4 -1 -9 2 -10 6l-4 15c-7 -1 -13 -1 -20 0l-5 -15c-1 -4 -5 -7 -9 -6
l-10 3c-4 1 -7 5 -6 9l4 16c-6 3 -13 6 -18 10l-11 -11c-3 -3 -7 -3 -10 0l-8 8c-3 3 -3 7 0 10l11 12c-4 6 -7 12 -10 18l-16 -5c-4 -1 -8 2 -9 6l-3 11c-1 4 2 8 6 9l15 4c-1 7 -1 13 0 20l-15 4c-4 1 -7 6 -6 10l3 10c1 4 5 7 9 6l16 -4c3 6 6 13 10 18l-11 11
c-3 3 -3 7 0 10l8 8c3 3 7 3 10 0l11 -11c6 4 12 7 18 10l-4 16c-1 4 1 8 5 9l11 3c4 1 8 -2 9 -6l5 -15c7 1 13 1 20 0l4 15c1 4 5 7 9 6l11 -3c4 -1 7 -5 6 -9l-5 -16c6 -3 13 -6 18 -10l12 11c3 3 7 3 10 0l8 -8c3 -3 3 -7 0 -10l-11 -11c4 -6 7 -12 10 -18l16 4
c4 1 8 -2 9 -6l3 -10c1 -4 -2 -8 -6 -9l-15 -5c1 -7 1 -13 0 -20zM409 65c8 30 -10 62 -40 70s-62 -10 -70 -40s10 -62 40 -70s62 10 70 40zM257 152c3 -5 1 -12 -4 -15l-14 -8c-5 -3 -12 -1 -15 4l-12 20c-9 -4 -19 -7 -29 -8v-23c0 -6 -5 -11 -11 -11h-16
c-6 0 -11 5 -11 11v23c-10 1 -20 4 -29 8l-12 -20c-3 -5 -10 -7 -15 -4l-14 8c-5 3 -7 10 -4 15l12 20c-8 6 -16 14 -22 22l-20 -12c-5 -3 -12 -1 -15 4l-8 14c-3 5 -1 12 4 15l20 12c-4 9 -6 19 -8 29h-23c-6 0 -11 5 -11 11v16c0 6 5 11 11 11h23c2 10 4 21 8 30l-20 11
c-5 3 -7 10 -4 15l8 14c3 5 10 7 15 4l20 -11c6 8 14 15 22 21l-12 20c-3 5 -1 12 4 15l14 8c5 3 12 1 15 -4l12 -20c9 4 19 6 29 8v23c0 6 5 11 11 11h16c6 0 11 -5 11 -11v-23c10 -2 20 -4 29 -8l12 20c3 5 10 7 15 4l14 -8c5 -3 7 -10 4 -15l-11 -20c8 -6 15 -13 21 -21
l20 11c5 3 12 1 15 -4l8 -14c3 -5 1 -12 -4 -15l-20 -11c4 -9 7 -20 8 -30h23c6 0 11 -5 11 -11v-16c0 -6 -5 -11 -11 -11h-23c-1 -10 -4 -20 -8 -29l20 -12c5 -3 7 -10 4 -15l-8 -14c-3 -5 -10 -7 -15 -4l-20 12c-6 -8 -13 -16 -21 -22zM164 189c48 0 86 39 86 87
s-38 86 -86 86s-86 -38 -86 -86s38 -87 86 -87z" />
    <glyph glyph-name="uniF1A8" unicode="&#xf1a8;" horiz-adv-x="447" 
d="M357 208c5 -15 8 -29 8 -46h-40v0c0 2 -1 5 -1 7zM223 263c-56 0 -101 -45 -101 -101v0h-41c0 79 64 142 142 142c38 0 73 -15 99 -40l-32 -26c-18 16 -41 25 -67 25zM223 385c123 0 224 -101 224 -224c0 -73 -36 -137 -90 -178c-39 12 -85 19 -134 19s-94 -7 -133 -19
c-54 41 -90 105 -90 178c0 123 100 224 223 224zM333 16c44 33 73 86 73 146c0 101 -82 182 -183 182s-182 -81 -182 -182c0 -60 29 -113 73 -146c32 10 69 16 109 16s78 -6 110 -16zM355 263l10 -10l-142 -172l-40 40z" />
    <glyph glyph-name="uniF1A9" unicode="&#xf1a9;" horiz-adv-x="453" 
d="M303 357c169 39 149 -274 149 -274c-74 -134 -154 44 -154 44c-20 42 -61 48 -72 49c-11 -1 -51 -7 -71 -49c0 0 -63 -180 -155 -44c0 0 -13 310 149 274c0 0 67 -37 77 -31c10 -6 77 31 77 31zM152 256c8 0 13 4 13 17s-5 16 -13 16h-18v19c0 8 -4 13 -17 13
s-17 -5 -17 -13v-19h-18c-8 0 -14 -4 -14 -17s6 -16 14 -16h18v-18c0 -8 4 -14 17 -14s17 6 17 14v18h18zM342 220c29 0 52 23 52 52s-23 52 -52 52s-52 -23 -52 -52s23 -52 52 -52z" />
    <glyph glyph-name="uniF1AA" unicode="&#xf1aa;" horiz-adv-x="291" 
d="M71 246h-13c-5 0 -8 1 -8 5c0 1 1 2 1 3s1 3 1 5l2 11h22l3 14c1 8 4 16 8 23s7 12 12 17s11 9 18 12s13 4 21 4c4 0 8 0 12 -1s8 -2 11 -3s6 -3 8 -5s3 -3 3 -5c0 -1 0 -3 -1 -6l-3 -10c-3 1 -7 2 -11 3s-9 2 -14 2c-10 0 -17 -3 -22 -9s-8 -14 -10 -24l-3 -12h29
c5 0 7 -2 7 -6v-3s-1 -2 -1 -4l-2 -11h-37l-21 -110c-1 -8 -4 -17 -7 -27s-7 -19 -12 -28s-12 -15 -20 -21s-17 -9 -27 -9c-4 0 -7 1 -11 3s-6 4 -6 9c0 2 0 4 1 7l2 6h3h3c11 0 19 5 26 14s12 23 16 45zM284 270c5 0 7 -2 7 -5s-2 -8 -6 -14s-9 -11 -13 -17s-9 -12 -14 -17
s-9 -10 -14 -15l-13 -13c5 -7 9 -14 13 -22s7 -16 10 -24s6 -15 8 -21s3 -11 4 -15h-22c-3 0 -5 0 -7 1s-3 4 -4 7c-1 4 -2 8 -4 13c-1 5 -3 10 -5 15s-5 10 -7 15s-4 11 -7 15c-11 -10 -22 -21 -30 -32s-15 -23 -22 -34h-20c-5 0 -7 1 -7 4c0 2 1 4 2 7s2 6 4 8
c7 11 15 21 24 32s21 22 34 34c-3 5 -6 11 -10 17s-7 12 -10 19l-9 21s-5 14 -7 21h24c3 0 5 -1 6 -2s2 -3 3 -6c3 -8 7 -18 11 -28s8 -19 13 -26c9 9 18 19 27 30s16 22 22 32h19z" />
    <glyph glyph-name="uniF1AB" unicode="&#xf1ab;" 
d="M272 224l-16 16l80 80l-48 32h96v-96l-32 48zM176 224l-80 80l-32 -48v96h96l-48 -32l80 -80zM112 64l48 -32h-96v96l32 -48l80 80l16 -16zM0 416h448v-448h-448v448zM416 0v384h-384v-384h384zM288 32l48 32l-80 80l16 16l80 -80l32 48v-96h-96z" />
    <glyph glyph-name="uniF1AC" unicode="&#xf1ac;" horiz-adv-x="512" 
d="M192 448l43 -43h-235v43h192zM299 405h213v-469h-512v427h256z" />
    <glyph glyph-name="uniF1AD" unicode="&#xf1ad;" horiz-adv-x="509" 
d="M236 333l-23 -34h-170v106h170l23 -36h237v-36h-237zM254 296v0h255l-37 -327h-436l-36 291h218z" />
    <glyph glyph-name="uniF1AE" unicode="&#xf1ae;" horiz-adv-x="384" 
d="M256 416l128 -128v-320h-384v448h256zM352 0v288h-96v96h-224v-384h320zM128 288v-32h160v-64h32v-64h-32v-32h32v-64h-64v24h-128v-24h-64v64h24v32h-24v64h24v32h-24v64h64zM280 96v32h-24v24h-32v-24h-64v24h-32v-24h-32v-32h32v-32h128v32h24zM280 248h-152v-24h-32
v-32h32v-32h32v32h64v-32h32v32h24v56z" />
    <glyph glyph-name="uniF1AF" unicode="&#xf1af;" horiz-adv-x="461" 
d="M0 412l31 7l96 -448l-31 -7zM461 96h-345l-62 288h345z" />
    <glyph glyph-name="uniF1B0" unicode="&#xf1b0;" 
d="M160 416c88 0 160 -72 160 -160s-72 -160 -160 -160s-160 72 -160 160s72 160 160 160zM160 128c71 0 128 57 128 128s-57 128 -128 128s-128 -57 -128 -128s57 -128 128 -128zM368 96l80 -80l-48 -48l-80 80v16l-41 41c12 9 23 20 32 32l41 -41h16z" />
    <glyph glyph-name="uniF1B1" unicode="&#xf1b1;" horiz-adv-x="383" 
d="M0 316c10 -2 91 -19 192 -19c115 0 191 19 191 19v-28l-127 -129v-158s-36 -18 -70 -18c-30 0 -58 18 -58 18v157l-1 1l-127 130v27zM191 386c96 0 192 -32 192 -32v-37s-76 37 -191 37c-105 0 -183 -32 -192 -36v36s95 32 191 32z" />
    <glyph glyph-name="uniF1B2" unicode="&#xf1b2;" horiz-adv-x="383" 
d="M222 353c-10 1 -20 1 -30 1c-105 0 -183 -32 -192 -36v41s95 32 191 32c22 0 44 -1 65 -4zM167 298l-86 -86l-81 82v22c9 -2 78 -16 167 -18zM128 123l181 181c47 5 74 12 74 12v-23l-127 -129s-6 -4 -20 -8c12 2 20 4 20 4v-159s-32 -16 -66 -16c-30 0 -62 16 -62 16
v122zM368 364l15 -5v-42s-17 9 -45 17zM343 429l23 -23l-317 -316l-23 22z" />
    <glyph glyph-name="uniF1B3" unicode="&#xf1b3;" horiz-adv-x="427" 
d="M427 299v-363h-427v512h299l127 -149h1zM405 -43v342h-107l1 128h-278v-470h384zM85 128v21h256v-21h-256zM85 43v21h256v-21h-256zM85 213v22h256v-22h-256z" />
    <glyph glyph-name="uniF1B4" unicode="&#xf1b4;" 
d="M448 253l-106 -111l20 -152l-138 67l-138 -67l20 152l-106 111l151 28l73 135l73 -135z" />
    <glyph glyph-name="uniF1B5" unicode="&#xf1b5;" 
d="M387 416c34 0 61 -27 61 -61v-326c0 -34 -27 -61 -61 -61h-67v160h48l16 64h-64v43c0 11 10 21 21 21h43v64h-62h-2c-35 0 -64 -29 -64 -64v0v0v-64h-32v-64h32v-160h-195c-34 0 -61 27 -61 61v326c0 34 27 61 61 61h326z" />
    <glyph glyph-name="uniF1B6" unicode="&#xf1b6;" horiz-adv-x="416" 
d="M64 256h-32v128h384v-416h-384v128h32v-96h320v352h-320v-96zM0 224h128v80l160 -128l-160 -128v80h-128v96z" />
    <glyph glyph-name="uniF1B7" unicode="&#xf1b7;" 
d="M224 416c124 0 224 -100 224 -224s-100 -224 -224 -224s-224 100 -224 224s100 224 224 224zM328 78c13 0 24 11 24 24c0 9 -5 16 -12 20l-116 102l-116 -102c-7 -4 -12 -11 -12 -20c0 -13 11 -24 24 -24c9 0 17 6 21 13l83 69l86 -73c4 -5 11 -9 18 -9zM328 174
c13 0 24 11 24 24c0 9 -5 16 -12 20l-116 102l-116 -102c-7 -4 -12 -11 -12 -20c0 -13 11 -24 24 -24c9 0 17 6 21 13l83 69l86 -73c4 -5 11 -9 18 -9z" />
    <glyph glyph-name="uniF1B8" unicode="&#xf1b8;" 
d="M224 416c124 0 224 -100 224 -224s-100 -224 -224 -224s-224 100 -224 224s100 224 224 224zM134 64c9 0 16 5 20 12l102 116l-101 116c-4 7 -12 12 -21 12c-13 0 -24 -11 -24 -24c0 -9 6 -17 13 -21l69 -83l-73 -86c-5 -4 -9 -11 -9 -18c0 -13 11 -24 24 -24zM250 76
l102 116l-101 116c-4 7 -12 12 -21 12c-13 0 -24 -11 -24 -24c0 -9 6 -17 13 -21l69 -83l-73 -86c-5 -4 -9 -11 -9 -18c0 -13 11 -24 24 -24c9 0 16 5 20 12z" />
    <glyph glyph-name="uniF1B9" unicode="&#xf1b9;" 
d="M224 416c124 0 224 -100 224 -224s-100 -224 -224 -224s-224 100 -224 224s100 224 224 224zM218 64c13 0 24 11 24 24c0 9 -6 17 -13 21l-69 83l73 86c5 4 9 11 9 18c0 13 -11 24 -24 24c-9 0 -16 -5 -20 -12l-102 -116l102 -116c4 -7 11 -12 20 -12zM325 109l-69 83
l73 86c5 4 9 11 9 18c0 13 -11 24 -24 24c-9 0 -16 -5 -20 -12l-102 -116l102 -116c4 -7 11 -12 20 -12c13 0 24 11 24 24c0 9 -6 17 -13 21z" />
    <glyph glyph-name="uniF1BA" unicode="&#xf1ba;" 
d="M224 416c124 0 224 -100 224 -224s-100 -224 -224 -224s-224 100 -224 224s100 224 224 224zM340 166c7 4 12 11 12 20c0 13 -11 24 -24 24c-9 0 -17 -6 -21 -13l-83 -69l-86 73c-4 5 -11 9 -18 9c-13 0 -24 -11 -24 -24c0 -9 5 -16 12 -20l116 -102zM340 262
c7 4 12 11 12 20c0 13 -11 24 -24 24c-9 0 -17 -6 -21 -13l-83 -69l-86 73c-4 5 -11 9 -18 9c-13 0 -24 -11 -24 -24c0 -9 5 -16 12 -20l116 -102z" />
    <glyph glyph-name="uniF1BB" unicode="&#xf1bb;" 
d="M384 416c35 0 64 -29 64 -64v-320c0 -35 -29 -64 -64 -64h-320c-35 0 -64 29 -64 64v320c0 35 29 64 64 64h320zM224 32l160 320h-64l-128 -256l-64 128h-64l96 -192h64z" />
    <glyph glyph-name="uniF1BC" unicode="&#xf1bc;" horiz-adv-x="469" 
d="M299 304l47 -48l-64 -64l64 -64l-47 -48l-64 65l-65 -65l-47 48l64 64l-64 64l47 48l65 -65zM235 427c130 0 234 -105 234 -235s-104 -235 -234 -235s-235 105 -235 235s105 235 235 235zM235 -9c111 0 201 90 201 201s-90 201 -201 201s-201 -90 -201 -201
s90 -201 201 -201z" />
    <glyph glyph-name="uniF1BD" unicode="&#xf1bd;" horiz-adv-x="513" 
d="M438 374c100 -100 100 -263 0 -363s-263 -100 -363 0s-100 263 0 363s263 100 363 0zM99 35c88 -88 230 -88 318 0s88 230 0 318s-230 88 -318 0s-88 -230 0 -318zM394 330c75 -75 75 -197 0 -272s-197 -75 -272 0s-75 197 0 272s197 75 272 0zM370 125l-68 67l68 68
l-45 46l-68 -68l-68 68l-46 -46l68 -68l-68 -67l46 -46l68 68l68 -68z" />
    <glyph glyph-name="uniF1BE" unicode="&#xf1be;" horiz-adv-x="255" 
d="M128 193c71 0 127 -58 127 -128s-56 -128 -127 -128s-128 57 -128 128s57 128 128 128zM199 19l-45 46l45 45l-26 26l-45 -45l-46 45l-26 -26l45 -45l-45 -46l26 -26l46 46l45 -46z" />
    <glyph glyph-name="uniF1BF" unicode="&#xf1bf;" horiz-adv-x="512" 
d="M0 427h512v-470h-512v470zM469 0v299h-426v-299h426zM469 235h-426v21h426v-21zM469 171h-426v21h426v-21zM469 107h-426v21h426v-21zM469 43h-426v21h426v-21z" />
    <glyph glyph-name="uniF1C0" unicode="&#xf1c0;" horiz-adv-x="416" 
d="M32 112l240 240l80 -80l-240 -240l-112 -32zM80 96l208 208l-16 16l-208 -208zM336 416l80 -80l-48 -48l-80 80z" />
    <glyph glyph-name="uniF1C1" unicode="&#xf1c1;" 
d="M224 -32c-124 0 -224 100 -224 224s100 224 224 224s224 -100 224 -224s-100 -224 -224 -224zM108 186c-7 -4 -12 -11 -12 -20c0 -13 11 -24 24 -24c9 0 17 6 21 13l83 69l86 -73c4 -5 11 -9 18 -9c13 0 24 11 24 24c0 9 -5 16 -12 20l-116 102z" />
    <glyph glyph-name="uniF1C2" unicode="&#xf1c2;" 
d="M0 192c0 124 100 224 224 224s224 -100 224 -224s-100 -224 -224 -224s-224 100 -224 224zM218 308c-4 7 -11 12 -20 12c-13 0 -24 -11 -24 -24c0 -9 6 -17 13 -21l69 -83l-73 -86c-5 -4 -9 -11 -9 -18c0 -13 11 -24 24 -24c9 0 16 5 20 12l102 116z" />
    <glyph glyph-name="uniF1C3" unicode="&#xf1c3;" 
d="M448 192c0 -124 -100 -224 -224 -224s-224 100 -224 224s100 224 224 224s224 -100 224 -224zM230 76c4 -7 11 -12 20 -12c13 0 24 11 24 24c0 9 -6 17 -13 21l-69 83l73 86c5 4 9 11 9 18c0 13 -11 24 -24 24c-9 0 -16 -5 -20 -12l-102 -116z" />
    <glyph glyph-name="uniF1C4" unicode="&#xf1c4;" 
d="M224 416c124 0 224 -100 224 -224s-100 -224 -224 -224s-224 100 -224 224s100 224 224 224zM340 198c7 4 12 11 12 20c0 13 -11 24 -24 24c-9 0 -17 -6 -21 -13l-83 -69l-86 73c-4 5 -11 9 -18 9c-13 0 -24 -11 -24 -24c0 -9 5 -16 12 -20l116 -102z" />
    <glyph glyph-name="uniF1C5" unicode="&#xf1c5;" 
d="M147 352l-51 -240h-80l80 304h256l80 -304h-80l-51 240h-154zM288 96h160v-128h-448v128h160l32 -32h64zM136 224l6 32h164l6 -32h-176zM156 320h136l7 -32h-150zM122 160l7 32h190l7 -32h-204z" />
    <glyph glyph-name="uniF1C6" unicode="&#xf1c6;" horiz-adv-x="432" 
d="M432 210l-192 -168v94c-123 -10 -221 -97 -237 -208c-2 14 -3 28 -3 42c0 163 106 294 240 309v99z" />
    <glyph glyph-name="uniF1C7" unicode="&#xf1c7;" 
d="M160 64v63c-82 -7 -148 -65 -158 -139c-1 9 -2 18 -2 28c0 108 70 196 160 206v66l128 -112zM64 384h384v-416h-384v79c9 10 20 19 32 26v-73h320v352h-320v-116c-11 -5 -22 -12 -32 -19v167z" />
    <glyph glyph-name="uniF1C8" unicode="&#xf1c8;" 
d="M288 407c93 -28 160 -114 160 -215c0 -124 -100 -224 -224 -224s-224 100 -224 224c0 101 67 187 160 215v-182l-64 -1l128 -128h-96v-32h192v32h-96l128 128l-64 1v182z" />
    <glyph glyph-name="uniF1C9" unicode="&#xf1c9;" horiz-adv-x="413" 
d="M374 287c26 -6 42 -31 37 -57c-3 -13 -9 -23 -19 -30l-156 -128v1c-6 -5 -12 -8 -20 -10c-15 -3 -28 1 -39 10l-1 -1l-155 128c-10 7 -17 17 -20 30c-6 26 11 51 37 57c15 3 31 -1 42 -11v0l126 -104l127 104v0c11 10 26 14 41 11z" />
    <glyph glyph-name="uniF1CA" unicode="&#xf1ca;" horiz-adv-x="480" 
d="M399 207l42 42c5 -18 7 -37 7 -57c0 -124 -100 -224 -224 -224s-224 100 -224 224s100 224 224 224c54 0 103 -19 142 -50l-35 -35c-30 23 -67 37 -107 37c-97 0 -176 -79 -176 -176s79 -176 176 -176s176 79 176 176c0 5 -1 10 -1 15zM160 256l64 -64l192 192l64 -64
l-256 -256l-64 64l-64 64z" />
    <glyph glyph-name="uniF1CB" unicode="&#xf1cb;" horiz-adv-x="384" 
d="M256 416l128 -128v-320h-384v448h256zM352 0v288h-96v96h-224v-384h320zM224 320v-16h-144v16h144zM80 176v16h224v-16h-224zM80 112v16h224v-16h-224zM80 48v16h224v-16h-224zM80 240v16h224v-16h-224z" />
    <glyph glyph-name="uniF1CC" unicode="&#xf1cc;" horiz-adv-x="384" 
d="M352 0v32h32v-64h-384v64h32v-32h320zM25 64h-25l36 83l-33 77h25l20 -48l21 48h24l-33 -77l36 -83h-25l-23 54zM256 416l128 -128v-160h-32v160h-96v96h-224v-128h-32v160h256zM256 64h-25v126l-26 -126h-26l-26 126v-126h-25v160h40l24 -109l24 109h40v-160zM288 224
h19v-132h45v-28h-64v160z" />
    <glyph glyph-name="uniF1CD" unicode="&#xf1cd;" 
d="M320 416l128 -128v-320h-64v32h32v288h-96v96h-224v-96h-32v128h256zM312 40c24 -12 24 -72 24 -72h-336s0 60 24 72c11 6 23 11 40 18c-6 3 -11 6 -11 6l7 6l-17 4l7 3l-12 5l11 4l-18 8s53 -6 49 32c-2 16 -8 40 -8 58c0 66 43 120 96 120s96 -54 96 -120
c0 -48 -10 -89 -36 -108c45 -16 65 -26 84 -36zM192 -20l24 105l-24 8c32 12 48 48 48 91c0 53 -24 87 -61 87c0 0 -16 -41 -33 -58c-24 -24 -50 -5 -50 -29c0 -49 16 -75 38 -87l-2 -21l12 -96h48z" />
    <glyph glyph-name="uniF1CE" unicode="&#xf1ce;" horiz-adv-x="384" 
d="M256 416l128 -128v-320h-384v448h256zM352 0v288h-96v96h-224v-384h320zM154 64v42h42v-42h-42zM174 288c25 0 44 -6 59 -19s21 -28 21 -45c0 -9 -3 -18 -8 -26s-17 -21 -34 -35c-9 -7 -15 -13 -17 -18s-3 -12 -3 -24h-38c0 6 -1 9 -1 10c0 12 3 23 7 31s12 17 25 27
c12 10 20 17 22 20c4 5 6 10 6 16c0 8 -3 16 -10 22s-16 8 -27 8s-20 -3 -27 -9s-13 -15 -16 -28l-39 5c1 18 9 33 23 46s34 19 57 19z" />
    <glyph glyph-name="uniF1CF" unicode="&#xf1cf;" 
d="M174 183c48 -19 82 -65 82 -119c0 -71 -57 -128 -128 -128s-128 57 -128 128c0 54 34 100 82 119c2 -15 22 -26 46 -26s44 11 46 26zM70 75c13 0 23 11 23 24s-10 23 -23 23s-24 -10 -24 -23s11 -24 24 -24zM256 192c11 0 17 11 20 22l-17 -9l13 28l-26 17l31 2l2 31
l18 -25l27 13l-13 -28l25 -17l-30 -2l-3 -31l-7 11c-6 -18 -17 -36 -40 -36c-70 0 -47 93 -93 93c-12 0 -18 -13 -21 -25c12 -4 21 -12 21 -21v-23c0 -13 -16 -24 -35 -24s-35 11 -35 24v23c0 11 11 19 26 22c4 20 15 48 44 48c70 0 35 -93 93 -93zM275 222l14 6l8 -12l1 15
l16 1l-13 9l7 13l-14 -6l-9 12l-1 -15l-15 -1l13 -9zM320 416l128 -128v-320h-193c8 10 14 20 19 32h142v288h-96v96h-224v-107l-32 -43v182h256z" />
    <glyph glyph-name="uniF1D0" unicode="&#xf1d0;" 
d="M320 416l128 -128v-320h-149l42 32h75v288h-96v96h-224v-70l-32 -20v122h256zM117 137c10 -8 19 -25 19 -39v-149c0 -14 -9 -17 -19 -7l-102 93c-8 8 -15 23 -15 35v130c0 12 7 17 15 11zM39 114c9 -7 17 -3 17 10s-8 29 -17 36s-16 1 -16 -11s7 -28 16 -35zM90 2
c10 -9 19 -5 19 8s-9 31 -19 39s-17 5 -17 -8s7 -30 17 -39zM327 225l-152 -74c-17 -8 -42 -8 -54 0l-102 74c-8 6 -1 14 15 19l144 46c11 4 27 4 36 0l111 -46c12 -5 13 -14 2 -19zM72 219c9 -6 28 -6 44 0c15 6 19 15 10 20c9 -5 29 -5 43 0c13 5 15 12 6 17
c9 -5 28 -5 40 0c12 4 14 12 4 16c-9 4 -26 4 -38 0s-15 -11 -6 -16c-9 5 -27 5 -40 0c-14 -5 -18 -12 -9 -17c-9 5 -27 5 -42 0s-21 -14 -12 -20zM122 185c11 -7 34 -6 50 1c15 7 18 17 7 23c11 -6 32 -6 46 0s15 15 4 21c11 -6 31 -6 43 0c12 5 12 13 1 18s-29 5 -41 0
s-14 -13 -3 -18c-11 5 -30 5 -43 0c-14 -5 -18 -15 -7 -21c-11 6 -31 6 -46 0c-16 -6 -21 -17 -11 -24zM347 70c0 -12 -10 -27 -22 -35l-148 -93c-15 -10 -28 -7 -28 7v149c0 14 13 31 28 39l148 74c12 6 22 1 22 -11v-130zM204 -17c14 9 26 26 26 39s-12 16 -26 8
c-15 -9 -27 -26 -27 -39s12 -17 27 -8zM255 60c14 8 24 24 24 37s-10 16 -24 9c-14 -8 -25 -24 -25 -37s11 -17 25 -9zM302 132c13 7 23 23 23 35s-10 17 -23 10s-23 -22 -23 -35s10 -17 23 -10z" />
    <glyph glyph-name="uniF1D1" unicode="&#xf1d1;" 
d="M320 416l128 -128v-320h-96v32h64v288h-96v96h-224v-160h-32v192h256zM64 32v32h96v-32h-96zM128 128v-32h-64v32h64zM384 128h-1c-5 -38 -30 -69 -63 -85v-75h-320v224h171c18 38 56 64 101 64c31 0 59 -13 79 -33l1 1l1 -3c19 -20 31 -47 31 -77c0 -4 0 -9 -1 -13z
M288 0v34c-5 -1 -11 -2 -16 -2c-62 0 -112 50 -112 112c0 5 1 11 2 16h-130v-160h256zM272 64c39 0 71 27 78 64h-94l73 73c-14 14 -35 23 -57 23c-44 0 -80 -36 -80 -80s36 -80 80 -80z" />
    <glyph glyph-name="uniF1D2" unicode="&#xf1d2;" horiz-adv-x="392" 
d="M32 384v-384h38c-9 -11 -17 -21 -24 -32h-46v448h256l128 -128v-163c-10 2 -21 4 -32 5v158h-96v96h-224zM352 0v1c11 -2 22 -4 32 -5v-28h-200c7 10 13 21 19 32h149zM295 56c-21 -3 -46 -9 -71 -18s-47 -21 -66 -32c-19 -46 -45 -74 -68 -70c-8 23 15 54 56 81
c8 20 14 45 19 71s6 51 6 73c-30 40 -41 77 -26 95c23 -4 38 -40 41 -90c14 -17 32 -35 52 -52s40 -31 59 -42c49 6 87 -2 95 -25c-15 -18 -53 -13 -97 9zM368 51c-9 6 -24 9 -44 8c18 -7 33 -10 44 -8zM154 233c0 -11 5 -26 15 -43c-3 20 -8 35 -15 43zM105 -45
c10 5 20 17 29 35c-15 -12 -26 -24 -29 -35zM167 29c16 9 33 17 52 24s36 11 54 15c-15 9 -31 21 -46 34s-28 26 -40 40c0 -18 -3 -37 -6 -57s-8 -39 -14 -56z" />
    <glyph glyph-name="uniF1D3" unicode="&#xf1d3;" horiz-adv-x="416" 
d="M288 416l128 -128v-320h-96v32h64v288h-96v96h-224v-128h-32v160h256zM160 64v80h128v-208h-288v208h128v-80h32zM138 224l-10 -64h-128l64 64h74zM150 224h74l64 -64h-128z" />
    <glyph glyph-name="uniF1D4" unicode="&#xf1d4;" 
d="M320 416l128 -128v-320h-96v32h64v288h-96v96h-224v-160h-32v192h256zM272 144l32 32l16 -16l-48 -48l-64 64l16 16zM272 256c62 0 112 -50 112 -112c0 -45 -26 -83 -64 -101v-107h-320v256h171c18 38 56 64 101 64zM162 160h-130l128 -128l33 33c-20 20 -33 48 -33 79
c0 5 1 11 2 16zM288 -32v66c-5 -1 -11 -2 -16 -2c-23 0 -44 6 -62 18l-50 -50l-128 128v-160h256zM272 64c44 0 80 36 80 80s-36 80 -80 80s-80 -36 -80 -80s36 -80 80 -80z" />
    <glyph glyph-name="uniF1D5" unicode="&#xf1d5;" 
d="M160 320c18 0 32 -14 32 -32v-96h-32v80c0 9 -7 16 -16 16h-96c-9 0 -16 -7 -16 -16v-96c0 -9 7 -16 16 -16h80v-32h-96c-18 0 -32 14 -32 32v128c0 18 14 32 32 32h128zM320 96c18 0 32 -14 32 -32v-64c0 -18 -14 -32 -32 -32h-64c-18 0 -32 14 -32 32v32h32v-16
c0 -9 7 -16 16 -16h32c9 0 16 7 16 16v32c0 9 -7 16 -16 16h-16v32h32zM160 64v32h32v-32h-32zM160 -16v48h32v-64c0 -18 -14 -32 -32 -32h-96c-18 0 -32 14 -32 32v96c0 18 14 32 32 32h64v-32h-48c-9 0 -16 -7 -16 -16v-64c0 -9 7 -16 16 -16h64c9 0 16 7 16 16zM160 128
v32h32v-32h-32zM320 416l128 -128v-320h-67c2 5 3 10 3 16v16h32v288h-96v96h-224v-32h-32v64h256zM320 160c0 -18 -14 -32 -32 -32v48c0 9 -7 16 -16 16h-48c0 18 14 32 32 32h32c18 0 32 -14 32 -32v-32zM224 128v32h32v-32h-32zM224 64v32h32v-32h-32z" />
    <glyph glyph-name="uniF1D6" unicode="&#xf1d6;" horiz-adv-x="446" 
d="M155 274c0 0 93 -4 108 -19l66 -65l-42 -43l-84 84s-55 36 -55 36zM184 81v0v0l-137 -137v0c-7 -7 -18 -7 -25 0v0l-17 17v0c-7 7 -7 18 0 25v0l137 137v0c7 7 18 7 25 0v0l17 -17v0c7 -7 7 -18 0 -25zM318 416l128 -128v-320h-320l32 32h256v288h-96v96h-224v-256
l-32 -32v320h256zM196 106l-29 29l60 60l29 -29zM311 99l-31 31l67 66l30 -30zM292 262l31 -31l-12 -12l-31 31z" />
    <glyph glyph-name="uniF1D7" unicode="&#xf1d7;" 
d="M128 96c-18 0 -32 14 -32 32s14 32 32 32s32 -14 32 -32s-14 -32 -32 -32zM288 107v-75h-194c15 16 40 39 66 48c19 6 44 -16 64 -16c22 0 48 24 64 43zM320 416l128 -128v-320h-32v320h-96v96h-224v-96h-32v128h256zM352 256c18 0 32 -14 32 -32v-256
c0 -18 -14 -32 -32 -32h-320c-18 0 -32 14 -32 32v256c0 18 14 32 32 32h320zM320 0v192h-256v-192h256z" />
    <glyph glyph-name="uniF1D8" unicode="&#xf1d8;" horiz-adv-x="384" 
d="M256 416l128 -128v-320h-384v448h256zM352 0v288h-96v96h-224v-384h320zM64 145v31l89 55v-36l-62 -34l63 -36v-36zM167 64l32 192h19l-33 -192h-18zM231 195v36l89 -56v-30l-89 -56v36l62 35z" />
    <glyph glyph-name="uniF1D9" unicode="&#xf1d9;" 
d="M288 256h80l-72 -101l88 -123h-80l-48 67l-25 -35h-80l65 91l-72 101h80l32 -45zM64 32v32h32v-32h-32zM32 160v-160h288v-32h-320v224h156l22 -32h-146zM96 128v-32h-32v32h32zM320 416l128 -128v-320h-96v32h64v288h-96v96h-224v-160h-32v192h256zM128 128h32v-6
l-18 -26h-14v32z" />
    <glyph glyph-name="uniF1DA" unicode="&#xf1da;" horiz-adv-x="416" 
d="M0 75v-1v1v0zM128 10c71 0 128 29 128 64v-74c0 -35 -57 -64 -128 -64s-128 29 -128 64v74c0 -35 57 -64 128 -64zM256 74v1v0v-1zM128 256c71 0 128 -29 128 -64s-57 -64 -128 -64s-128 29 -128 64s57 64 128 64zM288 416l128 -128v-320h-128v32h96v288h-96v96h-224v-96
h-32v128h256zM128 106c71 0 128 29 128 64v-74c0 -35 -57 -64 -128 -64s-128 29 -128 64v74c0 -35 57 -64 128 -64z" />
    <glyph glyph-name="uniF1DB" unicode="&#xf1db;" 
d="M65 41c1 5 1 12 1 20h30c0 -8 -1 -16 -2 -23c-1 -8 -4 -14 -7 -20s-8 -10 -14 -13s-14 -5 -24 -5c-11 0 -20 1 -26 5c-7 4 -12 10 -15 17s-5 15 -6 25s-2 21 -2 33s1 22 2 32s3 19 6 26s8 12 15 16c6 4 15 6 26 6c10 0 19 -1 25 -5s11 -8 14 -14s4 -12 5 -18s1 -12 1 -18
h-29c0 11 -1 20 -4 25c-2 5 -6 7 -13 7c-4 0 -7 -1 -9 -3s-5 -5 -6 -10s-2 -11 -3 -19s-1 -16 -1 -27c0 -12 0 -22 1 -29s2 -13 4 -17s4 -7 6 -8s5 -2 8 -2s5 1 7 2s4 2 6 5s3 7 4 12zM218 70c2 -3 4 -6 5 -10s1 -8 1 -13c0 -16 -4 -29 -13 -36s-21 -11 -37 -11
c-17 0 -29 3 -36 11s-11 19 -11 33v7h30v-5c0 -4 0 -7 1 -10s1 -5 3 -7s4 -4 6 -5c3 -1 5 -2 9 -2s8 2 12 5s6 8 6 14c0 3 -1 6 -2 9s-2 5 -4 7s-5 4 -8 6s-7 3 -12 5c-7 2 -12 4 -17 7s-9 6 -12 10s-6 8 -7 13c-2 5 -3 11 -3 17c0 15 4 27 12 34c8 8 19 11 33 11
c6 0 12 0 18 -2c5 -2 11 -4 15 -7s7 -8 9 -13s3 -12 3 -19v-5h-28c0 7 -1 13 -3 17s-7 6 -13 6c-3 0 -6 0 -8 -1s-4 -2 -5 -4l-3 -6v-7c0 -5 1 -9 3 -12s6 -6 12 -9l22 -10c6 -3 10 -5 14 -8s6 -7 8 -10zM320 416l128 -128v-320h-64v32h32v288h-96v96h-224v-192h-32v224h256
zM304 42l20 118h28l-31 -160h-35l-30 160h28l19 -118h1z" />
    <glyph glyph-name="uniF1DC" unicode="&#xf1dc;" horiz-adv-x="417" 
d="M59 136c0 3 2 6 6 6s7 -3 7 -6v-137c0 -3 -3 -6 -7 -6s-6 3 -6 6v137zM289 416l128 -128v-320h-128v32h96v288h-96v96h-224v-64h-32v96h256zM225 134h-32v135l-8 25v26h48v-26l-8 -25v-135zM233 90c0 -6 24 -15 24 -26v-109c0 -11 -11 -19 -24 -19h-48
c-13 0 -24 8 -24 19v109c0 11 24 17 24 26c0 6 -16 19 -16 25s3 13 16 13h48c13 0 16 -7 16 -13s-16 -19 -16 -25zM189 -45v103c0 4 -2 6 -4 6s-4 -2 -4 -6v-103c0 -4 2 -6 4 -6s4 2 4 6zM237 -45v103c0 4 -2 6 -4 6s-4 -2 -4 -6v-103c0 -4 2 -6 4 -6s4 2 4 6zM39 172
c8 -3 17 -5 26 -5s19 2 27 5v-210c0 -14 -13 -25 -27 -25s-26 11 -26 25v210zM65 -47c5 0 10 4 10 9s-5 9 -10 9s-9 -4 -9 -9s4 -9 9 -9zM79 136c0 7 -7 13 -14 13s-13 -6 -13 -13v-137c0 -7 6 -12 13 -12s14 5 14 12v137zM104 285c16 -11 27 -28 27 -49
c0 -34 -30 -63 -66 -63s-65 29 -65 63c0 21 11 38 27 49h6v-43c0 -10 8 -19 19 -19h27c11 0 19 9 19 19v43h6z" />
    <glyph glyph-name="uniF1DD" unicode="&#xf1dd;" horiz-adv-x="512" 
d="M173 155l21 -21l93 -91l-68 -69c-37 -38 -98 -38 -136 -1l-11 11l-48 -48l-24 24l48 48l-10 10c-38 37 -38 98 -1 136l67 68l69 -67v0zM464 376l10 -10c38 -37 38 -98 1 -136l-67 -68l-43 43l-77 -77l-32 32l76 76l-14 14l-18 18l-76 -76l-32 32l76 76l-43 41l68 69
c37 38 98 38 136 1l11 -11l48 48l24 -24z" />
    <glyph glyph-name="uniF1DE" unicode="&#xf1de;" 
d="M256 255v-31h-96v-64l-112 112l-48 -48v160c0 18 14 32 32 32h160l-48 -48zM400 112l48 48v-160c0 -18 -14 -32 -32 -32h-160l48 48l-112 113v31h96v64z" />
    <glyph glyph-name="uniF1DF" unicode="&#xf1df;" 
d="M224 416c124 0 224 -100 224 -224s-100 -224 -224 -224s-224 100 -224 224s100 224 224 224zM224 0c106 0 192 86 192 192s-86 192 -192 192s-192 -86 -192 -192s86 -192 192 -192zM317 298l45 -45l-167 -167h-1v0l-104 103l46 45l58 -58z" />
    <glyph glyph-name="uniF1E0" unicode="&#xf1e0;" 
d="M224 416c124 0 224 -100 224 -224s-100 -224 -224 -224s-224 100 -224 224s100 224 224 224zM224 0c106 0 192 86 192 192s-86 192 -192 192s-192 -86 -192 -192s86 -192 192 -192zM199 64v49h52v-49h-52zM294 298c17 -15 26 -32 26 -51c0 -11 -3 -20 -9 -30
s-20 -23 -41 -39c-11 -9 -17 -16 -20 -21s-4 -15 -4 -28h-47v12c0 14 3 26 8 35s15 19 30 31c15 11 24 19 27 23c5 6 6 11 6 18c0 9 -4 18 -12 25s-18 10 -32 10c-13 0 -24 -4 -33 -11s-15 -18 -18 -32l-47 6c1 21 11 38 28 52s40 22 68 22c29 0 53 -7 70 -22z" />
    <glyph glyph-name="uniF1E1" unicode="&#xf1e1;" 
d="M224 416c124 0 224 -100 224 -224s-100 -224 -224 -224s-224 100 -224 224s100 224 224 224zM224 0c106 0 192 86 192 192s-86 192 -192 192s-192 -86 -192 -192s86 -192 192 -192zM256 288v-64h64v-64h-64v-64h-64v64h-64v64h64v64h64z" />
    <glyph glyph-name="uniF1E2" unicode="&#xf1e2;" 
d="M285 298l45 -45l-61 -61l61 -61l-45 -45l-61 61l-61 -61l-45 45l61 61l-61 61l45 45l61 -61zM224 416c124 0 224 -100 224 -224s-100 -224 -224 -224s-224 100 -224 224s100 224 224 224zM224 0c106 0 192 86 192 192s-86 192 -192 192s-192 -86 -192 -192
s86 -192 192 -192z" />
    <glyph glyph-name="uniF1E3" unicode="&#xf1e3;" 
d="M224 416c124 0 224 -100 224 -224s-100 -224 -224 -224s-224 100 -224 224s100 224 224 224zM224 0c106 0 192 86 192 192s-86 192 -192 192s-192 -86 -192 -192s86 -192 192 -192zM225 262c-8 0 -15 2 -21 8s-9 13 -9 21s3 14 9 20s13 8 21 8s15 -2 21 -8s8 -12 8 -20
s-2 -15 -8 -21s-13 -8 -21 -8zM251 100c0 -12 2 -21 5 -24s8 -5 17 -5v-7h-96v7c8 0 13 2 17 6c3 3 4 11 4 23v92c0 12 -1 20 -4 23s-9 6 -17 6v7h74v-128z" />
    <glyph glyph-name="uniF1E4" unicode="&#xf1e4;" horiz-adv-x="483" 
d="M213 -0v85h-64l107 134l107 -134h-64v-85h-86zM449 199c21 -10 34 -31 34 -54c0 -8 -2 -15 -5 -23c-8 -20 -26 -35 -46 -37h-1h-24v24h23c11 1 22 10 27 22c2 5 3 9 3 14c0 14 -7 27 -20 33c-4 2 -8 2 -13 2h-3l-12 -1l-1 12c-2 26 -18 51 -43 62c-9 4 -19 6 -28 6
c-10 0 -21 -3 -30 -7l-13 -6l-3 14c-6 30 -25 57 -54 70c-12 6 -25 8 -38 8c-36 0 -71 -22 -86 -59c-3 -8 -6 -17 -7 -25l-2 -11l-11 1c-3 0 -5 1 -8 1c-25 0 -49 -15 -60 -41c-4 -9 -5 -18 -5 -27c0 -26 14 -52 39 -63c8 -4 17 -5 26 -5v0v0h34v-24h-36v0
c-11 0 -22 3 -33 8c-33 15 -53 49 -53 84c0 12 2 24 7 36c14 35 47 56 81 56h1c2 7 3 12 6 19c19 46 62 74 107 74c16 0 32 -3 47 -10c32 -14 54 -41 64 -73c9 3 18 4 27 4c12 0 25 -2 37 -8c29 -13 49 -41 55 -71c5 -1 11 -3 16 -5h1z" />
    <glyph glyph-name="uniF1E5" unicode="&#xf1e5;" 
d="M320 96h128v-128h-128v128zM160 -32v128h64h64v-128h-128zM0 -32v128h128v-128h-128zM288 288h-32h-32h-32h-32v128h128v-128zM256 160h32l-64 -64l-64 64h32l32 128zM32 218l23 -22l137 92l-92 -137l22 -23h-90v90zM326 128l22 23l-92 137l137 -92l23 22v-90h-90z" />
    <glyph glyph-name="uniF1E6" unicode="&#xf1e6;" horiz-adv-x="384" 
d="M384 336l-144 -144l144 -144l-48 -48l-144 144l-144 -144l-48 48l144 144l-144 144l48 48l144 -144l144 144z" />
    <glyph glyph-name="uniF1E7" unicode="&#xf1e7;" horiz-adv-x="128" 
d="M128 251l-48 -48l48 -48l-16 -16l-48 48l-48 -48l-16 16l48 48l-48 48l16 16l48 -48l48 48z" />
    <glyph glyph-name="uniF1E8" unicode="&#xf1e8;" horiz-adv-x="480" 
d="M368 352l-80 -80l-32 32l80 80zM208 192l-144 -144l16 -16l-32 -32l-48 48l144 144l-144 144l48 48l32 -32l-16 -16zM256 80l32 32l80 -80l-32 -32zM480 336l-144 -144l144 -144l-48 -48l-144 144l-144 -144l-48 48l144 144l-144 144l48 48l144 -144l144 144z" />
    <glyph glyph-name="uniF1E9" unicode="&#xf1e9;" horiz-adv-x="363" 
d="M363 299v0v-279v-22v-19h-328h-22h-13v426h13h22h192zM320 21v256h-85v86h-192v-342h277zM235 169v-84h21v-42h-29h-107h-13v21h-22v20v42v23h22v22h13h72v21h-93h-14v43h14h85h21h30v-45v-21zM192 128h-64v-43h64v43z" />
    <glyph glyph-name="uniF1EA" unicode="&#xf1ea;" horiz-adv-x="512" 
d="M512 21h-512v224l128 96h277l107 -96v-224zM43 64h426v160l-85 75h-235l-106 -75v-160z" />
    <glyph glyph-name="uniF1EB" unicode="&#xf1eb;" horiz-adv-x="480" 
d="M336 416c80 0 144 -64 144 -144s-64 -144 -144 -144s-144 64 -144 144s64 144 144 144zM336 160c62 0 112 50 112 112s-50 112 -112 112s-112 -50 -112 -112s50 -112 112 -112zM384 96v7c11 3 22 7 32 12v-179h-416v416h179c-5 -10 -9 -21 -12 -32h-7v-96h7
c3 -11 7 -22 12 -32h-19v-96h96v19c10 -5 21 -9 32 -12v-7h96zM128 -32v96h-96v-96h96zM128 96v96h-96v-96h96zM128 224v96h-96v-96h96zM256 -32v96h-96v-96h96zM384 -32v96h-96v-96h96zM352 352v-82l37 -37l-23 -23l-46 46v0v0l-1 1l1 1v94h32z" />
    <glyph glyph-name="uniF1EC" unicode="&#xf1ec;" horiz-adv-x="341" 
d="M171 243c-95 0 -170 38 -170 86s75 84 170 84s170 -39 170 -87s-75 -83 -170 -83zM171 115c-95 0 -171 37 -171 85v85c0 -48 76 -64 171 -64s170 12 170 60v-81c0 -48 -75 -85 -170 -85zM171 88c95 0 170 11 170 59v-81c0 -48 -71 -101 -166 -101s-175 53 -175 101v86
c0 -48 76 -64 171 -64z" />
    <glyph glyph-name="uniF1ED" unicode="&#xf1ed;" horiz-adv-x="369" 
d="M131 182l-90 127s-11 44 -7 61c7 27 17 51 17 51v0l122 -178zM343 90c34 -41 33 -107 6 -130s-76 2 -110 43c-23 27 -39 63 -47 84l45 63l2 -3c11 -4 83 -32 104 -57zM333 -14c18 15 20 68 -9 86c-47 30 -65 28 -77 18c-10 -11 -19 -25 14 -76c19 -29 54 -43 72 -28z
M328 309l-145 -204l1 -1s-20 -60 -54 -101s-83 -66 -110 -43s-28 89 6 130c21 25 93 53 104 57l47 68l141 206v0s11 -24 18 -51c4 -17 -8 -61 -8 -61zM108 14c33 51 24 65 14 76c-12 10 -31 12 -77 -18c-29 -18 -27 -71 -9 -86s53 -1 72 28zM161 167c0 -13 11 -24 24 -24
s24 11 24 24s-11 24 -24 24s-24 -11 -24 -24z" />
    <glyph glyph-name="uniF1EE" unicode="&#xf1ee;" horiz-adv-x="427" 
d="M427 299v-363h-427v512h299l127 -149h1zM405 -43v342h-107l1 128h-278v-470h384zM163 86c10 -7 28 -15 45 -15c25 0 36 14 36 31c0 18 -10 28 -35 38c-34 13 -49 33 -49 58c0 33 25 61 65 61c19 0 36 -6 46 -13l-9 -27c-7 5 -21 12 -38 12c-20 0 -32 -14 -32 -29
c0 -17 12 -25 36 -35c33 -14 49 -31 49 -62c0 -36 -25 -62 -70 -62c-21 0 -40 5 -53 14z" />
    <glyph glyph-name="uniF1EF" unicode="&#xf1ef;" horiz-adv-x="491" 
d="M76 427h-45c-18 0 -31 -14 -31 -32v-45v-393h402h45c18 0 44 6 44 24v45v401h-415zM92 405h377v-364v-41c0 -16 -23 -21 -39 -21h-41h-368v357v41c0 16 14 28 30 28h41zM171 85h42v43h-42v-43zM213 299h-42l21 -150v0zM277 85h43v43h-43v-43zM320 299h-43l22 -150v0z" />
    <glyph glyph-name="uniF1F0" unicode="&#xf1f0;" horiz-adv-x="480" 
d="M64 112v16h64v-16h-64zM64 240v16h64v-16h-64zM224 384h-32h-64h-96v-320h96v-32h-128v384h192zM64 176v16h64v-16h-64zM64 304v16h64v-16h-64zM320 256v-16h-96v16h96zM224 176v16h192v-16h-192zM352 352l128 -128v-256h-320v384h192zM448 0v224h-96v96h-160v-320h256z
M224 112v16h192v-16h-192zM224 48v16h192v-16h-192z" />
    <glyph glyph-name="uniF1F1" unicode="&#xf1f1;" horiz-adv-x="342" 
d="M342 306v0v-143c0 -17 -8 -31 -19 -41h1l-2 -2c-4 -3 -8 -6 -12 -8l-139 -91h-29v86h-85c-31 0 -57 25 -57 56v143c0 31 26 57 57 57h228c31 0 57 -26 57 -57zM256 192v28h-171v-28h171zM256 249v28h-171v-28h171z" />
    <glyph glyph-name="uniF1F2" unicode="&#xf1f2;" horiz-adv-x="512" 
d="M272 32c50 0 94 25 120 64h37c-29 -57 -89 -96 -157 -96c-92 0 -167 70 -175 160h-97v32h97c8 90 83 160 175 160c68 0 128 -39 157 -96h-37c-26 39 -70 64 -120 64c-80 0 -144 -64 -144 -144s64 -144 144 -144zM350 192h162v-32h-162c-7 -37 -39 -64 -78 -64
c-44 0 -80 36 -80 80s36 80 80 80c39 0 71 -27 78 -64z" />
    <glyph glyph-name="uniF1F3" unicode="&#xf1f3;" horiz-adv-x="512" 
d="M432 344l10 -10c38 -37 38 -98 1 -136l-67 -68l-43 43l-57 -57l43 -41l-68 -69c-37 -38 -98 -38 -136 -1l-11 11l-80 -80l-24 24l80 80l-10 10c-38 37 -38 98 -1 136l67 68l43 -43l57 57l-43 41l68 69c37 38 98 38 136 1l11 -11l80 80l24 -24zM226 166l18 -18l56 56
l-14 14l-18 18l-56 -56z" />
    <glyph glyph-name="uniF1F4" unicode="&#xf1f4;" horiz-adv-x="512" 
d="M256 384v-160c0 -18 -14 -32 -32 -32h-160l48 48l-112 113v31h96v64l112 -112zM400 144l112 -113v-31h-96v-64l-112 112l-48 -48v160c0 18 14 32 32 32h160z" />
    </font>
</defs>
</svg>
