<?xml version="1.0" encoding="utf-8"?>
<!-- Generator: Adobe Illustrator 16.0.3, SVG Export Plug-In . SVG Version: 6.00 Build 0)  -->
<!DOCTYPE svg PUBLIC "-//W3C//DTD SVG 1.1//EN" "http://www.w3.org/Graphics/SVG/1.1/DTD/svg11.dtd" [
	<!ENTITY st0 "fill-rule:evenodd;clip-rule:evenodd;">
]>
<svg version="1.1" id="Layer_1" xmlns="http://www.w3.org/2000/svg" xmlns:xlink="http://www.w3.org/1999/xlink" x="0px" y="0px"
	 width="16px" height="16px" viewBox="0 0 16 16" style="enable-background:new 0 0 16 16;" xml:space="preserve">
<g id="Access_16">
	<path style="&st0;" d="M11,5c0-1.657-1.343-3-3-3S5,3.343,5,5c0,1.305,0.837,2.403,2,2.816V8.5l-1,1l1,1l-1,1l1,1l-1,1l2,2l1-1
		V7.816C10.163,7.403,11,6.305,11,5z M8,5C7.447,5,7,4.553,7,4s0.447-1,1-1s1,0.447,1,1S8.553,5,8,5z"/>
</g>
</svg>
