<?xml version="1.0" encoding="utf-8"?>
<!-- Generator: Adobe Illustrator 16.0.0, SVG Export Plug-In . SVG Version: 6.00 Build 0)  -->
<!DOCTYPE svg PUBLIC "-//W3C//DTD SVG 1.1//EN" "http://www.w3.org/Graphics/SVG/1.1/DTD/svg11.dtd">
<svg version="1.1" id="add-user" xmlns="http://www.w3.org/2000/svg" xmlns:xlink="http://www.w3.org/1999/xlink" x="0px" y="0px"
	 width="24px" height="24px" viewBox="0 0 24 24" enable-background="new 0 0 24 24" xml:space="preserve">
<g>
	<g>
		<g>
			<path d="M14.115,15.893c-0.48,0.787-1.361,1.98-2.295,1.98c-1.393,0-2.197-2.137-2.197-2.137L9.75,14.57
				c-1.283-0.702-2.215-2.256-2.215-5.096c0-1.393,1.521-0.262,2.914-1.652c0.965-0.965,1.914-3.393,1.914-3.393
				c2.129,0,3.521,1.969,3.521,5.045c0,2.498-0.918,4.609-2.756,5.314l0.986,0.309v-0.023h0.518
				c-0.111-0.043-0.205-0.083-0.32-0.126c1.424-1.099,3.012-2.904,2.965-5.474c0-3.844-2.492-6.959-5.568-6.959
				c-3.074,0-5.566,3.115-5.566,6.959c0.799,3.286,2.125,4.975,3.33,5.851c-3.523,1.204-4.818,1.853-6.113,2.5
				C1.967,18.521,1.967,22,1.967,22h15.109v-1.964h-2.961V15.893z M21,16v-3h-3v3h-3v3h3v3h3v-3h3v-3H21z"/>
		</g>
	</g>
</g>
</svg>
