<?xml version="1.0" encoding="utf-8"?>
<!-- Generator: Adobe Illustrator 15.1.0, SVG Export Plug-In . SVG Version: 6.00 Build 0)  -->
<!DOCTYPE svg PUBLIC "-//W3C//DTD SVG 1.1//EN" "http://www.w3.org/Graphics/SVG/1.1/DTD/svg11.dtd">
<svg version="1.1" id="Layer_1" xmlns="http://www.w3.org/2000/svg" xmlns:xlink="http://www.w3.org/1999/xlink" x="0px" y="0px"
	 width="24px" height="24px" viewBox="0 0 24 24" enable-background="new 0 0 24 24" xml:space="preserve">
<g>
	<polygon points="19,12 19,9 17,9 17,12 14,12 14,14 17,14 17,17 19,17 19,14 22,14 22,12 	"/>
	<path d="M14,7.541V6.396c0,0-3.02-1-6.016-1c-2.987,0-5.984,1-5.984,1v1.132c0-0.13,2.729-1.143,6.016-1.143
		C11.613,6.385,14,7.541,14,7.541z"/>
	<path d="M14,7.572c0,0-2.387,0.594-5.984,0.594C4.848,8.166,2,7.645,2,7.579v0.848l3.974,4.063c0,0,0.026,0.007,0.026,0.017v4.932
		C6,17.438,6.894,18,7.833,18C8.898,18,10,17.438,10,17.438v-4.926c0.02-0.014,0.031-0.022,0.031-0.022L14,8.458V7.572z"/>
</g>
</svg>
