<?xml version="1.0" encoding="utf-8"?>
<!-- Generator: Adobe Illustrator 16.0.0, SVG Export Plug-In . SVG Version: 6.00 Build 0)  -->
<!DOCTYPE svg PUBLIC "-//W3C//DTD SVG 1.1//EN" "http://www.w3.org/Graphics/SVG/1.1/DTD/svg11.dtd">
<svg version="1.1" id="Layer_1" xmlns="http://www.w3.org/2000/svg" xmlns:xlink="http://www.w3.org/1999/xlink" x="0px" y="0px"
	 width="24px" height="24px" viewBox="0 0 24 24" enable-background="new 0 0 24 24" xml:space="preserve">
<g id="add-comment">
	<g id="_x31_6_7_">
		<g>
			<path d="M23,4.667C23,2.643,21.357,1,19.334,1H4.667C2.643,1,1,2.643,1,4.667v9.166C1,15.857,2.643,17.5,4.667,17.5h5.5V23H12
				l9.047-5.943c0.2-0.106,0.389-0.229,0.564-0.371l0.242-0.158l-0.056,0.004C22.532,15.859,23,14.904,23,13.833V4.667z
				 M21.166,13.833c0,0.731-0.432,1.36-1.053,1.653L12,21.167v-5.5H4.667c-1.014,0-1.833-0.821-1.833-1.834V4.667
				c0-1.013,0.819-1.834,1.833-1.834h14.667c1.016,0,1.832,0.821,1.832,1.834V13.833z"/>
		</g>
	</g>
	<polygon points="8,8.006 16,8 16,10 8,10 	"/>
	<rect x="11" y="5" width="2" height="8"/>
</g>
</svg>
