<?xml version="1.0" encoding="utf-8"?>
<!-- Generator: Adobe Illustrator 16.0.4, SVG Export Plug-In . SVG Version: 6.00 Build 0)  -->
<!DOCTYPE svg PUBLIC "-//W3C//DTD SVG 1.1//EN" "http://www.w3.org/Graphics/SVG/1.1/DTD/svg11.dtd">
<svg version="1.1" id="Layer_1" xmlns="http://www.w3.org/2000/svg" xmlns:xlink="http://www.w3.org/1999/xlink" x="0px" y="0px"
	 width="24px" height="24px" viewBox="0 0 24 24" enable-background="new 0 0 24 24" xml:space="preserve">
<polygon fill="#5A5A5A" points="9,13 4,9 4,12 0,12 0,14 4,14 4,17 "/>
<polygon fill="#5A5A5A" points="18,14 18,17 20,17 20,14 "/>
<polygon fill="#5A5A5A" points="14,12 14,17 16,17 16,12 "/>
<polygon fill="#5A5A5A" points="7,4 7,8 8,9 8,7 22,7 22,19 8,19 8,17 7,18 7,20 23,20 23,4 "/>
<polygon fill="#5A5A5A" points="10,15 10,17 12,17 12,9 10,9 10,11 11,12 11,14 "/>
<polygon display="none" fill="none" points="0,4 23,4 23,20 0,20 "/>
</svg>
