<?xml version="1.0" encoding="utf-8"?>
<!-- Generator: Adobe Illustrator 16.0.3, SVG Export Plug-In . SVG Version: 6.00 Build 0)  -->
<!DOCTYPE svg PUBLIC "-//W3C//DTD SVG 1.1//EN" "http://www.w3.org/Graphics/SVG/1.1/DTD/svg11.dtd" [
	<!ENTITY st0 "fill-rule:evenodd;clip-rule:evenodd;">
]>
<svg version="1.1" id="Layer_1" xmlns="http://www.w3.org/2000/svg" xmlns:xlink="http://www.w3.org/1999/xlink" x="0px" y="0px"
	 width="16px" height="16px" viewBox="0 0 16 16" style="enable-background:new 0 0 16 16;" xml:space="preserve">
<g id="Admin_16">
	<path style="&st0;" d="M8.604,9.406H8.133C8.098,9.135,8.056,8.846,8.019,8.708c0.27-0.255,0.628-0.893,0.932-1.713
		c0.053-0.259,0.13-0.509,0.24-0.746C9.276,5.95,9.354,5.641,9.414,5.32c0.021,0.176,0.057,0.315,0.103,0.382
		C9.593,5.594,9.68,5.494,9.769,5.394C9.837,5.157,9.895,4.843,9.921,4.57C9.971,4.06,9.895,3.64,9.752,3.634
		C9.687,3.632,9.619,3.719,9.56,3.86c0.009-1.863-0.749-3.604-3.251-3.893C6.299-0.033,6.29-0.027,6.28-0.027
		c-0.009,0-0.018-0.006-0.027-0.005C3.764,0.255,3.026,1.979,3.055,3.831c-0.057-0.123-0.119-0.199-0.18-0.197
		C2.732,3.64,2.657,4.06,2.707,4.57c0.05,0.512,0.206,1.181,0.349,1.175c0.076-0.003,0.132-0.198,0.161-0.456
		C3.529,6.871,4.224,8.294,4.66,8.708C4.624,8.846,4.582,9.135,4.547,9.406H4.078v0.754c-1.16,0.428-4.097,1.734-4.118,2.576
		c0,0.536,0,0.768,0,1.305c2.817,0,7.271,0,11.04,0v-2.81c-0.869-0.458-1.843-0.863-2.396-1.069V9.406z M16.008,7.917
		c0-1.649-1.337-2.987-2.987-2.987c-1.649,0-2.986,1.338-2.986,2.987c0,1.409,1.155,1.847,1.945,2.637v4.578l0.632,0.851h0.638
		l1.727-1.063v-0.398L14,14.068V13l0.976-0.251v-0.425L14,12v-1.387C14.851,9.764,16.008,9.326,16.008,7.917z M12.944,7.917
		c-0.4,0-0.725-0.324-0.725-0.724c0-0.4,0.324-0.725,0.725-0.725c0.399,0,0.724,0.324,0.724,0.725
		C13.668,7.593,13.344,7.917,12.944,7.917z"/>
</g>
</svg>
