<?xml version="1.0" encoding="utf-8"?>
<!-- Generator: Adobe Illustrator 16.0.3, SVG Export Plug-In . SVG Version: 6.00 Build 0)  -->
<!DOCTYPE svg PUBLIC "-//W3C//DTD SVG 1.1//EN" "http://www.w3.org/Graphics/SVG/1.1/DTD/svg11.dtd" [
	<!ENTITY st0 "fill-rule:evenodd;clip-rule:evenodd;">
]>
<svg version="1.1" id="Layer_1" xmlns="http://www.w3.org/2000/svg" xmlns:xlink="http://www.w3.org/1999/xlink" x="0px" y="0px"
	 width="16px" height="16px" viewBox="0 0 16 16" style="enable-background:new 0 0 16 16;" xml:space="preserve">
<g id="Shape_12_copy_2_">
	<path d="M14.939,13.694l0.028-0.047L8.449,1.657C8.43,1.604,8.4,1.562,8.371,1.514L8.299,1.377h-0.02C8.093,1.152,7.817,1,7.5,1
		S6.907,1.152,6.721,1.377h-0.02L6.629,1.513C6.6,1.562,6.57,1.604,6.551,1.658L0.032,13.679l0.024,0.039
		C0.03,13.808,0,13.896,0,13.993c0,0.492,0.365,0.883,0.84,0.971L0.861,15h13.277l0.021-0.036C14.634,14.876,15,14.485,15,13.993
		C15,13.887,14.97,13.791,14.939,13.694z M6.543,4.927h1.903v2.438l-0.499,3.722H7.033l-0.49-3.722V4.927z M8.512,13.993H6.494
		v-1.955h2.018V13.993z"/>
</g>
</svg>
