<?xml version="1.0" encoding="utf-8"?>
<!-- Generator: Adobe Illustrator 16.0.4, SVG Export Plug-In . SVG Version: 6.00 Build 0)  -->
<!DOCTYPE svg PUBLIC "-//W3C//DTD SVG 1.1//EN" "http://www.w3.org/Graphics/SVG/1.1/DTD/svg11.dtd">
<svg version="1.1" id="Layer_1" xmlns="http://www.w3.org/2000/svg" xmlns:xlink="http://www.w3.org/1999/xlink" x="0px" y="0px"
	 width="24px" height="24px" viewBox="0 0 24 24" enable-background="new 0 0 24 24" xml:space="preserve">
<path d="M16,14.001c-1.658,0-3,1.343-3,2.999s1.342,2.999,3,2.999c1.656,0,2.999-1.343,2.999-2.999S17.656,14.001,16,14.001z
	 M16,19.571c-1.421,0-2.571-1.151-2.571-2.571s1.15-2.571,2.571-2.571c1.42,0,2.57,1.151,2.57,2.571S17.42,19.571,16,19.571z
	 M21.6,16.301h-0.852c-0.053-0.373-0.15-0.73-0.285-1.069l0.735-0.425c0.192-0.11,0.258-0.355,0.147-0.547l-0.3-0.52
	c-0.111-0.192-0.354-0.257-0.547-0.146l-0.737,0.426c-0.229-0.289-0.493-0.552-0.781-0.782l0.426-0.736
	c0.11-0.192,0.045-0.436-0.146-0.547l-0.521-0.3c-0.19-0.11-0.437-0.044-0.546,0.146l-0.426,0.737
	c-0.339-0.135-0.695-0.232-1.068-0.286V11.4c0-0.221-0.18-0.4-0.4-0.4h-0.601c-0.22,0-0.398,0.179-0.398,0.4v0.851
	c-0.373,0.054-0.73,0.15-1.07,0.286L13.806,11.8c-0.109-0.191-0.354-0.256-0.546-0.146l-0.52,0.301
	c-0.19,0.11-0.257,0.355-0.146,0.547l0.426,0.736c-0.289,0.229-0.553,0.492-0.782,0.782L11.5,13.594
	c-0.192-0.11-0.436-0.045-0.547,0.146l-0.301,0.519c-0.11,0.192-0.044,0.438,0.147,0.548l0.737,0.424
	c-0.136,0.34-0.232,0.697-0.286,1.069h-0.852c-0.22,0-0.399,0.179-0.399,0.4v0.6c0,0.222,0.179,0.4,0.399,0.4h0.852
	c0.054,0.373,0.15,0.73,0.286,1.069L10.8,19.193c-0.191,0.111-0.257,0.355-0.146,0.548l0.3,0.519
	c0.111,0.191,0.355,0.257,0.547,0.146l0.736-0.426c0.23,0.29,0.493,0.553,0.782,0.781l-0.426,0.737
	c-0.11,0.192-0.045,0.437,0.146,0.547l0.52,0.301c0.19,0.11,0.437,0.044,0.546-0.146l0.424-0.737c0.34,0.135,0.697,0.231,1.07,0.286
	V22.6c0,0.221,0.179,0.4,0.398,0.4h0.601c0.221,0,0.4-0.18,0.4-0.4v-0.851c0.373-0.055,0.729-0.151,1.068-0.286l0.426,0.737
	c0.11,0.19,0.355,0.256,0.547,0.146l0.52-0.301c0.19-0.11,0.257-0.354,0.146-0.547l-0.426-0.735c0.288-0.23,0.553-0.492,0.782-0.782
	l0.736,0.426c0.192,0.11,0.436,0.045,0.547-0.146l0.3-0.519c0.109-0.192,0.045-0.438-0.147-0.548l-0.735-0.425
	c0.135-0.34,0.232-0.697,0.285-1.069H21.6c0.222,0,0.4-0.179,0.4-0.4V16.7C22,16.479,21.821,16.301,21.6,16.301z M16,20.427
	c-1.894,0-3.427-1.534-3.427-3.427s1.533-3.427,3.427-3.427c1.892,0,3.427,1.534,3.427,3.427S17.892,20.427,16,20.427z"/>
<path d="M16,24h1v-0.08C16.672,23.968,16.34,24,16,24z"/>
<path d="M10,20.592C9.369,19.541,9,18.314,9,17c0-0.695,0.105-1.366,0.294-2H5v-2h5.26c0.251-0.359,0.533-0.694,0.846-1H5v-2h9
	v0.294C14.635,10.104,15.305,10,16,10c0.34,0,0.672,0.032,1,0.08V0H2v24h14c-2.378,0-4.475-1.188-5.74-3 M15,8h1v1h-1V8z M5,7h9v2H5
	V7z M4,15H3v-1h1V15z M4,12H3v-1h1V12z M4,9H3V8h1V9z"/>
</svg>
