<?xml version="1.0" encoding="utf-8"?>
<!-- Generator: Adobe Illustrator 16.0.3, SVG Export Plug-In . SVG Version: 6.00 Build 0)  -->
<!DOCTYPE svg PUBLIC "-//W3C//DTD SVG 1.1//EN" "http://www.w3.org/Graphics/SVG/1.1/DTD/svg11.dtd" [
	<!ENTITY st0 "fill-rule:evenodd;clip-rule:evenodd;">
]>
<svg version="1.1" id="Layer_1" xmlns="http://www.w3.org/2000/svg" xmlns:xlink="http://www.w3.org/1999/xlink" x="0px" y="0px"
	 width="16px" height="16px" viewBox="0 0 16 16" style="enable-background:new 0 0 16 16;" xml:space="preserve">
<g id="_x31_6_34_">
	<path style="&st0;" d="M14.534,7.184h-0.993c-0.063-0.435-0.176-0.852-0.333-1.247l0.859-0.496c0.223-0.129,0.3-0.414,0.171-0.638
		l-0.351-0.606c-0.129-0.224-0.414-0.3-0.638-0.171l-0.86,0.497c-0.268-0.338-0.574-0.645-0.912-0.913l0.497-0.859
		c0.129-0.224,0.053-0.509-0.171-0.638l-0.606-0.351c-0.224-0.129-0.509-0.052-0.638,0.171l-0.496,0.859
		C9.668,2.635,9.251,2.521,8.816,2.459V1.466c0-0.258-0.209-0.467-0.467-0.467h-0.7c-0.257,0-0.466,0.209-0.466,0.467v0.993
		C6.749,2.521,6.332,2.635,5.937,2.792L5.44,1.933C5.312,1.71,5.026,1.634,4.803,1.762L4.196,2.112
		c-0.223,0.129-0.3,0.414-0.171,0.638l0.497,0.859C4.185,3.878,3.878,4.185,3.609,4.522L2.75,4.025
		C2.526,3.896,2.241,3.974,2.112,4.196L1.762,4.803C1.634,5.026,1.71,5.312,1.933,5.44l0.859,0.496
		C2.635,6.332,2.521,6.749,2.459,7.184H1.466c-0.258,0-0.467,0.209-0.467,0.467V8.35c0,0.258,0.209,0.467,0.467,0.467h0.993
		c0.063,0.435,0.176,0.852,0.333,1.247L1.933,10.56c-0.223,0.129-0.3,0.414-0.171,0.638l0.351,0.606
		c0.129,0.223,0.414,0.3,0.638,0.171l0.859-0.497c0.269,0.338,0.575,0.645,0.913,0.912l-0.497,0.86
		c-0.129,0.224-0.053,0.509,0.171,0.638l0.606,0.351c0.223,0.129,0.509,0.052,0.638-0.171l0.496-0.859
		c0.396,0.157,0.813,0.27,1.247,0.333v0.993c0,0.258,0.209,0.467,0.466,0.467h0.7c0.258,0,0.467-0.209,0.467-0.467v-0.993
		c0.435-0.063,0.852-0.176,1.247-0.333l0.496,0.859c0.129,0.223,0.414,0.299,0.638,0.17l0.606-0.35
		c0.223-0.129,0.3-0.414,0.171-0.638l-0.497-0.859c0.338-0.269,0.645-0.575,0.913-0.913l0.859,0.497
		c0.224,0.129,0.509,0.052,0.638-0.171l0.35-0.606c0.129-0.224,0.053-0.509-0.171-0.638l-0.858-0.496
		c0.157-0.396,0.271-0.813,0.333-1.247h0.993c0.258,0,0.467-0.209,0.467-0.467V7.65C15.001,7.393,14.792,7.184,14.534,7.184z
		 M8,11.999c-2.209,0-3.999-1.791-3.999-3.999S5.791,4.001,8,4.001c2.208,0,3.999,1.791,3.999,3.999S10.208,11.999,8,11.999z M8,4.5
		C6.067,4.5,4.5,6.067,4.5,8s1.567,3.5,3.5,3.5s3.5-1.567,3.5-3.5S9.933,4.5,8,4.5z M8,11c-1.657,0-3-1.343-3-3s1.343-3,3-3
		s3,1.343,3,3S9.657,11,8,11z"/>
</g>
</svg>
