<?xml version="1.0" encoding="utf-8"?>
<!-- Generator: Adobe Illustrator 16.0.0, SVG Export Plug-In . SVG Version: 6.00 Build 0)  -->
<!DOCTYPE svg PUBLIC "-//W3C//DTD SVG 1.1//EN" "http://www.w3.org/Graphics/SVG/1.1/DTD/svg11.dtd">
<svg version="1.1" id="Layer_1" xmlns="http://www.w3.org/2000/svg" xmlns:xlink="http://www.w3.org/1999/xlink" x="0px" y="0px"
	 width="24px" height="24px" viewBox="0 0 24 24" enable-background="new 0 0 24 24" xml:space="preserve">
<path  d="M19.125,2.875h-14c-1.104,0-2,0.896-2,2v14c0,1.104,0.896,2,2,2h14c1.104,0,2-0.896,2-2v-14
	C21.125,3.771,20.229,2.875,19.125,2.875z M19.125,16.721c0,1.189-0.964,2.154-2.154,2.154H7.279c-1.19,0-2.154-0.965-2.154-2.154
	V7.03c0-1.19,0.964-2.155,2.154-2.155h9.692c1.19,0,2.154,0.965,2.154,2.154V16.721z"/>
<polygon  points="16.125,6.875 10.125,12.875 8.125,10.875 6.125,12.875 8.125,14.875 10.125,16.875 18.125,8.875 "/>
</svg>
