<?xml version="1.0" encoding="utf-8"?>
<!-- Generator: Adobe Illustrator 16.0.3, SVG Export Plug-In . SVG Version: 6.00 Build 0)  -->
<!DOCTYPE svg PUBLIC "-//W3C//DTD SVG 1.1//EN" "http://www.w3.org/Graphics/SVG/1.1/DTD/svg11.dtd" [
	<!ENTITY st0 "fill-rule:evenodd;clip-rule:evenodd;">
]>
<svg version="1.1" id="Layer_1" xmlns="http://www.w3.org/2000/svg" xmlns:xlink="http://www.w3.org/1999/xlink" x="0px" y="0px"
	 width="16px" height="16px" viewBox="0 0 16 16" style="enable-background:new 0 0 16 16;" xml:space="preserve">
<g id="Safe_16">
	<path style="&st0;" d="M11.5,10h1.497V7H11.5V5h1.439c-0.133-0.563-0.604-0.987-1.191-0.987H4.252
		c-0.689,0-1.249,0.573-1.249,1.282v6.41c0,0.709,0.56,1.282,1.249,1.282h7.496c0.588,0,1.059-0.425,1.191-0.987H11.5V10z M7.505,12
		c-1.939,0-3.511-1.567-3.511-3.5S5.565,5,7.505,5c1.938,0,3.511,1.567,3.511,3.5S9.443,12,7.505,12z M12.454,2H3.546
		C2.14,2,1,3.164,1,4.6V12.4C1,13.836,2.14,15,3.546,15h8.908C13.86,15,15,13.836,15,12.4V4.6C15,3.164,13.86,2,12.454,2z M14.5,7
		h-0.992v3H14.5v2h-1.025c-0.155,0.877-0.9,1.543-1.803,1.543H4.328c-1.015,0-1.836-0.841-1.836-1.879V5.398
		c0-1.038,0.821-1.879,1.836-1.879h7.344c0.881,0,1.614,0.635,1.793,1.48H14.5V7z M7.504,5.994c-1.38,0-2.498,1.122-2.498,2.506
		s1.118,2.506,2.498,2.506s2.499-1.122,2.499-2.506S8.884,5.994,7.504,5.994z M7.489,9.985c-0.842,0-1.524-0.665-1.524-1.485
		s0.683-1.485,1.524-1.485S9.014,7.68,9.014,8.5S8.331,9.985,7.489,9.985z M12,11.5h2v-1h-2V11.5z M12,6.5h2v-1h-2V6.5z"/>
</g>
</svg>
