<?xml version="1.0" encoding="utf-8"?>
<!-- Generator: Adobe Illustrator 16.0.3, SVG Export Plug-In . SVG Version: 6.00 Build 0)  -->
<!DOCTYPE svg PUBLIC "-//W3C//DTD SVG 1.1//EN" "http://www.w3.org/Graphics/SVG/1.1/DTD/svg11.dtd" [
	<!ENTITY st0 "fill-rule:evenodd;clip-rule:evenodd;">
]>
<svg version="1.1" id="Layer_1" xmlns="http://www.w3.org/2000/svg" xmlns:xlink="http://www.w3.org/1999/xlink" x="0px" y="0px"
	 width="16px" height="16px" viewBox="0 0 16 16" style="enable-background:new 0 0 16 16;" xml:space="preserve">
<g id="_x31_6_49_">
	<path d="M11,4v8.5c0,1.381-1.119,2.5-2.5,2.5S6,13.881,6,12.5v-9C6,2.672,6.672,2,7.5,2S9,2.672,9,3.5v8C9,11.776,8.776,12,8.5,12
		S8,11.776,8,11.5V5H7v6.5C7,12.328,7.672,13,8.5,13s1.5-0.672,1.5-1.5v-8C10,2.119,8.881,1,7.5,1S5,2.119,5,3.5v9
		C5,14.433,6.566,16,8.5,16c1.933,0,3.5-1.567,3.5-3.5V4H11z"/>
</g>
</svg>
