<?xml version="1.0" encoding="utf-8"?>
<!-- Generator: Adobe Illustrator 15.1.0, SVG Export Plug-In . SVG Version: 6.00 Build 0)  -->
<!DOCTYPE svg PUBLIC "-//W3C//DTD SVG 1.1//EN" "http://www.w3.org/Graphics/SVG/1.1/DTD/svg11.dtd">
<svg version="1.1" id="Layer_1" xmlns="http://www.w3.org/2000/svg" xmlns:xlink="http://www.w3.org/1999/xlink" x="0px" y="0px"
	 width="24px" height="24px" viewBox="0 0 24 24" enable-background="new 0 0 24 24" xml:space="preserve">
<g>
	<path fill-rule="evenodd" clip-rule="evenodd" d="M9,4.5C6.514,4.501,4.5,6.516,4.5,9c0,2.483,2.014,4.499,4.499,4.499
		c2.484,0,4.499-2.016,4.499-4.499C13.498,6.516,11.484,4.5,9,4.5z M9,12c-1.657,0-3-1.344-3-3s1.343-3.001,3-3.001S12,7.343,12,9
		C12,10.656,10.657,12,9,12z"/>
	<path fill-rule="evenodd" clip-rule="evenodd" d="M14.107,15.748l-0.638-1.104c0.433-0.346,0.829-0.739,1.174-1.174l1.104,0.64
		c0.287,0.165,0.654,0.065,0.82-0.221l0.449-0.779c0.166-0.288,0.067-0.654-0.22-0.819l-1.104-0.663
		C15.896,11.119,16.042,11,16.123,10h1.275C17.732,10,18,9.78,18,9.449V8.55C18,8.219,17.732,8,17.398,8h-1.275
		c-0.081-1-0.227-1.119-0.429-1.629l1.104-0.648c0.287-0.167,0.387-0.539,0.221-0.826l-0.45-0.783
		c-0.166-0.288-0.533-0.387-0.82-0.223l-1.105,0.64c-0.344-0.435-0.74-0.829-1.173-1.175l0.64-1.104
		c0.165-0.287,0.067-0.654-0.221-0.819L13.109,0.98c-0.287-0.166-0.654-0.066-0.819,0.22l-0.663,1.104
		C11.12,2.104,11,1.957,10,1.877V0.6C10,0.269,9.781,0,9.449,0h-0.9C8.219,0,8,0.269,8,0.6v1.277c-1,0.08-1.119,0.227-1.629,0.428
		L5.722,1.2C5.557,0.914,5.184,0.816,4.896,0.98L4.113,1.432C3.827,1.597,3.726,1.964,3.892,2.251L4.53,3.356
		C4.096,3.701,3.701,4.095,3.356,4.53l-1.105-0.64c-0.288-0.166-0.654-0.066-0.82,0.22L0.98,4.89C0.815,5.178,0.914,5.545,1.2,5.71
		l1.106,0.661C2.103,6.881,1.957,7,1.876,8H0.599C0.269,8,0,8.219,0,8.55v0.899C0,9.78,0.269,10,0.599,10h1.278
		c0.081,1,0.226,1.119,0.43,1.627L1.2,12.277c-0.286,0.165-0.385,0.539-0.22,0.826l0.451,0.783c0.166,0.286,0.532,0.387,0.82,0.221
		l1.104-0.639c0.345,0.435,0.74,0.828,1.174,1.174l-0.639,1.106c-0.166,0.287-0.068,0.653,0.22,0.819l0.779,0.45
		c0.286,0.167,0.654,0.067,0.819-0.22l0.662-1.104C6.881,15.896,7,16.041,8,16.122v1.277C8,17.73,8.219,18,8.549,18h0.9
		C9.781,18,10,17.73,10,17.399v-1.277c1-0.081,1.12-0.226,1.627-0.428l0.65,1.104c0.166,0.287,0.539,0.384,0.826,0.219l0.783-0.45
		C14.172,16.402,14.273,16.035,14.107,15.748z M9,14.5c-3.038,0-5.5-2.463-5.5-5.5S5.961,3.5,9,3.5c3.037-0.001,5.5,2.463,5.5,5.5
		S12.037,14.5,9,14.5z"/>
	<path fill-rule="evenodd" clip-rule="evenodd" d="M19,16.5c-1.381,0-2.5,1.119-2.5,2.5c0,1.38,1.119,2.5,2.5,2.5
		c1.38,0,2.499-1.12,2.499-2.5C21.499,17.619,20.38,16.5,19,16.5z M19,20.666c-0.921,0-1.667-0.746-1.667-1.666
		s0.746-1.667,1.667-1.667c0.92,0,1.666,0.746,1.666,1.667C20.666,19.92,19.92,20.666,19,20.666z"/>
	<path fill-rule="evenodd" clip-rule="evenodd" d="M23.666,18h-0.709c-0.045,0-0.125-0.4-0.238-0.684l0.613-0.248
		c0.16-0.094,0.215-0.244,0.123-0.403l-0.25-0.407c-0.093-0.16-0.297-0.201-0.456-0.11l-0.614,0.362
		c-0.191-0.241-0.411-0.457-0.651-0.648l0.354-0.613c0.092-0.159,0.038-0.362-0.121-0.454l-0.434-0.249
		c-0.16-0.094-0.363-0.037-0.455,0.122l-0.146,0.613C20.4,15.168,20,15.087,20,15.043v-0.71C20,14.149,19.434,14,19.25,14h-0.5
		C18.566,14,18,14.149,18,14.333v0.71c0,0.044-0.399,0.125-0.683,0.237l-0.25-0.613c-0.092-0.159-0.243-0.214-0.403-0.122
		l-0.406,0.25c-0.16,0.092-0.201,0.296-0.109,0.455l0.361,0.615c-0.24,0.191-0.457,0.41-0.648,0.651l-0.613-0.355
		c-0.159-0.092-0.361-0.036-0.454,0.122l-0.249,0.434c-0.093,0.16-0.037,0.363,0.122,0.455l0.614,0.145
		C15.168,17.6,15.088,18,15.043,18h-0.711C14.149,18,14,18.566,14,18.75v0.5c0,0.184,0.149,0.75,0.332,0.75h0.711
		c0.045,0,0.125,0.4,0.238,0.682l-0.614,0.25c-0.159,0.092-0.214,0.244-0.122,0.403l0.25,0.407c0.092,0.16,0.296,0.201,0.455,0.109
		l0.614-0.362c0.192,0.242,0.411,0.456,0.651,0.649l-0.354,0.613c-0.093,0.159-0.039,0.361,0.121,0.454l0.434,0.249
		c0.158,0.092,0.363,0.037,0.455-0.123l0.146-0.613C17.601,22.831,18,22.912,18,22.957v0.709C18,23.85,18.566,24,18.75,24h0.5
		c0.184,0,0.75-0.15,0.75-0.334v-0.709c0-0.045,0.4-0.126,0.682-0.238l0.25,0.613c0.093,0.16,0.244,0.214,0.404,0.122l0.406-0.25
		c0.159-0.092,0.201-0.296,0.109-0.455l-0.361-0.614c0.24-0.191,0.457-0.41,0.648-0.651l0.612,0.354
		c0.159,0.092,0.362,0.037,0.454-0.122l0.25-0.433c0.092-0.16,0.037-0.363-0.123-0.455l-0.613-0.146
		C22.832,20.4,22.912,20,22.957,20h0.709C23.852,20,24,19.434,24,19.25v-0.5C24,18.566,23.852,18,23.666,18z M19,22.056
		c-1.688,0-3.056-1.368-3.056-3.056s1.368-3.056,3.056-3.056c1.688-0.001,3.056,1.368,3.056,3.056S20.688,22.056,19,22.056z"/>
</g>
</svg>
