<?xml version="1.0" encoding="utf-8"?>
<!-- Generator: Adobe Illustrator 15.1.0, SVG Export Plug-In . SVG Version: 6.00 Build 0)  -->
<!DOCTYPE svg PUBLIC "-//W3C//DTD SVG 1.1//EN" "http://www.w3.org/Graphics/SVG/1.1/DTD/svg11.dtd">
<svg version="1.1" id="Layer_1" xmlns="http://www.w3.org/2000/svg" xmlns:xlink="http://www.w3.org/1999/xlink" x="0px" y="0px"
	 width="24px" height="24px" viewBox="0 0 24 24" enable-background="new 0 0 24 24" xml:space="preserve">
<circle fill="#0096D6" cx="12" cy="12" r="12"/>
<g>
	<path fill="#FFFFFF" d="M19.768,17.134l-0.496-0.007c-0.031-0.218-0.088-0.427-0.166-0.625l0.43-0.241
		c0.112-0.064,0.15-0.205,0.086-0.318l-0.175-0.305c-0.065-0.113-0.208-0.153-0.319-0.091l-0.43,0.243
		c-0.135-0.17-0.288-0.325-0.457-0.462l0.249-0.426c0.064-0.11,0.026-0.254-0.085-0.32L18.1,14.404
		c-0.111-0.066-0.254-0.029-0.318,0.08l-0.203,0.427C17.381,14.831,17,14.771,17,14.736V14.24c0-0.129-0.149-0.234-0.278-0.236
		L16.303,14C16.174,13.998,16,14.102,16,14.229v0.497c0,0.027-0.379,0.083-0.578,0.158l-0.224-0.434
		c-0.064-0.111-0.196-0.151-0.308-0.089l-0.297,0.172c-0.111,0.063-0.147,0.205-0.083,0.317l0.25,0.433
		c-0.169,0.132-0.321,0.283-0.456,0.45l-0.43-0.254c-0.111-0.066-0.254-0.029-0.318,0.081l-0.176,0.301
		c-0.064,0.111-0.025,0.255,0.086,0.32l0.43,0.253c-0.078,0.196-0.135,0.404-0.167,0.621l-0.497-0.007
		C13.104,17.048,13,17.151,13,17.28v0.35c0,0.128,0.104,0.235,0.232,0.237l0.497,0.006c0.032,0.217,0.089,0.427,0.167,0.625
		l-0.43,0.241c-0.111,0.063-0.15,0.206-0.086,0.318l0.176,0.305c0.064,0.112,0.207,0.153,0.318,0.091l0.431-0.244
		c0.134,0.171,0.288,0.326,0.456,0.462l-0.248,0.427c-0.064,0.111-0.026,0.254,0.086,0.32l0.303,0.178
		c0.111,0.066,0.254,0.03,0.318-0.08l0.201-0.427C15.621,20.17,16,20.229,16,20.263v0.497c0,0.128,0.151,0.234,0.279,0.236
		l0.419,0.005C16.827,21.002,17,20.898,17,20.77v-0.496c0-0.028,0.381-0.082,0.578-0.158l0.226,0.433
		c0.065,0.112,0.196,0.151,0.308,0.089l0.299-0.17c0.111-0.063,0.146-0.206,0.082-0.318l-0.25-0.432
		c0.168-0.133,0.321-0.284,0.455-0.451l0.43,0.254c0.112,0.066,0.254,0.029,0.319-0.081l0.175-0.301
		c0.064-0.111,0.026-0.255-0.086-0.32l-0.43-0.253c0.079-0.196,0.136-0.404,0.167-0.62l0.495,0.007
		C19.897,17.952,20,17.849,20,17.72v-0.35C20,17.241,19.897,17.135,19.768,17.134z M16.502,19c-0.968-0.012-1.501-0.554-1.501-1.519
		c0-0.966,0.533-1.493,1.501-1.48c0.967,0.013,1.5,0.553,1.5,1.519C18.002,18.484,17.469,19.013,16.502,19z"/>
	<path fill="#FFFFFF" d="M12.979,14.249L12.48,13.39c0.336-0.269,0.643-0.575,0.91-0.913l0.859,0.497
		c0.223,0.129,0.508,0.052,0.637-0.172l0.35-0.606c0.129-0.223,0.053-0.508-0.171-0.637l-0.858-0.404
		C14.363,10.761,14.478,10,14.54,10h0.992C15.791,10,16,9.607,16,9.35V8.65C16,8.393,15.791,8,15.532,8H14.54
		c-0.063,0-0.177-0.76-0.333-1.156l0.858-0.447c0.224-0.13,0.301-0.393,0.171-0.615l-0.35-0.595
		c-0.129-0.225-0.414-0.294-0.639-0.167l-0.859,0.501c-0.268-0.338-0.575-0.644-0.912-0.913l0.497-0.856
		c0.128-0.224,0.053-0.509-0.171-0.64l-0.606-0.35c-0.223-0.129-0.509-0.051-0.637,0.172l-0.405,0.858
		C10.76,3.636,10,3.521,10,3.459V2.466C10,2.209,9.607,2,9.349,2h-0.7C8.392,2,8,2.209,8,2.466v0.993
		c0,0.063-0.759,0.177-1.155,0.333L6.394,2.934c-0.128-0.223-0.39-0.299-0.613-0.172L5.185,3.113
		C4.962,3.242,4.891,3.527,5.021,3.751L5.52,4.61C5.182,4.879,4.877,5.185,4.609,5.523L3.75,5.025
		C3.526,4.897,3.242,4.975,3.113,5.197L2.762,5.803c-0.129,0.225-0.051,0.51,0.171,0.639l0.86,0.402C3.636,7.24,3.522,8,3.459,8
		H2.465C2.209,8,2,8.393,2,8.65V9.35C2,9.607,2.209,10,2.465,10h0.994c0.063,0,0.176,0.761,0.334,1.154l-0.86,0.449
		c-0.223,0.129-0.3,0.393-0.171,0.616l0.351,0.595c0.129,0.223,0.414,0.294,0.637,0.166l0.859-0.502
		c0.269,0.338,0.576,0.643,0.914,0.911l-0.497,0.86c-0.129,0.223-0.053,0.508,0.171,0.638l0.606,0.349
		c0.223,0.13,0.508,0.053,0.637-0.171l0.404-0.858C7.241,14.363,8,14.477,8,14.539v0.994C8,15.79,8.392,16,8.649,16h0.7
		C9.607,16,10,15.79,10,15.533v-0.994c0-0.063,0.76-0.176,1.154-0.332l0.451,0.858c0.129,0.224,0.391,0.299,0.614,0.17l0.595-0.35
		C13.037,14.757,13.107,14.473,12.979,14.249z M9,11.793c-1.54,0-2.792-1.254-2.792-2.793S7.46,6.207,9,6.207S11.792,7.461,11.792,9
		S10.54,11.793,9,11.793z"/>
</g>
</svg>
