<?xml version="1.0" encoding="utf-8"?>
<!-- Generator: Adobe Illustrator 16.0.3, SVG Export Plug-In . SVG Version: 6.00 Build 0)  -->
<!DOCTYPE svg PUBLIC "-//W3C//DTD SVG 1.1//EN" "http://www.w3.org/Graphics/SVG/1.1/DTD/svg11.dtd" [
	<!ENTITY st0 "fill-rule:evenodd;clip-rule:evenodd;">
]>
<svg version="1.1" id="Layer_1" xmlns="http://www.w3.org/2000/svg" xmlns:xlink="http://www.w3.org/1999/xlink" x="0px" y="0px"
	 width="16px" height="16px" viewBox="0 0 16 16" style="enable-background:new 0 0 16 16;" xml:space="preserve">
<g id="_x33_2">
	<path style="&st0;" d="M11.958,6.401c0.158,0.226,0.471,0.28,0.696,0.122c0.227-0.158,0.28-0.471,0.122-0.696l-3.734-5.32
		C8.884,0.28,8.571,0.226,8.346,0.385C8.119,0.543,8.064,0.855,8.224,1.081L11.958,6.401z M4.042,6.401l3.734-5.32
		c0.158-0.226,0.104-0.538-0.122-0.696C7.429,0.226,7.116,0.28,6.958,0.507l-3.734,5.32C3.064,6.053,3.119,6.365,3.346,6.523
		C3.571,6.682,3.884,6.627,4.042,6.401z M14.75,6.102h-1.401c0.004,0.318-0.126,0.634-0.407,0.831
		c-0.452,0.317-1.075,0.208-1.393-0.244l-0.412-0.587H4.863L4.451,6.688C4.134,7.141,3.511,7.25,3.059,6.933
		C2.777,6.735,2.647,6.42,2.651,6.102H1.25c-0.414,0-0.75,0.336-0.75,0.75s0.336,0.75,0.75,0.75H2l1.5,7h9l1.5-7h0.75
		c0.414,0,0.75-0.336,0.75-0.75S15.164,6.102,14.75,6.102z M5.25,13.602c0,0,0.026,0.25-0.25,0.25s-0.25-0.25-0.25-0.25l-0.25-5.5
		c0-0.276,0.224-0.5,0.5-0.5s0.5,0.224,0.5,0.5L5.25,13.602z M8.25,13.602c0,0,0.026,0.25-0.25,0.25s-0.25-0.25-0.25-0.25l-0.25-5.5
		c0-0.276,0.224-0.5,0.5-0.5s0.5,0.224,0.5,0.5L8.25,13.602z M11.25,13.602c0,0,0.026,0.25-0.25,0.25s-0.25-0.25-0.25-0.25
		l-0.25-5.5c0-0.276,0.224-0.5,0.5-0.5s0.5,0.224,0.5,0.5L11.25,13.602z"/>
</g>
</svg>
