<?xml version="1.0" encoding="utf-8"?>
<!-- Generator: Adobe Illustrator 16.0.3, SVG Export Plug-In . SVG Version: 6.00 Build 0)  -->
<!DOCTYPE svg PUBLIC "-//W3C//DTD SVG 1.1//EN" "http://www.w3.org/Graphics/SVG/1.1/DTD/svg11.dtd" [
	<!ENTITY st0 "fill-rule:evenodd;clip-rule:evenodd;">
]>
<svg version="1.1" id="Layer_1" xmlns="http://www.w3.org/2000/svg" xmlns:xlink="http://www.w3.org/1999/xlink" x="0px" y="0px"
	 width="16px" height="16px" viewBox="0 0 16 16" style="enable-background:new 0 0 16 16;" xml:space="preserve">
<g id="_x31_6_21_">
	<path style="&st0;" d="M7.988,15.999c0.745,0,1.391-0.403,1.748-0.999H6.24C6.597,15.596,7.242,15.999,7.988,15.999z
		 M10.032,13.664H5.943c-0.188,0-0.341,0.153-0.341,0.341c0,0.188,0.152,0.341,0.341,0.341h4.089c0.188,0,0.341-0.152,0.341-0.341
		C10.373,13.817,10.221,13.664,10.032,13.664z M13.009,6.01c0-2.765-2.24-5.005-5.005-5.005S2.998,3.245,2.998,6.01
		c0,1.126,0.386,2.154,1.013,2.99H4c0,0,0.022,0.018,0.029,0.022c0.364,0.479,0.806,0.893,1.317,1.215C5.707,10.653,6,11.109,6,11.5
		c0,0.291,0,0.434,0,0.5h1c0-0.042,0-0.167,0-0.5C7,10.137,5.313,9,5.313,9h0.063C4.533,8.267,3.988,7.199,3.988,5.993
		c0-2.208,1.79-3.998,3.999-3.998c2.208,0,3.998,1.79,3.998,3.998c0,1.206-0.544,2.273-1.388,3.007h0.059C10.656,9,9,10.137,9,11.5
		c0,0.238,0.001,0.355,0.003,0.409H9.01c0,0-0.004,0.093-0.007,0L7,12h3c0-0.06,0-0.197,0-0.5c0-0.388,0.288-0.841,0.646-1.254
		c0.523-0.327,0.975-0.748,1.345-1.238C11.991,9.007,12,9,12,9h-0.004C12.624,8.164,13.009,7.136,13.009,6.01z M10.032,12.676H5.943
		c-0.188,0-0.341,0.153-0.341,0.341c0,0.188,0.152,0.341,0.341,0.341h4.089c0.188,0,0.341-0.152,0.341-0.341
		C10.373,12.829,10.221,12.676,10.032,12.676z M9.727,6H10L9.785,5.785L10,5H9L8.966,5.5H7.031L7,5H6l0.212,0.788L6,6h0.269
		l1.038,3.864L7.063,6h1.868L8.67,9.864L9.727,6z"/>
</g>
</svg>
