<?xml version="1.0" encoding="utf-8"?>
<!-- Generator: Adobe Illustrator 16.0.3, SVG Export Plug-In . SVG Version: 6.00 Build 0)  -->
<!DOCTYPE svg PUBLIC "-//W3C//DTD SVG 1.1//EN" "http://www.w3.org/Graphics/SVG/1.1/DTD/svg11.dtd" [
	<!ENTITY st0 "fill-rule:evenodd;clip-rule:evenodd;">
]>
<svg version="1.1" id="Layer_1" xmlns="http://www.w3.org/2000/svg" xmlns:xlink="http://www.w3.org/1999/xlink" x="0px" y="0px"
	 width="16px" height="16px" viewBox="0 0 16 16" style="enable-background:new 0 0 16 16;" xml:space="preserve">
<g id="_x31_6_22_">
	<path style="&st0;" d="M6.072,2.696L5.437,1.595L4.897,1.906l0.628,1.088C5.697,2.878,5.885,2.787,6.072,2.696z M4.359,4.16
		L3.272,3.531L2.961,4.07l1.101,0.636C4.152,4.519,4.244,4.331,4.359,4.16z M11.039,1.906L10.5,1.595L9.864,2.696
		c0.188,0.091,0.375,0.182,0.547,0.298L11.039,1.906z M12.976,4.07l-0.311-0.539L11.576,4.16c0.116,0.171,0.208,0.358,0.299,0.546
		L12.976,4.07z M8.279,2.276V1H7.657v1.276c0.104-0.008,0.204-0.031,0.311-0.031C8.075,2.245,8.175,2.269,8.279,2.276z M7.999,2.992
		c-2.2,0-3.983,1.79-3.983,3.997c0,0.96,0.351,1.828,0.912,2.518H4.819c0,0,0.103,0.063,0.246,0.167
		c0.209,0.23,0.436,0.443,0.692,0.619c0.219,0.252,0.391,0.538,0.391,0.826c0,0.438,0,0.524,0,0.538h0.801c0,0,0-0.009,0-0.538
		c0-1.075-1.234-2.15-1.234-2.15H5.76C5.293,8.44,5.002,7.753,5.002,6.99c0-1.659,1.342-3.004,2.997-3.004s2.997,1.345,2.997,3.004
		c0,0.902-0.412,1.691-1.04,2.241c-0.362,0.382-0.969,1.131-0.969,1.888c0,0.509,0,0.538,0,0.538h0.582c0,0,0.219,0.061,0.219-0.538
		c0-0.264,0.147-0.525,0.339-0.761c0.337-0.215,0.632-0.482,0.89-0.786c0.058-0.038,0.101-0.065,0.101-0.065H11.07
		c0.563-0.689,0.913-1.558,0.913-2.518C11.983,4.782,10.199,2.992,7.999,2.992z M9.569,11.995H6.367
		c-0.147,0-0.267,0.138-0.267,0.307c0,0.17,0.119,0.308,0.267,0.308h3.202c0.146,0,0.267-0.138,0.267-0.308
		C9.836,12.133,9.716,11.995,9.569,11.995z M7.968,15.008c0.672,0,1.245-0.418,1.482-1.008H6.486
		C6.724,14.59,7.297,15.008,7.968,15.008z M9.569,13.005H6.367c-0.147,0-0.267,0.143-0.267,0.318s0.119,0.318,0.267,0.318h3.202
		c0.146,0,0.267-0.143,0.267-0.318S9.716,13.005,9.569,13.005z M6.615,7l0.83,3.092L7.251,7h1.494l-0.21,3.092L9.381,7H9.6
		L9.428,6.828L9.6,6.2H8.8L8.772,6.6H7.226L7.2,6.2H6.4l0.169,0.63L6.4,7H6.615z"/>
</g>
</svg>
