<?xml version="1.0" encoding="utf-8"?>
<!-- Generator: Adobe Illustrator 15.1.0, SVG Export Plug-In . SVG Version: 6.00 Build 0)  -->
<!DOCTYPE svg PUBLIC "-//W3C//DTD SVG 1.1//EN" "http://www.w3.org/Graphics/SVG/1.1/DTD/svg11.dtd">
<svg version="1.1" xmlns="http://www.w3.org/2000/svg" xmlns:xlink="http://www.w3.org/1999/xlink" x="0px" y="0px" width="24px"
	 height="24px" viewBox="0 0 24 24" enable-background="new 0 0 24 24" xml:space="preserve">
<g id="Layer_1">
	<g>
		<path d="M7,12.5c-1.502,0-2.865-0.607-3.858-1.587C1.587,11.623,0.5,13.183,0.5,15c0,2.481,2.019,4.5,4.5,4.5
			c2.436,0,3.927-2.081,4-4.5c-0.569-0.817-0.432-1.661-0.486-2.717C8.033,12.422,7.526,12.5,7,12.5z"/>
		<path d="M13,6c0-2.762-2.239-5-5-5S3,3.238,3,6s2.239,5,5,5c0.313,0,0.618-0.037,0.916-0.092c0.663-1.605,2.065-2.826,3.779-3.245
			C12.881,7.141,13,6.586,13,6z"/>
	</g>
	<path d="M21,18v-2h-7v2h-2v6h11v-6H21z M15,17h5v1h-5V17z"/>
	<path d="M13,17v-2h7c0-2.762-2.238-6-5-6s-5,2.238-5,5c0,0.712,0.154,1.387,0.422,2L13,17z"/>
</g>
<g id="Layer_2">
</g>
</svg>
