<?xml version="1.0" encoding="utf-8"?>
<!-- Generator: Adobe Illustrator 16.0.3, SVG Export Plug-In . SVG Version: 6.00 Build 0)  -->
<!DOCTYPE svg PUBLIC "-//W3C//DTD SVG 1.1//EN" "http://www.w3.org/Graphics/SVG/1.1/DTD/svg11.dtd" [
	<!ENTITY st0 "fill-rule:evenodd;clip-rule:evenodd;">
]>
<svg version="1.1" id="Layer_1" xmlns="http://www.w3.org/2000/svg" xmlns:xlink="http://www.w3.org/1999/xlink" x="0px" y="0px"
	 width="16px" height="16px" viewBox="0 0 16 16" style="enable-background:new 0 0 16 16;" xml:space="preserve">
<g id="busy_16">
	<path style="&st0;" d="M5.172,6.586l1.414-1.414L3.758,2.343L2.343,3.758L5.172,6.586z M9,1H7v4h2V1z M5,7H1v2h4V7z M13.657,3.758
		l-1.415-1.415L9.414,5.172l1.414,1.414L13.657,3.758z M12.242,13.657l1.415-1.415l-2.829-2.828l-1.414,1.414L12.242,13.657z
		 M6.586,10.828L5.172,9.414l-2.829,2.828l1.415,1.415L6.586,10.828z M11,7v2h4V7H11z M7,15h2v-4H7V15z"/>
</g>
</svg>
