<?xml version="1.0" encoding="utf-8"?>
<!-- Generator: Adobe Illustrator 16.0.3, SVG Export Plug-In . SVG Version: 6.00 Build 0)  -->
<!DOCTYPE svg PUBLIC "-//W3C//DTD SVG 1.1//EN" "http://www.w3.org/Graphics/SVG/1.1/DTD/svg11.dtd" [
	<!ENTITY st0 "fill-rule:evenodd;clip-rule:evenodd;">
]>
<svg version="1.1" id="Layer_1" xmlns="http://www.w3.org/2000/svg" xmlns:xlink="http://www.w3.org/1999/xlink" x="0px" y="0px"
	 width="16px" height="16px" viewBox="0 0 16 16" style="enable-background:new 0 0 16 16;" xml:space="preserve">
<g id="calculate_16">
	<path style="&st0;" d="M8,9.5v-1H6.5V10h1C7.776,10,8,10.224,8,10.5C8,10.224,8.224,10,8.5,10C8.224,10,8,9.776,8,9.5z M8.5,10.5
		V12h1c0.276,0,0.5,0.224,0.5,0.5v-2H8.5z M12,1H4C2.896,1,2,1.896,2,3v10c0,1.104,0.896,2,2,2h8c1.104,0,2-0.896,2-2V3
		C14,1.896,13.104,1,12,1z M11.5,8C11.776,8,12,8.224,12,8.5h-1.5V10h1c0.276,0,0.5,0.224,0.5,0.5h-1.5V14
		c-0.276,0-0.5-0.224-0.5-0.5v-1H8.5V14C8.224,14,8,13.776,8,13.5v-1H6.5V14C6.224,14,6,13.776,6,13.5v-1H4.5V14
		C4.224,14,4,13.776,4,13.5v-1C4,12.224,4.224,12,4.5,12C4.224,12,4,11.776,4,11.5v-1C4,10.224,4.224,10,4.5,10
		C4.224,10,4,9.776,4,9.5v-1C4,8.224,4.224,8,4.5,8C4.224,8,4,7.776,4,7.5v-1C4,6.224,4.224,6,4.5,6h1C5.776,6,6,6.224,6,6.5
		C6,6.224,6.224,6,6.5,6h1C7.776,6,8,6.224,8,6.5C8,6.224,8.224,6,8.5,6h1C9.776,6,10,6.224,10,6.5C10,6.224,10.224,6,10.5,6h1
		C11.776,6,12,6.224,12,6.5h-1.5V8H11.5z M12,4.5C12,4.776,11.776,5,11.5,5h-7C4.224,5,4,4.776,4,4.5v-1C4,3.224,4.224,3,4.5,3h7
		C11.776,3,12,3.224,12,3.5V4.5z M10,7.5v-1H8.5V8h1C9.776,8,10,8.224,10,8.5C10,8.224,10.224,8,10.5,8C10.224,8,10,7.776,10,7.5z
		 M6.5,12C6.224,12,6,11.776,6,11.5v-1H4.5V12h1C5.776,12,6,12.224,6,12.5C6,12.224,6.224,12,6.5,12z M6.5,8h1
		C7.776,8,8,8.224,8,8.5C8,8.224,8.224,8,8.5,8C8.224,8,8,7.776,8,7.5v-1H6.5V8z M10,9.5v-1H8.5V10h1c0.276,0,0.5,0.224,0.5,0.5
		c0-0.276,0.224-0.5,0.5-0.5C10.224,10,10,9.776,10,9.5z M6,10.5C6,10.224,6.224,10,6.5,10C6.224,10,6,9.776,6,9.5v-1H4.5V10h1
		C5.776,10,6,10.224,6,10.5z M6,8.5C6,8.224,6.224,8,6.5,8C6.224,8,6,7.776,6,7.5v-1H4.5V8h1C5.776,8,6,8.224,6,8.5z M8.5,12
		C8.224,12,8,11.776,8,11.5v-1H6.5V12h1C7.776,12,8,12.224,8,12.5C8,12.224,8.224,12,8.5,12z"/>
</g>
</svg>
