<?xml version="1.0" encoding="utf-8"?>
<!-- Generator: Adobe Illustrator 16.0.3, SVG Export Plug-In . SVG Version: 6.00 Build 0)  -->
<!DOCTYPE svg PUBLIC "-//W3C//DTD SVG 1.1//EN" "http://www.w3.org/Graphics/SVG/1.1/DTD/svg11.dtd" [
	<!ENTITY st0 "fill-rule:evenodd;clip-rule:evenodd;">
]>
<svg version="1.1" id="Layer_1" xmlns="http://www.w3.org/2000/svg" xmlns:xlink="http://www.w3.org/1999/xlink" x="0px" y="0px"
	 width="16px" height="16px" viewBox="0 0 16 16" style="enable-background:new 0 0 16 16;" xml:space="preserve">
<g id="calendar16">
	<path style="&st0;" d="M1,15h14V1.979H1.011L1,15z M13.031,7h-2.047V5h2.047V7z M1.969,8h2.047v1.969H1.969V8z M4.984,8h2.031
		v1.969H4.984V8z M7.984,7V5h2.031v2H7.984z M7.016,7H4.984V5h2.031V7z M7.016,10.969V13H4.984v-2.031H7.016z M7.984,10.969h2.031
		V13H7.984V10.969z M10.984,8h2.047v1.969h-2.047V8z M4.016,5v2H1.969V5H4.016z M1.969,10.969h2.047V13H1.969V10.969z M10.984,13
		v-2.031h2.047V13H10.984z"/>
</g>
</svg>
