<?xml version="1.0" encoding="utf-8"?>
<!-- Generator: Adobe Illustrator 16.0.0, SVG Export Plug-In . SVG Version: 6.00 Build 0)  -->
<!DOCTYPE svg PUBLIC "-//W3C//DTD SVG 1.1//EN" "http://www.w3.org/Graphics/SVG/1.1/DTD/svg11.dtd">
<svg version="1.1" id="Layer_1" xmlns="http://www.w3.org/2000/svg" xmlns:xlink="http://www.w3.org/1999/xlink" x="0px" y="0px"
	 width="24px" height="24px" viewBox="0 0 24 24" enable-background="new 0 0 24 24" xml:space="preserve">
<path d="M6,8h12V6H6V8z M22.99,4.696C22.99,2.655,21.35,1,19.324,1H4.665C2.641,1,1,2.655,1,4.696v9.24
	c0,2.043,1.641,3.697,3.665,3.697h5.498v5.545h1.833l9.048-5.994c0.197-0.106,0.384-0.229,0.558-0.369l0.244-0.162l-0.057,0.006
	c0.734-0.676,1.202-1.641,1.202-2.723L22.99,4.696L22.99,4.696z M21.33,13.936c0,0.739-0.434,1.371-1.059,1.668l-8.184,5.728v-5.545
	H4.696c-1.021,0-1.847-0.826-1.847-1.851v-9.24c0-1.021,0.826-1.847,1.847-1.847H19.48c1.022,0,1.85,0.826,1.85,1.847V13.936z M6,12
	h12v-2H6V12z"/>
</svg>
