<?xml version="1.0" encoding="utf-8"?>
<!-- Generator: Adobe Illustrator 16.0.3, SVG Export Plug-In . SVG Version: 6.00 Build 0)  -->
<!DOCTYPE svg PUBLIC "-//W3C//DTD SVG 1.1//EN" "http://www.w3.org/Graphics/SVG/1.1/DTD/svg11.dtd" [
	<!ENTITY st0 "fill-rule:evenodd;clip-rule:evenodd;">
]>
<svg version="1.1" id="Layer_1" xmlns="http://www.w3.org/2000/svg" xmlns:xlink="http://www.w3.org/1999/xlink" x="0px" y="0px"
	 width="16px" height="16px" viewBox="0 0 16 16" style="enable-background:new 0 0 16 16;" xml:space="preserve">
<g id="_x31_6_19_">
	<path style="&st0;" d="M5,6h6V5H5V6z M14,4c0-1.104-0.896-2-2-2H4C2.896,2,2,2.896,2,4v5c0,1.104,0.896,2,2,2h3v3h1l4.935-3.242
		c0.109-0.059,0.212-0.125,0.308-0.202l0.133-0.087l-0.03,0.003C13.745,10.105,14,9.585,14,9V4z M13,9
		c0,0.315-0.155,0.585-0.384,0.769L8,13v-3H4c-0.553,0-1-0.447-1-1V4c0-0.553,0.447-1,1-1h8c0.553,0,1,0.447,1,1V9z M5,8h6V7H5V8z"
		/>
</g>
</svg>
