<?xml version="1.0" encoding="utf-8"?>
<!-- Generator: Adobe Illustrator 16.0.3, SVG Export Plug-In . SVG Version: 6.00 Build 0)  -->
<!DOCTYPE svg PUBLIC "-//W3C//DTD SVG 1.1//EN" "http://www.w3.org/Graphics/SVG/1.1/DTD/svg11.dtd" [
	<!ENTITY st0 "fill-rule:evenodd;clip-rule:evenodd;">
]>
<svg version="1.1" id="Layer_1" xmlns="http://www.w3.org/2000/svg" xmlns:xlink="http://www.w3.org/1999/xlink" x="0px" y="0px"
	 width="16px" height="16px" viewBox="0 0 16 16" style="enable-background:new 0 0 16 16;" xml:space="preserve">
<g id="deselect_all_16">
	<path style="&st0;" d="M1.924,6.099v-3.34c0-0.46,0.372-0.833,0.83-0.833h3.392c0.458,0,0.83,0.373,0.83,0.833v1.167h0.986V2.218
		c0-0.69-0.558-1.249-1.245-1.249H2.214c-0.688,0-1.245,0.559-1.245,1.249v4.484c0,0.689,0.558,1.249,1.245,1.249h1.734V6.931H2.754
		C2.296,6.931,1.924,6.559,1.924,6.099z M11.987,10.768V6.244c0-0.69-0.558-1.251-1.247-1.251H6.261
		c-0.688,0-1.247,0.561-1.247,1.251v4.523c0,0.691,0.559,1.251,1.247,1.251h4.479C11.43,12.019,11.987,11.459,11.987,10.768z
		 M6.833,10.997c-0.459,0-0.832-0.373-0.832-0.833V6.849c0-0.461,0.373-0.834,0.832-0.834h3.335c0.46,0,0.832,0.373,0.832,0.834
		v3.315c0,0.46-0.372,0.833-0.832,0.833H6.833z M14.724,8.986h-1.734v1.021h1.194c0.458,0,0.83,0.372,0.83,0.832v3.34
		c0,0.46-0.372,0.833-0.83,0.833h-3.392c-0.458,0-0.83-0.373-0.83-0.833v-1.167H8.976v1.708c0,0.69,0.558,1.249,1.245,1.249h4.503
		c0.688,0,1.245-0.559,1.245-1.249v-4.484C15.969,9.546,15.411,8.986,14.724,8.986z"/>
</g>
</svg>
