<?xml version="1.0" encoding="utf-8"?>
<!-- Generator: Adobe Illustrator 16.0.3, SVG Export Plug-In . SVG Version: 6.00 Build 0)  -->
<!DOCTYPE svg PUBLIC "-//W3C//DTD SVG 1.1//EN" "http://www.w3.org/Graphics/SVG/1.1/DTD/svg11.dtd" [
	<!ENTITY st0 "fill-rule:evenodd;clip-rule:evenodd;">
]>
<svg version="1.1" id="Layer_1" xmlns="http://www.w3.org/2000/svg" xmlns:xlink="http://www.w3.org/1999/xlink" x="0px" y="0px"
	 width="16px" height="16px" viewBox="0 0 16 16" style="enable-background:new 0 0 16 16;" xml:space="preserve">
<g id="Cloud_16">
	<path d="M15.051,8.952c-0.244-0.104-0.5-0.137-0.748-0.116c-0.097-1.015-0.727-1.947-1.729-2.381
		c-0.779-0.34-1.626-0.304-2.344,0.022C9.989,5.359,9.233,4.369,8.104,3.877C6.241,3.07,4.077,3.925,3.27,5.788
		C3.139,6.089,3.056,6.396,3.01,6.707c-1.15-0.154-2.308,0.46-2.793,1.576c-0.584,1.347,0.034,2.913,1.381,3.497
		c0.346,0.15,0.705,0.22,1.06,0.219L14.576,12c0.551-0.053,1.056-0.436,1.291-0.978C16.214,10.226,15.847,9.3,15.051,8.952z"/>
</g>
</svg>
