<?xml version="1.0" encoding="utf-8"?>
<!-- Generator: Adobe Illustrator 16.0.3, SVG Export Plug-In . SVG Version: 6.00 Build 0)  -->
<!DOCTYPE svg PUBLIC "-//W3C//DTD SVG 1.1//EN" "http://www.w3.org/Graphics/SVG/1.1/DTD/svg11.dtd" [
	<!ENTITY st0 "fill-rule:evenodd;clip-rule:evenodd;">
]>
<svg version="1.1" id="Layer_1" xmlns="http://www.w3.org/2000/svg" xmlns:xlink="http://www.w3.org/1999/xlink" x="0px" y="0px"
	 width="16px" height="16px" viewBox="0 0 16 16" style="enable-background:new 0 0 16 16;" xml:space="preserve">
<g id="Cloud_soft16">
	<path style="&st0;" d="M14.454,12.129c-0.007-1.636-1.333-2.959-2.97-2.959c-1.641,0-2.971,1.33-2.971,2.971
		c0,0.003,0.001,0.006,0.001,0.009c-0.131-0.032-0.265-0.056-0.405-0.056c-0.958,0-1.734,0.776-1.734,1.734s0.776,1.734,1.734,1.734
		c0.645,0,1.201-0.356,1.5-0.879c0.299,0.522,0.855,0.879,1.5,0.879c0.524,0,0.982-0.243,1.299-0.612
		c0.107-0.035,0.213-0.07,0.314-0.116c0.314,0.435,0.81,0.729,1.387,0.729c0.958,0,1.734-0.776,1.734-1.734
		C15.844,12.988,15.247,12.288,14.454,12.129z M1,13V3h12v5.753c0.011,0,0.021-0.003,0.031-0.003c0.342,0,0.666,0.07,0.969,0.184V0
		H0v14h5.166c-0.02-0.134-0.041-0.268-0.041-0.406c0-0.204,0.025-0.402,0.066-0.594H1z M12,1h1v1h-1V1z M10,1h1v1h-1V1z M8,1h1v1H8
		V1z"/>
</g>
</svg>
