<?xml version="1.0" encoding="utf-8"?>
<!-- Generator: Adobe Illustrator 15.1.0, SVG Export Plug-In . SVG Version: 6.00 Build 0)  -->
<!DOCTYPE svg PUBLIC "-//W3C//DTD SVG 1.1//EN" "http://www.w3.org/Graphics/SVG/1.1/DTD/svg11.dtd">
<svg version="1.1" xmlns="http://www.w3.org/2000/svg" xmlns:xlink="http://www.w3.org/1999/xlink" x="0px" y="0px" width="24px"
	 height="24px" viewBox="0 0 24 24" enable-background="new 0 0 24 24" xml:space="preserve">
<g id="Layer_1">
	<path d="M3.065,0.28v15h18v-15H3.065z M20.065,14.279h-16v-13h16V14.279z"/>
	<rect x="11.065" y="14.279" width="2" height="4"/>
	<path d="M9.065,17.279v6h6v-6H9.065z M14.065,22.279h-4v-4h4V22.279z"/>
	<g>
		<rect x="2.065" y="19.279" width="8" height="2"/>
		<rect x="15.065" y="19.279" width="7" height="2"/>
	</g>
	<path d="M5.065,2.28v4h14v-4H5.065z M15.065,5.28h-2v-2h2V5.28z M18.065,5.28h-2v-2h2V5.28z"/>
	<path d="M5.065,9.28v4h14v-4H5.065z M15.065,12.28h-2v-2h2V12.28z M18.065,12.28h-2v-2h2V12.28z"/>
	<rect x="4.065" y="7.28" width="17" height="1"/>
</g>
<g id="Layer_2">
</g>
</svg>
