<?xml version="1.0" encoding="utf-8"?>
<!-- Generator: Adobe Illustrator 16.0.3, SVG Export Plug-In . SVG Version: 6.00 Build 0)  -->
<!DOCTYPE svg PUBLIC "-//W3C//DTD SVG 1.1//EN" "http://www.w3.org/Graphics/SVG/1.1/DTD/svg11.dtd" [
	<!ENTITY st0 "fill-rule:evenodd;clip-rule:evenodd;">
]>
<svg version="1.1" id="Layer_1" xmlns="http://www.w3.org/2000/svg" xmlns:xlink="http://www.w3.org/1999/xlink" x="0px" y="0px"
	 width="16px" height="16px" viewBox="0 0 16 16" style="enable-background:new 0 0 16 16;" xml:space="preserve">
<g id="comments_16">
	<path style="&st0;" d="M16,9c0-2.209-2.239-4-5-4C8.238,5,6,6.791,6,9s2.238,4,5,4c0.437,0,0.852-0.059,1.255-0.143l3.078,2.309
		l-0.829-3.317C15.426,11.123,16,10.116,16,9z M11,6.5c-1.285,0-2.445,0.324-3.331,0.842C8.386,6.534,9.608,6,11,6
		s2.614,0.534,3.331,1.342C13.445,6.824,12.285,6.5,11,6.5z M11,4c0.226,0,0.448,0.013,0.667,0.032C10.855,2.269,8.628,1,6,1
		C2.687,1,0,3.015,0,5.5c0,1.266,0.698,2.406,1.819,3.224L1,12l2.437-2.437c0.521,0.186,1.084,0.313,1.674,0.38
		C5.04,9.638,5,9.323,5,9C5,6.238,7.687,4,11,4z M1.847,3.552C2.744,2.616,4.269,2,6,2s3.256,0.616,4.153,1.552
		C9.074,2.903,7.615,2.5,6,2.5S2.926,2.903,1.847,3.552z"/>
</g>
</svg>
