<?xml version="1.0" encoding="utf-8"?>
<!-- Generator: Adobe Illustrator 16.0.3, SVG Export Plug-In . SVG Version: 6.00 Build 0)  -->
<!DOCTYPE svg PUBLIC "-//W3C//DTD SVG 1.1//EN" "http://www.w3.org/Graphics/SVG/1.1/DTD/svg11.dtd" [
	<!ENTITY st0 "fill-rule:evenodd;clip-rule:evenodd;">
]>
<svg version="1.1" id="Layer_1" xmlns="http://www.w3.org/2000/svg" xmlns:xlink="http://www.w3.org/1999/xlink" x="0px" y="0px"
	 width="16px" height="16px" viewBox="0 0 16 16" style="enable-background:new 0 0 16 16;" xml:space="preserve">
<g id="Compare_16">
	<path style="&st0;" d="M12.908,3.491h0.32C13.237,3.492,13.242,3.5,13.25,3.5c0.138,0,0.25-0.112,0.25-0.25S13.388,3,13.25,3h-0.5
		h-0.188h-0.125H12.25H9.475c-0.09-0.536-0.463-0.971-0.961-1.154L8.5,1.5C8.5,1.224,8.276,1,8,1S7.5,1.224,7.5,1.5L7.486,1.846
		C6.988,2.029,6.615,2.464,6.525,3H3.75H3.563H3.438H3.25h-0.5C2.612,3,2.5,3.112,2.5,3.25S2.612,3.5,2.75,3.5
		c0.008,0,0.013-0.008,0.021-0.009h0.32L1,10c0,1.104,1.126,2,2.516,2s2.516-0.896,2.516-2H6L3.908,3.491h2.616
		C6.605,3.99,6.931,4.405,7.376,4.61L7.02,13.5H7.012L4,14.5V15h8v-0.5l-3-1H8.98L8.624,4.61c0.445-0.205,0.771-0.62,0.852-1.119
		h2.616L10,10c0,1.104,1.119,2,2.5,2s2.5-0.896,2.5-2L12.908,3.491z M5.688,10H1.313l2.092-6.509h0.191L5.688,10z M10.313,10
		l2.092-6.509h0.191L14.688,10H10.313z"/>
</g>
</svg>
