<?xml version="1.0" encoding="utf-8"?>
<!-- Generator: Adobe Illustrator 16.0.3, SVG Export Plug-In . SVG Version: 6.00 Build 0)  -->
<!DOCTYPE svg PUBLIC "-//W3C//DTD SVG 1.1//EN" "http://www.w3.org/Graphics/SVG/1.1/DTD/svg11.dtd" [
	<!ENTITY st0 "fill-rule:evenodd;clip-rule:evenodd;">
]>
<svg version="1.1" id="Layer_1" xmlns="http://www.w3.org/2000/svg" xmlns:xlink="http://www.w3.org/1999/xlink" x="0px" y="0px"
	 width="16px" height="16px" viewBox="0 0 16 16" style="enable-background:new 0 0 16 16;" xml:space="preserve">
<g id="compliance_16">
	<path style="&st0;" d="M2.059,7.882V3.117c0-0.584,0.475-1.059,1.059-1.059h4.765c0.585,0,1.06,0.475,1.06,1.059V5H10V2.588
		C10,1.711,9.289,1,8.412,1H2.588C1.711,1,1,1.711,1,2.588v5.824C1,9.289,1.711,10,2.588,10H5V8.941H3.117
		C2.533,8.941,2.059,8.467,2.059,7.882z M7.882,4.177l-1.059-1.06L5.5,4.44L4.177,3.117l-1.06,1.06L4.44,5.5L3.117,6.823l1.06,1.059
		L5,7.059V5h2.059L7.882,4.177z M13.425,6H7.591C6.712,6,6,6.712,6,7.591v5.834c0,0.879,0.712,1.591,1.591,1.591h5.834
		c0.879,0,1.591-0.712,1.591-1.591V7.591C15.016,6.712,14.304,6,13.425,6z M13.955,12.895c0,0.586-0.475,1.061-1.061,1.061H8.121
		c-0.586,0-1.061-0.475-1.061-1.061V8.121c0-0.586,0.475-1.061,1.061-1.061h4.773c0.586,0,1.061,0.475,1.061,1.061V12.895z
		 M9.713,10.773L8.651,9.712l-1.061,1.062l1.061,1.061l1.061,1.061l1.062-1.061l2.651-2.652l-1.061-1.061L9.713,10.773z"/>
</g>
</svg>
