<?xml version="1.0" encoding="utf-8"?>
<!-- Generator: Adobe Illustrator 16.0.3, SVG Export Plug-In . SVG Version: 6.00 Build 0)  -->
<!DOCTYPE svg PUBLIC "-//W3C//DTD SVG 1.1//EN" "http://www.w3.org/Graphics/SVG/1.1/DTD/svg11.dtd" [
	<!ENTITY st0 "fill-rule:evenodd;clip-rule:evenodd;">
]>
<svg version="1.1" id="Layer_1" xmlns="http://www.w3.org/2000/svg" xmlns:xlink="http://www.w3.org/1999/xlink" x="0px" y="0px"
	 width="16px" height="16px" viewBox="0 0 16 16" style="enable-background:new 0 0 16 16;" xml:space="preserve">
<g id="setup16">
	<path style="&st0;" d="M10.25,14.333c-0.115,0-0.208,0.172-0.208,0.384V16h0.416v-1.283C10.458,14.505,10.365,14.333,10.25,14.333z
		 M5.5,11.72c-0.452,0-0.818,0.348-0.818,0.777V16h0.409v-3.503c0-0.215,0.184-0.389,0.409-0.389s0.409,0.174,0.409,0.389V16h0.409
		v-3.503C6.318,12.067,5.952,11.72,5.5,11.72z M12.75,14.333c-0.115,0-0.208,0.172-0.208,0.384V16h0.416v-1.283
		C12.958,14.505,12.865,14.333,12.75,14.333z M14,0H2C0.896,0,0,0.896,0,2v12c0,1.104,0.896,2,2,2h1.863v-5.749
		c0.509,0.189,1.058,0.302,1.637,0.302s1.128-0.112,1.637-0.302V16H9v-1.667c0-0.635,1.25-0.991,1.25-1.533
		c0-0.383-0.833-1.149-0.833-1.533c0-0.383,0.143-0.767,0.833-0.767h2.5c0.69,0,0.833,0.384,0.833,0.767
		c0,0.384-0.833,1.15-0.833,1.533c0,0.384,1.25,0.898,1.25,1.533V16c1.104,0,2-0.896,2-2V2C16,0.896,15.104,0,14,0z M5.5,10.164
		c-2.26,0-4.091-1.74-4.091-3.888c0-1.281,0.662-2.404,1.671-3.11h0.374v2.722c0,0.645,0.55,1.166,1.228,1.166h1.637
		c0.678,0,1.228-0.521,1.228-1.166V3.166H7.92c1.009,0.706,1.671,1.829,1.671,3.11C9.591,8.424,7.759,10.164,5.5,10.164z
		 M12.75,2.533l-0.417,1.533v6.05h-1.666v-6.05L10.25,2.533V1h2.5V2.533z"/>
</g>
</svg>
