<?xml version="1.0" encoding="utf-8"?>
<!-- Generator: Adobe Illustrator 16.0.3, SVG Export Plug-In . SVG Version: 6.00 Build 0)  -->
<!DOCTYPE svg PUBLIC "-//W3C//DTD SVG 1.1//EN" "http://www.w3.org/Graphics/SVG/1.1/DTD/svg11.dtd" [
	<!ENTITY st0 "fill-rule:evenodd;clip-rule:evenodd;">
]>
<svg version="1.1" id="Layer_1" xmlns="http://www.w3.org/2000/svg" xmlns:xlink="http://www.w3.org/1999/xlink" x="0px" y="0px"
	 width="16px" height="16px" viewBox="0 0 16 16" style="enable-background:new 0 0 16 16;" xml:space="preserve">
<g id="_x31_6_48_">
	<path style="&st0;" d="M10,8.25h1V3l0.25-1V1H11h-1H9.75v1L10,3V8.25z M5.728,7.864v5.594c0,0.14,0.122,0.254,0.272,0.254
		s0.272-0.114,0.272-0.254V7.864C6.272,7.724,6.15,7.61,6,7.61S5.728,7.724,5.728,7.864z M11.25,10c0-0.25,0.5-0.75,0.5-1
		s-0.086-0.5-0.5-0.5h-1.5c-0.414,0-0.5,0.25-0.5,0.5s0.5,0.75,0.5,1c0,0.354-0.75,0.586-0.75,1v4.25C9,15.664,9.336,16,9.75,16h1.5
		c0.414,0,0.75-0.336,0.75-0.75V11C12,10.586,11.25,10.25,11.25,10z M9.875,15.25c0,0.138-0.056,0.25-0.125,0.25
		s-0.125-0.112-0.125-0.25v-4c0-0.138,0.056-0.25,0.125-0.25s0.125,0.112,0.125,0.25V15.25z M11.375,15.25
		c0,0.138-0.056,0.25-0.125,0.25s-0.125-0.112-0.125-0.25v-4c0-0.138,0.056-0.25,0.125-0.25s0.125,0.112,0.125,0.25V15.25z
		 M4.909,6.396v8.588C4.909,15.545,5.397,16,6,16s1.091-0.455,1.091-1.017V6.396C6.752,6.519,6.386,6.593,6,6.593
		S5.248,6.519,4.909,6.396z M6,15.364c-0.226,0-0.409-0.171-0.409-0.381c0-0.211,0.184-0.382,0.409-0.382s0.409,0.171,0.409,0.382
		C6.409,15.193,6.226,15.364,6,15.364z M6.546,7.864v5.594c0,0.28-0.245,0.508-0.546,0.508c-0.302,0-0.546-0.228-0.546-0.508V7.864
		c0-0.28,0.244-0.509,0.546-0.509C6.301,7.355,6.546,7.584,6.546,7.864z M7.613,1.763h-0.25v1.779c0,0.422-0.366,0.763-0.817,0.763
		H5.454c-0.451,0-0.817-0.341-0.817-0.763V1.763h-0.25C3.715,2.225,3.272,2.958,3.272,3.797c0,1.404,1.222,2.542,2.728,2.542
		s2.728-1.138,2.728-2.542C8.728,2.958,8.285,2.225,7.613,1.763z"/>
</g>
</svg>
