<?xml version="1.0" encoding="utf-8"?>
<!-- Generator: Adobe Illustrator 16.0.3, SVG Export Plug-In . SVG Version: 6.00 Build 0)  -->
<!DOCTYPE svg PUBLIC "-//W3C//DTD SVG 1.1//EN" "http://www.w3.org/Graphics/SVG/1.1/DTD/svg11.dtd" [
	<!ENTITY st0 "fill-rule:evenodd;clip-rule:evenodd;">
]>
<svg version="1.1" id="Layer_1" xmlns="http://www.w3.org/2000/svg" xmlns:xlink="http://www.w3.org/1999/xlink" x="0px" y="0px"
	 width="16px" height="16px" viewBox="0 0 16 16" style="enable-background:new 0 0 16 16;" xml:space="preserve">
<g id="share_16">
	<path style="&st0;" d="M8.5,13C6.015,13,4,10.985,4,8.5S6.015,4,8.5,4c1.56,0,2.933,0.795,3.74,2h1.154
		C12.483,4.221,10.636,3,8.5,3C5.632,3,3.278,5.197,3.025,8H0v1h3.025c0.253,2.803,2.606,5,5.475,5c2.136,0,3.983-1.221,4.895-3
		H12.24C11.433,12.205,10.06,13,8.5,13z M10.949,8C10.718,6.858,9.71,6,8.5,6C7.119,6,6,7.119,6,8.5S7.119,11,8.5,11
		c1.21,0,2.218-0.858,2.449-2H16V8H10.949z"/>
</g>
</svg>
