<?xml version="1.0" encoding="utf-8"?>
<!-- Generator: Adobe Illustrator 16.0.3, SVG Export Plug-In . SVG Version: 6.00 Build 0)  -->
<!DOCTYPE svg PUBLIC "-//W3C//DTD SVG 1.1//EN" "http://www.w3.org/Graphics/SVG/1.1/DTD/svg11.dtd" [
	<!ENTITY st0 "fill-rule:evenodd;clip-rule:evenodd;">
]>
<svg version="1.1" id="Layer_1" xmlns="http://www.w3.org/2000/svg" xmlns:xlink="http://www.w3.org/1999/xlink" x="0px" y="0px"
	 width="16px" height="16px" viewBox="0 0 16 16" style="enable-background:new 0 0 16 16;" xml:space="preserve">
<g id="connection_16">
	<path style="&st0;" d="M13.499,3.25L16,0.75L15.25,0l-2.507,2.506L12.392,2.16c-1.181-1.162-3.08-1.146-4.242,0.034L6.045,4.333
		l1.321,1.301L5.609,7.391L4.253,6.056L2.149,8.194c-1.162,1.181-1.147,3.08,0.033,4.242l0.318,0.313L0,15.25L0.75,16l2.507-2.507
		l0.352,0.347c1.181,1.162,3.08,1.146,4.242-0.034l2.104-2.139l-1.321-1.301l1.757-1.757l1.356,1.335l2.104-2.139
		c1.163-1.181,1.147-3.08-0.033-4.242L13.499,3.25z M7.06,8.818L6.617,8.383l1.758-1.758L8.94,7.182l0.442,0.436L7.625,9.375
		L7.06,8.818z"/>
</g>
</svg>
