<?xml version="1.0" encoding="utf-8"?>
<!-- Generator: Adobe Illustrator 16.0.3, SVG Export Plug-In . SVG Version: 6.00 Build 0)  -->
<!DOCTYPE svg PUBLIC "-//W3C//DTD SVG 1.1//EN" "http://www.w3.org/Graphics/SVG/1.1/DTD/svg11.dtd" [
	<!ENTITY st0 "fill-rule:evenodd;clip-rule:evenodd;">
]>
<svg version="1.1" id="Layer_1" xmlns="http://www.w3.org/2000/svg" xmlns:xlink="http://www.w3.org/1999/xlink" x="0px" y="0px"
	 width="16px" height="16px" viewBox="0 0 16 16" style="enable-background:new 0 0 16 16;" xml:space="preserve">
<g id="Copy_16">
	<path style="&st0;" d="M2,10.5h2V10H2V10.5z M2,6.5h2V6H2V6.5z M7,2L6,1H0v12h4v-1H1V2h3h2H7z M2,8.5h2V8H2V8.5z M2,4.5h2V4H2V4.5z
		 M10,6H7v0.5h3V6z M7,8.5h6V8H7V8.5z M11,3H5v12h10V7L11,3z M14,14H6V4h5v3h3V14z M7,10.5h6V10H7V10.5z M7,12.5h6V12H7V12.5z"/>
</g>
</svg>
