<?xml version="1.0" encoding="utf-8"?>
<!-- Generator: Adobe Illustrator 15.1.0, SVG Export Plug-In . SVG Version: 6.00 Build 0)  -->
<!DOCTYPE svg PUBLIC "-//W3C//DTD SVG 1.1//EN" "http://www.w3.org/Graphics/SVG/1.1/DTD/svg11.dtd">
<svg version="1.1" id="Layer_1" xmlns="http://www.w3.org/2000/svg" xmlns:xlink="http://www.w3.org/1999/xlink" x="0px" y="0px"
	 width="24px" height="24px" viewBox="0 0 24 24" enable-background="new 0 0 24 24" xml:space="preserve">
<path fill="#FFFFFF" d="M3.574,1H1.461C0.629,1,0,1.669,0,2.502v2.111V23h18.861h2.111C21.807,23,23,22.746,23,21.913v-2.112V1
	H3.574z"/>
<path fill="#F86836" d="M4.299,2H2.375C1.616,2,1,2.563,1,3.322v1.925V22h17.229h1.925C20.912,22,22,21.769,22,21.01v-1.925V2H4.299
	z"/>
<g>
	<rect x="8" y="15" fill="#FFFFFF" width="2" height="2"/>
	<polygon fill="#FFFFFF" points="10,7 8,7 9,14 9,14 	"/>
	<rect x="13" y="15" fill="#FFFFFF" width="2" height="2"/>
	<polygon fill="#FFFFFF" points="15,7 13,7 14,14 14,14 	"/>
</g>
</svg>
