<?xml version="1.0" encoding="utf-8"?>
<!-- Generator: Adobe Illustrator 16.0.0, SVG Export Plug-In . SVG Version: 6.00 Build 0)  -->
<!DOCTYPE svg PUBLIC "-//W3C//DTD SVG 1.1//EN" "http://www.w3.org/Graphics/SVG/1.1/DTD/svg11.dtd">
<svg version="1.1" id="Layer_1" xmlns="http://www.w3.org/2000/svg" xmlns:xlink="http://www.w3.org/1999/xlink" x="0px" y="0px"
	 width="24px" height="24px" viewBox="0 0 24 24" enable-background="new 0 0 24 24" xml:space="preserve">
<path d="M20,7h-0.016L14,0H0v24h20.012L20,7z M19,23H1V1h12.998l-0.014,6H19V23z"/>
<path d="M7.634,16.973c0.472,0.34,1.31,0.701,2.109,0.701c1.165,0,1.711-0.642,1.711-1.441c0-0.84-0.456-1.301-1.638-1.78
	c-1.583-0.62-2.329-1.581-2.329-2.741c0-1.561,1.146-2.841,3.039-2.841c0.89,0,1.673,0.279,2.164,0.6l-0.399,1.28
	c-0.344-0.24-0.981-0.56-1.8-0.56c-0.946,0-1.473,0.599-1.473,1.319c0,0.801,0.527,1.162,1.672,1.642
	C12.217,13.791,13,14.63,13,16.07c0,1.701-1.2,2.902-3.293,2.902c-0.962,0-1.855-0.261-2.474-0.662L7.634,16.973z"/>
</svg>
