<?xml version="1.0" encoding="utf-8"?>
<!-- Generator: Adobe Illustrator 16.0.3, SVG Export Plug-In . SVG Version: 6.00 Build 0)  -->
<!DOCTYPE svg PUBLIC "-//W3C//DTD SVG 1.1//EN" "http://www.w3.org/Graphics/SVG/1.1/DTD/svg11.dtd" [
	<!ENTITY st0 "fill-rule:evenodd;clip-rule:evenodd;">
]>
<svg version="1.1" id="Layer_1" xmlns="http://www.w3.org/2000/svg" xmlns:xlink="http://www.w3.org/1999/xlink" x="0px" y="0px"
	 width="16px" height="16px" viewBox="0 0 16 16" style="enable-background:new 0 0 16 16;" xml:space="preserve">
<g id="Cut_16">
	<path style="&st0;" d="M6.329,8.305l1.31-1.908L3.835,0.855l-0.007-0.01c0,0-0.326,0.727-0.547,1.583
		c-0.139,0.54,0.242,1.903,0.242,1.903L6.329,8.305z M12.962,11.181c-0.66-0.787-2.901-1.643-3.257-1.775L9.634,9.302L8.23,11.289
		c0.261,0.652,0.768,1.77,1.481,2.619c1.065,1.269,2.578,2.041,3.425,1.331C13.982,14.529,14.027,12.45,12.962,11.181z
		 M12.626,14.435c-0.55,0.462-1.635,0.035-2.226-0.865c-1.037-1.579-0.765-2.021-0.45-2.368c0.374-0.314,0.942-0.39,2.396,0.534
		C13.254,12.313,13.176,13.974,12.626,14.435z M12.478,4.332c0,0,0.38-1.363,0.241-1.903c-0.222-0.856-0.547-1.583-0.547-1.583
		l-0.007,0.01L7.749,7.287L6.295,9.405c-0.354,0.132-2.596,0.988-3.257,1.775c-1.065,1.27-1.021,3.349-0.175,4.059
		s2.359-0.063,3.425-1.331c1.065-1.27,1.685-3.159,1.685-3.159l-0.018-0.015L12.478,4.332z M5.6,13.569
		c-0.591,0.9-1.676,1.327-2.227,0.865c-0.549-0.461-0.627-2.121,0.281-2.699c1.453-0.924,2.021-0.849,2.396-0.534
		C6.363,11.549,6.637,11.99,5.6,13.569z M7.25,8.781c0-0.414,0.336-0.75,0.75-0.75s0.75,0.336,0.75,0.75S8.414,9.531,8,9.531
		S7.25,9.195,7.25,8.781z"/>
</g>
</svg>
