<?xml version="1.0" encoding="utf-8"?>
<!-- Generator: Adobe Illustrator 15.1.0, SVG Export Plug-In . SVG Version: 6.00 Build 0)  -->
<!DOCTYPE svg PUBLIC "-//W3C//DTD SVG 1.1//EN" "http://www.w3.org/Graphics/SVG/1.1/DTD/svg11.dtd">
<svg version="1.1" xmlns="http://www.w3.org/2000/svg" xmlns:xlink="http://www.w3.org/1999/xlink" x="0px" y="0px" width="24px"
	 height="24px" viewBox="0 0 24 24" enable-background="new 0 0 24 24" xml:space="preserve">
<g id="Layer_1">
	<g id="_x31_6_8_">
		<g>
			<path fill-rule="evenodd" clip-rule="evenodd" d="M12.363,9.619c4.471,0,7.984-1.653,7.984-3.888
				c0-2.237-3.514-4.112-7.984-4.112S4.408,3.338,4.408,5.574C4.408,7.81,7.893,9.618,12.363,9.619z M12.363,15.619
				c4.471,0,8-1.766,8-4l-0.016-3.783c0,2.236-3.514,2.783-7.984,2.783c-4.471,0-8-0.765-8-3v4
				C4.363,13.854,7.892,15.619,12.363,15.619z M12.363,16.893c-4.471,0-8-0.765-8-3v4c0,2.234,3.742,4.727,8.213,4.727
				s7.787-2.492,7.787-4.727l-0.016-3.783C20.348,16.346,16.834,16.893,12.363,16.893z"/>
		</g>
	</g>
</g>
<g id="Layer_2">
</g>
</svg>
