<?xml version="1.0" encoding="utf-8"?>
<!-- Generator: Adobe Illustrator 15.1.0, SVG Export Plug-In . SVG Version: 6.00 Build 0)  -->
<!DOCTYPE svg PUBLIC "-//W3C//DTD SVG 1.1//EN" "http://www.w3.org/Graphics/SVG/1.1/DTD/svg11.dtd">
<svg version="1.1" id="Layer_1" xmlns="http://www.w3.org/2000/svg" xmlns:xlink="http://www.w3.org/1999/xlink" x="0px" y="0px"
	 width="24px" height="24px" viewBox="0 0 24 24" enable-background="new 0 0 24 24" xml:space="preserve">
<g id="SLT">
	<g id="New_Symbol">
	</g>
</g>
<g>
	<path d="M21,7l-6.375-5h-9h-1H4v20h0.625h1H21v-0.917v-1V7L21,7z M19,20H6V4h9v4h4V20z"/>
	<path d="M15,13.083v-1V10h-1.375h-1h-4H8v2h0.625H13v1H9.625H9v1H8v1.083v2V18h1v1h0.625h5H16v-2h-1V13.083z M13,15v2h-3v-2H13z"/>
</g>
</svg>
