<?xml version="1.0" encoding="utf-8"?>
<!-- Generator: Adobe Illustrator 16.0.3, SVG Export Plug-In . SVG Version: 6.00 Build 0)  -->
<!DOCTYPE svg PUBLIC "-//W3C//DTD SVG 1.1//EN" "http://www.w3.org/Graphics/SVG/1.1/DTD/svg11.dtd" [
	<!ENTITY st0 "fill-rule:evenodd;clip-rule:evenodd;">
]>
<svg version="1.1" id="Layer_1" xmlns="http://www.w3.org/2000/svg" xmlns:xlink="http://www.w3.org/1999/xlink" x="0px" y="0px"
	 width="16px" height="16px" viewBox="0 0 16 16" style="enable-background:new 0 0 16 16;" xml:space="preserve">
<g id="Delete_All16">
	<path style="&st0;" d="M11.5,3l-1-1L8,4.5l1,1L11.5,3z M6.5,8L2,3.5L2.5,3l-1-1L0,3.5L4.5,8L0,12.5L1.5,14l1-1L2,12.5L6.5,8z
		 M8,11.5l2.5,2.5l1-1L9,10.5L8,11.5z M15,3.5L13.5,2L9,6.5L4.5,2L3,3.5L7.5,8L3,12.5L4.5,14L9,9.5l4.5,4.5l1.5-1.5L10.5,8L15,3.5z"
		/>
</g>
</svg>
