<?xml version="1.0" encoding="utf-8"?>
<!-- Generator: Adobe Illustrator 16.0.3, SVG Export Plug-In . SVG Version: 6.00 Build 0)  -->
<!DOCTYPE svg PUBLIC "-//W3C//DTD SVG 1.1//EN" "http://www.w3.org/Graphics/SVG/1.1/DTD/svg11.dtd" [
	<!ENTITY st0 "fill-rule:evenodd;clip-rule:evenodd;">
]>
<svg version="1.1" id="Layer_1" xmlns="http://www.w3.org/2000/svg" xmlns:xlink="http://www.w3.org/1999/xlink" x="0px" y="0px"
	 width="16px" height="16px" viewBox="0 0 16 16" style="enable-background:new 0 0 16 16;" xml:space="preserve">
<g id="Dependency_16">
	<path style="&st0;" d="M11,11v4h4v-4H11z M6,15h4v-4H8H6V15z M1,15h4v-4H1V15z M10,5V1H6v4h1h1h1H10z M9,9L8,5L7,9H6l2,2l2-2H9z
		 M2,7.172V10h2.828L4.121,9.293L7,5L2.707,7.879L2,7.172z M11.172,10H14V7.172l-0.707,0.707L9,5l2.879,4.293L11.172,10z"/>
</g>
</svg>
