<?xml version="1.0" encoding="utf-8"?>
<!-- Generator: Adobe Illustrator 16.0.0, SVG Export Plug-In . SVG Version: 6.00 Build 0)  -->
<!DOCTYPE svg PUBLIC "-//W3C//DTD SVG 1.1//EN" "http://www.w3.org/Graphics/SVG/1.1/DTD/svg11.dtd">
<svg version="1.1" id="Layer_1" xmlns="http://www.w3.org/2000/svg" xmlns:xlink="http://www.w3.org/1999/xlink" x="0px" y="0px"
	 width="24px" height="24px" viewBox="0 0 24 24" enable-background="new 0 0 24 24" xml:space="preserve">
<polygon points="10,21.021 14,21.021 14,17.016 17.014,17.016 12.006,10.756 7,17.016 10,17.016 "/>
<path d="M21.027,11.656l-0.004-0.001c-0.25-0.113-0.506-0.178-0.76-0.204c-0.279-1.427-1.199-2.695-2.576-3.319
	C17.12,7.874,16.523,7.75,15.939,7.75c-0.432,0-0.855,0.066-1.264,0.193c-0.475-1.487-1.527-2.769-3.012-3.445
	c-0.709-0.322-1.451-0.475-2.178-0.475c-2.119,0-4.137,1.293-5.034,3.459C4.326,7.789,4.229,8.099,4.158,8.411
	C4.144,8.41,4.13,8.41,4.116,8.41C2.528,8.409,1.015,9.377,0.341,11C0.11,11.557,0,12.138,0,12.71c0,1.664,0.927,3.248,2.477,3.952
	c0.512,0.232,1.046,0.347,1.572,0.354l0.002,0.002h1.684v-1.11H4.133c-0.009,0-0.016,0-0.022,0H4.106
	c-0.405,0-0.812-0.085-1.206-0.263c-1.152-0.522-1.838-1.699-1.839-2.934c0-0.424,0.081-0.853,0.253-1.269
	c0.499-1.204,1.621-1.92,2.802-1.921c0.134,0,0.269,0.01,0.404,0.028l0.518,0.073L5.115,9.08c0.056-0.396,0.156-0.781,0.313-1.156
	c0.723-1.748,2.351-2.79,4.061-2.791c0.586,0,1.181,0.123,1.755,0.383c1.36,0.62,2.269,1.864,2.56,3.276l0.139,0.674l0.601-0.286
	c0.437-0.208,0.915-0.32,1.399-0.32c0.442,0,0.893,0.093,1.326,0.291c1.17,0.53,1.899,1.663,2.014,2.902l0.05,0.548l0.524-0.049
	c0.045-0.004,0.092-0.006,0.141-0.006c0.211,0,0.413,0.039,0.609,0.127c0.599,0.271,0.957,0.885,0.957,1.528
	c0,0.221-0.043,0.442-0.131,0.659c-0.238,0.58-0.76,0.984-1.279,1.046H19.07v1.11h1.131l0.027-0.002
	c0.955-0.103,1.78-0.771,2.176-1.711c0.148-0.359,0.22-0.736,0.219-1.104C22.622,13.132,22.023,12.111,21.027,11.656z"/>
</svg>
