<?xml version="1.0" encoding="utf-8"?>
<!-- Generator: Adobe Illustrator 16.0.3, SVG Export Plug-In . SVG Version: 6.00 Build 0)  -->
<!DOCTYPE svg PUBLIC "-//W3C//DTD SVG 1.1//EN" "http://www.w3.org/Graphics/SVG/1.1/DTD/svg11.dtd" [
	<!ENTITY st0 "fill-rule:evenodd;clip-rule:evenodd;">
]>
<svg version="1.1" id="Layer_1" xmlns="http://www.w3.org/2000/svg" xmlns:xlink="http://www.w3.org/1999/xlink" x="0px" y="0px"
	 width="16px" height="16px" viewBox="0 0 16 16" style="enable-background:new 0 0 16 16;" xml:space="preserve">
<g id="Information16">
	<path style="&st0;" d="M8,1C4.134,1,1,4.134,1,8s3.134,7,7,7s7-3.134,7-7S11.866,1,8,1z M8,14c-3.313,0-6-2.687-6-6s2.687-6,6-6
		s6,2.687,6,6S11.313,14,8,14z M8.023,5.805c0.254,0,0.471-0.086,0.651-0.258c0.18-0.173,0.271-0.381,0.271-0.626
		s-0.09-0.454-0.268-0.629C8.499,4.118,8.281,4.031,8.023,4.031c-0.254,0-0.47,0.087-0.648,0.261
		C7.196,4.467,7.107,4.676,7.107,4.921s0.089,0.453,0.268,0.626C7.554,5.719,7.77,5.805,8.023,5.805z M8.855,10.886V6.882H6.524
		v0.213C6.786,7.109,6.963,7.17,7.054,7.275C7.146,7.381,7.19,7.622,7.19,8.001v2.885c0,0.379-0.039,0.613-0.119,0.701
		c-0.118,0.13-0.301,0.199-0.547,0.206V12h3.004v-0.207c-0.266-0.015-0.444-0.075-0.536-0.181
		C8.901,11.507,8.855,11.265,8.855,10.886z"/>
</g>
</svg>
