<?xml version="1.0" encoding="utf-8"?>
<!-- Generator: Adobe Illustrator 16.0.3, SVG Export Plug-In . SVG Version: 6.00 Build 0)  -->
<!DOCTYPE svg PUBLIC "-//W3C//DTD SVG 1.1//EN" "http://www.w3.org/Graphics/SVG/1.1/DTD/svg11.dtd" [
	<!ENTITY st0 "fill-rule:evenodd;clip-rule:evenodd;">
]>
<svg version="1.1" id="Layer_1" xmlns="http://www.w3.org/2000/svg" xmlns:xlink="http://www.w3.org/1999/xlink" x="0px" y="0px"
	 width="16px" height="16px" viewBox="0 0 16 16" style="enable-background:new 0 0 16 16;" xml:space="preserve">
<g id="Cancel__16_copy_4">
	<path style="&st0;" d="M8,1C4.134,1,1,4.134,1,8s3.134,7,7,7s7-3.134,7-7S11.866,1,8,1z M8,14c-3.313,0-6-2.687-6-6s2.687-6,6-6
		s6,2.687,6,6S11.313,14,8,14z M7.233,11.999h1.604v-1.516H7.233V11.999z M10.197,4.691C9.653,4.236,8.92,4.009,7.999,4.009
		c-0.876,0-1.583,0.225-2.122,0.674c-0.538,0.45-0.829,0.997-0.87,1.641l1.473,0.173c0.103-0.45,0.291-0.784,0.565-1.004
		S7.66,5.163,8.067,5.163c0.423,0,0.759,0.105,1.008,0.315c0.249,0.211,0.374,0.464,0.374,0.758c0,0.213-0.07,0.407-0.211,0.583
		c-0.092,0.111-0.371,0.348-0.84,0.707C7.931,7.886,7.618,8.21,7.462,8.498C7.306,8.785,7.228,9.152,7.228,9.599
		c0,0.043,0.002,0.163,0.006,0.361h1.456C8.682,9.543,8.719,9.253,8.801,9.091C8.883,8.93,9.093,8.715,9.432,8.449
		c0.655-0.515,1.083-0.921,1.282-1.22c0.2-0.299,0.3-0.615,0.3-0.949C11.014,5.676,10.741,5.146,10.197,4.691z"/>
</g>
</svg>
