<?xml version="1.0" encoding="utf-8"?>
<!-- Generator: Adobe Illustrator 16.0.3, SVG Export Plug-In . SVG Version: 6.00 Build 0)  -->
<!DOCTYPE svg PUBLIC "-//W3C//DTD SVG 1.1//EN" "http://www.w3.org/Graphics/SVG/1.1/DTD/svg11.dtd" [
	<!ENTITY st0 "fill-rule:evenodd;clip-rule:evenodd;">
]>
<svg version="1.1" id="Layer_1" xmlns="http://www.w3.org/2000/svg" xmlns:xlink="http://www.w3.org/1999/xlink" x="0px" y="0px"
	 width="16px" height="16px" viewBox="0 0 16 16" style="enable-background:new 0 0 16 16;" xml:space="preserve">
<g id="Cancel__16_copy_3">
	<path style="&st0;" d="M8,1C4.134,1,1,4.134,1,8s3.134,7,7,7s7-3.134,7-7S11.866,1,8,1z M8,14c-3.313,0-6-2.687-6-6s2.687-6,6-6
		s6,2.687,6,6S11.313,14,8,14z M10.914,4.672L7.078,8.508L5.242,6.672L3.828,8.086l3.242,3.242l0.008-0.008l0.008,0.008l5.242-5.242
		L10.914,4.672z"/>
</g>
</svg>
