<?xml version="1.0" encoding="utf-8"?>
<!-- Generator: Adobe Illustrator 16.0.3, SVG Export Plug-In . SVG Version: 6.00 Build 0)  -->
<!DOCTYPE svg PUBLIC "-//W3C//DTD SVG 1.1//EN" "http://www.w3.org/Graphics/SVG/1.1/DTD/svg11.dtd" [
	<!ENTITY st0 "fill-rule:evenodd;clip-rule:evenodd;">
]>
<svg version="1.1" id="Layer_1" xmlns="http://www.w3.org/2000/svg" xmlns:xlink="http://www.w3.org/1999/xlink" x="0px" y="0px"
	 width="16px" height="16px" viewBox="0 0 16 16" style="enable-background:new 0 0 16 16;" xml:space="preserve">
<g id="connection_16_copy">
	<path style="&st0;" d="M5.392,9.16L5.392,9.16L3.253,7.056L1.149,9.194c-1.163,1.181-1.147,3.08,0.033,4.242l0.318,0.313L0,15.25
		L0.75,16l1.507-1.507l0.352,0.347c1.181,1.162,3.08,1.146,4.242-0.034l2.104-2.139L6.06,9.817L5.392,9.16z M14.499,2.25L16,0.75
		L15.25,0l-1.507,1.506L13.392,1.16c-1.181-1.162-3.08-1.146-4.243,0.034L7.045,3.333l1.321,1.301L6,7l1,1l2.375-2.375L9.94,6.182
		l0.442,0.436L8,9l1,1l2.391-2.391l1.356,1.335l2.104-2.139c1.162-1.181,1.146-3.08-0.034-4.242L14.499,2.25z"/>
</g>
</svg>
