<?xml version="1.0" encoding="utf-8"?>
<!-- Generator: Adobe Illustrator 16.0.3, SVG Export Plug-In . SVG Version: 6.00 Build 0)  -->
<!DOCTYPE svg PUBLIC "-//W3C//DTD SVG 1.1//EN" "http://www.w3.org/Graphics/SVG/1.1/DTD/svg11.dtd" [
	<!ENTITY st0 "fill-rule:evenodd;clip-rule:evenodd;">
]>
<svg version="1.1" id="Layer_1" xmlns="http://www.w3.org/2000/svg" xmlns:xlink="http://www.w3.org/1999/xlink" x="0px" y="0px"
	 width="16px" height="16px" viewBox="0 0 16 16" style="enable-background:new 0 0 16 16;" xml:space="preserve">
<g id="Doc_CSV_16">
	<path style="&st0;" d="M2.034,12.713c-0.029,0.16-0.069,0.284-0.12,0.372c-0.051,0.089-0.111,0.147-0.182,0.177
		s-0.146,0.044-0.226,0.044c-0.098,0-0.184-0.021-0.258-0.064s-0.136-0.126-0.185-0.251c-0.049-0.124-0.084-0.299-0.107-0.525
		c-0.023-0.226-0.035-0.521-0.035-0.888c0-0.344,0.009-0.634,0.025-0.871s0.047-0.43,0.089-0.576
		c0.042-0.147,0.101-0.253,0.175-0.319C1.285,9.745,1.38,9.713,1.494,9.713c0.207,0,0.351,0.08,0.429,0.24
		c0.079,0.16,0.118,0.417,0.118,0.77h0.915c0-0.176-0.012-0.365-0.034-0.566C2.898,9.955,2.84,9.768,2.747,9.594
		C2.653,9.42,2.513,9.276,2.324,9.163C2.135,9.051,1.878,8.994,1.551,8.994c-0.343,0-0.616,0.063-0.819,0.187
		C0.527,9.305,0.372,9.478,0.264,9.699s-0.178,0.487-0.21,0.796c-0.031,0.311-0.048,0.647-0.048,1.014
		c0,0.371,0.017,0.71,0.048,1.018c0.032,0.307,0.102,0.571,0.21,0.793s0.264,0.391,0.468,0.509c0.203,0.117,0.477,0.176,0.819,0.176
		c0.302,0,0.546-0.05,0.734-0.149c0.189-0.099,0.335-0.237,0.439-0.413c0.104-0.177,0.175-0.382,0.213-0.617
		c0.038-0.234,0.057-0.483,0.057-0.746H2.079C2.079,12.341,2.064,12.552,2.034,12.713z M6.834,11.797
		c-0.066-0.102-0.154-0.196-0.265-0.284s-0.252-0.173-0.426-0.255l-0.706-0.325c-0.194-0.086-0.321-0.18-0.381-0.281
		s-0.089-0.227-0.089-0.376c0-0.072,0.007-0.143,0.021-0.21c0.016-0.068,0.043-0.128,0.083-0.18S5.167,9.792,5.234,9.76
		c0.068-0.031,0.152-0.047,0.255-0.047c0.178,0,0.305,0.062,0.381,0.187c0.076,0.124,0.114,0.302,0.114,0.532h0.878v-0.136
		c0-0.23-0.035-0.429-0.105-0.594c-0.069-0.165-0.167-0.3-0.292-0.406S6.191,9.112,6.02,9.065C5.848,9.018,5.66,8.994,5.457,8.994
		c-0.437,0-0.78,0.117-1.03,0.353c-0.25,0.234-0.375,0.592-0.375,1.071c0,0.198,0.023,0.374,0.07,0.525
		c0.046,0.151,0.119,0.284,0.219,0.399s0.224,0.216,0.372,0.302s0.324,0.165,0.528,0.237c0.152,0.055,0.28,0.107,0.385,0.159
		c0.104,0.053,0.188,0.11,0.251,0.173c0.063,0.063,0.108,0.135,0.137,0.214c0.027,0.079,0.041,0.173,0.041,0.281
		c0,0.203-0.057,0.354-0.169,0.451c-0.112,0.097-0.238,0.146-0.378,0.146c-0.118,0-0.217-0.018-0.296-0.055
		c-0.078-0.036-0.141-0.085-0.188-0.148s-0.078-0.142-0.095-0.234c-0.018-0.093-0.025-0.195-0.025-0.309v-0.142H3.988v0.196
		c0,0.447,0.111,0.791,0.334,1.03s0.592,0.359,1.109,0.359c0.496,0,0.883-0.116,1.16-0.35c0.277-0.232,0.417-0.604,0.417-1.114
		c0-0.149-0.013-0.285-0.038-0.407S6.899,11.898,6.834,11.797z M10,1H2v7h1V2h7v3h3v9h-1v1h2V5L10,1z M9.502,12.689H9.484
		L8.894,8.995h-0.9l0.959,4.996h1.082l0.959-4.996h-0.871L9.502,12.689z"/>
</g>
</svg>
