<?xml version="1.0" encoding="utf-8"?>
<!-- Generator: Adobe Illustrator 16.0.3, SVG Export Plug-In . SVG Version: 6.00 Build 0)  -->
<!DOCTYPE svg PUBLIC "-//W3C//DTD SVG 1.1//EN" "http://www.w3.org/Graphics/SVG/1.1/DTD/svg11.dtd" [
	<!ENTITY st0 "fill-rule:evenodd;clip-rule:evenodd;">
]>
<svg version="1.1" id="Layer_1" xmlns="http://www.w3.org/2000/svg" xmlns:xlink="http://www.w3.org/1999/xlink" x="0px" y="0px"
	 width="16px" height="16px" viewBox="0 0 16 16" style="enable-background:new 0 0 16 16;" xml:space="preserve">
<g id="Doc_Settings16">
	<path style="&st0;" d="M2.796,9.748v4.276c0,0.107,0.091,0.194,0.204,0.194s0.204-0.087,0.204-0.194V9.748
		c0-0.107-0.091-0.194-0.204-0.194S2.796,9.641,2.796,9.748z M10,1H2v3h1V2h7v3h3v9h-3v1h4V5L10,1z M8,9.8V5.6l0.25-0.8V4h-1.5v0.8
		L7,5.6v4.2H8z M8.25,11.2c0-0.2,0.5-0.601,0.5-0.8c0-0.2-0.086-0.4-0.5-0.4h-1.5c-0.414,0-0.5,0.2-0.5,0.4c0,0.199,0.5,0.6,0.5,0.8
		C6.75,11.482,6,11.669,6,12v3.4C6,15.731,6.336,16,6.75,16h1.5C8.664,16,9,15.731,9,15.4V12C9,11.669,8.25,11.4,8.25,11.2z
		 M6.875,15.4c0,0.11-0.056,0.199-0.125,0.199S6.625,15.511,6.625,15.4v-3.2c0-0.11,0.056-0.2,0.125-0.2s0.125,0.09,0.125,0.2V15.4z
		 M8.375,15.4c0,0.11-0.056,0.199-0.125,0.199S8.125,15.511,8.125,15.4v-3.2c0-0.11,0.056-0.2,0.125-0.2s0.125,0.09,0.125,0.2V15.4z
		 M2.182,8.625v6.566c0,0.43,0.366,0.777,0.818,0.777s0.818-0.348,0.818-0.777V8.625C3.564,8.72,3.289,8.776,3,8.776
		S2.436,8.72,2.182,8.625z M3,15.482c-0.17,0-0.307-0.13-0.307-0.291S2.83,14.899,3,14.899c0.169,0,0.307,0.131,0.307,0.292
		S3.169,15.482,3,15.482z M3.409,9.748v4.276c0,0.215-0.184,0.39-0.409,0.39s-0.409-0.175-0.409-0.39V9.748
		c0-0.215,0.184-0.389,0.409-0.389S3.409,9.533,3.409,9.748z M4.21,5.083H4.022v1.36c0,0.322-0.274,0.584-0.613,0.584H2.591
		c-0.339,0-0.613-0.262-0.613-0.584v-1.36H1.79C1.286,5.437,0.954,5.997,0.954,6.639C0.954,7.712,1.87,8.582,3,8.582
		s2.046-0.87,2.046-1.943C5.046,5.997,4.714,5.437,4.21,5.083z"/>
</g>
</svg>
