<?xml version="1.0" encoding="utf-8"?>
<!-- Generator: Adobe Illustrator 16.0.3, SVG Export Plug-In . SVG Version: 6.00 Build 0)  -->
<!DOCTYPE svg PUBLIC "-//W3C//DTD SVG 1.1//EN" "http://www.w3.org/Graphics/SVG/1.1/DTD/svg11.dtd" [
	<!ENTITY st0 "fill-rule:evenodd;clip-rule:evenodd;">
]>
<svg version="1.1" id="Layer_1" xmlns="http://www.w3.org/2000/svg" xmlns:xlink="http://www.w3.org/1999/xlink" x="0px" y="0px"
	 width="16px" height="16px" viewBox="0 0 16 16" style="enable-background:new 0 0 16 16;" xml:space="preserve">
<g id="Doc_Threat16">
	<path style="&st0;" d="M5.433,8.287C5.355,8.743,4.745,9.1,3.995,9.1s-1.36-0.356-1.438-0.813C1.063,8.866,0,10.308,0,12.005
		C0,14.211,1.789,16,3.995,16s3.995-1.789,3.995-3.995C7.99,10.308,6.927,8.866,5.433,8.287z M2.179,11.642
		c-0.4,0-0.726-0.325-0.726-0.727s0.325-0.727,0.726-0.727c0.401,0,0.727,0.325,0.727,0.727S2.58,11.642,2.179,11.642z M7.99,8.01
		c-1.816,0-0.727-2.905-2.905-2.905c-0.909,0-1.249,0.853-1.377,1.491C3.249,6.681,2.905,6.949,2.905,7.283V8.01
		c0,0.401,0.488,0.727,1.09,0.727s1.09-0.325,1.09-0.727V7.283c0-0.296-0.268-0.549-0.648-0.662c0.085-0.383,0.264-0.79,0.648-0.79
		c1.452,0,0.727,2.905,2.905,2.905c0.729,0,1.093-0.55,1.273-1.097l0.219,0.323l0.068-0.959l0.959-0.068L9.714,6.396l0.42-0.864
		L9.269,5.951L8.73,5.156L8.661,6.114L7.703,6.184l0.795,0.538L8.079,7.587l0.532-0.259C8.517,7.676,8.338,8.01,7.99,8.01z
		 M8.59,7.074L8.8,6.643l-0.397-0.27l0.479-0.034l0.034-0.479l0.27,0.397l0.432-0.21l-0.21,0.433l0.398,0.27L9.326,6.783
		L9.292,7.263l-0.27-0.398L8.59,7.074z M10,1H2v5.688l1-1.344V2h7v3h3v9H8.578c-0.158,0.36-0.366,0.689-0.601,1H14V5L10,1z"/>
</g>
</svg>
