<?xml version="1.0" encoding="utf-8"?>
<!-- Generator: Adobe Illustrator 16.0.3, SVG Export Plug-In . SVG Version: 6.00 Build 0)  -->
<!DOCTYPE svg PUBLIC "-//W3C//DTD SVG 1.1//EN" "http://www.w3.org/Graphics/SVG/1.1/DTD/svg11.dtd" [
	<!ENTITY st0 "fill-rule:evenodd;clip-rule:evenodd;">
]>
<svg version="1.1" id="Layer_1" xmlns="http://www.w3.org/2000/svg" xmlns:xlink="http://www.w3.org/1999/xlink" x="0px" y="0px"
	 width="16px" height="16px" viewBox="0 0 16 16" style="enable-background:new 0 0 16 16;" xml:space="preserve">
<g id="Doc_Risk_16">
	<path style="&st0;" d="M10,1H2v3.8l1-0.6V2h7v3h3v9h-2.333l-1.334,1H14V5L10,1z M3.665,9.727L0.474,7.405
		C0.21,7.214,0,7.364,0,7.739v4.069c0,0.375,0.21,0.87,0.474,1.109l3.191,2.901c0.328,0.298,0.599,0.197,0.599-0.231v-4.651
		C4.264,10.509,3.993,9.965,3.665,9.727z M1.229,10.427C0.952,10.203,0.731,9.714,0.731,9.33s0.221-0.526,0.498-0.316
		c0.281,0.215,0.514,0.713,0.514,1.109S1.511,10.654,1.229,10.427z M2.823,13.94c-0.306-0.268-0.549-0.808-0.549-1.211
		s0.243-0.527,0.549-0.274c0.312,0.259,0.568,0.811,0.568,1.228S3.135,14.213,2.823,13.94z M10.222,6.979
		c0.354-0.171,0.315-0.438-0.063-0.595L6.687,4.938c-0.271-0.113-0.761-0.113-1.11-0.001L1.074,6.383
		C0.581,6.541,0.357,6.809,0.596,6.981L3.788,9.29c0.363,0.263,1.129,0.262,1.674-0.003L10.222,6.979z M2.236,7.152
		C1.969,6.975,2.153,6.698,2.629,6.535c0.46-0.158,1.042-0.158,1.321,0c-0.279-0.158-0.146-0.404,0.278-0.55
		C4.64,5.844,5.19,5.845,5.477,5.986C5.19,5.845,5.281,5.624,5.662,5.493c0.37-0.127,0.892-0.127,1.182,0.001
		c0.299,0.131,0.252,0.352-0.121,0.492c-0.386,0.146-0.951,0.146-1.246,0C5.771,6.132,5.688,6.378,5.27,6.535
		c-0.432,0.163-1.031,0.163-1.319,0c0.288,0.163,0.158,0.438-0.312,0.616C3.152,7.335,2.514,7.336,2.236,7.152z M3.826,8.204
		C3.505,7.991,3.663,7.661,4.154,7.467c0.475-0.188,1.108-0.188,1.439-0.001c-0.331-0.188-0.229-0.479,0.205-0.65
		c0.42-0.167,1.016-0.167,1.352-0.001C6.814,6.648,6.872,6.39,7.259,6.236c0.375-0.148,0.937-0.148,1.275,0.001
		C8.882,6.39,8.876,6.648,8.5,6.814c-0.389,0.172-1.002,0.172-1.35,0c0.348,0.172,0.304,0.463-0.121,0.65
		C6.59,7.659,5.936,7.659,5.594,7.466c0.342,0.193,0.25,0.523-0.233,0.736C4.859,8.424,4.16,8.425,3.826,8.204z M10.853,11.809
		V7.739c0-0.375-0.306-0.525-0.688-0.334L5.521,9.727c-0.477,0.238-0.87,0.782-0.87,1.21v4.651c0,0.429,0.394,0.529,0.87,0.231
		l4.643-2.901C10.547,12.679,10.853,12.184,10.853,11.809z M6.362,14.546c-0.461,0.28-0.841,0.171-0.841-0.25
		c0-0.42,0.38-0.981,0.841-1.247c0.451-0.262,0.812-0.14,0.812,0.267S6.813,14.271,6.362,14.546z M7.959,12.126
		c-0.431,0.248-0.785,0.124-0.785-0.282s0.354-0.93,0.785-1.165c0.422-0.231,0.759-0.097,0.759,0.296
		C8.718,11.368,8.381,11.882,7.959,12.126z M9.452,9.861c-0.402,0.221-0.734,0.083-0.734-0.31S9.05,8.669,9.452,8.461
		c0.396-0.204,0.712-0.058,0.712,0.322C10.164,9.164,9.848,9.646,9.452,9.861z"/>
</g>
</svg>
