<?xml version="1.0" encoding="utf-8"?>
<!-- Generator: Adobe Illustrator 16.0.3, SVG Export Plug-In . SVG Version: 6.00 Build 0)  -->
<!DOCTYPE svg PUBLIC "-//W3C//DTD SVG 1.1//EN" "http://www.w3.org/Graphics/SVG/1.1/DTD/svg11.dtd" [
	<!ENTITY st0 "fill-rule:evenodd;clip-rule:evenodd;">
]>
<svg version="1.1" id="Layer_1" xmlns="http://www.w3.org/2000/svg" xmlns:xlink="http://www.w3.org/1999/xlink" x="0px" y="0px"
	 width="16px" height="16px" viewBox="0 0 16 16" style="enable-background:new 0 0 16 16;" xml:space="preserve">
<g id="Doc_XML_16">
	<path style="&st0;" d="M13,14H3v-1H2v2h12v-2h-1V14z M2.777,11.99l0.718-1.688l0.717,1.688h0.786L3.883,9.393l1.013-2.382H4.143
		L3.499,8.5l-0.64-1.489H2.098l1.014,2.388L1.996,11.99H2.777z M10,1H2v5h1V2h7v3h3v5h1V5L10,1z M10.005,11.99V7.011H8.746
		L7.997,10.41L7.242,7.011H5.988v4.979h0.78V8.066l0.822,3.924h0.806l0.828-3.924v3.924H10.005z M11.005,6.988v5.002h2.004v-0.854
		h-1.431V6.988H11.005z"/>
</g>
</svg>
