<?xml version="1.0" encoding="utf-8"?>
<!-- Generator: Adobe Illustrator 16.0.3, SVG Export Plug-In . SVG Version: 6.00 Build 0)  -->
<!DOCTYPE svg PUBLIC "-//W3C//DTD SVG 1.1//EN" "http://www.w3.org/Graphics/SVG/1.1/DTD/svg11.dtd" [
	<!ENTITY st0 "fill-rule:evenodd;clip-rule:evenodd;">
]>
<svg version="1.1" id="Layer_1" xmlns="http://www.w3.org/2000/svg" xmlns:xlink="http://www.w3.org/1999/xlink" x="0px" y="0px"
	 width="16px" height="16px" viewBox="0 0 16 16" style="enable-background:new 0 0 16 16;" xml:space="preserve">
<g id="PDF_16">
	<path style="&st0;" d="M3,2h7v3h3v4.95c0.345,0.037,0.681,0.082,1,0.139V5l-4-4H2v14h1.439c0.219-0.33,0.473-0.664,0.76-1H3V2z
		 M13,14H8.347c-0.196,0.353-0.398,0.683-0.603,1H14v-0.872c-0.322-0.037-0.657-0.094-1-0.163V14z M11.206,12.239
		c1.371,0.702,2.561,0.857,3.038,0.283c-0.254-0.704-1.425-0.97-2.951-0.782c-0.594-0.333-1.234-0.776-1.867-1.313
		S8.249,9.333,7.821,8.8C7.739,7.25,7.277,6.133,6.546,6.003C6.068,6.577,6.426,7.732,7.35,8.974
		c0.012,0.686-0.049,1.466-0.192,2.288c-0.144,0.821-0.352,1.576-0.595,2.216c-1.288,0.847-2.017,1.81-1.762,2.514
		c0.731,0.13,1.544-0.76,2.146-2.188c0.582-0.353,1.282-0.69,2.06-0.976C9.783,12.542,10.535,12.347,11.206,12.239z M13.506,12.391
		c-0.334,0.075-0.816-0.015-1.386-0.246C12.733,12.123,13.217,12.206,13.506,12.391z M6.802,6.714
		c0.231,0.255,0.396,0.721,0.481,1.334C6.958,7.522,6.787,7.059,6.802,6.714z M5.282,15.412c0.104-0.33,0.421-0.706,0.904-1.088
		C5.898,14.871,5.586,15.252,5.282,15.412z M7.216,13.086c0.178-0.533,0.328-1.116,0.437-1.736s0.165-1.22,0.179-1.782
		c0.369,0.422,0.794,0.845,1.271,1.249c0.479,0.405,0.965,0.754,1.44,1.047c-0.547,0.111-1.122,0.272-1.708,0.487
		C8.248,12.566,7.706,12.816,7.216,13.086z"/>
</g>
</svg>
