<?xml version="1.0" encoding="utf-8"?>
<!-- Generator: Adobe Illustrator 16.0.3, SVG Export Plug-In . SVG Version: 6.00 Build 0)  -->
<!DOCTYPE svg PUBLIC "-//W3C//DTD SVG 1.1//EN" "http://www.w3.org/Graphics/SVG/1.1/DTD/svg11.dtd" [
	<!ENTITY st0 "fill-rule:evenodd;clip-rule:evenodd;">
]>
<svg version="1.1" id="Layer_1" xmlns="http://www.w3.org/2000/svg" xmlns:xlink="http://www.w3.org/1999/xlink" x="0px" y="0px"
	 width="16px" height="16px" viewBox="0 0 16 16" style="enable-background:new 0 0 16 16;" xml:space="preserve">
<g id="Doc_Unknown16">
	<path style="&st0;" d="M10,1H2v14h12V5L10,1z M13,14H3V2h7v3h3V14z M6.799,11.999h1.337v-1.326H6.799V11.999z M7.437,5.008
		c-0.729,0-1.319,0.196-1.768,0.59C5.22,5.991,4.978,6.47,4.942,7.033l1.229,0.15C6.256,6.79,6.413,6.498,6.642,6.306
		s0.513-0.288,0.852-0.288c0.353,0,0.633,0.092,0.84,0.276c0.208,0.184,0.313,0.405,0.313,0.663c0,0.186-0.059,0.355-0.177,0.51
		C8.393,7.564,8.16,7.771,7.77,8.086c-0.391,0.314-0.65,0.598-0.78,0.85S6.794,9.509,6.794,9.898c0,0.038,0.002,0.144,0.005,0.316
		h1.214C8.006,9.85,8.037,9.597,8.105,9.455c0.067-0.142,0.243-0.329,0.525-0.563c0.546-0.45,0.902-0.806,1.068-1.066
		c0.167-0.262,0.25-0.538,0.25-0.831c0-0.529-0.227-0.992-0.681-1.391S8.204,5.008,7.437,5.008z"/>
</g>
</svg>
