<?xml version="1.0" encoding="utf-8"?>
<!-- Generator: Adobe Illustrator 16.0.3, SVG Export Plug-In . SVG Version: 6.00 Build 0)  -->
<!DOCTYPE svg PUBLIC "-//W3C//DTD SVG 1.1//EN" "http://www.w3.org/Graphics/SVG/1.1/DTD/svg11.dtd" [
	<!ENTITY st0 "fill-rule:evenodd;clip-rule:evenodd;">
]>
<svg version="1.1" id="Layer_1" xmlns="http://www.w3.org/2000/svg" xmlns:xlink="http://www.w3.org/1999/xlink" x="0px" y="0px"
	 width="16px" height="16px" viewBox="0 0 16 16" style="enable-background:new 0 0 16 16;" xml:space="preserve">
<g id="Doc_powerpoint_16">
	<path style="&st0;" d="M10,1H2v6h1V2h7v3h3v9h-2v1h3V5L10,1z M2,13h3v-1H2V13z M4,10H2v1h2V10z M12,10l-0.03-0.09
		C11.986,9.775,12,9.64,12,9.5c0-0.935-0.372-1.778-0.969-2.406L11,7l-0.025,0.025C10.342,6.392,9.467,6,8.5,6
		C7.106,6,5.913,6.821,5.35,8H0v7h10v-2.35c1.035-0.495,1.793-1.476,1.963-2.65H12z M9,14H1V9h4.051C5.026,9.165,5,9.329,5,9.5
		C5,11.433,6.567,13,8.5,13c0.171,0,0.335-0.026,0.5-0.051V14z M8.5,12C7.119,12,6,10.881,6,9.5S7.119,7,8.5,7
		c0.69,0,1.315,0.279,1.768,0.732L8,10h2.949C10.718,11.142,9.71,12,8.5,12z"/>
</g>
</svg>
