<?xml version="1.0" encoding="utf-8"?>
<!-- Generator: Adobe Illustrator 16.0.3, SVG Export Plug-In . SVG Version: 6.00 Build 0)  -->
<!DOCTYPE svg PUBLIC "-//W3C//DTD SVG 1.1//EN" "http://www.w3.org/Graphics/SVG/1.1/DTD/svg11.dtd" [
	<!ENTITY st0 "fill-rule:evenodd;clip-rule:evenodd;">
]>
<svg version="1.1" id="Layer_1" xmlns="http://www.w3.org/2000/svg" xmlns:xlink="http://www.w3.org/1999/xlink" x="0px" y="0px"
	 width="16px" height="16px" viewBox="0 0 16 16" style="enable-background:new 0 0 16 16;" xml:space="preserve">
<g id="Doc_User16">
	<path style="&st0;" d="M10,1H2v4h1V2h7v3h3v9h-1v1h2V5L10,1z M9.75,12.75c-0.606-0.303-1.227-0.609-2.625-1.111
		C7.931,11.041,8.25,9.754,8.25,8.25c0-2.071-1.343-3.75-3-3.75s-3,1.679-3,3.75c0,0.551,0.187,1.305,0.242,1.802
		c0.133,1.198-1.531,1.011-1.531,1.011l0.563,0.258l-0.351,0.11l0.39,0.162l-0.212,0.089l0.53,0.122l-0.232,0.184
		c0,0,0.146,0.081,0.336,0.187c-0.517,0.219-0.878,0.398-1.234,0.576C0,13.125,0,15,0,15h10.5C10.5,15,10.5,13.125,9.75,12.75z
		 M6,14.625H4.5l-0.375-3l0.07-0.641C3.505,10.605,3,9.778,3,8.25C3,7.5,3.82,8.109,4.57,7.359c0.52-0.52,1.031-1.828,1.031-1.828
		C6.75,5.531,7.5,6.593,7.5,8.25c0,1.353-0.509,2.482-1.508,2.857l0.758,0.236L6,14.625z"/>
</g>
</svg>
