<?xml version="1.0" encoding="utf-8"?>
<!-- Generator: Adobe Illustrator 16.0.3, SVG Export Plug-In . SVG Version: 6.00 Build 0)  -->
<!DOCTYPE svg PUBLIC "-//W3C//DTD SVG 1.1//EN" "http://www.w3.org/Graphics/SVG/1.1/DTD/svg11.dtd" [
	<!ENTITY st0 "fill-rule:evenodd;clip-rule:evenodd;">
]>
<svg version="1.1" id="Layer_1" xmlns="http://www.w3.org/2000/svg" xmlns:xlink="http://www.w3.org/1999/xlink" x="0px" y="0px"
	 width="16px" height="16px" viewBox="0 0 16 16" style="enable-background:new 0 0 16 16;" xml:space="preserve">
<g id="Doc_Job16">
	<path style="&st0;" d="M4.883,5.453L4.695,5.641c0,0,0.75,0.188,1.688,1.125s2.625,2.625,2.625,2.625l1.313-1.313L8.258,6.016
		C7.784,5.542,4.883,5.453,4.883,5.453z M5.797,11.475c0.219-0.219,0.219-0.574,0-0.793V10.68l-0.516-0.516H5.279
		c-0.219-0.219-0.574-0.219-0.793,0H4.484L0.219,14.43v0.002C0,14.65,0,15.006,0.219,15.225v0.002l0.516,0.516h0.002
		c0.219,0.219,0.573,0.219,0.793,0h0.002l4.266-4.266V11.475z M10,1H2v10l1-1V2h7v3h3v9H5l-1,1h10V5L10,1z M6.195,10.703L8.07,8.828
		L7.133,7.891L5.258,9.766L6.195,10.703z M9.758,10.891l2.063-2.063l-0.938-0.938L8.82,9.953L9.758,10.891z M9.195,5.828L8.82,6.203
		l0.938,0.938l0.375-0.375L9.195,5.828z"/>
</g>
</svg>
