<?xml version="1.0" encoding="utf-8"?>
<!-- Generator: Adobe Illustrator 16.0.3, SVG Export Plug-In . SVG Version: 6.00 Build 0)  -->
<!DOCTYPE svg PUBLIC "-//W3C//DTD SVG 1.1//EN" "http://www.w3.org/Graphics/SVG/1.1/DTD/svg11.dtd" [
	<!ENTITY st0 "fill-rule:evenodd;clip-rule:evenodd;">
]>
<svg version="1.1" id="Layer_1" xmlns="http://www.w3.org/2000/svg" xmlns:xlink="http://www.w3.org/1999/xlink" x="0px" y="0px"
	 width="16px" height="16px" viewBox="0 0 16 16" style="enable-background:new 0 0 16 16;" xml:space="preserve">
<g id="Doc_excel_16">
	<path style="&st0;" d="M9,6L8,7.4L7,6H4.5l2.25,3.15L4.714,12h2.501L8,10.9L9.5,13H12L9.25,9.15L11.5,6H9z M2,13h1v-1H2V13z M1,9
		h4.563L4.875,8H0v7h10v-1H1V9z M3,10H2v1h1V10z M10,1H2v6h1V2h7v3h3v9h-2v1h3V5L10,1z M4,10v1h0.428L5,10.199V10H4z"/>
</g>
</svg>
