<?xml version="1.0" encoding="utf-8"?>
<!-- Generator: Adobe Illustrator 16.0.3, SVG Export Plug-In . SVG Version: 6.00 Build 0)  -->
<!DOCTYPE svg PUBLIC "-//W3C//DTD SVG 1.1//EN" "http://www.w3.org/Graphics/SVG/1.1/DTD/svg11.dtd" [
	<!ENTITY st0 "fill-rule:evenodd;clip-rule:evenodd;">
]>
<svg version="1.1" id="Layer_1" xmlns="http://www.w3.org/2000/svg" xmlns:xlink="http://www.w3.org/1999/xlink" x="0px" y="0px"
	 width="16px" height="16px" viewBox="0 0 16 16" style="enable-background:new 0 0 16 16;" xml:space="preserve">
<g id="Doc_Image_16">
	<path style="&st0;" d="M4,11c0.553,0,1-0.447,1-1S4.553,9,4,9s-1,0.447-1,1S3.447,11,4,11z M9,10.645
		C8.499,11.233,7.703,12.011,7,12c-0.63-0.01-1.404-0.698-2-0.5c-0.816,0.271-1.6,1.001-2.066,1.5H9V10.645z M10,1H2v4h1V2h7v3h3v10
		h1V5L10,1z M11,6H1C0.447,6,0,6.447,0,7v8c0,0.553,0.447,1,1,1h10c0.553,0,1-0.447,1-1V7C12,6.447,11.553,6,11,6z M10,14H2V8h8V14z
		"/>
</g>
</svg>
