<?xml version="1.0" encoding="utf-8"?>
<!-- Generator: Adobe Illustrator 16.0.3, SVG Export Plug-In . SVG Version: 6.00 Build 0)  -->
<!DOCTYPE svg PUBLIC "-//W3C//DTD SVG 1.1//EN" "http://www.w3.org/Graphics/SVG/1.1/DTD/svg11.dtd" [
	<!ENTITY st0 "fill-rule:evenodd;clip-rule:evenodd;">
]>
<svg version="1.1" id="Layer_1" xmlns="http://www.w3.org/2000/svg" xmlns:xlink="http://www.w3.org/1999/xlink" x="0px" y="0px"
	 width="16px" height="16px" viewBox="0 0 16 16" style="enable-background:new 0 0 16 16;" xml:space="preserve">
<g id="Done__16">
	<path style="&st0;" d="M13.476,7.524C13.489,7.682,13.5,7.839,13.5,8c0,3.037-2.463,5.5-5.5,5.5S2.5,11.037,2.5,8S4.963,2.5,8,2.5
		c1.264,0,2.424,0.431,3.353,1.147l1.071-1.071C11.218,1.592,9.679,1,8,1C4.134,1,1,4.134,1,8s3.134,7,7,7s7-3.134,7-7
		c0-0.611-0.086-1.201-0.233-1.767L13.476,7.524z M6,6L4,8l2,2l2,2l8-8l-2-2L8,8L6,6z"/>
</g>
</svg>
