<?xml version="1.0" encoding="utf-8"?>
<!-- Generator: Adobe Illustrator 16.0.3, SVG Export Plug-In . SVG Version: 6.00 Build 0)  -->
<!DOCTYPE svg PUBLIC "-//W3C//DTD SVG 1.1//EN" "http://www.w3.org/Graphics/SVG/1.1/DTD/svg11.dtd" [
	<!ENTITY st0 "fill-rule:evenodd;clip-rule:evenodd;">
]>
<svg version="1.1" id="Layer_1" xmlns="http://www.w3.org/2000/svg" xmlns:xlink="http://www.w3.org/1999/xlink" x="0px" y="0px"
	 width="16px" height="16px" viewBox="0 0 16 16" style="enable-background:new 0 0 16 16;" xml:space="preserve">
<g id="Ellipse_1">
	<path d="M13.757,5.034c-0.481-0.102-0.954,0.043-1.298,0.344L12.45,5.366L8.5,8.622L4.55,5.366L4.541,5.378
		C4.197,5.077,3.725,4.933,3.243,5.034C2.433,5.207,1.916,6.003,2.088,6.813c0.083,0.392,0.313,0.712,0.619,0.922l4.854,4.001
		l0.011-0.013c0.339,0.272,0.789,0.402,1.248,0.305c0.235-0.05,0.435-0.163,0.61-0.304l0.01,0.012l4.854-4.001
		c0.306-0.21,0.536-0.53,0.619-0.922C15.084,6.003,14.567,5.207,13.757,5.034z"/>
</g>
</svg>
