<?xml version="1.0" encoding="utf-8"?>
<!-- Generator: Adobe Illustrator 16.0.3, SVG Export Plug-In . SVG Version: 6.00 Build 0)  -->
<!DOCTYPE svg PUBLIC "-//W3C//DTD SVG 1.1//EN" "http://www.w3.org/Graphics/SVG/1.1/DTD/svg11.dtd" [
	<!ENTITY st0 "fill-rule:evenodd;clip-rule:evenodd;">
]>
<svg version="1.1" id="Layer_1" xmlns="http://www.w3.org/2000/svg" xmlns:xlink="http://www.w3.org/1999/xlink" x="0px" y="0px"
	 width="16px" height="16px" viewBox="0 0 16 16" style="enable-background:new 0 0 16 16;" xml:space="preserve">
<g id="_x31_6_59_">
	<path style="&st0;" d="M1,8c0,3.866,3.134,7,7,7s7-3.134,7-7s-3.134-7-7-7S1,4.134,1,8z M7.828,4.384L11,8l-3.184,3.635
		C7.685,11.849,7.458,12,7.188,12c-0.414,0-0.75-0.336-0.75-0.75c0-0.228,0.107-0.425,0.268-0.563L9,8L6.831,5.397
		C6.601,5.27,6.438,5.033,6.438,4.75C6.438,4.336,6.773,4,7.188,4C7.466,4,7.699,4.158,7.828,4.384z"/>
</g>
</svg>
