<?xml version="1.0" encoding="utf-8"?>
<!-- Generator: Adobe Illustrator 16.0.3, SVG Export Plug-In . SVG Version: 6.00 Build 0)  -->
<!DOCTYPE svg PUBLIC "-//W3C//DTD SVG 1.1//EN" "http://www.w3.org/Graphics/SVG/1.1/DTD/svg11.dtd" [
	<!ENTITY st0 "fill-rule:evenodd;clip-rule:evenodd;">
]>
<svg version="1.1" id="Layer_1" xmlns="http://www.w3.org/2000/svg" xmlns:xlink="http://www.w3.org/1999/xlink" x="0px" y="0px"
	 width="16px" height="16px" viewBox="0 0 16 16" style="enable-background:new 0 0 16 16;" xml:space="preserve">
<g id="_x31_6_14_">
	<path style="&st0;" d="M8,1C4.134,1,1,4.134,1,8s3.134,7,7,7s7-3.134,7-7S11.866,1,8,1z M11.616,7.828L8,11L4.365,7.816
		C4.151,7.685,4,7.458,4,7.188c0-0.414,0.336-0.75,0.75-0.75c0.228,0,0.425,0.107,0.563,0.268L8,9l2.603-2.169
		c0.128-0.23,0.364-0.394,0.647-0.394c0.414,0,0.75,0.336,0.75,0.75C12,7.466,11.842,7.699,11.616,7.828z"/>
</g>
</svg>
