<?xml version="1.0" encoding="utf-8"?>
<!-- Generator: Adobe Illustrator 16.0.3, SVG Export Plug-In . SVG Version: 6.00 Build 0)  -->
<!DOCTYPE svg PUBLIC "-//W3C//DTD SVG 1.1//EN" "http://www.w3.org/Graphics/SVG/1.1/DTD/svg11.dtd" [
	<!ENTITY st0 "fill-rule:evenodd;clip-rule:evenodd;">
]>
<svg version="1.1" id="Layer_1" xmlns="http://www.w3.org/2000/svg" xmlns:xlink="http://www.w3.org/1999/xlink" x="0px" y="0px"
	 width="16px" height="16px" viewBox="0 0 16 16" style="enable-background:new 0 0 16 16;" xml:space="preserve">
<g id="_x31_6_45_">
	<path style="&st0;" d="M15,8c0-3.866-3.134-7-7-7S1,4.134,1,8s3.134,7,7,7S15,11.866,15,8z M8.172,11.616L5,8l3.184-3.635
		C8.315,4.151,8.542,4,8.813,4c0.414,0,0.75,0.336,0.75,0.75c0,0.228-0.107,0.425-0.268,0.563L7,8l2.169,2.603
		c0.23,0.128,0.394,0.364,0.394,0.647c0,0.414-0.336,0.75-0.75,0.75C8.534,12,8.301,11.842,8.172,11.616z"/>
</g>
</svg>
