<?xml version="1.0" encoding="utf-8"?>
<!-- Generator: Adobe Illustrator 16.0.3, SVG Export Plug-In . SVG Version: 6.00 Build 0)  -->
<!DOCTYPE svg PUBLIC "-//W3C//DTD SVG 1.1//EN" "http://www.w3.org/Graphics/SVG/1.1/DTD/svg11.dtd" [
	<!ENTITY st0 "fill-rule:evenodd;clip-rule:evenodd;">
]>
<svg version="1.1" id="Layer_1" xmlns="http://www.w3.org/2000/svg" xmlns:xlink="http://www.w3.org/1999/xlink" x="0px" y="0px"
	 width="16px" height="16px" viewBox="0 0 16 16" style="enable-background:new 0 0 16 16;" xml:space="preserve">
<g id="_x31_6_5_">
	<path style="&st0;" d="M8,15c3.866,0,7-3.134,7-7s-3.134-7-7-7S1,4.134,1,8S4.134,15,8,15z M4.384,8.172L8,5l3.635,3.184
		C11.849,8.315,12,8.542,12,8.813c0,0.414-0.336,0.75-0.75,0.75c-0.228,0-0.425-0.107-0.563-0.268L8,7L5.397,9.169
		C5.27,9.399,5.033,9.563,4.75,9.563C4.336,9.563,4,9.227,4,8.813C4,8.534,4.158,8.301,4.384,8.172z"/>
</g>
</svg>
