<?xml version="1.0" encoding="utf-8"?>
<!-- Generator: Adobe Illustrator 15.1.0, SVG Export Plug-In . SVG Version: 6.00 Build 0)  -->
<!DOCTYPE svg PUBLIC "-//W3C//DTD SVG 1.1//EN" "http://www.w3.org/Graphics/SVG/1.1/DTD/svg11.dtd">
<svg version="1.1" id="Layer_1" xmlns="http://www.w3.org/2000/svg" xmlns:xlink="http://www.w3.org/1999/xlink" x="0px" y="0px"
	 width="24px" height="24px" viewBox="0 0 24 24" enable-background="new 0 0 24 24" xml:space="preserve">
<g id="Cancel__16_copy_1_">
	<g>
		<path fill-rule="evenodd" clip-rule="evenodd" fill="#FA0000" d="M15.008,6.771L12,9.778L8.992,6.771L6.77,8.992L9.778,12
			L6.77,15.008l2.222,2.223L12,14.223l3.008,3.008l2.223-2.223L14.223,12l3.008-3.008L15.008,6.771z M12,1C5.923,1,1,5.925,1,12
			c0,6.076,4.923,11,11,11c6.076,0,11-4.924,11-11C23,5.925,18.076,1,12,1z M12,21.429c-5.207,0-9.429-4.222-9.429-9.429
			S6.793,2.572,12,2.572S21.429,6.793,21.429,12S17.207,21.429,12,21.429z"/>
	</g>
</g>
</svg>
