<?xml version="1.0" encoding="utf-8"?>
<!-- Generator: Adobe Illustrator 16.0.4, SVG Export Plug-In . SVG Version: 6.00 Build 0)  -->
<!DOCTYPE svg PUBLIC "-//W3C//DTD SVG 1.1//EN" "http://www.w3.org/Graphics/SVG/1.1/DTD/svg11.dtd">
<svg version="1.1" id="Layer_1" xmlns="http://www.w3.org/2000/svg" xmlns:xlink="http://www.w3.org/1999/xlink" x="0px" y="0px"
	 width="16px" height="16px" viewBox="0 0 16 16" enable-background="new 0 0 16 16" xml:space="preserve">
<path d="M13.711,2.313c-3.133-3.135-8.212-3.135-11.345,0c-3.134,3.133-3.134,8.212-0.002,11.344c3.134,3.135,8.213,3.135,11.347,0
	C16.844,10.523,16.844,5.445,13.711,2.313z M3.124,12.898c-2.745-2.744-2.745-7.184,0-9.927c2.744-2.744,7.183-2.744,9.929,0
	c2.742,2.745,2.742,7.183,0,9.927C10.307,15.645,5.868,15.645,3.124,12.898z"/>
<path d="M12.34,3.68c-2.34-2.35-6.16-2.35-8.51,0c-2.34,2.35-2.34,6.16,0,8.509c2.35,2.351,6.17,2.351,8.51,0
	C14.689,9.84,14.689,6.03,12.34,3.68z M11.58,10.109l-1.41,1.421L8.04,9.4l-2.13,2.13l-1.42-1.421L6.62,7.99L4.49,5.86l1.42-1.42
	l2.13,2.13l2.13-2.13l1.41,1.42L9.46,7.99L11.58,10.109z"/>
</svg>
