<?xml version="1.0" encoding="utf-8"?>
<!-- Generator: Adobe Illustrator 16.0.3, SVG Export Plug-In . SVG Version: 6.00 Build 0)  -->
<!DOCTYPE svg PUBLIC "-//W3C//DTD SVG 1.1//EN" "http://www.w3.org/Graphics/SVG/1.1/DTD/svg11.dtd" [
	<!ENTITY st0 "fill-rule:evenodd;clip-rule:evenodd;">
]>
<svg version="1.1" id="Layer_1" xmlns="http://www.w3.org/2000/svg" xmlns:xlink="http://www.w3.org/1999/xlink" x="0px" y="0px"
	 width="16px" height="16px" viewBox="0 0 16 16" style="enable-background:new 0 0 16 16;" xml:space="preserve">
<g id="_x31_6_63_">
	<path style="&st0;" d="M7.998,1c-3.866,0-7,3.134-7,7s3.134,7,7,7s7-3.134,7-7S11.864,1,7.998,1z M5.186,12
		c-0.414,0-0.75-0.336-0.75-0.75c0-0.228,0.107-0.425,0.268-0.563L6.998,8L4.829,5.397C4.599,5.27,4.436,5.033,4.436,4.75
		C4.436,4.336,4.771,4,5.186,4c0.278,0,0.512,0.158,0.641,0.384L8.998,8l-3.184,3.635C5.683,11.849,5.456,12,5.186,12z
		 M8.814,11.635C8.683,11.849,8.456,12,8.186,12c-0.414,0-0.75-0.336-0.75-0.75c0-0.228,0.107-0.425,0.268-0.563L9.998,8
		L7.829,5.397C7.599,5.27,7.436,5.033,7.436,4.75C7.436,4.336,7.771,4,8.186,4c0.278,0,0.512,0.158,0.641,0.384L11.998,8
		L8.814,11.635z"/>
</g>
</svg>
