<?xml version="1.0" encoding="utf-8"?>
<!-- Generator: Adobe Illustrator 16.0.3, SVG Export Plug-In . SVG Version: 6.00 Build 0)  -->
<!DOCTYPE svg PUBLIC "-//W3C//DTD SVG 1.1//EN" "http://www.w3.org/Graphics/SVG/1.1/DTD/svg11.dtd" [
	<!ENTITY st0 "fill-rule:evenodd;clip-rule:evenodd;">
]>
<svg version="1.1" id="Layer_1" xmlns="http://www.w3.org/2000/svg" xmlns:xlink="http://www.w3.org/1999/xlink" x="0px" y="0px"
	 width="16px" height="16px" viewBox="0 0 16 16" style="enable-background:new 0 0 16 16;" xml:space="preserve">
<g id="_x31_6_65_">
	<path style="&st0;" d="M8,1C4.134,1,1,4.134,1,8s3.134,7,7,7s7-3.134,7-7S11.866,1,8,1z M11.25,11.563
		c-0.228,0-0.425-0.107-0.563-0.268L8,9l-2.603,2.169c-0.128,0.23-0.364,0.394-0.647,0.394c-0.414,0-0.75-0.336-0.75-0.75
		c0-0.278,0.158-0.512,0.384-0.641L8,7l3.635,3.184C11.849,10.315,12,10.542,12,10.813C12,11.227,11.664,11.563,11.25,11.563z
		 M11.25,8.563c-0.228,0-0.425-0.107-0.563-0.268L8,6L5.397,8.169C5.27,8.399,5.033,8.563,4.75,8.563C4.336,8.563,4,8.227,4,7.813
		c0-0.278,0.158-0.512,0.384-0.641L8,4l3.635,3.184C11.849,7.315,12,7.542,12,7.813C12,8.227,11.664,8.563,11.25,8.563z"/>
</g>
</svg>
