<?xml version="1.0" encoding="utf-8"?>
<!-- Generator: Adobe Illustrator 16.0.3, SVG Export Plug-In . SVG Version: 6.00 Build 0)  -->
<!DOCTYPE svg PUBLIC "-//W3C//DTD SVG 1.1//EN" "http://www.w3.org/Graphics/SVG/1.1/DTD/svg11.dtd" [
	<!ENTITY st0 "fill-rule:evenodd;clip-rule:evenodd;">
]>
<svg version="1.1" id="Layer_1" xmlns="http://www.w3.org/2000/svg" xmlns:xlink="http://www.w3.org/1999/xlink" x="0px" y="0px"
	 width="16px" height="16px" viewBox="0 0 16 16" style="enable-background:new 0 0 16 16;" xml:space="preserve">
<g id="_x31_6_61_">
	<path style="&st0;" d="M8,1C4.134,1,1,4.134,1,8s3.134,7,7,7s7-3.134,7-7S11.866,1,8,1z M7.813,12
		c-0.278,0-0.512-0.158-0.641-0.384L4,8l3.184-3.635C7.315,4.151,7.542,4,7.813,4c0.414,0,0.75,0.336,0.75,0.75
		c0,0.228-0.107,0.425-0.268,0.563L6,8l2.169,2.603c0.23,0.128,0.394,0.364,0.394,0.647C8.563,11.664,8.227,12,7.813,12z
		 M11.169,10.603c0.23,0.128,0.394,0.364,0.394,0.647c0,0.414-0.336,0.75-0.75,0.75c-0.278,0-0.512-0.158-0.641-0.384L7,8
		l3.184-3.635C10.315,4.151,10.542,4,10.813,4c0.414,0,0.75,0.336,0.75,0.75c0,0.228-0.107,0.425-0.268,0.563L9,8L11.169,10.603z"/>
</g>
</svg>
