<?xml version="1.0" encoding="utf-8"?>
<!-- Generator: Adobe Illustrator 16.0.3, SVG Export Plug-In . SVG Version: 6.00 Build 0)  -->
<!DOCTYPE svg PUBLIC "-//W3C//DTD SVG 1.1//EN" "http://www.w3.org/Graphics/SVG/1.1/DTD/svg11.dtd" [
	<!ENTITY st0 "fill-rule:evenodd;clip-rule:evenodd;">
]>
<svg version="1.1" id="Layer_1" xmlns="http://www.w3.org/2000/svg" xmlns:xlink="http://www.w3.org/1999/xlink" x="0px" y="0px"
	 width="16px" height="16px" viewBox="0 0 16 16" style="enable-background:new 0 0 16 16;" xml:space="preserve">
<g id="_x31_6_25_">
	<path style="&st0;" d="M13.091,1H2.909C1.854,1,1,1.854,1,2.909v10.182C1,14.146,1.854,15,2.909,15H9v-5H8V8h1V6h0.012
		c0-0.001,0-0.002,0-0.003c0-1.106,0.89-2.003,1.986-2.003c0.02,0,0.038,0.005,0.058,0.006H13v2h-1.354
		C11.291,6.008,11.006,6.296,11,6.655V8h2l-0.5,2H11v5h2.091C14.146,15,15,14.146,15,13.091V2.909C15,1.854,14.146,1,13.091,1z"/>
</g>
</svg>
