<?xml version="1.0" encoding="utf-8"?>
<!-- Generator: Adobe Illustrator 16.0.3, SVG Export Plug-In . SVG Version: 6.00 Build 0)  -->
<!DOCTYPE svg PUBLIC "-//W3C//DTD SVG 1.1//EN" "http://www.w3.org/Graphics/SVG/1.1/DTD/svg11.dtd" [
	<!ENTITY st0 "fill-rule:evenodd;clip-rule:evenodd;">
]>
<svg version="1.1" id="Layer_1" xmlns="http://www.w3.org/2000/svg" xmlns:xlink="http://www.w3.org/1999/xlink" x="0px" y="0px"
	 width="16px" height="16px" viewBox="0 0 16 16" style="enable-background:new 0 0 16 16;" xml:space="preserve">
<g id="_x31_6_37_">
	<path style="&st0;" d="M2,4.121v0.848l3.969,4.063c0,0,0.009,0.007,0.021,0.017v4.932c0,0,0.884,0.563,1.823,0.563
		c1.063,0,2.198-0.563,2.198-0.563V9.021L13.969,5V4.114c0,0-2.371,0.594-5.969,0.594C4.833,4.708,2.306,4.187,2,4.121z
		 M7.969,1.938c-2.987,0-5.969,1-5.969,1v1.132c0.296-0.13,2.714-1.143,6-1.143c3.598,0,5.969,1.156,5.969,1.156V2.938
		C13.969,2.938,10.966,1.938,7.969,1.938z"/>
</g>
</svg>
