<?xml version="1.0" encoding="utf-8"?>
<!-- Generator: Adobe Illustrator 16.0.3, SVG Export Plug-In . SVG Version: 6.00 Build 0)  -->
<!DOCTYPE svg PUBLIC "-//W3C//DTD SVG 1.1//EN" "http://www.w3.org/Graphics/SVG/1.1/DTD/svg11.dtd" [
	<!ENTITY st0 "fill-rule:evenodd;clip-rule:evenodd;">
]>
<svg version="1.1" id="Layer_1" xmlns="http://www.w3.org/2000/svg" xmlns:xlink="http://www.w3.org/1999/xlink" x="0px" y="0px"
	 width="16px" height="16px" viewBox="0 0 16 16" style="enable-background:new 0 0 16 16;" xml:space="preserve">
<g id="Filter_remove16">
	<path style="&st0;" d="M8.937,2.963l1.058-1.058C9.342,1.824,8.656,1.771,7.969,1.771c-2.987,0-5.969,1-5.969,1v1.299
		c0.296-0.13,2.714-1.143,6-1.143C8.326,2.927,8.631,2.945,8.937,2.963z M7.207,4.692C4.423,4.617,2.279,4.181,2,4.121v0.681
		L4.52,7.38L7.207,4.692z M5.989,10.153v3.826c0,0,1.009,0.5,1.948,0.5c1.063,0,2.073-0.5,2.073-0.5V9.011
		c0,0-0.255,0.063-0.637,0.124C9.817,9.012,10,8.864,10,8.864l3.969-4.031V4.114c0,0-0.865,0.213-2.324,0.384L5.989,10.153z
		 M13.512,2.631l-0.945,0.945c0.886,0.263,1.402,0.507,1.402,0.507V2.771C13.969,2.771,13.8,2.715,13.512,2.631z M12.721,0.593
		l-9.899,9.899l0.708,0.707L13.429,1.3L12.721,0.593z"/>
</g>
</svg>
