<?xml version="1.0" encoding="utf-8"?>
<!-- Generator: Adobe Illustrator 16.0.3, SVG Export Plug-In . SVG Version: 6.00 Build 0)  -->
<!DOCTYPE svg PUBLIC "-//W3C//DTD SVG 1.1//EN" "http://www.w3.org/Graphics/SVG/1.1/DTD/svg11.dtd" [
	<!ENTITY st0 "fill-rule:evenodd;clip-rule:evenodd;">
]>
<svg version="1.1" id="Layer_1" xmlns="http://www.w3.org/2000/svg" xmlns:xlink="http://www.w3.org/1999/xlink" x="0px" y="0px"
	 width="16px" height="16px" viewBox="0 0 16 16" style="enable-background:new 0 0 16 16;" xml:space="preserve">
<g id="flow_16">
	<path style="&st0;" d="M10,1H2v14h12V5L10,1z M13,14H3V2h7v3h3V14z M6,5H4v2h0.75v1H4v2h0.75v1H4v2h2v-0.75h4V13h2v-2h-1v-1h1V8h-1
		V6H6V5z M10.75,11H10v1H6v-1H5v-1h1V9.25h1V10h2V9.25h1V10h0.75V11z M10.75,6.25V8H10v1H9V8H7v1H6V8H5V7h1V6.25H10.75z"/>
</g>
</svg>
