<?xml version="1.0" encoding="utf-8"?>
<!-- Generator: Adobe Illustrator 16.0.3, SVG Export Plug-In . SVG Version: 6.00 Build 0)  -->
<!DOCTYPE svg PUBLIC "-//W3C//DTD SVG 1.1//EN" "http://www.w3.org/Graphics/SVG/1.1/DTD/svg11.dtd" [
	<!ENTITY st0 "fill-rule:evenodd;clip-rule:evenodd;">
]>
<svg version="1.1" id="Layer_1" xmlns="http://www.w3.org/2000/svg" xmlns:xlink="http://www.w3.org/1999/xlink" x="0px" y="0px"
	 width="16px" height="16px" viewBox="0 0 16 16" style="enable-background:new 0 0 16 16;" xml:space="preserve">
<g id="_x31_6_44_">
	<path style="&st0;" d="M9.5,7L12,4.5L13,6V3h-3l1.5,1L9,6.5L9.5,7z M6.5,7L7,6.5L4.5,4L6,3H3v3l1-1.5L6.5,7z M4.5,12L7,9.5L6.5,9
		L4,11.5L3,10v3h3L4.5,12z M1,1v14h14V1H1z M14,14H2V2h12V14z M10,13h3v-3l-1,1.5L9.5,9L9,9.5l2.5,2.5L10,13z"/>
</g>
</svg>
