<?xml version="1.0" encoding="utf-8"?>
<!-- Generator: Adobe Illustrator 15.1.0, SVG Export Plug-In . SVG Version: 6.00 Build 0)  -->
<!DOCTYPE svg PUBLIC "-//W3C//DTD SVG 1.1//EN" "http://www.w3.org/Graphics/SVG/1.1/DTD/svg11.dtd">
<svg version="1.1" id="Layer_1" xmlns="http://www.w3.org/2000/svg" xmlns:xlink="http://www.w3.org/1999/xlink" x="0px" y="0px"
	 width="24px" height="24px" viewBox="0 0 24 24" enable-background="new 0 0 24 24" xml:space="preserve">
<g>
	<path d="M8.615,9.49H7.969c-0.23,0-0.346-0.085-0.346-0.255c0-0.04,0.005-0.091,0.015-0.15s0.025-0.13,0.045-0.21L7.789,8.35H8.84
		l0.135-0.675c0.07-0.38,0.187-0.729,0.352-1.05S9.692,6.03,9.927,5.8c0.235-0.229,0.505-0.41,0.81-0.54s0.637-0.194,0.998-0.194
		c0.18,0,0.362,0.015,0.547,0.045c0.185,0.029,0.355,0.074,0.51,0.135c0.155,0.06,0.283,0.133,0.383,0.218s0.15,0.178,0.15,0.277
		c0,0.06-0.016,0.149-0.045,0.27l-0.136,0.45c-0.159-0.06-0.335-0.11-0.524-0.15c-0.19-0.039-0.4-0.06-0.63-0.06
		c-0.47,0-0.815,0.138-1.035,0.412c-0.22,0.275-0.385,0.653-0.495,1.133L10.34,8.35h1.349c0.229,0,0.345,0.086,0.345,0.256
		c0,0.04-0.005,0.09-0.015,0.149c-0.01,0.061-0.025,0.13-0.045,0.21L11.869,9.49H10.13l-0.975,5.13
		c-0.07,0.38-0.178,0.803-0.323,1.268s-0.34,0.897-0.585,1.297c-0.245,0.4-0.548,0.735-0.908,1.006
		c-0.36,0.27-0.785,0.404-1.275,0.404c-0.18,0-0.357-0.037-0.533-0.112c-0.175-0.075-0.263-0.223-0.263-0.442
		c0-0.09,0.015-0.195,0.045-0.315l0.075-0.3c0.05,0.01,0.1,0.016,0.15,0.016c0.051,0,0.101,0,0.15,0c0.51,0,0.92-0.213,1.23-0.638
		c0.31-0.426,0.56-1.143,0.75-2.152L8.615,9.49z"/>
	<path d="M18.559,8.35c0.221,0,0.33,0.08,0.33,0.24c0,0.15-0.096,0.365-0.285,0.646c-0.18,0.271-0.374,0.539-0.584,0.805
		c-0.209,0.266-0.424,0.523-0.643,0.774c-0.221,0.251-0.442,0.489-0.666,0.715c-0.225,0.226-0.438,0.429-0.637,0.609
		c0.219,0.329,0.426,0.681,0.62,1.055s0.361,0.738,0.501,1.093s0.254,0.684,0.344,0.988c0.09,0.304,0.149,0.546,0.18,0.726h-1.033
		c-0.14,0-0.25-0.027-0.33-0.082c-0.079-0.056-0.139-0.158-0.179-0.308c-0.05-0.18-0.11-0.384-0.181-0.612
		c-0.07-0.229-0.15-0.464-0.24-0.703c-0.091-0.238-0.191-0.48-0.301-0.724c-0.111-0.244-0.23-0.471-0.361-0.681
		c-0.53,0.479-0.988,0.984-1.373,1.518S12.983,15.472,12.664,16h-0.93c-0.23,0-0.345-0.07-0.345-0.21c0-0.08,0.03-0.188,0.09-0.322
		c0.06-0.136,0.13-0.258,0.21-0.368c0.341-0.501,0.722-1.008,1.144-1.52c0.421-0.512,0.947-1.044,1.579-1.596
		c-0.15-0.229-0.312-0.486-0.481-0.771c-0.172-0.283-0.332-0.583-0.482-0.897c-0.151-0.313-0.292-0.638-0.422-0.972
		c-0.131-0.334-0.236-0.666-0.317-0.995h1.155c0.13,0,0.221,0.03,0.27,0.091c0.051,0.06,0.101,0.159,0.15,0.3
		c0.131,0.391,0.294,0.821,0.489,1.292c0.196,0.471,0.404,0.872,0.625,1.202c0.419-0.42,0.834-0.889,1.243-1.404
		c0.41-0.516,0.755-1.009,1.035-1.48H18.559z"/>
</g>
</svg>
