<?xml version="1.0" encoding="utf-8"?>
<!-- Generator: Adobe Illustrator 16.0.3, SVG Export Plug-In . SVG Version: 6.00 Build 0)  -->
<!DOCTYPE svg PUBLIC "-//W3C//DTD SVG 1.1//EN" "http://www.w3.org/Graphics/SVG/1.1/DTD/svg11.dtd" [
	<!ENTITY st0 "fill-rule:evenodd;clip-rule:evenodd;">
]>
<svg version="1.1" id="Layer_1" xmlns="http://www.w3.org/2000/svg" xmlns:xlink="http://www.w3.org/1999/xlink" x="0px" y="0px"
	 width="16px" height="16px" viewBox="0 0 16 16" style="enable-background:new 0 0 16 16;" xml:space="preserve">
<g id="Control_16">
	<path style="&st0;" d="M10.342,2.829c0,0-2.101,1.162-2.413,0.983C7.615,3.991,5.515,2.829,5.515,2.829
		c-5.05-1.117-4.647,8.581-4.647,8.581c2.86,4.246,4.826-1.386,4.826-1.386C6.31,8.717,7.585,8.535,7.929,8.51
		c0.344,0.025,1.619,0.207,2.234,1.515c0,0,2.503,5.587,4.827,1.386C14.99,11.41,15.615,1.622,10.342,2.829z M5.597,6.011H5.041
		v0.555c0,0.237-0.109,0.43-0.525,0.43c-0.417,0-0.526-0.192-0.526-0.43V6.011H3.418c-0.237,0-0.43-0.109-0.43-0.526
		c0-0.416,0.192-0.525,0.43-0.525h0.571V4.387c0-0.237,0.109-0.43,0.526-0.43c0.416,0,0.525,0.192,0.525,0.43v0.572h0.556
		c0.237,0,0.43,0.109,0.43,0.525C6.026,5.901,5.834,6.011,5.597,6.011z M11.548,7.113c-0.896,0-1.624-0.727-1.624-1.623
		s0.728-1.623,1.624-1.623c0.896,0,1.623,0.727,1.623,1.623S12.443,7.113,11.548,7.113z"/>
</g>
</svg>
