<?xml version="1.0" encoding="utf-8"?>
<!-- Generator: Adobe Illustrator 16.0.3, SVG Export Plug-In . SVG Version: 6.00 Build 0)  -->
<!DOCTYPE svg PUBLIC "-//W3C//DTD SVG 1.1//EN" "http://www.w3.org/Graphics/SVG/1.1/DTD/svg11.dtd" [
	<!ENTITY st0 "fill-rule:evenodd;clip-rule:evenodd;">
]>
<svg version="1.1" id="Layer_1" xmlns="http://www.w3.org/2000/svg" xmlns:xlink="http://www.w3.org/1999/xlink" x="0px" y="0px"
	 width="16px" height="16px" viewBox="0 0 16 16" style="enable-background:new 0 0 16 16;" xml:space="preserve">
<g id="Gouge_16">
	<path style="&st0;" d="M12.122,7.487l-1.026,1.231c0.005,0.076,0.022,0.149,0.022,0.227c0,0.003-0.001,0.005-0.001,0.008h1.271
		C12.389,8.437,12.283,7.948,12.122,7.487z M7.947,5.774c0.803,0,1.526,0.308,2.085,0.799l0.988-0.823
		c-0.799-0.771-1.879-1.249-3.075-1.249c-2.453,0-4.442,1.993-4.442,4.452h1.274c0-0.003-0.001-0.005-0.001-0.008
		C4.776,7.194,6.196,5.774,7.947,5.774z M7.955,1.97c-3.856,0-6.983,3.127-6.983,6.984c0,2.287,1.104,4.311,2.803,5.585
		c1.217-0.376,2.646-0.597,4.181-0.597c1.536,0,2.965,0.221,4.182,0.597c1.699-1.274,2.803-3.298,2.803-5.585
		C14.939,5.097,11.813,1.97,7.955,1.97z M11.365,13.487C10.37,13.18,9.202,13,7.947,13c-1.254,0-2.422,0.18-3.417,0.487
		c-1.389-1.042-2.291-2.672-2.291-4.542c0-3.154,2.556-5.707,5.708-5.707s5.707,2.553,5.707,5.707
		C13.654,10.815,12.753,12.445,11.365,13.487z M12.069,5.774l-5.391,4.439l1.269,1.269l4.439-5.391L12.069,5.774z"/>
</g>
</svg>
