<?xml version="1.0" encoding="utf-8"?>
<!-- Generator: Adobe Illustrator 16.0.3, SVG Export Plug-In . SVG Version: 6.00 Build 0)  -->
<!DOCTYPE svg PUBLIC "-//W3C//DTD SVG 1.1//EN" "http://www.w3.org/Graphics/SVG/1.1/DTD/svg11.dtd" [
	<!ENTITY st0 "fill-rule:evenodd;clip-rule:evenodd;">
]>
<svg version="1.1" id="Layer_1" xmlns="http://www.w3.org/2000/svg" xmlns:xlink="http://www.w3.org/1999/xlink" x="0px" y="0px"
	 width="16px" height="16px" viewBox="0 0 16 16" style="enable-background:new 0 0 16 16;" xml:space="preserve">
<g id="Automatic_16">
	<path style="&st0;" d="M15.593,11.949l-0.479-0.129c0.025-0.218,0.025-0.434,0.001-0.646l0.479-0.128
		c0.125-0.033,0.198-0.161,0.165-0.286l-0.091-0.338c-0.033-0.125-0.161-0.198-0.285-0.165l-0.479,0.129
		c-0.086-0.198-0.194-0.386-0.323-0.56l0.352-0.351c0.091-0.091,0.091-0.239,0-0.33l-0.248-0.248c-0.091-0.091-0.238-0.091-0.329,0
		L14.002,9.25c-0.171-0.127-0.357-0.236-0.559-0.323l0.128-0.479c0.033-0.125-0.04-0.253-0.165-0.286l-0.338-0.091
		c-0.124-0.033-0.252,0.041-0.286,0.165l-0.128,0.479c-0.218-0.025-0.435-0.025-0.646,0l-0.128-0.479
		c-0.034-0.124-0.162-0.198-0.286-0.165l-0.338,0.091c-0.125,0.033-0.198,0.161-0.165,0.286l0.128,0.479
		c-0.197,0.086-0.385,0.193-0.559,0.322l-0.351-0.351c-0.092-0.092-0.239-0.092-0.33-0.001L9.732,9.146
		c-0.091,0.091-0.091,0.239,0,0.33l0.351,0.351c-0.127,0.171-0.235,0.357-0.322,0.56l-0.479-0.129
		c-0.124-0.033-0.252,0.041-0.285,0.165l-0.091,0.338c-0.033,0.125,0.04,0.253,0.165,0.286l0.479,0.128
		c-0.025,0.218-0.025,0.435-0.001,0.646L9.07,11.949c-0.125,0.033-0.198,0.161-0.165,0.285l0.091,0.339
		c0.033,0.124,0.161,0.198,0.285,0.165l0.479-0.129c0.086,0.198,0.194,0.386,0.323,0.559L9.732,13.52
		c-0.091,0.091-0.091,0.238,0,0.33l0.248,0.247c0.091,0.091,0.238,0.091,0.33,0l0.351-0.351c0.171,0.127,0.357,0.235,0.559,0.322
		l-0.128,0.479c-0.033,0.124,0.04,0.252,0.165,0.286l0.338,0.09c0.124,0.034,0.252-0.04,0.286-0.165l0.128-0.479
		c0.218,0.025,0.435,0.024,0.646,0l0.128,0.479c0.034,0.125,0.162,0.199,0.286,0.165l0.338-0.09
		c0.125-0.034,0.198-0.162,0.165-0.286l-0.128-0.479c0.197-0.086,0.385-0.194,0.559-0.322l0.351,0.351
		c0.092,0.091,0.239,0.091,0.33,0l0.248-0.247c0.091-0.092,0.091-0.239,0-0.33l-0.351-0.351c0.127-0.171,0.235-0.358,0.322-0.56
		l0.479,0.129c0.124,0.033,0.252-0.041,0.285-0.165l0.091-0.339C15.791,12.11,15.718,11.982,15.593,11.949z M14.052,11.959
		c-0.255,0.949-1.231,1.514-2.181,1.259c-0.95-0.255-1.514-1.23-1.26-2.181c0.255-0.95,1.231-1.514,2.181-1.259
		C13.742,10.032,14.306,11.009,14.052,11.959z M9.309,9.245l-0.364-0.63c0.248-0.196,0.472-0.421,0.668-0.668l0.63,0.363
		c0.163,0.095,0.372,0.038,0.467-0.125l0.256-0.443c0.095-0.164,0.039-0.373-0.125-0.467l-0.629-0.363
		c0.115-0.29,0.198-0.596,0.244-0.913h0.727c0.189,0,0.342-0.153,0.342-0.342V5.145c0-0.188-0.152-0.342-0.342-0.342h-0.727
		c-0.046-0.317-0.129-0.623-0.244-0.913l0.629-0.363c0.164-0.094,0.22-0.303,0.125-0.466l-0.256-0.444
		c-0.095-0.163-0.304-0.22-0.467-0.125l-0.63,0.363c-0.196-0.247-0.42-0.472-0.668-0.668l0.364-0.63
		C9.402,1.394,9.347,1.185,9.184,1.09L8.739,0.834C8.576,0.739,8.367,0.796,8.272,0.959L7.909,1.588
		C7.62,1.473,7.313,1.391,6.996,1.344V0.617c0-0.188-0.153-0.342-0.342-0.342H6.142C5.953,0.275,5.8,0.429,5.8,0.617v0.727
		C5.482,1.391,5.177,1.473,4.888,1.588L4.524,0.959C4.43,0.796,4.221,0.739,4.058,0.834L3.613,1.09
		C3.45,1.185,3.395,1.394,3.488,1.557l0.364,0.63C3.604,2.383,3.38,2.607,3.184,2.854L2.555,2.491
		C2.391,2.396,2.182,2.453,2.088,2.616L1.831,3.061C1.737,3.224,1.793,3.433,1.956,3.527L2.585,3.89
		C2.471,4.18,2.388,4.485,2.341,4.803H1.614c-0.188,0-0.342,0.153-0.342,0.342v0.513c0,0.188,0.153,0.342,0.342,0.342h0.727
		c0.047,0.317,0.13,0.623,0.244,0.913L1.956,7.275C1.793,7.369,1.737,7.578,1.831,7.742l0.257,0.443
		c0.094,0.164,0.303,0.22,0.467,0.125l0.629-0.363C3.38,8.194,3.604,8.419,3.852,8.615l-0.363,0.63
		C3.395,9.408,3.45,9.617,3.613,9.712l0.444,0.256c0.163,0.095,0.372,0.039,0.467-0.125l0.363-0.629
		C5.177,9.329,5.482,9.412,5.8,9.458v0.727c0,0.188,0.153,0.342,0.342,0.342h0.513c0.188,0,0.342-0.153,0.342-0.342V9.458
		C7.313,9.412,7.62,9.329,7.909,9.214l0.363,0.629c0.095,0.163,0.303,0.22,0.467,0.125l0.443-0.256
		C9.347,9.617,9.402,9.408,9.309,9.245z M6.399,8.082c-1.49,0-2.698-1.208-2.698-2.698s1.208-2.698,2.698-2.698
		s2.698,1.208,2.698,2.698S7.89,8.082,6.399,8.082z"/>
</g>
</svg>
