<?xml version="1.0" encoding="utf-8"?>
<!-- Generator: Adobe Illustrator 16.0.3, SVG Export Plug-In . SVG Version: 6.00 Build 0)  -->
<!DOCTYPE svg PUBLIC "-//W3C//DTD SVG 1.1//EN" "http://www.w3.org/Graphics/SVG/1.1/DTD/svg11.dtd" [
	<!ENTITY st0 "fill-rule:evenodd;clip-rule:evenodd;">
]>
<svg version="1.1" id="Layer_1" xmlns="http://www.w3.org/2000/svg" xmlns:xlink="http://www.w3.org/1999/xlink" x="0px" y="0px"
	 width="16px" height="16px" viewBox="0 0 16 16" style="enable-background:new 0 0 16 16;" xml:space="preserve">
<g id="go_to_target_16">
	<path style="&st0;" d="M2,6c0-2.209,1.791-4,4-4s4,1.791,4,4h1c0-2.762-2.238-5-5-5S1,3.238,1,6s2.238,5,5,5v-1
		C3.791,10,2,8.209,2,6z M6,4C4.896,4,4,4.896,4,6s0.896,2,2,2V6h2C8,4.896,7.104,4,6,4z M11.5,8.469l1.5-1.5H7v6l1.5-1.5l3.5,3.5
		v-2h4L11.5,8.469z"/>
</g>
</svg>
