<?xml version="1.0" encoding="utf-8"?>
<!-- Generator: Adobe Illustrator 16.0.3, SVG Export Plug-In . SVG Version: 6.00 Build 0)  -->
<!DOCTYPE svg PUBLIC "-//W3C//DTD SVG 1.1//EN" "http://www.w3.org/Graphics/SVG/1.1/DTD/svg11.dtd" [
	<!ENTITY st0 "fill-rule:evenodd;clip-rule:evenodd;">
]>
<svg version="1.1" id="Layer_1" xmlns="http://www.w3.org/2000/svg" xmlns:xlink="http://www.w3.org/1999/xlink" x="0px" y="0px"
	 width="16px" height="16px" viewBox="0 0 16 16" style="enable-background:new 0 0 16 16;" xml:space="preserve">
<g id="Help_16">
	<path style="&st0;" d="M8,1C4.134,1,1,4.134,1,8s3.134,7,7,7s7-3.134,7-7S11.866,1,8,1z M8.765,11.969H7.161v-1.506h1.604V11.969z
		 M10.64,7.23c-0.2,0.297-0.627,0.701-1.281,1.212C9.02,8.706,8.81,8.919,8.728,9.08C8.646,9.24,8.608,9.528,8.616,9.942H7.161
		C7.157,9.746,7.155,9.627,7.155,9.584c0-0.443,0.078-0.808,0.234-1.094s0.468-0.607,0.936-0.965
		c0.468-0.356,0.748-0.591,0.839-0.702c0.141-0.175,0.211-0.367,0.211-0.578c0-0.293-0.124-0.544-0.373-0.753
		S8.417,5.179,7.994,5.179c-0.407,0-0.747,0.108-1.021,0.327c-0.273,0.218-0.462,0.55-0.564,0.996L4.936,6.331
		c0.042-0.64,0.332-1.183,0.87-1.63c0.539-0.446,1.245-0.67,2.12-0.67c0.921,0,1.653,0.227,2.197,0.679
		c0.544,0.451,0.816,0.978,0.816,1.578C10.939,6.62,10.839,6.935,10.64,7.23z"/>
</g>
</svg>
