<?xml version="1.0" encoding="utf-8"?>
<!-- Generator: Adobe Illustrator 15.1.0, SVG Export Plug-In . SVG Version: 6.00 Build 0)  -->
<!DOCTYPE svg PUBLIC "-//W3C//DTD SVG 1.1//EN" "http://www.w3.org/Graphics/SVG/1.1/DTD/svg11.dtd">
<svg version="1.1" id="Layer_1" xmlns="http://www.w3.org/2000/svg" xmlns:xlink="http://www.w3.org/1999/xlink" x="0px" y="0px"
	 width="24px" height="24px" viewBox="0 0 24 24" enable-background="new 0 0 24 24" xml:space="preserve">
<g>
	<path d="M19.999,4C17.79,1.792,14.896,0.688,12,0.688C9.105,0.688,6.209,1.792,4,4c-4.418,4.418-4.418,11.581,0,15.999
		c2.209,2.209,5.104,3.313,8,3.313c2.896,0,5.79-1.104,7.999-3.313C24.417,15.581,24.417,8.418,19.999,4z M18.749,18.749
		c-1.803,1.803-4.2,2.796-6.749,2.796c-2.55,0-4.947-0.993-6.749-2.796c-3.722-3.722-3.722-9.776,0-13.498
		C7.053,3.448,9.45,2.455,12,2.455s4.946,0.993,6.749,2.796C22.472,8.973,22.472,15.027,18.749,18.749z"/>
	<path d="M15.265,6.19c-0.78-0.529-1.824-0.798-3.105-0.798c-1.644,0-2.875,0.384-3.66,1.14C7.742,7.26,7.29,8.227,7.15,9.408
		l3.213,0.397c0.091-0.666,0.277-1.133,0.564-1.423c0.311-0.313,0.707-0.473,1.178-0.473c0.438,0,0.776,0.107,1,0.319
		c0.229,0.215,0.346,0.514,0.346,0.89c0,0.387-0.259,0.786-0.792,1.219c-0.911,0.755-1.5,1.286-1.756,1.579
		c-0.25,0.287-0.514,0.607-0.639,0.953C10.138,13.217,10,13.68,10,14.245V15h3.286c0.016-1,0.103-1.069,0.256-1.349
		c0.171-0.315,0.563-0.854,1.198-1.356c0.856-0.675,1.431-1.32,1.704-1.78c0.269-0.451,0.404-0.96,0.404-1.442
		C16.849,7.877,16.331,6.911,15.265,6.19z"/>
	<circle cx="11.828" cy="17.321" r="1.729"/>
</g>
</svg>
