<?xml version="1.0" encoding="utf-8"?>
<!-- Generator: Adobe Illustrator 16.0.0, SVG Export Plug-In . SVG Version: 6.00 Build 0)  -->
<!DOCTYPE svg PUBLIC "-//W3C//DTD SVG 1.1//EN" "http://www.w3.org/Graphics/SVG/1.1/DTD/svg11.dtd">
<svg version="1.1" id="Layer_1" xmlns="http://www.w3.org/2000/svg" xmlns:xlink="http://www.w3.org/1999/xlink" x="0px" y="0px"
	 width="16px" height="16px" viewBox="0 0 16 16" enable-background="new 0 0 16 16" xml:space="preserve">
<g>
	<path d="M8,0C3.58,0,0,3.58,0,8s3.58,8,8,8s8-3.58,8-8S12.42,0,8,0z M8,14.93c-3.87,0-7-3.129-7-7c0-3.87,3.13-7,7-7s7,3.13,7,7
		C15,11.801,11.87,14.93,8,14.93z"/>
	<path d="M8,1.93c-3.31,0-6,2.69-6,6s2.69,6,6,6s6-2.689,6-6S11.31,1.93,8,1.93z M8.85,12.311c-0.18,0.17-0.47,0.25-0.89,0.25
		c-0.41,0-0.71-0.08-0.88-0.25c-0.18-0.17-0.26-0.439-0.26-0.811c0-0.369,0.08-0.641,0.26-0.811c0.17-0.17,0.47-0.25,0.88-0.25
		c0.42,0,0.71,0.08,0.89,0.25c0.17,0.17,0.261,0.441,0.261,0.811C9.11,11.871,9.02,12.141,8.85,12.311z M10.54,6.91
		c-0.05,0.19-0.11,0.36-0.2,0.53c-0.08,0.16-0.189,0.31-0.32,0.45C9.89,8.03,9.74,8.18,9.56,8.33C9.42,8.45,9.29,8.55,9.19,8.64
		c-0.11,0.09-0.2,0.18-0.28,0.27C8.84,8.99,8.77,9.08,8.73,9.17C8.68,9.26,8.65,9.496,8.63,9.625L8.6,10H7.53
		c-0.19,0-0.32-0.234-0.4-0.455c-0.07-0.16-0.1-0.412-0.1-0.612c0-0.31,0.08-0.591,0.239-0.781C7.43,7.961,7.62,7.756,7.83,7.556
		c0.14-0.13,0.26-0.247,0.35-0.338C8.28,7.128,8.35,7.034,8.4,6.964c0.05-0.08,0.09-0.152,0.109-0.232
		c0.03-0.07,0.04-0.151,0.04-0.241c0-0.15-0.03-0.281-0.08-0.371c-0.05-0.1-0.12-0.17-0.21-0.22c-0.1-0.05-0.21-0.08-0.33-0.09
		C7.8,5.79,7.67,5.78,7.52,5.78C7.32,5.78,7.12,5.79,6.91,5.8C6.7,5.81,6.55,5.82,6.47,5.82c-0.14,0-0.284-0.03-0.345-0.1
		C6.075,5.65,6,5.55,6,5.41V4.43c0-0.08,0.515-0.17,0.835-0.26c0.33-0.09,0.763-0.13,1.263-0.13c0.479,0,0.9,0.05,1.211,0.16
		c0.32,0.1,0.586,0.25,0.775,0.44c0.19,0.19,0.323,0.42,0.403,0.68c0.069,0.27,0.111,0.57,0.111,0.9
		C10.599,6.49,10.58,6.71,10.54,6.91z"/>
</g>
</svg>
