<?xml version="1.0" encoding="utf-8"?>
<!-- Generator: Adobe Illustrator 16.0.3, SVG Export Plug-In . SVG Version: 6.00 Build 0)  -->
<!DOCTYPE svg PUBLIC "-//W3C//DTD SVG 1.1//EN" "http://www.w3.org/Graphics/SVG/1.1/DTD/svg11.dtd" [
	<!ENTITY st0 "fill-rule:evenodd;clip-rule:evenodd;">
]>
<svg version="1.1" id="Layer_1" xmlns="http://www.w3.org/2000/svg" xmlns:xlink="http://www.w3.org/1999/xlink" x="0px" y="0px"
	 width="16px" height="16px" viewBox="0 0 16 16" style="enable-background:new 0 0 16 16;" xml:space="preserve">
<g id="History_1616">
	<path style="&st0;" d="M8.516,2c-3.59,0-6.5,2.91-6.5,6.5c0,0.178,0.028,0.347,0.043,0.521l-1.44,0.002l2.965,3.902l2.911-3.912
		L5,9.016C4.979,8.847,4.966,8.675,4.966,8.5c0-2.513,2.037-4.55,4.55-4.55s4.55,2.037,4.55,4.55c0,2.411-1.881,4.364-4.253,4.52
		v1.052c0.719-0.72,1.921-1.196,3.297-1.196c0.063,0,0.123,0.011,0.187,0.013c1.063-1.155,1.72-2.691,1.72-4.388
		C15.016,4.91,12.105,2,8.516,2z M8,5.984v3.969h3V8.984H9v-3H8z"/>
</g>
</svg>
