<?xml version="1.0" encoding="utf-8"?>
<!-- Generator: Adobe Illustrator 16.0.3, SVG Export Plug-In . SVG Version: 6.00 Build 0)  -->
<!DOCTYPE svg PUBLIC "-//W3C//DTD SVG 1.1//EN" "http://www.w3.org/Graphics/SVG/1.1/DTD/svg11.dtd" [
	<!ENTITY st0 "fill-rule:evenodd;clip-rule:evenodd;">
]>
<svg version="1.1" id="Layer_1" xmlns="http://www.w3.org/2000/svg" xmlns:xlink="http://www.w3.org/1999/xlink" x="0px" y="0px"
	 width="16px" height="16px" viewBox="0 0 16 16" style="enable-background:new 0 0 16 16;" xml:space="preserve">
<g id="Delay_16">
	<path style="&st0;" d="M12.01,13.974c0.006-0.804,0.003-3.241,0.003-3.241S10.84,9.558,8.908,7.527
		C8.9,7.536,8.894,7.543,8.885,7.552c0.023,0-0.55,0.026-0.753,0.004C8.102,7.58,8.076,7.604,8.046,7.629
		c3.598,2.446,2.983,6.359,2.983,6.359H5.02c0,0-0.317-3.679,3.026-6.359c-0.031-0.021-0.058-0.045-0.09-0.066
		C7.665,7.571,7.147,7.552,7.168,7.552C7.163,7.547,7.159,7.543,7.155,7.538c-1.926,2.023-3.152,3.194-3.152,3.194
		s-0.034,2.438-0.028,3.241c-1.247,0.015-0.954,0.964-0.96,1.008c1.332,0,4.897,0.003,4.897,0.003s3.725-0.001,5.057-0.001
		C12.962,14.939,13.258,13.988,12.01,13.974z M8.007,6.014l0.021-0.012l1.024-1.986l-2.19-0.003L8.007,6.014z M8.04,7.506
		c0.017-0.001,0.026-0.002,0.045-0.003c0.006-0.007,0.012-0.013,0.018-0.02c-3.173-3.161-3.1-5.488-3.1-5.488h6.016
		c0,0,0.136,2.205-2.916,5.488l0.019,0.019c0.294-0.008,0.795,0.012,0.774,0.012C8.9,7.519,8.904,7.522,8.908,7.527
		c1.925-2.021,3.101-2.882,3.101-2.882s-0.008-1.854-0.014-2.658c1.248-0.015,0.96-0.938,0.966-0.981
		c-1.332,0-5.06-0.002-5.06-0.002S4.367,1.006,3.034,1.006C3.041,1.05,2.724,1.973,3.971,1.987C3.965,2.791,4.01,4.646,4.01,4.646
		S5.224,5.51,7.155,7.538C7.163,7.529,7.17,7.522,7.179,7.514C7.156,7.514,7.774,7.489,8.04,7.506z M8.057,7.535
		C8.065,7.526,8.072,7.518,8.079,7.51C8.067,7.508,8.055,7.507,8.04,7.506C7.966,7.511,7.911,7.518,7.911,7.529
		C7.928,7.54,7.94,7.552,7.956,7.563c0.059-0.002,0.11-0.005,0.145-0.01C8.074,7.549,8.057,7.543,8.057,7.535z M8.138,7.52
		c0.005,0.005,0.01,0.011,0.015,0.016c0,0.008-0.021,0.014-0.052,0.018c0.008,0.001,0.021,0.002,0.031,0.003
		c0.011-0.009,0.021-0.018,0.031-0.026C8.163,7.525,8.147,7.522,8.138,7.52z M8.138,7.52C8.132,7.514,8.126,7.508,8.121,7.502
		C8.109,7.503,8.096,7.503,8.085,7.503C8.083,7.505,8.081,7.507,8.079,7.51C8.106,7.512,8.124,7.516,8.138,7.52z M5.967,11.622
		l-0.06,1.305l2.296,0.105l1.893,0.087l0.06-1.305c0,0-0.248-0.749-1.141-1.012c0,0-0.825-0.716-0.854-0.839L8.156,9.963
		c-0.04,0.12-1.08,0.773-1.08,0.773C6.164,10.915,5.967,11.622,5.967,11.622z"/>
</g>
</svg>
