<?xml version="1.0" encoding="utf-8"?>
<!-- Generator: Adobe Illustrator 16.0.3, SVG Export Plug-In . SVG Version: 6.00 Build 0)  -->
<!DOCTYPE svg PUBLIC "-//W3C//DTD SVG 1.1//EN" "http://www.w3.org/Graphics/SVG/1.1/DTD/svg11.dtd" [
	<!ENTITY st0 "fill-rule:evenodd;clip-rule:evenodd;">
]>
<svg version="1.1" id="Layer_1" xmlns="http://www.w3.org/2000/svg" xmlns:xlink="http://www.w3.org/1999/xlink" x="0px" y="0px"
	 width="16px" height="16px" viewBox="0 0 16 16" style="enable-background:new 0 0 16 16;" xml:space="preserve">
<path d="M8,16c-0.08,0-0.158-0.001-0.236-0.004l1.635-4.493h2.25c0.395,0,0.828-0.305,0.963-0.674l1.773-4.873
	c0.291-0.797-0.166-1.45-1.016-1.45h-3.121l-2.619,7.197l0,0l-1.484,4.079C2.619,14.945,0,11.778,0,8
	c0-3.67,2.473-6.764,5.842-7.705L4.309,4.506l0,0l-2.547,6.997h1.695l2.166-5.945h1.273l-2.164,5.945h1.693l2.018-5.547
	c0.291-0.797-0.166-1.45-1.014-1.45H6.004L7.641,0.01C7.76,0.002,7.879,0,8,0c4.418,0,8,3.582,8,8S12.418,16,8,16z M12.842,5.554
	h-1.275l-1.783,4.895h1.273L12.842,5.554z"/>
</svg>
