<?xml version="1.0" encoding="utf-8"?>
<!-- Generator: Adobe Illustrator 16.0.0, SVG Export Plug-In . SVG Version: 6.00 Build 0)  -->
<!DOCTYPE svg PUBLIC "-//W3C//DTD SVG 1.1//EN" "http://www.w3.org/Graphics/SVG/1.1/DTD/svg11.dtd">
<svg version="1.1" id="Layer_1" xmlns="http://www.w3.org/2000/svg" xmlns:xlink="http://www.w3.org/1999/xlink" x="0px" y="0px"
	 width="24px" height="24px" viewBox="0 0 24 24" enable-background="new 0 0 24 24" xml:space="preserve">
<path d="M20.52,9.619c-1.019,1.351-3.69,4.576-5.985,4.542c-1.614-0.022-3.603-1.791-5.129-1.282
	c-2.668,0.889-5.183,3.66-6.06,4.702H20.52V9.619z M21.373,2.191H2.564C1.148,2.191,0,3.34,0,4.756v13.68
	C0,19.852,1.148,21,2.564,21h18.809c1.416,0,2.564-1.148,2.564-2.564V4.756C23.938,3.34,22.789,2.191,21.373,2.191z M22,19.197H2
	v-15h20V19.197z M6.839,11.596c1.416,0,2.565-1.149,2.565-2.565S8.255,6.466,6.839,6.466S4.274,7.615,4.274,9.031
	S5.423,11.596,6.839,11.596z"/>
</svg>
