<?xml version="1.0" encoding="utf-8"?>
<!-- Generator: Adobe Illustrator 16.0.0, SVG Export Plug-In . SVG Version: 6.00 Build 0)  -->
<!DOCTYPE svg PUBLIC "-//W3C//DTD SVG 1.1//EN" "http://www.w3.org/Graphics/SVG/1.1/DTD/svg11.dtd">
<svg version="1.1" id="Layer_1" xmlns="http://www.w3.org/2000/svg" xmlns:xlink="http://www.w3.org/1999/xlink" x="0px" y="0px"
	 width="16px" height="16px" viewBox="0 0 16 16" enable-background="new 0 0 16 16" xml:space="preserve">
<path d="M13,0H3C1.35,0,0,1.35,0,3v10c0,1.65,1.35,3,3,3h10c1.65,0,3-1.35,3-3V3C16,1.35,14.65,0,13,0z M15,13c0,1.1-0.9,2-2,2H3
	c-1.1,0-2-0.9-2-2V3c0-1.1,0.9-2,2-2h10c1.1,0,2,0.9,2,2V13z"/>
<path d="M13,2H3C2.45,2,2,2.45,2,3v10c0,0.55,0.45,1,1,1h10c0.55,0,1-0.45,1-1V3C14,2.45,13.55,2,13,2z M9,12H7V7h2V12z M9,6.06H7
	v-2h2V6.06z"/>
</svg>
