<?xml version="1.0" encoding="utf-8"?>
<!-- Generator: Adobe Illustrator 16.0.4, SVG Export Plug-In . SVG Version: 6.00 Build 0)  -->
<!DOCTYPE svg PUBLIC "-//W3C//DTD SVG 1.1//EN" "http://www.w3.org/Graphics/SVG/1.1/DTD/svg11.dtd">
<svg version="1.1" id="Layer_1" xmlns="http://www.w3.org/2000/svg" xmlns:xlink="http://www.w3.org/1999/xlink" x="0px" y="0px"
	 width="24px" height="24px" viewBox="0 0 24 24" enable-background="new 0 0 24 24" xml:space="preserve">
<polygon points="8,8 2,8 2,2 8,2 "/>
<polygon points="8,22 2,22 2,16 8,16 "/>
<polygon points="22,8 16,8 16,2 22,2 "/>
<polygon points="22,22 16,22 16,16 22,16 "/>
<polygon points="17,4 7,4 7,6 17,6 "/>
<polygon points="17,18 7,18 7,20 17,20 "/>
<polygon points="20,16 20,6 18,6 18,16 "/>
<polygon points="6,16 6,6 4,6 4,16 "/>
</svg>
