<?xml version="1.0" encoding="utf-8"?>
<!-- Generator: Adobe Illustrator 16.0.3, SVG Export Plug-In . SVG Version: 6.00 Build 0)  -->
<!DOCTYPE svg PUBLIC "-//W3C//DTD SVG 1.1//EN" "http://www.w3.org/Graphics/SVG/1.1/DTD/svg11.dtd" [
	<!ENTITY st0 "fill-rule:evenodd;clip-rule:evenodd;">
]>
<svg version="1.1" id="Layer_1" xmlns="http://www.w3.org/2000/svg" xmlns:xlink="http://www.w3.org/1999/xlink" x="0px" y="0px"
	 width="16px" height="16px" viewBox="0 0 16 16" style="enable-background:new 0 0 16 16;" xml:space="preserve">
<g id="_x31_6_23_">
	<path style="&st0;" d="M3,5c1.104,0,2-0.896,2-2S4.104,1,3,1S1,1.896,1,3S1.896,5,3,5z M12,2H5.816C5.928,2.314,6,2.647,6,3h5.682
		C12.686,3,13.5,3.806,13.5,4.8v6.4c0,0.994-0.814,1.8-1.818,1.8H5.818C4.814,13,4,12.194,4,11.2V9h1L3,5.75L1,9h1v3
		c0,1.657,1.343,3,3,3h7c1.657,0,3-1.343,3-3V5C15,3.343,13.657,2,12,2z"/>
</g>
</svg>
