<?xml version="1.0" encoding="utf-8"?>
<!-- Generator: Adobe Illustrator 16.0.0, SVG Export Plug-In . SVG Version: 6.00 Build 0)  -->
<!DOCTYPE svg PUBLIC "-//W3C//DTD SVG 1.1//EN" "http://www.w3.org/Graphics/SVG/1.1/DTD/svg11.dtd">
<svg version="1.1" id="Layer_1" xmlns="http://www.w3.org/2000/svg" xmlns:xlink="http://www.w3.org/1999/xlink" x="0px" y="0px"
	 width="24px" height="24px" viewBox="0 0 24 24" enable-background="new 0 0 24 24" xml:space="preserve">
<path d="M11.44,16.973c0.472,0.34,1.31,0.701,2.109,0.701c1.165,0,1.711-0.642,1.711-1.441c0-0.84-0.455-1.301-1.638-1.78
	c-1.583-0.62-2.329-1.581-2.329-2.741c0-1.561,1.146-2.841,3.039-2.841c0.891,0,1.673,0.279,2.163,0.6l-0.399,1.28
	c-0.344-0.24-0.98-0.56-1.8-0.56c-0.946,0-1.474,0.599-1.474,1.319c0,0.801,0.527,1.162,1.673,1.642
	c1.526,0.641,2.312,1.479,2.312,2.92c0,1.701-1.201,2.902-3.293,2.902c-0.963,0-1.855-0.261-2.475-0.662L11.44,16.973z"/>
<path d="M8.34,8.869v6.552c0,1.935-0.971,2.244-1.74,2.244c-0.425,0-0.806-0.09-1.069-0.192l-0.267,1.243
	c0.322,0.132,0.894,0.234,1.362,0.234c1.699,0,3.154-0.854,3.154-3.478V8.869"/>
<path d="M22,7h-0.016L16,0H2v24h20.012L22,7z M21,23H3V1h12.998l-0.014,6H21V23z"/>
</svg>
