<?xml version="1.0" encoding="utf-8"?>
<!-- Generator: Adobe Illustrator 16.0.3, SVG Export Plug-In . SVG Version: 6.00 Build 0)  -->
<!DOCTYPE svg PUBLIC "-//W3C//DTD SVG 1.1//EN" "http://www.w3.org/Graphics/SVG/1.1/DTD/svg11.dtd" [
	<!ENTITY st0 "fill-rule:evenodd;clip-rule:evenodd;">
]>
<svg version="1.1" id="Layer_1" xmlns="http://www.w3.org/2000/svg" xmlns:xlink="http://www.w3.org/1999/xlink" x="0px" y="0px"
	 width="16px" height="16px" viewBox="0 0 16 16" style="enable-background:new 0 0 16 16;" xml:space="preserve">
<g id="Job_16">
	<path style="&st0;" d="M14.406,4.227l-2.75,2.75l1.25,1.25l2.75-2.75L14.406,4.227z M11.906,6.227l1.75-1.75l-2.75-2.75
		c-0.632-0.632-4.5-0.75-4.5-0.75l-0.25,0.25c0,0,1,0.25,2.25,1.5S11.906,6.227,11.906,6.227z M6.906,6.727l1.25,1.25l2.5-2.5
		l-1.25-1.25L6.906,6.727z M7.625,7.945L6.938,7.258H6.936c-0.293-0.291-0.766-0.291-1.059,0H5.875l-5.688,5.688v0.002
		c-0.291,0.293-0.291,0.766,0,1.059v0.002l0.688,0.688h0.002c0.293,0.291,0.766,0.291,1.059,0h0.002l5.688-5.688V9.006
		c0.291-0.293,0.291-0.766,0-1.059V7.945z M13.406,2.727l-1.25-1.25l-0.5,0.5l1.25,1.25L13.406,2.727z"/>
</g>
</svg>
