<?xml version="1.0" encoding="utf-8"?>
<!-- Generator: Adobe Illustrator 16.0.0, SVG Export Plug-In . SVG Version: 6.00 Build 0)  -->
<!DOCTYPE svg PUBLIC "-//W3C//DTD SVG 1.1//EN" "http://www.w3.org/Graphics/SVG/1.1/DTD/svg11.dtd">
<svg version="1.1" id="Layer_1" xmlns="http://www.w3.org/2000/svg" xmlns:xlink="http://www.w3.org/1999/xlink" x="0px" y="0px"
	 width="24px" height="24px" viewBox="0 0 24 24" enable-background="new 0 0 24 24" xml:space="preserve">
<path d="M6.329,9.698H7.29v5c0,1.982-0.975,2.593-2.259,2.593c-0.355,0-0.79-0.078-1.032-0.181l0.144-0.782
	c0.2,0.073,0.487,0.144,0.809,0.144c0.864,0,1.376-0.389,1.376-1.853L6.329,9.698L6.329,9.698z"/>
<path d="M8.763,15.993c0.431,0.266,1.062,0.487,1.729,0.487c0.986,0,1.562-0.521,1.562-1.276c0-0.697-0.399-1.095-1.408-1.483
	c-1.218-0.434-1.973-1.063-1.973-2.117c0-1.163,0.964-2.027,2.415-2.027c0.768,0,1.321,0.178,1.65,0.365l-0.265,0.788
	c-0.242-0.133-0.741-0.355-1.418-0.355c-1.019,0-1.406,0.609-1.406,1.12c0,0.698,0.457,1.042,1.485,1.44
	c1.263,0.488,1.905,1.097,1.905,2.193c0,1.152-0.853,2.148-2.616,2.148c-0.719,0-1.506-0.209-1.906-0.475L8.763,15.993z"/>
<path d="M20.736,13.355c0,2.57-1.563,3.934-3.467,3.934c-1.974,0-3.358-1.529-3.358-3.79c0-2.372,1.478-3.923,3.47-3.923
	C19.419,9.576,20.736,11.139,20.736,13.355z M14.941,13.477c0,1.596,0.863,3.025,2.381,3.025c1.531,0,2.396-1.406,2.396-3.104
	c0-1.484-0.774-3.036-2.381-3.036C15.74,10.364,14.941,11.837,14.941,13.477z"/>
<path d="M21,7v2h1V7H21z M3,1h13V0H2v9.012h1V1z M21,23H3v-3.162H2v4.161l20,0.009v-4.17h-1V23z"/>
<polygon points="16,0 16,7 21.984,7 "/>
<polygon points="16,0 16,7 21.984,7 "/>
</svg>
