<?xml version="1.0" encoding="utf-8"?>
<!-- Generator: Adobe Illustrator 16.0.3, SVG Export Plug-In . SVG Version: 6.00 Build 0)  -->
<!DOCTYPE svg PUBLIC "-//W3C//DTD SVG 1.1//EN" "http://www.w3.org/Graphics/SVG/1.1/DTD/svg11.dtd" [
	<!ENTITY st0 "fill-rule:evenodd;clip-rule:evenodd;">
]>
<svg version="1.1" id="Layer_1" xmlns="http://www.w3.org/2000/svg" xmlns:xlink="http://www.w3.org/1999/xlink" x="0px" y="0px"
	 width="16px" height="16px" viewBox="0 0 16 16" style="enable-background:new 0 0 16 16;" xml:space="preserve">
<g id="KPI_16">
	<path style="&st0;" d="M8,1C4.134,1,1,4.134,1,8s3.134,7,7,7s7-3.134,7-7S11.866,1,8,1z M3.395,8.061L2.242,6.448
		C2.541,6.105,2.875,5.795,3.23,5.51l0.839,1.8C3.825,7.542,3.595,7.789,3.395,8.061z M7.996,14c-0.702,0-1.271-0.569-1.271-1.271
		c0-0.283,0.11-0.531,0.268-0.743L3.678,4.211l0.576-0.27l3.823,7.532c0.662,0.044,1.19,0.581,1.19,1.255
		C9.268,13.431,8.698,14,7.996,14z M12.605,8.061C11.563,6.647,9.891,5.728,8,5.728c-0.605,0-1.184,0.104-1.73,0.277L5.455,4.259
		C6.252,3.977,7.106,3.818,8,3.818c2.3,0,4.357,1.021,5.758,2.63L12.605,8.061z"/>
</g>
</svg>
