<?xml version="1.0" encoding="utf-8"?>
<!-- Generator: Adobe Illustrator 16.0.3, SVG Export Plug-In . SVG Version: 6.00 Build 0)  -->
<!DOCTYPE svg PUBLIC "-//W3C//DTD SVG 1.1//EN" "http://www.w3.org/Graphics/SVG/1.1/DTD/svg11.dtd" [
	<!ENTITY st0 "fill-rule:evenodd;clip-rule:evenodd;">
]>
<svg version="1.1" id="Layer_1" xmlns="http://www.w3.org/2000/svg" xmlns:xlink="http://www.w3.org/1999/xlink" x="0px" y="0px"
	 width="16px" height="16px" viewBox="0 0 16 16" style="enable-background:new 0 0 16 16;" xml:space="preserve">
<g id="Test_16">
	<path d="M9.431,10.072c-0.236,0-0.428,0.192-0.428,0.429s0.191,0.429,0.428,0.429s0.429-0.192,0.429-0.429
		S9.667,10.072,9.431,10.072z M6.105,9.399c-0.447,0-0.811,0.362-0.811,0.81c0,0.448,0.363,0.811,0.811,0.811
		s0.811-0.362,0.811-0.811C6.916,9.762,6.553,9.399,6.105,9.399z M10.02,5.754V1h0.95V0L9.742,0.01H6.123L4.968,0v1h1v4.754
		c0,0-4.537,6.318-4.537,8.329c0,2.01,2.012,2.01,2.012,2.01h9.382c0,0,2.01,0,2.01-2.01C14.834,12.072,10.02,5.754,10.02,5.754z
		 M3.157,12.093c0.861-1.819,2.95-5.055,3.82-6.348V0.991h2.051v4.754h0.1c0.857,1.273,2.989,4.429,3.918,6.263L3.157,12.093z
		 M7.517,8.046c0,0.636,0.516,1.151,1.15,1.151c0.636,0,1.151-0.516,1.151-1.151c0-0.635-0.516-1.15-1.151-1.15
		C8.032,6.896,7.517,7.411,7.517,8.046z"/>
</g>
</svg>
