<?xml version="1.0" encoding="utf-8"?>
<!-- Generator: Adobe Illustrator 16.0.3, SVG Export Plug-In . SVG Version: 6.00 Build 0)  -->
<!DOCTYPE svg PUBLIC "-//W3C//DTD SVG 1.1//EN" "http://www.w3.org/Graphics/SVG/1.1/DTD/svg11.dtd" [
	<!ENTITY st0 "fill-rule:evenodd;clip-rule:evenodd;">
]>
<svg version="1.1" id="Layer_1" xmlns="http://www.w3.org/2000/svg" xmlns:xlink="http://www.w3.org/1999/xlink" x="0px" y="0px"
	 width="16px" height="16px" viewBox="0 0 16 16" style="enable-background:new 0 0 16 16;" xml:space="preserve">
<g id="Ellipse_1_3_">
	<path d="M10.694,12.419l-3.256-3.95l3.256-3.95L10.683,4.51c0.301-0.344,0.445-0.816,0.344-1.298
		c-0.173-0.811-0.969-1.327-1.779-1.155C8.855,2.14,8.535,2.37,8.325,2.676L4.324,7.529L4.337,7.54
		C4.064,7.879,3.935,8.329,4.032,8.788c0.05,0.235,0.163,0.435,0.304,0.61l-0.012,0.01l4.001,4.854
		c0.21,0.306,0.53,0.536,0.922,0.619c0.811,0.172,1.606-0.345,1.779-1.155c0.102-0.481-0.043-0.954-0.344-1.298L10.694,12.419z"/>
</g>
</svg>
