<?xml version="1.0" encoding="utf-8"?>
<!-- Generator: Adobe Illustrator 16.0.3, SVG Export Plug-In . SVG Version: 6.00 Build 0)  -->
<!DOCTYPE svg PUBLIC "-//W3C//DTD SVG 1.1//EN" "http://www.w3.org/Graphics/SVG/1.1/DTD/svg11.dtd" [
	<!ENTITY st0 "fill-rule:evenodd;clip-rule:evenodd;">
]>
<svg version="1.1" id="Layer_1" xmlns="http://www.w3.org/2000/svg" xmlns:xlink="http://www.w3.org/1999/xlink" x="0px" y="0px"
	 width="16px" height="16px" viewBox="0 0 16 16" style="enable-background:new 0 0 16 16;" xml:space="preserve">
<g id="Manual16">
	<path style="&st0;" d="M5,13.5C5,13.776,4.776,14,4.5,14S4,13.776,4,13.5V2.375c0-0.276,0.224-0.5,0.5-0.5S5,2.099,5,2.375v4.156
		L6,5.5V2c0-0.553-0.447-1-1-1H4C3.447,1,3,1.447,3,2v12c0,0.553,0.447,1,1,1h1c0.553,0,1-0.447,1-1v-1.453l-1,1.047V13.5z
		 M14.078,1.17c-1.172-1.172-3.071-1.172-4.243,0c-0.934,0.933-1.11,2.322-0.558,3.443L4.98,8.99l0.039,2.696l5.682-5.682
		c1.109,0.513,2.463,0.321,3.377-0.593C15.249,4.24,15.249,2.341,14.078,1.17z"/>
</g>
</svg>
