<?xml version="1.0" encoding="utf-8"?>
<!-- Generator: Adobe Illustrator 16.0.3, SVG Export Plug-In . SVG Version: 6.00 Build 0)  -->
<!DOCTYPE svg PUBLIC "-//W3C//DTD SVG 1.1//EN" "http://www.w3.org/Graphics/SVG/1.1/DTD/svg11.dtd" [
	<!ENTITY st0 "fill-rule:evenodd;clip-rule:evenodd;">
]>
<svg version="1.1" id="Layer_1" xmlns="http://www.w3.org/2000/svg" xmlns:xlink="http://www.w3.org/1999/xlink" x="0px" y="0px"
	 width="16px" height="16px" viewBox="0 0 16 16" style="enable-background:new 0 0 16 16;" xml:space="preserve">
<g id="related_16">
	<path d="M14.125,2.21l-0.351-0.351c-1.161-1.161-3.044-1.161-4.205,0L6.064,5.364c-1.161,1.161-1.161,3.044,0,4.205L6.415,9.92
		c0.12,0.12,0.252,0.22,0.386,0.314l1.081-1.08C7.732,9.083,7.59,8.992,7.467,8.868L7.116,8.518c-0.581-0.58-0.581-1.521,0-2.103
		l3.504-3.504c0.581-0.581,1.522-0.581,2.103,0l0.351,0.351c0.581,0.58,0.581,1.521,0,2.103l-1.257,1.257
		c0.242,0.572,0.343,1.188,0.304,1.799l2.005-2.005C15.286,5.254,15.286,3.371,14.125,2.21z M9.569,6.064
		c-0.12-0.119-0.252-0.22-0.386-0.314l-1.08,1.08c0.148,0.071,0.291,0.162,0.414,0.286l0.351,0.351c0.581,0.58,0.581,1.521,0,2.103
		l-3.504,3.504c-0.581,0.581-1.522,0.581-2.103,0l-0.351-0.351c-0.581-0.58-0.581-1.521,0-2.103l1.607-1.607
		C4.276,8.44,4.176,7.824,4.215,7.214L1.859,9.569c-1.161,1.161-1.161,3.044,0,4.205l0.351,0.351c1.161,1.161,3.044,1.161,4.205,0
		L9.92,10.62c1.161-1.161,1.161-3.044,0-4.205L9.569,6.064z"/>
</g>
</svg>
