<?xml version="1.0" encoding="utf-8"?>
<!-- Generator: Adobe Illustrator 16.0.3, SVG Export Plug-In . SVG Version: 6.00 Build 0)  -->
<!DOCTYPE svg PUBLIC "-//W3C//DTD SVG 1.1//EN" "http://www.w3.org/Graphics/SVG/1.1/DTD/svg11.dtd" [
	<!ENTITY st0 "fill-rule:evenodd;clip-rule:evenodd;">
]>
<svg version="1.1" id="Layer_1" xmlns="http://www.w3.org/2000/svg" xmlns:xlink="http://www.w3.org/1999/xlink" x="0px" y="0px"
	 width="16px" height="16px" viewBox="0 0 16 16" style="enable-background:new 0 0 16 16;" xml:space="preserve">
<g id="_x31_6_27_">
	<path style="&st0;" d="M13.091,1H2.909C1.854,1,1,1.854,1,2.909v10.182C1,14.146,1.854,15,2.909,15h10.182
		C14.146,15,15,14.146,15,13.091V2.909C15,1.854,14.146,1,13.091,1z M5.277,13.017H3.135V6.238h2.143V13.017z M5.111,4.861
		C4.883,5.064,4.586,5.166,4.22,5.166c-0.361,0-0.657-0.105-0.888-0.314c-0.23-0.21-0.346-0.467-0.346-0.771
		c0-0.313,0.115-0.569,0.346-0.768c0.23-0.199,0.526-0.298,0.888-0.298c0.366,0,0.663,0.099,0.892,0.298
		C5.339,3.511,5.453,3.767,5.453,4.08C5.453,4.397,5.339,4.658,5.111,4.861z M13.013,13.017h-2.135V9.25
		c0-1.05-0.384-1.575-1.152-1.575c-0.371,0-0.676,0.139-0.915,0.417S8.451,8.723,8.451,9.15v3.866H6.309V6.238h2.143v1.072h0.027
		c0.511-0.825,1.254-1.238,2.229-1.238c1.537,0,2.305,0.932,2.305,2.794V13.017z"/>
</g>
</svg>
