<?xml version="1.0" encoding="utf-8"?>
<!-- Generator: Adobe Illustrator 16.0.3, SVG Export Plug-In . SVG Version: 6.00 Build 0)  -->
<!DOCTYPE svg PUBLIC "-//W3C//DTD SVG 1.1//EN" "http://www.w3.org/Graphics/SVG/1.1/DTD/svg11.dtd" [
	<!ENTITY st0 "fill-rule:evenodd;clip-rule:evenodd;">
]>
<svg version="1.1" id="Layer_1" xmlns="http://www.w3.org/2000/svg" xmlns:xlink="http://www.w3.org/1999/xlink" x="0px" y="0px"
	 width="16px" height="16px" viewBox="0 0 16 16" style="enable-background:new 0 0 16 16;" xml:space="preserve">
<g id="Rounded_Rectangle_1">
	<path style="&st0;" d="M12,7V5c0-2.209-1.791-4-4-4S4,2.791,4,5v2C3.447,7,3,7.447,3,8v6c0,0.553,0.447,1,1,1h8
		c0.553,0,1-0.447,1-1V8C13,7.447,12.553,7,12,7z M5.5,5c0-1.381,1.119-2.5,2.5-2.5s2.5,1.119,2.5,2.5v2h-5V5z"/>
</g>
</svg>
