<?xml version="1.0" encoding="utf-8"?>
<!-- Generator: Adobe Illustrator 16.0.3, SVG Export Plug-In . SVG Version: 6.00 Build 0)  -->
<!DOCTYPE svg PUBLIC "-//W3C//DTD SVG 1.1//EN" "http://www.w3.org/Graphics/SVG/1.1/DTD/svg11.dtd" [
	<!ENTITY st0 "fill-rule:evenodd;clip-rule:evenodd;">
]>
<svg version="1.1" id="Layer_1" xmlns="http://www.w3.org/2000/svg" xmlns:xlink="http://www.w3.org/1999/xlink" x="0px" y="0px"
	 width="16px" height="16px" viewBox="0 0 16 16" style="enable-background:new 0 0 16 16;" xml:space="preserve">
<g id="Shape_14">
	<path style="&st0;" d="M8,8.5H4V9h4V8.5z M4,13h4v-0.5H4V13z M9,14H3V3h6v1h1V2H6V1H2v1v13h8v-5L9,9V14z M8,10.5H4V11h4V10.5z
		 M4,4.5V5h2V4.5H4z M4,6.5V7h3L6.5,6.5H4z M7,5l4.5,4.5L16,5H7z"/>
</g>
</svg>
