<?xml version="1.0" encoding="utf-8"?>
<!-- Generator: Adobe Illustrator 16.0.3, SVG Export Plug-In . SVG Version: 6.00 Build 0)  -->
<!DOCTYPE svg PUBLIC "-//W3C//DTD SVG 1.1//EN" "http://www.w3.org/Graphics/SVG/1.1/DTD/svg11.dtd" [
	<!ENTITY st0 "fill-rule:evenodd;clip-rule:evenodd;">
]>
<svg version="1.1" id="Layer_1" xmlns="http://www.w3.org/2000/svg" xmlns:xlink="http://www.w3.org/1999/xlink" x="0px" y="0px"
	 width="16px" height="16px" viewBox="0 0 16 16" style="enable-background:new 0 0 16 16;" xml:space="preserve">
<g id="New_root_Chapter16">
	<path style="&st0;" d="M8.253,2L8.83,3H13v2h-3v9H3V7.098L2,7.675V15h12V2H8.253z M13,14h-2v-2h2V14z M13,11h-2V9h2V11z M13,8h-2V6
		h2V8z M4,8h1V5.366l2.281,1.316l0.5-0.865L5.499,4.5l2.282-1.317l-0.5-0.865L5,3.634V1H4v2.634L1.719,2.317l-0.5,0.865L3.501,4.5
		L1.219,5.817l0.5,0.865L4,5.366V8z"/>
</g>
</svg>
