<?xml version="1.0" encoding="utf-8"?>
<!-- Generator: Adobe Illustrator 16.0.4, SVG Export Plug-In . SVG Version: 6.00 Build 0)  -->
<!DOCTYPE svg PUBLIC "-//W3C//DTD SVG 1.1//EN" "http://www.w3.org/Graphics/SVG/1.1/DTD/svg11.dtd">
<svg version="1.1" id="Layer_1" xmlns="http://www.w3.org/2000/svg" xmlns:xlink="http://www.w3.org/1999/xlink" x="0px" y="0px"
	 width="24px" height="24px" viewBox="0 0 24 24" enable-background="new 0 0 24 24" xml:space="preserve">
<polygon points="17,23 7,23 7,24 17,24 "/>
<path d="M2,3v16h20V3H2z M21,17H3V4h18V17z M9.143,24h5.714v-3.929H9.143V24z"/>
<path d="M10.716,5.666c0.26,0,0.39,0.126,0.39,0.377v2.73c0.199-0.14,0.436-0.266,0.708-0.377c0.273-0.113,0.6-0.171,0.981-0.171
	c0.373,0,0.704,0.067,0.995,0.202c0.29,0.134,0.535,0.342,0.733,0.624c0.201,0.282,0.353,0.645,0.457,1.086
	c0.104,0.442,0.156,0.971,0.156,1.586c0,0.616-0.056,1.139-0.164,1.566c-0.107,0.43-0.279,0.782-0.513,1.06
	c-0.233,0.278-0.535,0.479-0.903,0.604c-0.369,0.126-0.809,0.188-1.32,0.188c-0.494,0-0.929-0.043-1.306-0.13
	c-0.377-0.086-0.661-0.169-0.852-0.247c-0.104-0.043-0.178-0.097-0.221-0.162c-0.043-0.064-0.065-0.157-0.065-0.278V5.667
	L10.716,5.666L10.716,5.666z M11.106,13.986c0.173,0.043,0.347,0.078,0.52,0.104c0.173,0.026,0.373,0.039,0.598,0.039
	c0.269,0,0.502-0.03,0.702-0.091c0.2-0.062,0.364-0.18,0.494-0.357c0.13-0.177,0.229-0.423,0.292-0.733
	c0.065-0.313,0.099-0.721,0.099-1.224c0-0.468-0.028-0.856-0.084-1.17c-0.058-0.312-0.144-0.561-0.261-0.747
	c-0.116-0.187-0.263-0.32-0.437-0.403c-0.174-0.082-0.381-0.123-0.624-0.123c-0.277,0-0.522,0.041-0.734,0.123
	c-0.212,0.083-0.401,0.185-0.565,0.306L11.106,13.986L11.106,13.986z"/>
</svg>
