<?xml version="1.0" encoding="utf-8"?>
<!-- Generator: Adobe Illustrator 15.1.0, SVG Export Plug-In . SVG Version: 6.00 Build 0)  -->
<!DOCTYPE svg PUBLIC "-//W3C//DTD SVG 1.1//EN" "http://www.w3.org/Graphics/SVG/1.1/DTD/svg11.dtd">
<svg version="1.1" xmlns="http://www.w3.org/2000/svg" xmlns:xlink="http://www.w3.org/1999/xlink" x="0px" y="0px" width="24px"
	 height="24px" viewBox="0 0 24 24" enable-background="new 0 0 24 24" xml:space="preserve">
<g id="Layer_1">
	<g>
		<polygon points="15,18 9,18 9,21 7,21 7,22 9.143,22 14.857,22 17,22 17,21 15,21 		"/>
		<path d="M2,1v16h20V1H2z M21,15H3V2h18V15z"/>
		<path d="M7.275,12H8V6.21c1-0.17,0.607-0.335,0.883-0.495c0.274-0.16,0.709-0.24,1.09-0.24c0.39,0,0.596,0.113,0.806,0.338
			S11,6.41,11,6.93v4.726c0,0.11,0.18,0.194,0.245,0.255c0.065,0.06,0.3,0.09,0.409,0.09H13V7.035c0-0.26-0.11-0.52-0.14-0.78
			c0.17-0.17,0.347-0.343,0.627-0.518s0.597-0.263,0.997-0.263c0.39,0,0.84,0.113,1.05,0.338S16,6.41,16,6.93v4.726
			C16,11.885,15.79,12,16.02,12H17V6.81c0-0.909-0.098-1.572-0.482-1.987S15.638,4.2,14.938,4.2c-0.6,0-1.076,0.115-1.477,0.345
			c-0.4,0.23-0.707,0.48-0.947,0.75c-0.18-0.41-0.438-0.695-0.782-0.854c-0.345-0.16-0.725-0.24-1.145-0.24
			c-0.51,0-0.946,0.09-1.311,0.27C8.911,4.65,8.589,4.896,8.309,5.205L8.25,4.74c-0.02-0.15-0.067-0.433-0.142-0.482
			C8.033,4.207,7.94,4,7.83,4H7v7.655C7,11.885,7.035,12,7.275,12z"/>
	</g>
</g>
<g id="Layer_2">
</g>
</svg>
