<?xml version="1.0" encoding="utf-8"?>
<!-- Generator: Adobe Illustrator 15.1.0, SVG Export Plug-In . SVG Version: 6.00 Build 0)  -->
<!DOCTYPE svg PUBLIC "-//W3C//DTD SVG 1.1//EN" "http://www.w3.org/Graphics/SVG/1.1/DTD/svg11.dtd">
<svg version="1.1" xmlns="http://www.w3.org/2000/svg" xmlns:xlink="http://www.w3.org/1999/xlink" x="0px" y="0px" width="24px"
	 height="24px" viewBox="0 0 24 24" enable-background="new 0 0 24 24" xml:space="preserve">
<g id="Layer_1">
	<g>
		<polygon fill-rule="evenodd" clip-rule="evenodd" points="8.281,13.018 11,11 11,6 8.198,4 7.064,5.134 10.48,8.489 7.016,11.752 
					"/>
		<polygon fill-rule="evenodd" clip-rule="evenodd" points="15.984,11.734 12.52,8.472 15.936,5.116 14.803,3.982 12,5.982 
			12,10.982 14.719,13 		"/>
		<polygon fill-rule="evenodd" clip-rule="evenodd" points="15,18 9,18 9,21 7,21 7,22 9.143,22 14.857,22 17,22 17,21 15,21 		"/>
		<path fill-rule="evenodd" clip-rule="evenodd" d="M2,1v16h20V1H2z M21,15H3V2h18V15z"/>
	</g>
</g>
<g id="Layer_2">
</g>
</svg>
