<?xml version="1.0" encoding="utf-8"?>
<!-- Generator: Adobe Illustrator 15.1.0, SVG Export Plug-In . SVG Version: 6.00 Build 0)  -->
<!DOCTYPE svg PUBLIC "-//W3C//DTD SVG 1.1//EN" "http://www.w3.org/Graphics/SVG/1.1/DTD/svg11.dtd">
<svg version="1.1" xmlns="http://www.w3.org/2000/svg" xmlns:xlink="http://www.w3.org/1999/xlink" x="0px" y="0px" width="24px"
	 height="24px" viewBox="0 0 24 24" enable-background="new 0 0 24 24" xml:space="preserve">
<g id="Layer_1">
	<g id="System_16_2_">
		<g>
			<path fill-rule="evenodd" clip-rule="evenodd" d="M2,1v16h20V1H2z M21,15H3V2h18V15z M9.143,22h5.714v-3.929H9.143V22z"/>
		</g>
	</g>
	<g>
		<path fill-rule="evenodd" clip-rule="evenodd" d="M10.585,12.621c0.057,0.127,0.117,0.221,0.181,0.285
			C10.829,12.969,10.941,13,11.102,13h1.48c0.6-1.242,1.115-2.486,1.549-3.734c0.432-1.248,0.764-2.488,0.994-3.72
			c0.035-0.195,0.063-0.37,0.086-0.525c0.023-0.155,0.041-0.406,0.053-0.532C15.264,4.236,15.143,4,14.901,4H13.59
			c-0.069,1-0.168,1.273-0.295,1.912c-0.127,0.638-0.273,1.337-0.441,1.986c-0.168,0.65-0.35,1.307-0.547,1.917
			c-0.195,0.61-0.404,1.177-0.623,1.671c-0.208-0.483-0.41-1.006-0.607-1.581c-0.196-0.575-0.373-1.161-0.528-1.765
			c-0.156-0.604-0.298-1.203-0.425-1.803C9.996,5.74,9.898,5.058,9.829,4.505C9.794,4.24,9.656,4,9.415,4H8
			c0.173,2,0.491,2.938,0.954,4.353C9.417,9.769,9.96,11.264,10.585,12.621z"/>
		<rect x="7" y="21" fill-rule="evenodd" clip-rule="evenodd" width="10" height="1"/>
	</g>
</g>
<g id="Layer_2">
</g>
</svg>
