<?xml version="1.0" encoding="utf-8"?>
<!-- Generator: Adobe Illustrator 15.1.0, SVG Export Plug-In . SVG Version: 6.00 Build 0)  -->
<!DOCTYPE svg PUBLIC "-//W3C//DTD SVG 1.1//EN" "http://www.w3.org/Graphics/SVG/1.1/DTD/svg11.dtd">
<svg version="1.1" xmlns="http://www.w3.org/2000/svg" xmlns:xlink="http://www.w3.org/1999/xlink" x="0px" y="0px" width="24px"
	 height="24px" viewBox="0 0 24 24" enable-background="new 0 0 24 24" xml:space="preserve">
<g id="Layer_1">
	<g id="System_16_1_">
		<g>
			<path fill-rule="evenodd" clip-rule="evenodd" d="M2,1v16h20V1H2z M21,15H3V2h18V15z M9.143,22h5.714v-3.929H9.143V22z"/>
		</g>
	</g>
	<g>
		<path fill-rule="evenodd" clip-rule="evenodd" d="M11,8l1-4c-1.293-1.615-4,0-4,0L7,7C9.585,6.03,11,8,11,8z"/>
		<path fill-rule="evenodd" clip-rule="evenodd" d="M16,9l2-5c0,0-3.03,1.292-4,0l-2,4C12,8,13.414,9,16,9z"/>
		<path fill-rule="evenodd" clip-rule="evenodd" d="M11,9c0,0-2-2-4,0l-1,3c0,0,1.414-0.293,4,1L11,9z"/>
		<path fill-rule="evenodd" clip-rule="evenodd" d="M12.141,8.829L11,13c0,0,2.434,1,4.049,1L16,10C16,10,13.11,10.122,12.141,8.829
			z"/>
		<rect x="7" y="21" fill-rule="evenodd" clip-rule="evenodd" width="10" height="1"/>
	</g>
</g>
<g id="Layer_2">
</g>
</svg>
