<?xml version="1.0" encoding="utf-8"?>
<!-- Generator: Adobe Illustrator 16.0.3, SVG Export Plug-In . SVG Version: 6.00 Build 0)  -->
<!DOCTYPE svg PUBLIC "-//W3C//DTD SVG 1.1//EN" "http://www.w3.org/Graphics/SVG/1.1/DTD/svg11.dtd" [
	<!ENTITY st0 "fill-rule:evenodd;clip-rule:evenodd;">
]>
<svg version="1.1" id="Layer_1" xmlns="http://www.w3.org/2000/svg" xmlns:xlink="http://www.w3.org/1999/xlink" x="0px" y="0px"
	 width="16px" height="16px" viewBox="0 0 16 16" style="enable-background:new 0 0 16 16;" xml:space="preserve">
<g id="outdent_16">
	<path style="&st0;" d="M1,2v1h14V2H1z M1,14.969h14v-1H1V14.969z M9,4.969h6v-1H9V4.969z M9,6.969h6v-1H9V6.969z M9,8.969h6v-1H9
		V8.969z M9,10.969h6v-1H9V10.969z M9,12.969h6v-1H9V12.969z M1.515,7.777C1.515,7.777,1,8.186,1,8.5
		c0,0.328,0.515,0.724,0.515,0.724L5,13v-3h2V7H5V4L1.515,7.777z"/>
</g>
</svg>
