<?xml version="1.0" encoding="utf-8"?>
<!-- Generator: Adobe Illustrator 16.0.3, SVG Export Plug-In . SVG Version: 6.00 Build 0)  -->
<!DOCTYPE svg PUBLIC "-//W3C//DTD SVG 1.1//EN" "http://www.w3.org/Graphics/SVG/1.1/DTD/svg11.dtd" [
	<!ENTITY st0 "fill-rule:evenodd;clip-rule:evenodd;">
]>
<svg version="1.1" id="Layer_1" xmlns="http://www.w3.org/2000/svg" xmlns:xlink="http://www.w3.org/1999/xlink" x="0px" y="0px"
	 width="16px" height="16px" viewBox="0 0 16 16" style="enable-background:new 0 0 16 16;" xml:space="preserve">
<g id="Paste_16">
	<path style="&st0;" d="M5,11.5h6V11H5V11.5z M5,5h6c0,0,0-0.447,0-1s-0.447-1-1-1c0-1.104-0.896-2-2-2S6,1.896,6,3
		C5.447,3,5,3.447,5,4S5,5,5,5z M6.5,3.5C6.5,3.224,6.724,3,7,3c0-0.553,0.447-1,1-1s1,0.447,1,1c0.276,0,0.5,0.224,0.5,0.5
		s0,0.5,0,0.5h-3C6.5,4,6.5,3.776,6.5,3.5z M11,9H5v0.5h6V9z M10.816,2c0.062,0.175,0.107,0.357,0.139,0.544
		C11.202,2.615,11.424,2.776,11.598,3H13v12H3V3h1.402c0.174-0.224,0.396-0.385,0.643-0.456C5.076,2.357,5.122,2.175,5.184,2H2v14
		h12V2H10.816z M11,7H5v0.5h6V7z"/>
</g>
</svg>
