<?xml version="1.0" encoding="utf-8"?>
<!-- Generator: Adobe Illustrator 16.0.3, SVG Export Plug-In . SVG Version: 6.00 Build 0)  -->
<!DOCTYPE svg PUBLIC "-//W3C//DTD SVG 1.1//EN" "http://www.w3.org/Graphics/SVG/1.1/DTD/svg11.dtd" [
	<!ENTITY st0 "fill-rule:evenodd;clip-rule:evenodd;">
]>
<svg version="1.1" id="Layer_1" xmlns="http://www.w3.org/2000/svg" xmlns:xlink="http://www.w3.org/1999/xlink" x="0px" y="0px"
	 width="16px" height="16px" viewBox="0 0 16 16" style="enable-background:new 0 0 16 16;" xml:space="preserve">
<g id="pict_copy">
	<path style="&st0;" d="M13,7.344C12.405,8.134,10.842,10.02,9.5,10c-0.944-0.014-2.107-1.048-3-0.75
		C4.939,9.77,3.47,11.391,2.956,12H13V7.344z M13.5,3h-11C1.672,3,1,3.672,1,4.5v8C1,13.328,1.672,14,2.5,14h11
		c0.828,0,1.5-0.672,1.5-1.5v-8C15,3.672,14.328,3,13.5,3z M14,13H2V4h12V13z M5,8.5c0.828,0,1.5-0.672,1.5-1.5S5.828,5.5,5,5.5
		S3.5,6.172,3.5,7S4.172,8.5,5,8.5z"/>
</g>
</svg>
