<?xml version="1.0" encoding="utf-8"?>
<!-- Generator: Adobe Illustrator 16.0.4, SVG Export Plug-In . SVG Version: 6.00 Build 0)  -->
<!DOCTYPE svg PUBLIC "-//W3C//DTD SVG 1.1//EN" "http://www.w3.org/Graphics/SVG/1.1/DTD/svg11.dtd">
<svg version="1.1" id="Layer_1" xmlns="http://www.w3.org/2000/svg" xmlns:xlink="http://www.w3.org/1999/xlink" x="0px" y="0px"
	 width="24px" height="24px" viewBox="0 0 24 24" enable-background="new 0 0 24 24" xml:space="preserve">
<path fill="#5A5A5A" d="M2,12.025c0,5.186,3.947,9.446,9,9.948V13L2.203,9.998C2.07,10.649,2,11.335,2,12.025z"/>
<path fill="#5A5A5A" d="M12,2.025C7.892,2.025,4.538,4.456,3,8l8,3l7-7C16.301,2.668,14.326,2.025,12,2.025z"/>
<path fill="#5A5A5A" d="M19.547,5.479L12,13.025v8.948c6,0,10-4.764,10-9.948C22,9.519,21.07,7.233,19.547,5.479z"/>
<polygon display="none" fill="none" points="2,3 22,3 22,21 2,21 "/>
</svg>
