<?xml version="1.0" encoding="utf-8"?>
<!-- Generator: Adobe Illustrator 16.0.3, SVG Export Plug-In . SVG Version: 6.00 Build 0)  -->
<!DOCTYPE svg PUBLIC "-//W3C//DTD SVG 1.1//EN" "http://www.w3.org/Graphics/SVG/1.1/DTD/svg11.dtd" [
	<!ENTITY st0 "fill-rule:evenodd;clip-rule:evenodd;">
]>
<svg version="1.1" id="Layer_1" xmlns="http://www.w3.org/2000/svg" xmlns:xlink="http://www.w3.org/1999/xlink" x="0px" y="0px"
	 width="16px" height="16px" viewBox="0 0 16 16" style="enable-background:new 0 0 16 16;" xml:space="preserve">
<g id="_x31_6_15_">
	<path style="&st0;" d="M6.5,7L5,5.5l-1,1L5.5,8L6.5,7z M11.5,2l-1-1l-1,1l1,1L11.5,2z M10.5,4l-1-1l-3,3l1,1L10.5,4z M2,13.5
		C1.5,14,1,15,1,15s1-0.5,1.5-1s4.344-4,4.344-4L6,9.125C6,9.125,2.5,13,2,13.5z M12,2.5l-1,1l3,3l1-1L12,2.5z M8,7.5l2,2l3-3l-2-2
		L8,7.5z M6,8.5L9.5,12l1-1L7,7.5L6,8.5z"/>
</g>
</svg>
