<?xml version="1.0" encoding="utf-8"?>
<!-- Generator: Adobe Illustrator 16.0.3, SVG Export Plug-In . SVG Version: 6.00 Build 0)  -->
<!DOCTYPE svg PUBLIC "-//W3C//DTD SVG 1.1//EN" "http://www.w3.org/Graphics/SVG/1.1/DTD/svg11.dtd" [
	<!ENTITY st0 "fill-rule:evenodd;clip-rule:evenodd;">
]>
<svg version="1.1" id="Layer_1" xmlns="http://www.w3.org/2000/svg" xmlns:xlink="http://www.w3.org/1999/xlink" x="0px" y="0px"
	 width="16px" height="16px" viewBox="0 0 16 16" style="enable-background:new 0 0 16 16;" xml:space="preserve">
<g id="_x31_6_39_">
	<path style="&st0;" d="M8,1C4.134,1,1,4.134,1,8s3.134,7,7,7s7-3.134,7-7S11.866,1,8,1z M12.362,8.408v0.01L12.29,8.457
		c-0.026,0.016-0.05,0.031-0.079,0.042l-6.487,3.477L5.697,11.96c-0.052,0.017-0.104,0.032-0.161,0.032
		c-0.267,0-0.479-0.194-0.525-0.447l-0.02-0.012V4.451l0.02-0.012C5.059,4.187,5.27,3.991,5.536,3.991
		c0.053,0,0.101,0.017,0.149,0.03l0.021-0.013l6.505,3.477c0.028,0.011,0.053,0.027,0.079,0.042l0.072,0.039v0.01
		c0.122,0.101,0.204,0.246,0.204,0.416S12.484,8.308,12.362,8.408z"/>
</g>
</svg>
