<?xml version="1.0" encoding="utf-8"?>
<!-- Generator: Adobe Illustrator 16.0.3, SVG Export Plug-In . SVG Version: 6.00 Build 0)  -->
<!DOCTYPE svg PUBLIC "-//W3C//DTD SVG 1.1//EN" "http://www.w3.org/Graphics/SVG/1.1/DTD/svg11.dtd" [
	<!ENTITY st0 "fill-rule:evenodd;clip-rule:evenodd;">
]>
<svg version="1.1" id="Layer_1" xmlns="http://www.w3.org/2000/svg" xmlns:xlink="http://www.w3.org/1999/xlink" x="0px" y="0px"
	 width="16px" height="16px" viewBox="0 0 16 16" style="enable-background:new 0 0 16 16;" xml:space="preserve">
<g id="Print_16">
	<path style="&st0;" d="M14.1,1H0v1.98h15V1.902C15,1.404,14.597,1,14.1,1z M0,8.093c0,0.5,0.402,0.903,0.9,0.903h2.093v2.646
		L6.344,15h5.6V8.996H15V3.432H0V8.093z M6.344,14.092l-2.439-2.45h2.439V14.092z M3.744,6.477c0.023-0.003,0.049-0.006,0.074-0.006
		h7.301c0.025,0,0.049,0.003,0.074,0.006v7.771h-4.25v-2.606c0-0.333-0.27-0.604-0.6-0.604h-2.6V6.477z"/>
</g>
</svg>
