<?xml version="1.0" encoding="utf-8"?>
<!-- Generator: Adobe Illustrator 16.0.3, SVG Export Plug-In . SVG Version: 6.00 Build 0)  -->
<!DOCTYPE svg PUBLIC "-//W3C//DTD SVG 1.1//EN" "http://www.w3.org/Graphics/SVG/1.1/DTD/svg11.dtd" [
	<!ENTITY st0 "fill-rule:evenodd;clip-rule:evenodd;">
]>
<svg version="1.1" id="Layer_1" xmlns="http://www.w3.org/2000/svg" xmlns:xlink="http://www.w3.org/1999/xlink" x="0px" y="0px"
	 width="16px" height="16px" viewBox="0 0 16 16" style="enable-background:new 0 0 16 16;" xml:space="preserve">
<g id="_x31_6_43_">
	<path style="&st0;" d="M5,10c-0.553,0-1,0.447-1,1s0.447,1,1,1s1-0.447,1-1S5.553,10,5,10z M5,7C4.447,7,4,7.447,4,8s0.447,1,1,1
		s1-0.447,1-1S5.553,7,5,7z M5,8.5C4.724,8.5,4.5,8.276,4.5,8S4.724,7.5,5,7.5S5.5,7.724,5.5,8S5.276,8.5,5,8.5z M9,4H7v0.5h2V4z
		 M5,4C4.447,4,4,4.447,4,5s0.447,1,1,1s1-0.447,1-1S5.553,4,5,4z M7,8.5h5V8H7V8.5z M7,12.5h5V12H7V12.5z M7,6.5h5V6H7V6.5z M10,1
		H2v14h12V5L10,1z M13,14H3V2h7v3h3V14z M7,10.5h5V10H7V10.5z"/>
</g>
</svg>
