<?xml version="1.0" encoding="utf-8"?>
<!-- Generator: Adobe Illustrator 16.0.0, SVG Export Plug-In . SVG Version: 6.00 Build 0)  -->
<!DOCTYPE svg PUBLIC "-//W3C//DTD SVG 1.1//EN" "http://www.w3.org/Graphics/SVG/1.1/DTD/svg11.dtd">
<svg version="1.1" id="Layer_1" xmlns="http://www.w3.org/2000/svg" xmlns:xlink="http://www.w3.org/1999/xlink" x="0px" y="0px"
	 width="16px" height="16px" viewBox="0 0 16 16" enable-background="new 0 0 16 16" xml:space="preserve">
<g>
	<path  d="M8,0.931c-3.87,0-7,3.13-7,7s3.13,7,7,7s7-3.13,7-7S11.87,0.931,8,0.931z M8,13.931c-3.31,0-6-2.69-6-6
		s2.69-6,6-6s6,2.69,6,6S11.31,13.931,8,13.931z"/>
	<path d="M8,0C3.58,0,0,3.58,0,8c0,4.421,3.58,8.001,8,8.001s8-3.58,8-8.001C16,3.58,12.42,0,8,0z M8,14.931c-3.87,0-7-3.13-7-7
		s3.13-7,7-7s7,3.13,7,7S11.87,14.931,8,14.931z"/>
	<path d="M8,1.931c-3.31,0-6,2.69-6,6s2.69,6,6,6s6-2.69,6-6S11.31,1.931,8,1.931z"/>
</g>
</svg>
