<?xml version="1.0" encoding="utf-8"?>
<!-- Generator: Adobe Illustrator 16.0.3, SVG Export Plug-In . SVG Version: 6.00 Build 0)  -->
<!DOCTYPE svg PUBLIC "-//W3C//DTD SVG 1.1//EN" "http://www.w3.org/Graphics/SVG/1.1/DTD/svg11.dtd" [
	<!ENTITY st0 "fill-rule:evenodd;clip-rule:evenodd;">
]>
<svg version="1.1" id="Layer_1" xmlns="http://www.w3.org/2000/svg" xmlns:xlink="http://www.w3.org/1999/xlink" x="0px" y="0px"
	 width="16px" height="16px" viewBox="0 0 16 16" style="enable-background:new 0 0 16 16;" xml:space="preserve">
<g id="refresh_16">
	<path style="&st0;" d="M4.556,6.037C5.24,4.844,6.509,4.031,7.984,4.031C10.185,4.031,12,5.8,12,8c0-0.016,2.5,0,3,0
		c0-3.866-3.134-7-7-7C5.645,1,3.568,2.168,2.302,3.953L1,2v5h5L4.556,6.037z M11.444,9.963c-0.686,1.193-1.953,2.006-3.429,2.006
		C5.815,11.969,4,10.2,4,8c0,0.016-2.5,0-3,0c0,3.866,3.134,7,7,7c2.355,0,4.432-1.168,5.698-2.953L15,14V9h-5L11.444,9.963z"/>
</g>
</svg>
