<?xml version="1.0" encoding="utf-8"?>
<!-- Generator: Adobe Illustrator 16.0.4, SVG Export Plug-In . SVG Version: 6.00 Build 0)  -->
<!DOCTYPE svg PUBLIC "-//W3C//DTD SVG 1.1//EN" "http://www.w3.org/Graphics/SVG/1.1/DTD/svg11.dtd">
<svg version="1.1" id="Layer_1" xmlns="http://www.w3.org/2000/svg" xmlns:xlink="http://www.w3.org/1999/xlink" x="0px" y="0px"
	 width="24px" height="24px" viewBox="0 0 24 24" enable-background="new 0 0 24 24" xml:space="preserve">
<polygon points="11.997,5 3.997,5 3.997,7 11.997,7 "/>
<polygon points="3.997,8 3.997,10 15.996,10 15.996,8 "/>
<polygon points="3.997,13 12.996,13 14.996,11 3.997,11 "/>
<polygon points="8.997,17 1.997,17 1.997,2 12.996,2 12.996,6 16.996,6 16.996,9.078 18.996,7.539 18.996,6 12.996,0 -0.003,0 
	-0.003,19 7.997,19 "/>
<path d="M23.134,11.214l-0.351-0.351c-1.161-1.161-3.045-1.161-4.206,0l-3.505,3.505c-1.162,1.161-1.162,3.044,0,4.205l0.351,0.351
	c0.12,0.12,0.252,0.221,0.387,0.314l1.08-1.08c-0.149-0.071-0.291-0.162-0.414-0.286l-0.353-0.351c-0.58-0.58-0.58-1.521,0-2.104
	l3.506-3.504c0.581-0.582,1.521-0.582,2.103,0l0.351,0.352c0.581,0.58,0.581,1.521,0,2.104l-1.257,1.256
	c0.241,0.572,0.343,1.188,0.304,1.799l2.005-2.005C24.294,14.259,24.294,12.376,23.134,11.214z M18.577,15.069
	c-0.119-0.119-0.251-0.221-0.386-0.314l-1.08,1.08c0.149,0.071,0.291,0.162,0.414,0.286l0.351,0.351c0.582,0.58,0.582,1.521,0,2.104
	l-3.504,3.504c-0.581,0.581-1.521,0.581-2.103,0l-0.35-0.352c-0.582-0.58-0.582-1.521,0-2.104l1.606-1.607
	c-0.241-0.571-0.342-1.188-0.303-1.799l-2.355,2.355c-1.161,1.161-1.161,3.044,0,4.205l0.351,0.351c1.162,1.161,3.045,1.161,4.205,0
	l3.506-3.505c1.161-1.161,1.161-3.044,0-4.205L18.577,15.069z"/>
</svg>
