<?xml version="1.0" encoding="utf-8"?>
<!-- Generator: Adobe Illustrator 15.1.0, SVG Export Plug-In . SVG Version: 6.00 Build 0)  -->
<!DOCTYPE svg PUBLIC "-//W3C//DTD SVG 1.1//EN" "http://www.w3.org/Graphics/SVG/1.1/DTD/svg11.dtd">
<svg version="1.1" id="Layer_1" xmlns="http://www.w3.org/2000/svg" xmlns:xlink="http://www.w3.org/1999/xlink" x="0px" y="0px"
	 width="24px" height="24px" viewBox="0 0 24 24" enable-background="new 0 0 24 24" xml:space="preserve">
<symbol  id="New_Symbol_132" viewBox="-7 -7 14 14">
	<g id="Dependency_16_4_">
		<g>
			<path fill-rule="evenodd" clip-rule="evenodd" d="M3-3v-4h4v4H3z M-2-7h4v4H0h-2V-7z M-7-7h4v4h-4V-7z M2,3v4h-4V3h1h1h1H2z M1-1
				L0,3l-1-4h-1l2-2l2,2H1z M-6,0.828V-2h2.828l-0.707,0.707L-1,3l-4.293-2.879L-6,0.828z M3.172-2H6v2.828L5.293,0.121L1,3
				l2.879-4.293L3.172-2z"/>
		</g>
	</g>
</symbol>
<use xlink:href="#New_Symbol_132"  width="14" height="14" x="-7" y="-7" transform="matrix(1 0 0 -1 12.25 12)" overflow="visible"/>
</svg>
