<?xml version="1.0" encoding="utf-8"?>
<!-- Generator: Adobe Illustrator 16.0.3, SVG Export Plug-In . SVG Version: 6.00 Build 0)  -->
<!DOCTYPE svg PUBLIC "-//W3C//DTD SVG 1.1//EN" "http://www.w3.org/Graphics/SVG/1.1/DTD/svg11.dtd" [
	<!ENTITY st0 "fill-rule:evenodd;clip-rule:evenodd;">
]>
<svg version="1.1" id="Layer_1" xmlns="http://www.w3.org/2000/svg" xmlns:xlink="http://www.w3.org/1999/xlink" x="0px" y="0px"
	 width="16px" height="16px" viewBox="0 0 16 16" style="enable-background:new 0 0 16 16;" xml:space="preserve">
<g id="_x31_6_28_">
	<path style="&st0;" d="M13.091,1H2.909C1.854,1,1,1.854,1,2.909v10.182C1,14.146,1.854,15,2.909,15h10.182
		C14.146,15,15,14.146,15,13.091V2.909C15,1.854,14.146,1,13.091,1z M8,13.728l-5.091-3.183L4.04,9.979L8,12.454l3.96-2.475
		l1.131,0.565L8,13.728z M8,11.818L2.909,8.637L4.04,8.07L8,10.545l3.96-2.475l1.131,0.566L8,11.818z M8,9.909L2.909,6.728L8,4.182
		l5.091,2.546L8,9.909z"/>
</g>
</svg>
