<?xml version="1.0" encoding="utf-8"?>
<!-- Generator: Adobe Illustrator 16.0.3, SVG Export Plug-In . SVG Version: 6.00 Build 0)  -->
<!DOCTYPE svg PUBLIC "-//W3C//DTD SVG 1.1//EN" "http://www.w3.org/Graphics/SVG/1.1/DTD/svg11.dtd" [
	<!ENTITY st0 "fill-rule:evenodd;clip-rule:evenodd;">
]>
<svg version="1.1" id="Layer_1" xmlns="http://www.w3.org/2000/svg" xmlns:xlink="http://www.w3.org/1999/xlink" x="0px" y="0px"
	 width="16px" height="16px" viewBox="0 0 16 16" style="enable-background:new 0 0 16 16;" xml:space="preserve">
<g id="Ellipse_1_2_">
	<path d="M12.052,8.149c-0.05-0.235-0.163-0.435-0.304-0.61l0.012-0.01L7.759,2.676C7.549,2.37,7.229,2.14,6.837,2.057
		C6.026,1.885,5.23,2.401,5.058,3.212C4.956,3.693,5.101,4.166,5.401,4.51L5.39,4.519l3.256,3.95l-3.256,3.95l0.012,0.009
		c-0.301,0.344-0.445,0.816-0.344,1.298c0.173,0.811,0.969,1.327,1.779,1.155c0.392-0.083,0.712-0.313,0.922-0.619l4.001-4.854
		l-0.013-0.011C12.02,9.059,12.149,8.608,12.052,8.149z"/>
</g>
</svg>
