<?xml version="1.0" encoding="utf-8"?>
<!-- Generator: Adobe Illustrator 16.0.3, SVG Export Plug-In . SVG Version: 6.00 Build 0)  -->
<!DOCTYPE svg PUBLIC "-//W3C//DTD SVG 1.1//EN" "http://www.w3.org/Graphics/SVG/1.1/DTD/svg11.dtd" [
	<!ENTITY st0 "fill-rule:evenodd;clip-rule:evenodd;">
]>
<svg version="1.1" id="Layer_1" xmlns="http://www.w3.org/2000/svg" xmlns:xlink="http://www.w3.org/1999/xlink" x="0px" y="0px"
	 width="16px" height="16px" viewBox="0 0 16 16" style="enable-background:new 0 0 16 16;" xml:space="preserve">
<g id="Risk16">
	<path style="&st0;" d="M14.186,3.895c0.456-0.221,0.408-0.564-0.08-0.768L9.626,1.261c-0.35-0.146-0.982-0.146-1.433-0.002
		L2.386,3.125C1.75,3.329,1.461,3.675,1.769,3.897l4.118,2.978c0.469,0.34,1.456,0.338,2.159-0.004L14.186,3.895z M3.886,4.117
		C3.539,3.889,3.778,3.532,4.391,3.321c0.594-0.203,1.346-0.203,1.705,0.001c-0.359-0.204-0.188-0.521,0.359-0.71
		c0.53-0.182,1.24-0.182,1.609,0.001C7.695,2.431,7.813,2.146,8.304,1.978c0.478-0.164,1.151-0.164,1.525,0.001
		c0.385,0.169,0.324,0.453-0.157,0.636C9.175,2.802,8.444,2.802,8.064,2.613c0.38,0.188,0.272,0.505-0.267,0.709
		c-0.557,0.21-1.33,0.21-1.702,0C6.468,3.532,6.3,3.888,5.693,4.117C5.066,4.354,4.243,4.354,3.886,4.117z M5.936,5.475
		c-0.415-0.274-0.21-0.7,0.424-0.951C6.972,4.28,7.788,4.28,8.215,4.522C7.788,4.28,7.92,3.904,8.48,3.683
		c0.542-0.215,1.311-0.215,1.744,0c-0.434-0.215-0.359-0.549,0.14-0.746c0.483-0.191,1.208-0.191,1.645,0.001
		c0.449,0.197,0.441,0.53-0.044,0.745c-0.501,0.222-1.293,0.222-1.74,0c0.447,0.222,0.391,0.597-0.157,0.839
		c-0.566,0.25-1.41,0.251-1.853,0.001c0.442,0.25,0.323,0.675-0.3,0.95C7.269,5.759,6.366,5.76,5.936,5.475z M5.729,7.438
		L1.611,4.444C1.271,4.197,1,4.392,1,4.875v5.25c0,0.483,0.271,1.121,0.611,1.431l4.117,3.742C6.151,15.683,6.5,15.553,6.5,15V9
		C6.5,8.447,6.151,7.746,5.729,7.438z M2.586,8.342C2.229,8.054,1.943,7.423,1.943,6.928s0.285-0.68,0.643-0.408
		C2.949,6.796,3.248,7.438,3.248,7.95S2.949,8.635,2.586,8.342z M4.643,12.874c-0.395-0.345-0.709-1.041-0.709-1.562
		c0-0.52,0.314-0.681,0.709-0.354c0.401,0.333,0.732,1.044,0.732,1.583C5.375,13.08,5.044,13.226,4.643,12.874z M14.111,4.444
		L8.123,7.438C7.508,7.746,7,8.447,7,9v6c0,0.553,0.508,0.683,1.123,0.298l5.988-3.742C14.605,11.246,15,10.608,15,10.125v-5.25
		C15,4.392,14.605,4.197,14.111,4.444z M9.207,13.655c-0.594,0.362-1.084,0.221-1.084-0.322c0-0.542,0.49-1.266,1.084-1.608
		c0.583-0.338,1.047-0.181,1.047,0.343C10.254,12.592,9.79,13.3,9.207,13.655z M11.267,10.533c-0.555,0.321-1.013,0.16-1.013-0.363
		c0-0.524,0.458-1.2,1.013-1.503c0.545-0.298,0.979-0.125,0.979,0.382C12.246,9.557,11.812,10.219,11.267,10.533z M13.193,7.613
		c-0.52,0.284-0.947,0.106-0.947-0.4s0.428-1.139,0.947-1.406c0.511-0.264,0.918-0.075,0.918,0.416
		C14.111,6.713,13.704,7.334,13.193,7.613z"/>
</g>
</svg>
