<?xml version="1.0" encoding="utf-8"?>
<!-- Generator: Adobe Illustrator 16.0.3, SVG Export Plug-In . SVG Version: 6.00 Build 0)  -->
<!DOCTYPE svg PUBLIC "-//W3C//DTD SVG 1.1//EN" "http://www.w3.org/Graphics/SVG/1.1/DTD/svg11.dtd" [
	<!ENTITY st0 "fill-rule:evenodd;clip-rule:evenodd;">
]>
<svg version="1.1" id="Layer_1" xmlns="http://www.w3.org/2000/svg" xmlns:xlink="http://www.w3.org/1999/xlink" x="0px" y="0px"
	 width="16px" height="16px" viewBox="0 0 16 16" style="enable-background:new 0 0 16 16;" xml:space="preserve">
<g id="Role_16">
	<path style="&st0;" d="M13.091,1H2.909C1.854,1,1,1.854,1,2.909v10.182C1,14.146,1.854,15,2.909,15h10.182
		C14.146,15,15,14.146,15,13.091V2.909C15,1.854,14.146,1,13.091,1z M12.65,13.104c-2.94,0-6.933,0-9.313,0c0-0.39,0-0.558,0-0.947
		c0.016-0.61,2.147-1.559,2.989-1.869V9.74h0.34C6.692,9.543,6.724,9.333,6.75,9.233C6.433,8.933,5.929,7.9,5.702,6.752
		C5.681,6.938,5.64,7.08,5.585,7.083C5.481,7.087,5.368,6.602,5.332,6.23s0.019-0.676,0.122-0.68
		c0.044-0.002,0.089,0.054,0.13,0.143C5.563,4.35,6.099,3.098,7.905,2.89c0.007-0.001,0.014,0.004,0.021,0.004
		S7.938,2.889,7.946,2.89c1.815,0.21,2.365,1.473,2.359,2.825c0.043-0.103,0.092-0.166,0.14-0.164
		c0.104,0.004,0.158,0.309,0.122,0.68s-0.149,0.856-0.253,0.853C10.262,7.081,10.222,6.95,10.2,6.774
		c-0.213,1.14-0.698,2.16-1.013,2.459c0.026,0.1,0.057,0.31,0.082,0.507h0.343v0.549c0.84,0.312,3.022,1.258,3.038,1.867
		C12.65,12.546,12.65,12.714,12.65,13.104z"/>
</g>
</svg>
