<?xml version="1.0" encoding="utf-8"?>
<!-- Generator: Adobe Illustrator 16.0.3, SVG Export Plug-In . SVG Version: 6.00 Build 0)  -->
<!DOCTYPE svg PUBLIC "-//W3C//DTD SVG 1.1//EN" "http://www.w3.org/Graphics/SVG/1.1/DTD/svg11.dtd" [
	<!ENTITY st0 "fill-rule:evenodd;clip-rule:evenodd;">
]>
<svg version="1.1" id="Layer_1" xmlns="http://www.w3.org/2000/svg" xmlns:xlink="http://www.w3.org/1999/xlink" x="0px" y="0px"
	 width="16px" height="16px" viewBox="0 0 16 16" style="enable-background:new 0 0 16 16;" xml:space="preserve">
<g id="_x32_4_1_">
	<path style="&st0;" d="M11.706,1H3.294C2.027,1,1,2.027,1,3.294v8.412C1,12.973,2.027,14,3.294,14h8.412
		C12.973,14,14,12.973,14,11.706V3.294C14,2.027,12.973,1,11.706,1z M12.471,10.941c0,0.845-0.685,1.529-1.529,1.529H4.059
		c-0.845,0-1.529-0.685-1.529-1.529V4.059c0-0.845,0.685-1.529,1.529-1.529h6.883c0.845,0,1.529,0.685,1.529,1.529V10.941z
		 M9.412,4.059L7.5,5.971L5.588,4.059L4.059,5.588L5.971,7.5L4.059,9.412l1.529,1.529L7.5,9.029l1.912,1.912l1.529-1.529L9.029,7.5
		l1.912-1.912L9.412,4.059z"/>
</g>
</svg>
