<?xml version="1.0" encoding="utf-8"?>
<!-- Generator: Adobe Illustrator 16.0.3, SVG Export Plug-In . SVG Version: 6.00 Build 0)  -->
<!DOCTYPE svg PUBLIC "-//W3C//DTD SVG 1.1//EN" "http://www.w3.org/Graphics/SVG/1.1/DTD/svg11.dtd" [
	<!ENTITY st0 "fill-rule:evenodd;clip-rule:evenodd;">
]>
<svg version="1.1" id="Layer_1" xmlns="http://www.w3.org/2000/svg" xmlns:xlink="http://www.w3.org/1999/xlink" x="0px" y="0px"
	 width="16px" height="16px" viewBox="0 0 16 16" style="enable-background:new 0 0 16 16;" xml:space="preserve">
<g id="_x31_6_24_">
	<path style="&st0;" d="M13.091,1H2.909C1.854,1,1,1.854,1,2.909v10.182C1,14.146,1.854,15,2.909,15h10.182
		C14.146,15,15,14.146,15,13.091V2.909C15,1.854,14.146,1,13.091,1z M5.152,11.987c-0.63,0-1.14-0.51-1.14-1.14
		c0-0.629,0.51-1.139,1.14-1.139c0.629,0,1.139,0.51,1.139,1.139C6.291,11.478,5.781,11.987,5.152,11.987z M7.431,11.987
		c0-1.888-1.53-3.418-3.418-3.418V6.86c2.831,0,5.127,2.296,5.127,5.127H7.431z M10.278,11.987c0-3.461-2.806-6.266-6.266-6.266
		V4.013c4.404,0,7.975,3.57,7.975,7.975H10.278z"/>
</g>
</svg>
