<?xml version="1.0" encoding="utf-8"?>
<!-- Generator: Adobe Illustrator 16.0.4, SVG Export Plug-In . SVG Version: 6.00 Build 0)  -->
<!DOCTYPE svg PUBLIC "-//W3C//DTD SVG 1.1//EN" "http://www.w3.org/Graphics/SVG/1.1/DTD/svg11.dtd">
<svg version="1.1" id="Layer_1" xmlns="http://www.w3.org/2000/svg" xmlns:xlink="http://www.w3.org/1999/xlink" x="0px" y="0px"
	 width="24px" height="24px" viewBox="0 0 24 24" enable-background="new 0 0 24 24" xml:space="preserve">
<path  d="M23.854,16.829c-0.592-0.365-7.513-4.649-7.859-4.861c-0.434-0.266-0.87,0.07-0.87,0.523
	c0,0.351,0,9.238,0,9.744c0,0.5,0.483,0.742,0.852,0.522c0.503-0.301,7.451-4.604,7.876-4.873
	C24.234,17.644,24.24,17.071,23.854,16.829z"/>
<path  d="M1.676-0.125H0.125v3.879v18.121H0.9h0.776h10.449v-2h-10v-14h20v6l2,2V3.754v-3.879H1.676z M14.125,3.875
	h-2v-2h2V3.875z M18.125,3.875h-2v-2h2V3.875z M22.125,3.875h-2v-2h2V3.875z"/>
</svg>
