<?xml version="1.0" encoding="utf-8"?>
<!-- Generator: Adobe Illustrator 15.1.0, SVG Export Plug-In . SVG Version: 6.00 Build 0)  -->
<!DOCTYPE svg PUBLIC "-//W3C//DTD SVG 1.1//EN" "http://www.w3.org/Graphics/SVG/1.1/DTD/svg11.dtd">
<svg version="1.1" id="Layer_1" xmlns="http://www.w3.org/2000/svg" xmlns:xlink="http://www.w3.org/1999/xlink" x="0px" y="0px"
	 width="24px" height="24px" viewBox="0 0 24 24" enable-background="new 0 0 24 24" xml:space="preserve">
<g>
	<path d="M12,0C5.373,0,0,5.373,0,12s5.373,12,12,12c6.627,0,12-5.373,12-12S18.627,0,12,0z M12,22C6.477,22,2,17.522,2,12
		c0-4.357,2.792-8.054,6.68-9.424C9.571,4.354,11.341,7,14,7c2.662,0-0.964-1.578,0.28-4.729C18.703,3.305,22,7.262,22,12
		C22,17.522,17.523,22,12,22z"/>
	<circle cx="8.5" cy="11.5" r="1.5"/>
	<circle cx="15.5" cy="11.5" r="1.5"/>
	<path d="M12,16c-2.455,0.004-2.766,1.25-4,3l1.208,0.012C10.236,17.934,10.416,17.047,12,17c1.584-0.048,1.801,0.982,2.829,2H16
		C14.766,17.324,14.273,15.996,12,16z"/>
</g>
</svg>
