<?xml version="1.0" encoding="utf-8"?>
<!-- Generator: Adobe Illustrator 16.0.3, SVG Export Plug-In . SVG Version: 6.00 Build 0)  -->
<!DOCTYPE svg PUBLIC "-//W3C//DTD SVG 1.1//EN" "http://www.w3.org/Graphics/SVG/1.1/DTD/svg11.dtd" [
	<!ENTITY st0 "fill-rule:evenodd;clip-rule:evenodd;">
]>
<svg version="1.1" id="Layer_1" xmlns="http://www.w3.org/2000/svg" xmlns:xlink="http://www.w3.org/1999/xlink" x="0px" y="0px"
	 width="16px" height="16px" viewBox="0 0 16 16" style="enable-background:new 0 0 16 16;" xml:space="preserve">
<g id="_x31_6_17_">
	<path style="&st0;" d="M4.5,6.5h7V6h-7V6.5z M11,13.031C11,12.466,11,12,11,12H0c0,0,0,0.466,0,1.031
		c0,0.744,0.736,1.654,1.576,1.9C1.664,14.85,1.625,15,1.625,15H12.5C11.7,14.716,11,13.747,11,13.031z M4.5,8.5h7V8h-7V8.5z M15,1
		H3c0,0-1,0.778-1,1.969C2,5.047,2,8.368,2,11h1c0-2.369,0-5.66,0-7.563C3,2.417,3.597,2,3.597,2h9.747c0,0-0.346,0.667-0.346,1.688
		c0,0.018,0,0.035,0,0.054c0,2.276,0,6.241,0,8.518C12.998,13.31,12.37,14,12.37,14h-0.028c0.211,0.332,0.504,0.638,0.83,0.838
		C13.457,14.546,14,13.873,14,12.969c0-2.656,0-7.281,0-9.938c0-0.021,0-0.042,0-0.063C14,1.778,15,1,15,1z M4.5,10.5h7V10h-7V10.5z
		 M15.1,1.434C14.821,1.783,14.5,2.32,14.5,3v2H16c0,0,0-1.467,0-2.031C16,2.438,15.618,1.833,15.1,1.434z M11.5,4h-7v0.5h7V4z"/>
</g>
</svg>
