<?xml version="1.0" encoding="utf-8"?>
<!-- Generator: Adobe Illustrator 16.0.3, SVG Export Plug-In . SVG Version: 6.00 Build 0)  -->
<!DOCTYPE svg PUBLIC "-//W3C//DTD SVG 1.1//EN" "http://www.w3.org/Graphics/SVG/1.1/DTD/svg11.dtd" [
	<!ENTITY st0 "fill-rule:evenodd;clip-rule:evenodd;">
]>
<svg version="1.1" id="Layer_1" xmlns="http://www.w3.org/2000/svg" xmlns:xlink="http://www.w3.org/1999/xlink" x="0px" y="0px"
	 width="16px" height="16px" viewBox="0 0 16 16" style="enable-background:new 0 0 16 16;" xml:space="preserve">
<g id="search_icon_copy">
	<path style="&st0;" d="M9.502,0C5.914,0,3.005,2.913,3.005,6.506c0,1.317,0.394,2.541,1.066,3.565
		c-0.013,0.012-0.029,0.015-0.042,0.027c-0.516,0.514-3.127,3.13-3.643,3.646s-0.516,1.353,0,1.869c0.516,0.516,1.352,0.516,1.866,0
		c0.516-0.517,3.127-3.13,3.643-3.648c0.011-0.011,0.014-0.024,0.023-0.035c1.027,0.682,2.258,1.081,3.583,1.081
		c3.589,0,6.498-2.912,6.498-6.505S13.091,0,9.502,0z M9.502,10.509c-2.207,0-3.998-1.792-3.998-4.003s1.791-4.004,3.998-4.004
		c2.209,0,3.999,1.793,3.999,4.004S11.711,10.509,9.502,10.509z"/>
</g>
</svg>
