<?xml version="1.0" encoding="utf-8"?>
<!-- Generator: Adobe Illustrator 16.0.3, SVG Export Plug-In . SVG Version: 6.00 Build 0)  -->
<!DOCTYPE svg PUBLIC "-//W3C//DTD SVG 1.1//EN" "http://www.w3.org/Graphics/SVG/1.1/DTD/svg11.dtd" [
	<!ENTITY st0 "fill-rule:evenodd;clip-rule:evenodd;">
]>
<svg version="1.1" id="Layer_1" xmlns="http://www.w3.org/2000/svg" xmlns:xlink="http://www.w3.org/1999/xlink" x="0px" y="0px"
	 width="16px" height="16px" viewBox="0 0 16 16" style="enable-background:new 0 0 16 16;" xml:space="preserve">
<g id="_x31_6_31_">
	<path style="&st0;" d="M8,9.5c1.104,0,2-0.896,2-2s-0.896-2-2-2c-0.174,0-0.34,0.029-0.5,0.071L8,7.5L6.384,6.331
		C6.145,6.66,6,7.063,6,7.5C6,8.604,6.896,9.5,8,9.5z M8,3C4.623,3,1.923,4.904,1,7.5C1.923,10.096,4.623,12,8,12s6.077-1.904,7-4.5
		C14.077,4.904,11.377,3,8,3z M8,11.35c-2.841,0-5.417-1.757-6.316-3.85C2.583,5.407,5.159,3.65,8,3.65s5.417,1.757,6.316,3.85
		C13.417,9.593,10.841,11.35,8,11.35z M8,3.994c-0.305,0-0.596,0.051-0.877,0.124l0.252,0.971C7.575,5.036,7.783,5,8,5
		c1.381,0,2.5,1.119,2.5,2.5S9.381,10,8,10S5.5,8.881,5.5,7.5c0-0.547,0.181-1.05,0.479-1.461L5.162,5.448
		C4.742,6.025,4.486,6.73,4.486,7.5c0,1.937,1.573,3.506,3.514,3.506s3.514-1.569,3.514-3.506S9.94,3.994,8,3.994z"/>
</g>
</svg>
