<?xml version="1.0" encoding="utf-8"?>
<!-- Generator: Adobe Illustrator 15.1.0, SVG Export Plug-In . SVG Version: 6.00 Build 0)  -->
<!DOCTYPE svg PUBLIC "-//W3C//DTD SVG 1.1//EN" "http://www.w3.org/Graphics/SVG/1.1/DTD/svg11.dtd">
<svg version="1.1" xmlns="http://www.w3.org/2000/svg" xmlns:xlink="http://www.w3.org/1999/xlink" x="0px" y="0px" width="24px"
	 height="24px" viewBox="0 0 24 24" enable-background="new 0 0 24 24" xml:space="preserve">
<g id="Layer_1">
	<g>
		<polygon points="3,3 12,3 12,7 16,7 16,11 18,11 18,6.625 12.285,1.104 12.328,1 1,1 1,21 9,21 9,19 3,19 		"/>
		<path d="M14,19c-0.787,0-1.498-0.31-2.033-0.806C10.821,18.616,10,19.708,10,21c0,1.656,1.344,3,3,3s3-1.344,3-3
			c0-0.869-0.376-1.646-0.967-2.194C14.709,18.926,14.365,19,14,19z"/>
		<path d="M18,15c0-1.656-1.344-3-3-3s-3,1.344-3,3s1.344,3,3,3c0.359,0,0.699-0.074,1.02-0.189
			c0.076-1.213,0.866-2.223,1.961-2.621C17.984,15.126,18,15.064,18,15z"/>
		<circle cx="20" cy="19" r="3"/>
	</g>
</g>
<g id="Layer_2">
</g>
</svg>
