<?xml version="1.0" encoding="utf-8"?>
<!-- Generator: Adobe Illustrator 15.1.0, SVG Export Plug-In . SVG Version: 6.00 Build 0)  -->
<!DOCTYPE svg PUBLIC "-//W3C//DTD SVG 1.1//EN" "http://www.w3.org/Graphics/SVG/1.1/DTD/svg11.dtd">
<svg version="1.1" xmlns="http://www.w3.org/2000/svg" xmlns:xlink="http://www.w3.org/1999/xlink" x="0px" y="0px" width="24px"
	 height="24px" viewBox="0 0 24 24" enable-background="new 0 0 24 24" xml:space="preserve">
<g id="Layer_1">
	<path d="M8,13.5c-1.502,0-2.865-0.607-3.858-1.587C2.587,12.623,1.5,14.183,1.5,16c0,2.481,2.019,4.5,4.5,4.5
		c2.436,0,3.927-2.081,4-4.5c-0.569-0.817-0.432-1.661-0.486-2.717C9.033,13.422,8.526,13.5,8,13.5z"/>
	<path d="M14,7c0-2.762-2.239-5-5-5S4,4.238,4,7s2.239,5,5,5c0.313,0,0.618-0.037,0.916-0.092c0.663-1.605,2.065-2.826,3.779-3.245
		C13.881,8.141,14,7.586,14,7z"/>
	<circle cx="18" cy="16" r="5"/>
</g>
<g id="Layer_2">
</g>
</svg>
