<?xml version="1.0" encoding="utf-8"?>
<!-- Generator: Adobe Illustrator 15.1.0, SVG Export Plug-In . SVG Version: 6.00 Build 0)  -->
<!DOCTYPE svg PUBLIC "-//W3C//DTD SVG 1.1//EN" "http://www.w3.org/Graphics/SVG/1.1/DTD/svg11.dtd">
<svg version="1.1" id="Layer_1" xmlns="http://www.w3.org/2000/svg" xmlns:xlink="http://www.w3.org/1999/xlink" x="0px" y="0px"
	 width="24px" height="24px" viewBox="0 0 24 24" enable-background="new 0 0 24 24" xml:space="preserve">
<g>
	<path d="M5,0v24h15V0H5z M7,15H6v-1h1V15z M7,12H6v-1h1V12z M7,9H6V8h1V9z M17,21h-4v-4h4V21z M17,15H8v-2h9V15z M17,12H8v-2h9V12z
		 M17,9H8V7h9V9z M19,15h-1v-1h1V15z M19,12h-1v-1h1V12z M19,9h-1V8h1V9z"/>
	<rect x="14" y="18" width="2" height="2"/>
</g>
</svg>
