<?xml version="1.0" encoding="utf-8"?>
<!-- Generator: Adobe Illustrator 16.0.0, SVG Export Plug-In . SVG Version: 6.00 Build 0)  -->
<!DOCTYPE svg PUBLIC "-//W3C//DTD SVG 1.1//EN" "http://www.w3.org/Graphics/SVG/1.1/DTD/svg11.dtd">
<svg version="1.1" id="Layer_1" xmlns="http://www.w3.org/2000/svg" xmlns:xlink="http://www.w3.org/1999/xlink" x="0px" y="0px"
	 width="16px" height="16px" viewBox="0 0 16 16" enable-background="new 0 0 16 16" xml:space="preserve">
<g>
	<path d="M15.467,7.067h-1.135c-0.072-0.496-0.201-0.974-0.381-1.424l0.979-0.567c0.256-0.146,0.344-0.472,0.197-0.729l-0.402-0.691
		c-0.146-0.258-0.474-0.344-0.729-0.196l-0.982,0.567c-0.307-0.385-0.656-0.735-1.041-1.043l0.567-0.98
		c0.146-0.255,0.062-0.582-0.196-0.729l-0.691-0.401c-0.258-0.146-0.582-0.06-0.729,0.196l-0.567,0.98
		C9.907,1.87,9.431,1.741,8.935,1.669V0.534c0-0.295-0.24-0.533-0.535-0.533h-0.8c-0.293,0-0.532,0.238-0.532,0.533v1.135
		C6.571,1.741,6.094,1.87,5.643,2.05l-0.568-0.98C4.929,0.813,4.602,0.728,4.348,0.873L3.654,1.272
		C3.4,1.42,3.311,1.746,3.459,2.002l0.568,0.981C3.642,3.291,3.291,3.642,2.984,4.024L2.001,3.459
		C1.745,3.313,1.42,3.401,1.272,3.653L0.873,4.347c-0.146,0.254-0.06,0.582,0.195,0.727l0.981,0.568
		c-0.179,0.452-0.31,0.93-0.38,1.426H0.534c-0.294,0-0.533,0.238-0.533,0.533v0.797c0,0.297,0.239,0.535,0.533,0.535h1.135
		c0.072,0.496,0.201,0.975,0.38,1.426l-0.981,0.567c-0.255,0.146-0.343,0.472-0.195,0.728l0.401,0.693
		c0.147,0.256,0.473,0.342,0.729,0.194l0.982-0.565c0.307,0.385,0.657,0.734,1.043,1.041L3.46,13.998
		c-0.147,0.257-0.06,0.582,0.195,0.729l0.693,0.399c0.254,0.147,0.582,0.06,0.729-0.194l0.566-0.981
		c0.452,0.18,0.929,0.308,1.425,0.381v1.135C7.068,15.761,7.307,16,7.601,16h0.796c0.297,0,0.535-0.239,0.535-0.533v-1.135
		c0.496-0.073,0.975-0.201,1.426-0.381l0.567,0.981c0.146,0.254,0.472,0.342,0.728,0.194l0.693-0.399
		c0.256-0.147,0.342-0.474,0.194-0.729l-0.565-0.981c0.385-0.308,0.734-0.656,1.041-1.041l0.981,0.565
		c0.257,0.146,0.582,0.062,0.729-0.194l0.399-0.693c0.146-0.256,0.06-0.58-0.196-0.728l-0.979-0.567
		c0.18-0.453,0.31-0.93,0.381-1.426h1.135C15.761,8.933,16,8.694,16,8.397V7.601C16,7.308,15.761,7.067,15.467,7.067z M8.001,12.001
		c-2.208,0-4-1.792-4-4.001c0-2.208,1.792-4,4-4c2.208,0,4,1.792,4,4C12.001,10.209,10.209,12.001,8.001,12.001z"/>
</g>
</svg>
