<?xml version="1.0" encoding="utf-8"?>
<!-- Generator: Adobe Illustrator 16.0.3, SVG Export Plug-In . SVG Version: 6.00 Build 0)  -->
<!DOCTYPE svg PUBLIC "-//W3C//DTD SVG 1.1//EN" "http://www.w3.org/Graphics/SVG/1.1/DTD/svg11.dtd" [
	<!ENTITY st0 "fill-rule:evenodd;clip-rule:evenodd;">
]>
<svg version="1.1" id="Layer_1" xmlns="http://www.w3.org/2000/svg" xmlns:xlink="http://www.w3.org/1999/xlink" x="0px" y="0px"
	 width="16px" height="16px" viewBox="0 0 16 16" style="enable-background:new 0 0 16 16;" xml:space="preserve">
<g id="Shield_16">
	<path style="&st0;" d="M13.844,1.031L13.65,0.657l-0.4,0.126c-1.436,0.45-3.298,0.698-5.245,0.698c-1.95,0-3.816-0.249-5.253-0.701
		L2.351,0.654L2.157,1.028C1.396,2.503,0.995,4.223,0.995,6.002c0,4.962,3.143,9,7.005,9s7.005-4.038,7.005-9
		C15.005,4.224,14.604,2.506,13.844,1.031z M8,14.002c-3.312,0-6.005-3.589-6.005-8c0-1.473,0.3-2.896,0.871-4.146
		c1.465,0.404,3.27,0.625,5.139,0.625c1.866,0,3.667-0.22,5.13-0.622c0.57,1.248,0.87,2.671,0.87,4.143
		C14.005,10.413,11.312,14.002,8,14.002z M3.724,3.113C3.25,4.148,3.002,5.328,3.002,6.549c0,3.655,2.232,6.63,4.977,6.63
		c0.007,0,0.014-0.003,0.021-0.003V3.631c-0.006,0-0.012,0-0.018,0C6.434,3.631,4.938,3.448,3.724,3.113z"/>
</g>
</svg>
