<?xml version="1.0" encoding="utf-8"?>
<!-- Generator: Adobe Illustrator 15.1.0, SVG Export Plug-In . SVG Version: 6.00 Build 0)  -->
<!DOCTYPE svg PUBLIC "-//W3C//DTD SVG 1.1//EN" "http://www.w3.org/Graphics/SVG/1.1/DTD/svg11.dtd">
<svg version="1.1" id="Layer_1" xmlns="http://www.w3.org/2000/svg" xmlns:xlink="http://www.w3.org/1999/xlink" x="0px" y="0px"
	 width="24px" height="24px" viewBox="0 0 24 24" enable-background="new 0 0 24 24" xml:space="preserve">
<polygon points="2,2 13,2 13,6 17,6 17,9 19,9 19,5.998 13,0 0,0 0,19 9.011,19 9,17 2,17 "/>
<rect x="4" y="5" width="8" height="2"/>
<polygon points="4,10 11.264,10 13.34,8 4,8 "/>
<polygon points="4,11 4,13 9,13 11,11 "/>
<g id="SLT">
	<g id="New_Symbol">
		<g id="Shape_12_copy_1_">
			<g>
				<path fill-rule="evenodd" clip-rule="evenodd" d="M17.029,12.516h-1.5v4.395l-0.044,0.044l0.044,0.044v0.018h0.018l2.153,2.153
					l1.061-1.061l-1.731-1.73V12.516z M16.779,9.766c-3.867,0-7,3.134-7,7s3.133,7,7,7c3.866,0,7-3.134,7-7
					S20.646,9.766,16.779,9.766z M16.779,22.258c-3.033,0-5.492-2.459-5.492-5.492s2.459-5.492,5.492-5.492s5.492,2.459,5.492,5.492
					S19.813,22.258,16.779,22.258z"/>
			</g>
		</g>
	</g>
</g>
</svg>
