<?xml version="1.0" encoding="utf-8"?>
<!-- Generator: Adobe Illustrator 16.0.3, SVG Export Plug-In . SVG Version: 6.00 Build 0)  -->
<!DOCTYPE svg PUBLIC "-//W3C//DTD SVG 1.1//EN" "http://www.w3.org/Graphics/SVG/1.1/DTD/svg11.dtd" [
	<!ENTITY st0 "fill-rule:evenodd;clip-rule:evenodd;">
]>
<svg version="1.1" id="Layer_1" xmlns="http://www.w3.org/2000/svg" xmlns:xlink="http://www.w3.org/1999/xlink" x="0px" y="0px"
	 width="16px" height="16px" viewBox="0 0 16 16" style="enable-background:new 0 0 16 16;" xml:space="preserve">
<g id="Snapsot_16">
	<path style="&st0;" d="M4.5,3h-2C2.224,3,2,3.224,2,3.5h3C5,3.224,4.776,3,4.5,3z M9,5C7.343,5,6,6.343,6,8s1.343,3,3,3
		s3-1.343,3-3S10.657,5,9,5z M8.5,8C8.224,8,8,7.776,8,7.5S8.224,7,8.5,7S9,7.224,9,7.5S8.776,8,8.5,8z M13,4h-1
		c0-0.828-0.672-2-1.5-2h-3C6.672,2,6,3.172,6,4H3C1.896,4,1,4.896,1,6v6.5c0,0.553,0.447,1,1,1h2c0.366,0,0.673-0.207,0.847-0.5H13
		c1.104,0,2-0.896,2-2V6C15,4.896,14.104,4,13,4z M4.5,11.25c0,0.138-0.112,0.25-0.25,0.25S4,11.388,4,11.25v-6
		C4,5.112,4.112,5,4.25,5S4.5,5.112,4.5,5.25V11.25z M9,12c-2.209,0-4-1.791-4-4s1.791-4,4-4s4,1.791,4,4S11.209,12,9,12z"/>
</g>
</svg>
