<?xml version="1.0" encoding="utf-8"?>
<!-- Generator: Adobe Illustrator 16.0.3, SVG Export Plug-In . SVG Version: 6.00 Build 0)  -->
<!DOCTYPE svg PUBLIC "-//W3C//DTD SVG 1.1//EN" "http://www.w3.org/Graphics/SVG/1.1/DTD/svg11.dtd" [
	<!ENTITY st0 "fill-rule:evenodd;clip-rule:evenodd;">
]>
<svg version="1.1" id="Layer_1" xmlns="http://www.w3.org/2000/svg" xmlns:xlink="http://www.w3.org/1999/xlink" x="0px" y="0px"
	 width="16px" height="16px" viewBox="0 0 16 16" style="enable-background:new 0 0 16 16;" xml:space="preserve">
<g id="snooze_16">
	<path style="&st0;" d="M2.815,11.497l-0.023-0.023l-0.874,2.568l0.035-0.012l-0.004,0.012l2.595-0.874l-1.721-1.694L2.815,11.497z
		 M11.402,2.019c-0.25,0-0.493,0.025-0.729,0.074c-0.146,0.03-0.283,0.084-0.423,0.132c-0.084,0.028-0.173,0.045-0.254,0.079
		c-0.188,0.08-0.364,0.182-0.535,0.292C9.438,2.611,9.409,2.621,9.385,2.638c-0.166,0.111-0.315,0.243-0.46,0.38
		C8.901,3.039,8.873,3.057,8.85,3.079H8.847c-0.293-0.049-0.591-0.08-0.897-0.08c-0.258,0-0.509,0.024-0.757,0.059H7.189
		C7.094,2.962,6.983,2.884,6.878,2.799C6.802,2.737,6.733,2.667,6.652,2.611C6.615,2.586,6.572,2.57,6.533,2.547
		c-0.556-0.35-1.206-0.56-1.908-0.56c-2.005,0-3.63,1.639-3.63,3.66c0,0.224,0.024,0.439,0.065,0.65
		c0.024,0.139,0.065,0.27,0.105,0.401c0.016,0.052,0.028,0.104,0.047,0.154C1.338,7.213,1.518,7.545,1.74,7.843
		c0.08-0.97,0.648-3.939,4.581-5.169c0.135,0,0.693,0.454,0.693,0.454s-4.47,0.684-4.584,5.415c0.018,0.014,0.032,0.029,0.05,0.043
		c0,0,0,0.001,0.001,0.001c0.03,1.484,0.649,2.823,1.636,3.792c0.002,0.001,0.004,0.003,0.006,0.005
		c0.244,0.239,0.511,0.456,0.796,0.646c0.006,0.003,0.011,0.006,0.017,0.01c0.283,0.188,0.585,0.351,0.903,0.483
		c0.007,0.003,0.014,0.005,0.021,0.008c0.318,0.132,0.651,0.235,0.996,0.306c0.006,0.001,0.011,0.001,0.017,0.002
		c0.349,0.069,0.708,0.107,1.077,0.107c0.34,0,0.672-0.035,0.995-0.095c0.02-0.004,0.04-0.005,0.06-0.009
		c0.318-0.063,0.624-0.155,0.919-0.27c0.017-0.007,0.034-0.012,0.051-0.019c1.86-0.741,3.194-2.479,3.396-4.551
		c-0.003,0.006-0.012,0.015-0.008,0.015c0.054-5.191-4.381-5.837-4.381-5.837S9.54,2.728,9.674,2.728
		c4.05,1.267,4.376,4.515,4.386,5.427c0.001,0,0.001,0,0.001,0c0,0.004,0,0.009,0,0.012c0.054-0.058,0.094-0.126,0.144-0.188
		c0.083-0.102,0.168-0.2,0.239-0.311c0.057-0.088,0.1-0.185,0.148-0.277c0.058-0.108,0.121-0.213,0.168-0.328
		c0.049-0.121,0.08-0.251,0.116-0.379c0.027-0.097,0.064-0.188,0.085-0.287c0.046-0.232,0.071-0.472,0.071-0.718
		C15.032,3.657,13.407,2.019,11.402,2.019z M10.038,7.991v0.995H7.013V7.991h0.031V5.02h0.992v2.972H10.038z M11.456,13.168
		l2.595,0.874l-0.874-2.568L11.456,13.168z"/>
</g>
</svg>
