<?xml version="1.0" encoding="utf-8"?>
<!-- Generator: Adobe Illustrator 16.0.3, SVG Export Plug-In . SVG Version: 6.00 Build 0)  -->
<!DOCTYPE svg PUBLIC "-//W3C//DTD SVG 1.1//EN" "http://www.w3.org/Graphics/SVG/1.1/DTD/svg11.dtd" [
	<!ENTITY st0 "fill-rule:evenodd;clip-rule:evenodd;">
]>
<svg version="1.1" id="Layer_1" xmlns="http://www.w3.org/2000/svg" xmlns:xlink="http://www.w3.org/1999/xlink" x="0px" y="0px"
	 width="16px" height="16px" viewBox="0 0 16 16" style="enable-background:new 0 0 16 16;" xml:space="preserve">
<g id="_x31_6_54_">
	<path style="&st0;" d="M3.994,8.447c0,0.157,0.127,0.285,0.284,0.285h0.428c0.157,0,0.284-0.128,0.284-0.285V7.842
		c0.265-0.039,0.52-0.107,0.761-0.203l0.303,0.523c0.079,0.137,0.253,0.184,0.389,0.104l0.37-0.214
		c0.137-0.078,0.183-0.252,0.104-0.389L6.614,7.14C6.82,6.976,7.007,6.789,7.171,6.583l0.524,0.303
		c0.137,0.079,0.311,0.032,0.389-0.104l0.214-0.369c0.079-0.137,0.032-0.311-0.104-0.39L7.67,5.72
		c0.096-0.241,0.164-0.496,0.203-0.761h0.605c0.157,0,0.285-0.127,0.285-0.284V4.247c0-0.157-0.128-0.284-0.285-0.284H7.873
		C7.834,3.698,7.766,3.443,7.67,3.202l0.523-0.303C8.33,2.82,8.377,2.646,8.298,2.51L8.084,2.141
		C8.006,2.004,7.832,1.957,7.695,2.036L7.171,2.339C7.007,2.133,6.82,1.946,6.614,1.782l0.303-0.524
		c0.079-0.137,0.032-0.311-0.104-0.39L6.443,0.655C6.307,0.576,6.133,0.623,6.054,0.76L5.751,1.283
		C5.51,1.188,5.255,1.119,4.99,1.08V0.475c0-0.157-0.127-0.285-0.284-0.285H4.278c-0.157,0-0.284,0.128-0.284,0.285V1.08
		c-0.265,0.039-0.52,0.107-0.762,0.203L2.931,0.76c-0.079-0.137-0.253-0.184-0.39-0.104L2.172,0.869
		C2.035,0.947,1.988,1.121,2.067,1.258L2.37,1.782C2.164,1.946,1.978,2.133,1.813,2.339L1.289,2.036
		C1.152,1.957,0.979,2.004,0.9,2.141l-0.214,0.37C0.607,2.646,0.654,2.82,0.79,2.899l0.524,0.303
		C1.219,3.443,1.15,3.698,1.111,3.963H0.506c-0.157,0-0.285,0.127-0.285,0.284v0.428c0,0.157,0.128,0.284,0.285,0.284h0.605
		C1.15,5.224,1.219,5.479,1.314,5.72L0.79,6.022c-0.136,0.079-0.183,0.253-0.104,0.39L0.9,6.781
		c0.078,0.137,0.252,0.184,0.389,0.104l0.524-0.303C1.978,6.789,2.164,6.976,2.37,7.14L2.067,7.664
		c-0.079,0.137-0.032,0.311,0.104,0.39l0.369,0.213c0.137,0.079,0.311,0.032,0.39-0.104l0.302-0.523
		c0.242,0.096,0.497,0.164,0.762,0.203V8.447z M2.245,4.446c0-1.242,1.006-2.248,2.248-2.248s2.249,1.006,2.249,2.248
		S5.735,6.695,4.493,6.695S2.245,5.688,2.245,4.446z M15.759,7.084h-0.496c-0.031-0.217-0.088-0.426-0.167-0.624l0.43-0.248
		c0.112-0.064,0.15-0.207,0.086-0.318l-0.175-0.303c-0.064-0.112-0.208-0.15-0.319-0.086l-0.43,0.248
		c-0.135-0.169-0.287-0.322-0.456-0.456l0.248-0.43c0.064-0.112,0.026-0.255-0.086-0.319l-0.303-0.175
		c-0.111-0.064-0.254-0.026-0.318,0.086l-0.248,0.429C13.326,4.81,13.117,4.753,12.9,4.722V4.226c0-0.129-0.104-0.233-0.233-0.233
		h-0.35c-0.129,0-0.233,0.104-0.233,0.233v0.496c-0.217,0.031-0.426,0.088-0.624,0.166l-0.248-0.429
		c-0.064-0.112-0.207-0.15-0.318-0.086l-0.303,0.175c-0.112,0.064-0.15,0.208-0.086,0.319l0.248,0.43
		c-0.169,0.134-0.321,0.287-0.456,0.456l-0.43-0.248C9.756,5.44,9.612,5.479,9.548,5.591L9.373,5.894
		C9.309,6.005,9.347,6.147,9.459,6.212l0.43,0.248C9.81,6.658,9.753,6.867,9.722,7.084H9.225c-0.128,0-0.232,0.104-0.232,0.233v0.35
		c0,0.129,0.104,0.233,0.232,0.233h0.497C9.753,8.117,9.81,8.326,9.889,8.524l-0.43,0.248c-0.112,0.064-0.15,0.207-0.086,0.318
		l0.175,0.303c0.064,0.112,0.208,0.15,0.319,0.086l0.43-0.248c0.135,0.169,0.287,0.321,0.456,0.456l-0.248,0.43
		c-0.064,0.111-0.026,0.255,0.085,0.319l0.304,0.175c0.111,0.064,0.254,0.026,0.318-0.086l0.248-0.429
		c0.198,0.078,0.407,0.135,0.624,0.166v0.496c0,0.129,0.104,0.233,0.233,0.233h0.35c0.129,0,0.233-0.104,0.233-0.233v-0.496
		c0.217-0.031,0.426-0.088,0.624-0.166l0.248,0.429c0.064,0.112,0.207,0.15,0.318,0.086l0.303-0.175
		c0.112-0.065,0.15-0.208,0.086-0.319l-0.248-0.43C14.4,9.553,14.553,9.4,14.688,9.231l0.43,0.248
		c0.111,0.064,0.255,0.026,0.318-0.086l0.176-0.303c0.064-0.111,0.026-0.255-0.086-0.318l-0.43-0.248
		c0.079-0.198,0.136-0.407,0.167-0.624h0.496c0.129,0,0.233-0.104,0.233-0.233v-0.35C15.992,7.188,15.888,7.084,15.759,7.084z
		 M12.492,9.272c-0.983,0-1.78-0.797-1.78-1.78s0.797-1.78,1.78-1.78s1.78,0.797,1.78,1.78S13.476,9.272,12.492,9.272z
		 M9.293,12.111H8.867c-0.027-0.187-0.076-0.365-0.144-0.535l0.369-0.212c0.095-0.056,0.128-0.178,0.073-0.273l-0.15-0.26
		c-0.056-0.096-0.178-0.129-0.273-0.073l-0.368,0.213c-0.115-0.146-0.246-0.276-0.392-0.392l0.213-0.368
		c0.056-0.096,0.022-0.218-0.073-0.273l-0.26-0.15C7.767,9.732,7.645,9.765,7.589,9.86l-0.212,0.368
		c-0.17-0.066-0.349-0.115-0.535-0.143V9.66c0-0.11-0.089-0.199-0.199-0.199H6.342c-0.11,0-0.2,0.089-0.2,0.199v0.426
		c-0.186,0.027-0.364,0.076-0.534,0.143L5.396,9.86C5.34,9.765,5.218,9.732,5.122,9.787l-0.26,0.15
		c-0.096,0.056-0.129,0.178-0.073,0.273l0.213,0.368c-0.146,0.115-0.276,0.246-0.392,0.392l-0.368-0.213
		c-0.096-0.056-0.218-0.022-0.273,0.073l-0.15,0.26c-0.055,0.096-0.022,0.218,0.073,0.273l0.368,0.212
		c-0.066,0.17-0.115,0.349-0.143,0.535H3.691c-0.11,0-0.199,0.089-0.199,0.199v0.301c0,0.11,0.089,0.199,0.199,0.199h0.426
		c0.027,0.187,0.076,0.365,0.143,0.535l-0.368,0.212c-0.096,0.056-0.128,0.178-0.073,0.273l0.15,0.26
		c0.056,0.096,0.178,0.129,0.273,0.073l0.368-0.213c0.115,0.146,0.246,0.276,0.392,0.392l-0.213,0.368
		c-0.056,0.096-0.022,0.218,0.073,0.273l0.26,0.15c0.096,0.055,0.218,0.022,0.273-0.073l0.212-0.368
		c0.17,0.066,0.349,0.115,0.534,0.143v0.425c0,0.111,0.09,0.2,0.2,0.2h0.301c0.11,0,0.199-0.089,0.199-0.2v-0.425
		c0.187-0.027,0.365-0.076,0.535-0.143l0.212,0.368c0.056,0.095,0.178,0.128,0.273,0.072l0.26-0.149
		c0.096-0.056,0.129-0.178,0.073-0.273l-0.213-0.368c0.146-0.115,0.276-0.246,0.392-0.392l0.368,0.213
		c0.096,0.056,0.218,0.022,0.273-0.073l0.149-0.26c0.056-0.096,0.022-0.218-0.072-0.273l-0.369-0.212
		c0.067-0.17,0.116-0.349,0.144-0.535h0.426c0.11,0,0.199-0.089,0.199-0.199v-0.301C9.492,12.2,9.403,12.111,9.293,12.111z
		 M6.492,13.987c-0.843,0-1.526-0.684-1.526-1.526s0.684-1.526,1.526-1.526s1.526,0.684,1.526,1.526S7.335,13.987,6.492,13.987z"/>
</g>
</svg>
