<?xml version="1.0" encoding="utf-8"?>
<!-- Generator: Adobe Illustrator 16.0.3, SVG Export Plug-In . SVG Version: 6.00 Build 0)  -->
<!DOCTYPE svg PUBLIC "-//W3C//DTD SVG 1.1//EN" "http://www.w3.org/Graphics/SVG/1.1/DTD/svg11.dtd" [
	<!ENTITY st0 "fill-rule:evenodd;clip-rule:evenodd;">
]>
<svg version="1.1" id="Layer_1" xmlns="http://www.w3.org/2000/svg" xmlns:xlink="http://www.w3.org/1999/xlink" x="0px" y="0px"
	 width="16px" height="16px" viewBox="0 0 16 16" style="enable-background:new 0 0 16 16;" xml:space="preserve">
<g id="Preview_16">
	<path style="&st0;" d="M2,13.969V3h7.029c0.328-0.047,0.661-0.08,1.002-0.08S10.705,2.953,11.033,3H14v1.163
		c0.359,0.249,0.694,0.529,1,0.839V1H1v14h4.23c-0.33-0.313-0.63-0.658-0.894-1.031H2z M2,1.969h12V2H2V1.969z M8,12.938h4V12H8
		V12.938z M13,8H7v0.938h6V8z M10.031,3.926c-3.313,0-6,2.687-6,6s2.687,6,6,6s6-2.687,6-6S13.345,3.926,10.031,3.926z
		 M10.031,14.926c-2.762,0-5-2.238-5-5c0-2.761,2.238-4.999,5-4.999s5,2.238,5,4.999C15.031,12.688,12.793,14.926,10.031,14.926z
		 M15,15v-0.158c-0.054,0.055-0.112,0.105-0.168,0.158H15z M6.563,10.969H13.5v-1H6.563V10.969z M11,6H9v0.938h2V6z"/>
</g>
</svg>
