<?xml version="1.0" encoding="utf-8"?>
<!-- Generator: Adobe Illustrator 16.0.3, SVG Export Plug-In . SVG Version: 6.00 Build 0)  -->
<!DOCTYPE svg PUBLIC "-//W3C//DTD SVG 1.1//EN" "http://www.w3.org/Graphics/SVG/1.1/DTD/svg11.dtd" [
	<!ENTITY st0 "fill-rule:evenodd;clip-rule:evenodd;">
]>
<svg version="1.1" id="Layer_1" xmlns="http://www.w3.org/2000/svg" xmlns:xlink="http://www.w3.org/1999/xlink" x="0px" y="0px"
	 width="16px" height="16px" viewBox="0 0 16 16" style="enable-background:new 0 0 16 16;" xml:space="preserve">
<g id="initialoze_16">
	<path style="&st0;" d="M5,1H3l0.438,2h2L5,1z M3.876,5l0.438,2h2L5.876,5H3.876z M5.189,11h2L6.751,9h-2L5.189,11z M7.876,5
		L7.438,3h-2l0.438,2H7.876z M6.313,7l0.438,2h2L8.313,7H6.313z M9,1H7l0.438,2h2L9,1z M7.876,5l0.438,2h2L9.876,5H7.876z M9.189,11
		h2l-0.438-2h-2L9.189,11z M11.876,5l-0.438-2h-2l0.438,2H11.876z M10.313,7l0.438,2h2l-0.438-2H10.313z M13,1h-2l0.438,2h2L13,1z
		 M14.313,7l-0.438-2h-2l0.438,2H14.313z M14.751,9h-2l0.438,2h2L14.751,9z M1.876,5h2L3.438,3h-2L1,1H0l3.064,14h1L2.751,9h2
		L4.313,7h-2L1.876,5z"/>
</g>
</svg>
