<?xml version="1.0" encoding="utf-8"?>
<!-- Generator: Adobe Illustrator 16.0.3, SVG Export Plug-In . SVG Version: 6.00 Build 0)  -->
<!DOCTYPE svg PUBLIC "-//W3C//DTD SVG 1.1//EN" "http://www.w3.org/Graphics/SVG/1.1/DTD/svg11.dtd" [
	<!ENTITY st0 "fill-rule:evenodd;clip-rule:evenodd;">
]>
<svg version="1.1" id="Layer_1" xmlns="http://www.w3.org/2000/svg" xmlns:xlink="http://www.w3.org/1999/xlink" x="0px" y="0px"
	 width="16px" height="16px" viewBox="0 0 16 16" style="enable-background:new 0 0 16 16;" xml:space="preserve">
<g id="_x31_6_20_">
	<path style="&st0;" d="M14.224,2.188c-0.72-0.284-2.258,0.519-3.445,1.909c-1.392,1.633-1.558,4.02-1.558,4.02l2.663,1.428
		c0,0,1.994-1.373,2.688-3.434C15.126,4.461,15.069,2.522,14.224,2.188z M11.23,10.607l-2.64-1.616c0,0-0.25,0.003-0.658,1.158
		c-0.852,2.408,1.115,3.299,2.735,1.495C11.73,10.462,11.23,10.607,11.23,10.607z M4.539,12.585l-2.641-1.617
		c0,0-0.249,0.004-0.658,1.159c-0.851,2.408,1.116,3.299,2.736,1.495C5.039,12.439,4.539,12.585,4.539,12.585z M7.532,4.166
		c-0.72-0.284-2.258,0.519-3.445,1.909c-1.393,1.632-1.559,4.019-1.559,4.019l2.663,1.429c0,0,1.995-1.373,2.688-3.434
		C8.435,6.438,8.378,4.5,7.532,4.166z"/>
</g>
</svg>
