<?xml version="1.0" encoding="utf-8"?>
<!-- Generator: Adobe Illustrator 16.0.3, SVG Export Plug-In . SVG Version: 6.00 Build 0)  -->
<!DOCTYPE svg PUBLIC "-//W3C//DTD SVG 1.1//EN" "http://www.w3.org/Graphics/SVG/1.1/DTD/svg11.dtd" [
	<!ENTITY st0 "fill-rule:evenodd;clip-rule:evenodd;">
]>
<svg version="1.1" id="Layer_1" xmlns="http://www.w3.org/2000/svg" xmlns:xlink="http://www.w3.org/1999/xlink" x="0px" y="0px"
	 width="16px" height="16px" viewBox="0 0 16 16" style="enable-background:new 0 0 16 16;" xml:space="preserve">
<g id="System_16">
	<path style="&st0;" d="M6,12.25V14h4v-1.75H6z M10.5,13v1.5h-5V13H5l-1,2h8l-1-2H10.5z M1,1v11h14V1H1z M14,10H2V2h12V10z M8,6.5
		c-1.762,0-3.205,1.306-3.449,3h0.5C5.289,8.082,6.515,7,8,7s2.71,1.082,2.949,2.5h0.5C11.205,7.806,9.762,6.5,8,6.5z M8,6.001
		c2.037,0,3.699,1.529,3.948,3.499H13.5V9.028c-0.066-0.376-0.154-0.746-0.292-1.092L13.5,7.768V5.993
		c-0.085-0.004-0.171-0.013-0.25,0.032l-0.859,0.497c-0.269-0.338-0.575-0.645-0.913-0.913l0.497-0.859
		c0.129-0.224,0.053-0.509-0.171-0.638l-0.606-0.351c-0.223-0.129-0.509-0.052-0.638,0.171l-0.496,0.859
		C9.668,4.635,9.251,4.521,8.816,4.459V3.466c0-0.258-0.209-0.467-0.467-0.467H7.65c-0.258,0-0.467,0.209-0.467,0.467v0.993
		C6.749,4.521,6.332,4.635,5.937,4.792L5.44,3.933C5.312,3.71,5.026,3.634,4.803,3.762L4.196,4.112
		c-0.223,0.129-0.3,0.414-0.171,0.638l0.497,0.859C4.185,5.878,3.878,6.185,3.61,6.522L2.75,6.025C2.671,5.98,2.585,5.99,2.5,5.993
		v1.774l0.292,0.169C2.654,8.283,2.566,8.652,2.5,9.028V9.5h1.552C4.301,7.53,5.963,6.001,8,6.001z"/>
</g>
</svg>
