<?xml version="1.0" encoding="utf-8"?>
<!-- Generator: Adobe Illustrator 16.0.3, SVG Export Plug-In . SVG Version: 6.00 Build 0)  -->
<!DOCTYPE svg PUBLIC "-//W3C//DTD SVG 1.1//EN" "http://www.w3.org/Graphics/SVG/1.1/DTD/svg11.dtd" [
	<!ENTITY st0 "fill-rule:evenodd;clip-rule:evenodd;">
]>
<svg version="1.1" id="Layer_1" xmlns="http://www.w3.org/2000/svg" xmlns:xlink="http://www.w3.org/1999/xlink" x="0px" y="0px"
	 width="16px" height="16px" viewBox="0 0 16 16" style="enable-background:new 0 0 16 16;" xml:space="preserve">
<g id="_x31_6_42_">
	<path style="&st0;" d="M1,1v14h14V1H1z M6,3h4v2H6V3z M6,6h4v2H6V6z M6,9h4v2H6V9z M5,14H2v-2h3V14z M5,11H2V9h3V11z M5,8H2V6h3V8z
		 M5,5H2V3h3V5z M6,14v-2h4v2H6z M14,14h-3v-2h3V14z M14,11h-3V9h3V11z M14,8h-3V6h3V8z M14,5h-3V3h3V5z"/>
</g>
</svg>
