<?xml version="1.0" encoding="utf-8"?>
<!-- Generator: Adobe Illustrator 16.0.3, SVG Export Plug-In . SVG Version: 6.00 Build 0)  -->
<!DOCTYPE svg PUBLIC "-//W3C//DTD SVG 1.1//EN" "http://www.w3.org/Graphics/SVG/1.1/DTD/svg11.dtd" [
	<!ENTITY st0 "fill-rule:evenodd;clip-rule:evenodd;">
]>
<svg version="1.1" id="Layer_1" xmlns="http://www.w3.org/2000/svg" xmlns:xlink="http://www.w3.org/1999/xlink" x="0px" y="0px"
	 width="16px" height="16px" viewBox="0 0 16 16" style="enable-background:new 0 0 16 16;" xml:space="preserve">
<g id="Objective_16">
	<path style="&st0;" d="M8,5C6.343,5,5,6.343,5,8s1.343,3,3,3s3-1.343,3-3S9.657,5,8,5z M8,10c-1.104,0-2-0.896-2-2s0.896-2,2-2
		s2,0.896,2,2S9.104,10,8,10z M8,1C4.134,1,1,4.134,1,8s3.134,7,7,7s7-3.134,7-7S11.866,1,8,1z M8,14c-3.313,0-6-2.687-6-6
		s2.687-6,6-6s6,2.687,6,6S11.313,14,8,14z M8,3C5.238,3,3,5.238,3,8s2.238,5,5,5s5-2.238,5-5S10.762,3,8,3z M8,12
		c-2.209,0-4-1.791-4-4s1.791-4,4-4s4,1.791,4,4S10.209,12,8,12z M8,7C7.447,7,7,7.447,7,8s0.447,1,1,1s1-0.447,1-1S8.553,7,8,7z"/>
</g>
</svg>
