<?xml version="1.0" encoding="utf-8"?>
<!-- Generator: Adobe Illustrator 15.1.0, SVG Export Plug-In . SVG Version: 6.00 Build 0)  -->
<!DOCTYPE svg PUBLIC "-//W3C//DTD SVG 1.1//EN" "http://www.w3.org/Graphics/SVG/1.1/DTD/svg11.dtd">
<svg version="1.1" xmlns="http://www.w3.org/2000/svg" xmlns:xlink="http://www.w3.org/1999/xlink" x="0px" y="0px" width="24px"
	 height="24px" viewBox="0 0 24 24" enable-background="new 0 0 24 24" xml:space="preserve">
<g id="Layer_1">
	<g>
		<rect x="9" y="4" fill-rule="evenodd" clip-rule="evenodd" width="7" height="2"/>
		<rect x="14" y="7" fill-rule="evenodd" clip-rule="evenodd" width="6" height="2"/>
		<rect x="15" y="10" fill-rule="evenodd" clip-rule="evenodd" width="5" height="2"/>
		<polygon fill-rule="evenodd" clip-rule="evenodd" points="18,0 5,0 5,7 7,7 7,2 18,2 18,6 22,6 22,17 15,17 16,19 24,19 24,6 		
			"/>
		<path fill-rule="evenodd" clip-rule="evenodd" d="M15,21c-0.953-0.477-2.046-0.982-4.295-1.781
			c1.257-0.943,1.749-2.971,1.749-5.326C12.454,10.638,10.344,8,7.74,8s-4.714,2.638-4.714,5.893c0,0.866,0.292,2.051,0.381,2.832
			C3.615,18.607,1,18.313,1,18.313l0.884,0.405l-0.551,0.173l0.612,0.255l-0.335,0.14l0.835,0.192L2.08,19.766
			c0,0,0.278,0.154,0.631,0.351C2.016,20.451,1.541,20.729,1,21c-1.179,0.59-1,3-1,3h16C16,24,16.179,21.59,15,21z M8.947,22H6.589
			l-0.463-3.502C4.914,17.973,4,16.857,4,14.272c0-1.179,1.289-0.221,2.468-1.399C7.284,12.057,8.088,10,8.088,10
			c1.805,0,2.983,1.669,2.983,4.272c0,1.43-0.368,2.489-1.078,3.353L8.947,22z"/>
	</g>
</g>
<g id="Layer_2">
</g>
</svg>
