<?xml version="1.0" encoding="utf-8"?>
<!-- Generator: Adobe Illustrator 16.0.3, SVG Export Plug-In . SVG Version: 6.00 Build 0)  -->
<!DOCTYPE svg PUBLIC "-//W3C//DTD SVG 1.1//EN" "http://www.w3.org/Graphics/SVG/1.1/DTD/svg11.dtd" [
	<!ENTITY st0 "fill-rule:evenodd;clip-rule:evenodd;">
]>
<svg version="1.1" id="Layer_1" xmlns="http://www.w3.org/2000/svg" xmlns:xlink="http://www.w3.org/1999/xlink" x="0px" y="0px"
	 width="16px" height="16px" viewBox="0 0 16 16" style="enable-background:new 0 0 16 16;" xml:space="preserve">
<g id="threat_16">
	<path style="&st0;" d="M8.48,5.373C8.38,6.005,7.537,6.5,6.5,6.5S4.62,6.005,4.52,5.373C2.462,6.169,1,8.162,1,10.5
		C1,13.537,3.462,16,6.5,16c3.037,0,5.5-2.463,5.5-5.5C12,8.162,10.538,6.169,8.48,5.373z M4,10c-0.553,0-1-0.447-1-1s0.447-1,1-1
		s1,0.447,1,1S4.553,10,4,10z M15.264,2l-1.3,0.25L13.531,1l-0.433,1.25L11.799,2l0.866,1l-0.866,1l1.118-0.215
		C12.813,4.346,12.573,5,12,5c-2.5,0-1-4-4-4C6.756,1,6.286,2.161,6.108,3.039C5.472,3.154,5,3.538,5,4v1c0,0.553,0.672,1,1.5,1
		S8,5.553,8,5V4c0-0.408-0.367-0.757-0.893-0.913C7.225,2.56,7.471,2,8,2c2,0,1,4,4,4c1.248,0,1.718-1.169,1.894-2.048l0.07-0.202
		l1.3,0.25l-0.866-1L15.264,2z M13.748,3.375L13.531,4l-0.217-0.625L12.665,3.5L13.099,3l-0.434-0.5l0.649,0.125L13.531,2
		l0.217,0.625L14.397,2.5L13.964,3l0.434,0.5L13.748,3.375z"/>
</g>
</svg>
