<?xml version="1.0" encoding="utf-8"?>
<!-- Generator: Adobe Illustrator 16.0.3, SVG Export Plug-In . SVG Version: 6.00 Build 0)  -->
<!DOCTYPE svg PUBLIC "-//W3C//DTD SVG 1.1//EN" "http://www.w3.org/Graphics/SVG/1.1/DTD/svg11.dtd" [
	<!ENTITY st0 "fill-rule:evenodd;clip-rule:evenodd;">
]>
<svg version="1.1" id="Layer_1" xmlns="http://www.w3.org/2000/svg" xmlns:xlink="http://www.w3.org/1999/xlink" x="0px" y="0px"
	 width="16px" height="16px" viewBox="0 0 16 16" style="enable-background:new 0 0 16 16;" xml:space="preserve">
<g id="_x31_6_35_">
	<path style="&st0;" d="M13,3h-2V2L8,4.5L11,7V6h1c0.553,0,1,0.447,1,1v2c0,0.553-0.447,1-1,1H7.813L9.5,11.5L7.813,13H13
		c1.104,0,2-0.896,2-2V5C15,3.896,14.104,3,13,3z M8,11.5L5,9v1H4c-0.553,0-1-0.447-1-1V7c0-0.553,0.447-1,1-1h4.188L6.5,4.5
		L8.188,3H3C1.896,3,1,3.896,1,5v6c0,1.104,0.896,2,2,2h2v1L8,11.5z"/>
</g>
</svg>
