<?xml version="1.0" encoding="utf-8"?>
<!-- Generator: Adobe Illustrator 16.0.3, SVG Export Plug-In . SVG Version: 6.00 Build 0)  -->
<!DOCTYPE svg PUBLIC "-//W3C//DTD SVG 1.1//EN" "http://www.w3.org/Graphics/SVG/1.1/DTD/svg11.dtd" [
	<!ENTITY st0 "fill-rule:evenodd;clip-rule:evenodd;">
]>
<svg version="1.1" id="Layer_1" xmlns="http://www.w3.org/2000/svg" xmlns:xlink="http://www.w3.org/1999/xlink" x="0px" y="0px"
	 width="16px" height="16px" viewBox="0 0 16 16" style="enable-background:new 0 0 16 16;" xml:space="preserve">
<g id="Trash_16">
	<path style="&st0;" d="M3.894,13.97C4,15,5,15,4.938,15H12c0,0,1,0,1.072-1.002C13.255,11.457,14,5,14,5H2.969
		C2.969,5,3.631,11.417,3.894,13.97z M11.244,6.47c0.024-0.275,0.267-0.479,0.542-0.454c0.275,0.023,0.479,0.267,0.454,0.541
		l-0.609,6.974c-0.024,0.275-0.267,0.479-0.542,0.454c-0.275-0.023-0.479-0.267-0.454-0.541L11.244,6.47z M8,6.5
		C8,6.224,8.224,6,8.5,6S9,6.224,9,6.5v7C9,13.776,8.776,14,8.5,14S8,13.776,8,13.5V6.5z M5.089,6.016
		C5.364,5.991,5.606,6.194,5.631,6.47l0.609,6.974c0.024,0.274-0.179,0.518-0.454,0.541c-0.275,0.024-0.518-0.179-0.542-0.454
		L4.635,6.557C4.61,6.282,4.813,6.039,5.089,6.016z M11.406,3.438c0-1.104-1.343-2-3-2s-3,0.896-3,2H1.969v1H15v-1H11.406z
		 M6.425,3.438c0.096-0.677,0.941-1.208,1.981-1.208s1.885,0.531,1.981,1.208H6.425z"/>
</g>
</svg>
