<?xml version="1.0" encoding="utf-8"?>
<!-- Generator: Adobe Illustrator 16.0.3, SVG Export Plug-In . SVG Version: 6.00 Build 0)  -->
<!DOCTYPE svg PUBLIC "-//W3C//DTD SVG 1.1//EN" "http://www.w3.org/Graphics/SVG/1.1/DTD/svg11.dtd" [
	<!ENTITY st0 "fill-rule:evenodd;clip-rule:evenodd;">
]>
<svg version="1.1" id="Layer_1" xmlns="http://www.w3.org/2000/svg" xmlns:xlink="http://www.w3.org/1999/xlink" x="0px" y="0px"
	 width="16px" height="16px" viewBox="0 0 16 16" style="enable-background:new 0 0 16 16;" xml:space="preserve">
<g id="_x31_6_26_">
	<path style="&st0;" d="M13.09,1H2.91C1.85,1,1,1.85,1,2.91v10.18C1,14.15,1.85,15,2.91,15h10.18C14.15,15,15,14.15,15,13.09V2.91
		C15,1.85,14.15,1,13.09,1z M8.5,10h2c0.82,0,1.49,0.67,1.49,1.51c0,0.83-0.67,1.5-1.49,1.5c-0.05,0-0.1-0.01-0.15-0.01H8.5
		C6.03,13,4,11,4,9H3.99L4,4.81C4,4.79,3.99,4.63,3.99,4.62c0-0.83,0.68-1.561,1.51-1.561c0.84,0,1.51,0.641,1.51,1.46
		C7.01,4.56,7,4.57,7,4.61V5h3.38c0.04,0,0.08-0.01,0.12-0.01c0.82,0,1.49,0.67,1.49,1.51c0,0.83-0.67,1.51-1.49,1.51
		C10.48,8.01,10.46,8,10.44,8H7v1C7,9,7.67,10,8.5,10z"/>
</g>
</svg>
