<?xml version="1.0" encoding="utf-8"?>
<!-- Generator: Adobe Illustrator 16.0.3, SVG Export Plug-In . SVG Version: 6.00 Build 0)  -->
<!DOCTYPE svg PUBLIC "-//W3C//DTD SVG 1.1//EN" "http://www.w3.org/Graphics/SVG/1.1/DTD/svg11.dtd" [
	<!ENTITY st0 "fill-rule:evenodd;clip-rule:evenodd;">
]>
<svg version="1.1" id="Layer_1" xmlns="http://www.w3.org/2000/svg" xmlns:xlink="http://www.w3.org/1999/xlink" x="0px" y="0px"
	 width="16px" height="16px" viewBox="0 0 16 16" style="enable-background:new 0 0 16 16;" xml:space="preserve">
<g>
	<path d="M14.58,9.177l1.055,1.814l0.036,0.072l0.023,0.044l0.002,0.003c0.011,0.021,0.022,0.041,0.047,0.093
		c0.016,0.03,0.03,0.06,0.044,0.093l0.029,0.076l0.02,0.053c0.014,0.037,0.027,0.074,0.05,0.147c0.013,0.033,0.021,0.066,0.03,0.102
		c0.012,0.043,0.022,0.087,0.035,0.157c0.008,0.04,0.016,0.079,0.023,0.132c0.004,0.027,0.007,0.057,0.009,0.085l0.007,0.105
		l0.004,0.024c0.003,0.04,0.006,0.08,0.006,0.158c0,0.057-0.003,0.112-0.006,0.166s-0.009,0.106-0.016,0.156
		c-0.021,0.163-0.055,0.316-0.102,0.469c-0.026,0.084-0.059,0.172-0.099,0.264c-0.012,0.029-0.024,0.058-0.047,0.103
		c-0.015,0.03-0.032,0.063-0.061,0.116c-0.016,0.029-0.031,0.058-0.069,0.117c-0.017,0.028-0.035,0.056-0.069,0.105
		c-0.072,0.113-0.15,0.212-0.223,0.287c-0.025,0.022-0.05,0.048-0.099,0.099c-0.059,0.059-0.123,0.116-0.219,0.193
		c-0.034,0.027-0.069,0.055-0.071,0.058c-0.105,0.079-0.218,0.146-0.291,0.188c-0.031,0.014-0.057,0.027-0.07,0.036l-0.07,0.033
		l-0.054,0.026l-0.095,0.042l-0.039,0.018c-0.101,0.037-0.196,0.071-0.296,0.099l-0.269,0.059l-0.071,0.007l-0.058,0.006L13.333,15
		H6.477c-0.143-0.09-0.279-0.196-0.41-0.32c-0.188-0.174-0.346-0.375-0.474-0.602c-0.123-0.211-0.216-0.443-0.279-0.699
		c-0.052-0.198-0.078-0.412-0.078-0.635c0-0.438,0.112-0.872,0.321-1.258h5.599c0.745,0,1.463-0.221,2.074-0.637
		c0.185-0.124,0.363-0.271,0.532-0.438c0.281-0.281,0.512-0.598,0.684-0.939C14.494,9.374,14.539,9.276,14.58,9.177"/>
</g>
<g>
	<path d="M8.005,0.545c0.472,0.001,0.934,0.124,1.334,0.353c0.052,0.03,0.104,0.062,0.171,0.107C9.56,1.037,9.605,1.071,9.669,1.12
		c0.061,0.051,0.122,0.101,0.177,0.152c0.189,0.179,0.351,0.384,0.48,0.607l0.007-0.002l2.026,3.485l1.481,2.547
		c-0.001,0.036-0.004,0.073-0.008,0.117c-0.021,0.335-0.116,0.669-0.28,0.994c-0.125,0.247-0.292,0.477-0.497,0.682
		c-0.124,0.123-0.249,0.227-0.386,0.318c-0.447,0.304-0.972,0.465-1.515,0.465h-0.142l-0.91-1.564L9.372,7.664L8.429,6.042
		L8.152,5.568C7.826,5.008,7.357,4.543,6.797,4.226C6.252,3.915,5.629,3.746,4.951,3.738c-0.126,0-0.252,0.007-0.377,0.02
		l1.107-1.901c0.02-0.031,0.038-0.062,0.072-0.109C5.852,1.599,5.96,1.466,6.083,1.341C6.124,1.3,6.167,1.261,6.219,1.216
		c0.039-0.035,0.082-0.069,0.125-0.104c0.048-0.039,0.102-0.077,0.164-0.118c0.05-0.035,0.102-0.066,0.136-0.086l0.058-0.031
		C6.784,0.831,6.868,0.79,6.968,0.751L7.02,0.729l0.089-0.032l0.046-0.016c0.104-0.035,0.215-0.064,0.34-0.087
		C7.604,0.57,7.722,0.56,7.812,0.552L8.005,0.545"/>
</g>
<g>
	<path d="M4.986,4.738c0.463,0.006,0.918,0.13,1.316,0.357c0.407,0.23,0.748,0.567,0.985,0.976l0.13,0.224L6.625,7.66L5.892,8.922
		L4.841,10.73l-0.113,0.191c-0.322,0.557-0.492,1.188-0.492,1.822c0,0.309,0.037,0.607,0.109,0.882
		c0.084,0.341,0.213,0.662,0.38,0.949C4.809,14.724,4.903,14.866,5.008,15h-2.32c-0.092,0-0.187-0.008-0.294-0.018l-0.06-0.006
		l-0.039-0.003c-0.101-0.016-0.204-0.037-0.297-0.062c-0.104-0.028-0.199-0.063-0.282-0.092l-0.057-0.025l-0.08-0.036l-0.068-0.032
		l-0.1-0.049c-0.114-0.063-0.227-0.13-0.302-0.184c-0.032-0.028-0.067-0.057-0.112-0.09l-0.233-0.212
		c-0.014-0.016-0.028-0.03-0.043-0.044l-0.268-0.338c-0.017-0.024-0.032-0.047-0.034-0.047c-0.001,0-0.001,0.001,0,0.003
		l-0.305-0.669c-0.043-0.143-0.073-0.286-0.093-0.438c-0.007-0.052-0.013-0.104-0.016-0.158S0,12.393,0,12.297
		c0-0.039,0.003-0.079,0.006-0.119l0.011-0.111v-0.019c0.002-0.028,0.005-0.058,0.012-0.1c0.005-0.038,0.013-0.077,0.025-0.143
		c0.008-0.045,0.019-0.089,0.03-0.131c0.009-0.036,0.018-0.069,0.042-0.14c0.011-0.036,0.024-0.073,0.035-0.103l0.022-0.061
		l0.031-0.081c0.012-0.028,0.026-0.058,0.043-0.09l0.022-0.047l0.027-0.051l0.027-0.053l0.005-0.009l0.018-0.036l1.855-3.188
		L3.87,4.967c0.34-0.149,0.711-0.229,1.081-0.229H4.986"/>
</g>
</svg>
