<?xml version="1.0" encoding="utf-8"?>
<!-- Generator: Adobe Illustrator 16.0.3, SVG Export Plug-In . SVG Version: 6.00 Build 0)  -->
<!DOCTYPE svg PUBLIC "-//W3C//DTD SVG 1.1//EN" "http://www.w3.org/Graphics/SVG/1.1/DTD/svg11.dtd" [
	<!ENTITY st0 "fill-rule:evenodd;clip-rule:evenodd;">
]>
<svg version="1.1" id="Layer_1" xmlns="http://www.w3.org/2000/svg" xmlns:xlink="http://www.w3.org/1999/xlink" x="0px" y="0px"
	 width="16px" height="16px" viewBox="0 0 16 16" style="enable-background:new 0 0 16 16;" xml:space="preserve">
<g id="_x31_6_53_">
	<path style="&st0;" d="M6,3.5C6,2.672,6.672,2,7.5,2S9,2.672,9,3.5v4l1,1v-5C10,2.119,8.881,1,7.5,1S5,2.119,5,3.5l1,1V3.5z M12,4
		h-1v5.5l1,1V4z M7,5.5l1,1V5H7V5.5z M7,9.5v2C7,12.328,7.672,13,8.5,13c0.543,0,1.014-0.291,1.277-0.723L9,11.5
		C9,11.776,8.776,12,8.5,12S8,11.776,8,11.5v-1L7,9.5z M8.5,15C7.119,15,6,13.881,6,12.5v-4l-1-1v5C5,14.433,6.567,16,8.5,16
		c1.354,0,2.516-0.777,3.098-1.902l-0.754-0.754C10.496,14.307,9.583,15,8.5,15z M3,2.5l-1,1l11,11l1-1L3,2.5z"/>
</g>
</svg>
