<?xml version="1.0" encoding="utf-8"?>
<!-- Generator: Adobe Illustrator 16.0.0, SVG Export Plug-In . SVG Version: 6.00 Build 0)  -->
<!DOCTYPE svg PUBLIC "-//W3C//DTD SVG 1.1//EN" "http://www.w3.org/Graphics/SVG/1.1/DTD/svg11.dtd">
<svg version="1.1" id="all" xmlns="http://www.w3.org/2000/svg" xmlns:xlink="http://www.w3.org/1999/xlink" x="0px" y="0px"
	 width="24px" height="24px" viewBox="0 0 24 24" enable-background="new 0 0 24 24" xml:space="preserve">
<symbol  id="New_Symbol_166" viewBox="-3.509 -3.983 7.017 7.966">
	<g id="_x31_6_3_">
		<g>
			<path d="M3.285,0.384C2.825,0.65-2.562,3.761-2.832,3.915c-0.337,0.192-0.677-0.052-0.677-0.381c0-0.254,0-6.711,0-7.078
				c0-0.363,0.377-0.539,0.663-0.38c0.392,0.218,5.798,3.345,6.129,3.54C3.582-0.208,3.585,0.208,3.285,0.384z"/>
		</g>
	</g>
</symbol>
<symbol  id="New_Symbol_68" viewBox="-6 -6 12 12">
	<g id="_x31_6_1_">
		<g>
			<path d="M-1.5,6H-6V5h5.5L-1.5,6z M1,5L0,4h-6V-6H6V5H1z"/>
		</g>
	</g>
</symbol>
<g id="add" display="none">
	<g id="New_Symbol_54" display="inline">
		<g id="add_16_1_">
			<g>
				<polygon points="20,10 14,10 14,4 10,4 10,10 4,10 4,14 10,14 10,20 14,20 14,14 20,14 				"/>
			</g>
		</g>
	</g>
</g>
<g id="add-comment" display="none">
	<g id="_x31_6_7_" display="inline">
		<g>
			<path d="M24.004,4.001c0-2.208-1.792-4.001-4-4.001H4.001C1.793,0,0,1.793,0,4.001v10.001c0,2.209,1.793,4.001,4.001,4.001h6.001
				v6.001h2l9.871-6.484c0.219-0.112,0.424-0.25,0.615-0.399l0.265-0.179l-0.062,0.012c0.802-0.734,1.312-1.776,1.312-2.945
				L24.004,4.001L24.004,4.001z M22.003,14.002c0,0.798-0.471,1.484-1.147,1.805l-8.854,6.197v-6.001H4.001
				c-1.106,0-2-0.896-2-2.001V4.001c0-1.105,0.894-2.001,2-2.001h16.003c1.107,0,1.999,0.896,1.999,2.001V14.002z"/>
		</g>
	</g>
	<polygon display="inline" points="7.638,7.644 16.366,7.638 16.366,9.82 7.638,9.82 	"/>
	<rect x="10.911" y="4.364" display="inline" width="2.182" height="8.729"/>
</g>
<g id="chat" display="none">
	<g id="_x31_6_21_" display="inline">
		<g>
			<path d="M6,8h12V6H6V8z M22.99,4.696C22.99,2.655,21.35,1,19.324,1H4.665C2.641,1,1,2.655,1,4.696v9.24
				c0,2.043,1.641,3.697,3.665,3.697h5.498v5.545h1.833l9.048-5.994c0.197-0.104,0.383-0.229,0.558-0.369l0.244-0.162l-0.057,0.012
				c0.734-0.682,1.202-1.646,1.202-2.729L22.99,4.696L22.99,4.696z M21.33,13.936c0,0.739-0.434,1.371-1.059,1.668l-8.188,5.729
				v-5.545h-7.39c-1.021,0-1.847-0.826-1.847-1.853V4.695c0-1.021,0.826-1.847,1.847-1.847H19.48c1.021,0,1.85,0.826,1.85,1.847
				V13.936z M6,12h12v-2H6V12z"/>
		</g>
	</g>
</g>
<g id="commit" display="none">
	<g display="inline">
		<polygon points="9.122,8.903 8.546,7.915 4.659,11.822 8.546,15.72 9.122,14.73 6.208,11.817 		"/>
		<polygon points="15.921,10.846 14.95,9.874 11.551,13.273 9.608,11.331 8.637,12.303 11.55,15.217 12.521,14.245 12.521,14.244 		
			"/>
		<polygon points="16.498,7.915 15.921,8.903 18.835,11.817 15.921,14.73 16.498,15.72 20.422,11.812 		"/>
	</g>
</g>
<g id="css-file" display="none">
	<path display="inline" d="M7.634,16.973c0.472,0.34,1.31,0.701,2.109,0.701c1.165,0,1.711-0.642,1.711-1.441
		c0-0.84-0.456-1.301-1.638-1.774c-1.583-0.62-2.329-1.581-2.329-2.741c0-1.561,1.146-2.841,3.039-2.841
		c0.89,0,1.673,0.279,2.164,0.6l-0.396,1.28c-0.344-0.24-0.981-0.56-1.8-0.56c-0.946,0-1.473,0.599-1.473,1.319
		c0,0.801,0.527,1.162,1.672,1.644C12.217,13.791,13,14.63,13,16.07c0,1.701-1.2,2.902-3.293,2.902
		c-0.962,0-1.855-0.267-2.474-0.662L7.634,16.973z"/>
	<g id="Doc_16_5_" display="inline">
		<g>
			<path d="M20,7h-0.016L14,0H0v24h20.012L20,7z M19,23H1V1h12.998l-0.014,6H19V23z"/>
		</g>
	</g>
</g>
<g id="conversation-alert" display="none">
	<path display="inline" d="M23,4.731c0-2.029-1.645-3.67-3.672-3.67H4.645c-2.028,0-3.669,1.642-3.669,3.67v9.176
		c0,2.026,1.642,3.672,3.669,3.672h5.507v5.505h1.836l8.958-5.885c0.277-0.139,0.535-0.307,0.771-0.504l0.143-0.092l-0.043,0.004
		c0.729-0.67,1.188-1.629,1.188-2.7L23,4.731L23,4.731z M17.971,12H6v-1.836h11.971V12z M18,7.865H6.03V6.031H18V7.865z"/>
</g>
<g id="deploy" display="none">
	<polygon display="inline" points="10.5,21.5 14.5,21.5 14.5,16.5 17.5,16.5 12.767,10.79 7.5,16.5 10.5,16.5 	"/>
	<path display="inline" d="M21.069,11.476l-0.002-0.001c-0.245-0.11-0.494-0.173-0.742-0.199c-0.271-1.389-1.167-2.624-2.506-3.23
		c-0.553-0.252-1.133-0.373-1.704-0.373c-0.42,0-0.832,0.064-1.229,0.188c-0.462-1.448-1.487-2.697-2.933-3.354
		c-0.691-0.313-1.413-0.462-2.122-0.462C7.771,4.043,5.807,5.303,4.933,7.412C4.809,7.71,4.715,8.013,4.646,8.315
		c-0.014,0-0.027,0-0.041,0C3.058,8.313,1.585,9.257,0.93,10.837c-0.225,0.542-0.333,1.109-0.333,1.666
		c0,1.618,0.904,3.161,2.413,3.847c0.5,0.226,1.018,0.338,1.529,0.345h0.002h1.64v-1.08H4.622c-0.009,0-0.016,0-0.021,0H4.595
		c-0.394,0-0.791-0.082-1.174-0.254c-1.122-0.511-1.79-1.655-1.791-2.858c0-0.413,0.079-0.832,0.247-1.237
		c0.486-1.171,1.578-1.869,2.728-1.87c0.13,0,0.262,0.01,0.392,0.027l0.506,0.07l0.075-0.526C5.632,8.58,5.729,8.205,5.881,7.84
		c0.705-1.702,2.289-2.716,3.954-2.717c0.572,0,1.15,0.12,1.709,0.373c1.324,0.604,2.208,1.816,2.494,3.19l0.135,0.657l0.586-0.279
		c0.425-0.202,0.89-0.311,1.359-0.311c0.431,0,0.87,0.09,1.293,0.283c1.138,0.516,1.848,1.619,1.96,2.825l0.05,0.533l0.511-0.047
		c0.042-0.003,0.088-0.005,0.136-0.005c0.205,0,0.403,0.039,0.592,0.124c0.586,0.264,0.933,0.861,0.933,1.488
		c0,0.215-0.04,0.431-0.128,0.643c-0.231,0.563-0.738,0.957-1.246,1.017h-1.053v1.079h1.102l0.028-0.002
		c0.928-0.099,1.73-0.75,2.116-1.665c0.146-0.349,0.215-0.715,0.213-1.073C22.623,12.912,22.039,11.919,21.069,11.476z"/>
</g>
<g id="delete-small" display="none">
	<g display="inline">
		<g>
			<polygon points="15,9.748 14.252,9 12.008,11.244 9.764,9 9.016,9.748 11.26,11.992 9.016,14.236 9.764,14.984 12.008,12.74 
				14.252,14.984 15,14.236 12.756,11.992 			"/>
		</g>
	</g>
</g>
<g id="error-modifyer" display="none">
	<g display="inline">
		<polygon fill="#FFFFFF" points="20.08,14.604 17.954,16.729 15.829,14.604 14.596,15.836 16.721,17.961 14.596,20.086 
			15.829,21.318 17.954,19.193 20.08,21.318 21.312,20.086 19.188,17.961 21.312,15.836 		"/>
		<path fill="#C12D2D" d="M17.96,11.969c-3.306,0-5.986,2.682-5.986,5.986c0,3.306,2.68,5.984,5.986,5.984
			c3.308,0,5.985-2.686,5.985-5.984C23.945,14.65,21.268,11.969,17.96,11.969z M21.312,20.086l-1.232,1.232l-2.126-2.125
			l-2.125,2.125l-1.233-1.232l2.125-2.125l-2.125-2.125l1.233-1.232l2.125,2.125l2.126-2.125l1.232,1.232l-2.125,2.125
			L21.312,20.086z"/>
	</g>
</g>
<g id="file" display="none">
	<g id="Doc_16_3_" display="inline">
		<g>
			<path d="M20,7h-0.016L14,0H0v24h20.012L20,7z M19,23H1V1h12.998l-0.014,6H19V23z M4,15h12v-1H4V15z M4,19h12v-1H4V19z M4,11h12
				v-1H4V11z"/>
		</g>
	</g>
</g>
<g id="folder" display="none">
	
		<use xlink:href="#New_Symbol_68"  width="12" height="12" x="-6" y="-6" transform="matrix(2 0 0 -2 12 12)" display="inline" overflow="visible"/>
</g>
<g id="folder-open" display="none">
	<g id="New_Symbol_69" display="inline">
		<g id="_x31_6_2_">
			<g>
				<path d="M11.075,5.408H22.15V3.704H11.075L10,2H2v5h8L11.075,5.408z M11.927,7.112l-1.704,1.704H0l1.704,13.631h20.444
					l1.705-15.334L11.927,7.112L11.927,7.112z"/>
			</g>
		</g>
	</g>
</g>
<g id="html-file" display="none">
	<g id="Doc_HTML_16_9_" display="inline">
		<g>
			<path d="M4,14.605l4.777,2.979V15.66L5.45,13.766l3.327-1.827V10L4,12.959V14.605z M11.219,10v1.914l3.339,1.865l-3.339,1.883
				v1.924L16,14.604v-1.631L11.219,10z"/>
		</g>
	</g>
	<g id="Doc_16_9_" display="inline">
		<g>
			<path d="M20,7h-0.016L14,0H0v24h20.012L20,7z M19,23H1V1h12.998l-0.014,6H19V23z"/>
		</g>
	</g>
	<polygon display="inline" points="14,0 13.984,7 19.984,7 	"/>
</g>
<g id="image-file" display="none">
	<g id="New_Symbol_31" display="inline">
		<g id="pict_copy_1_">
			<g>
				<path d="M20.52,9.619c-1.019,1.351-3.688,4.576-5.979,4.542c-1.614-0.022-3.603-1.791-5.129-1.282
					c-2.668,0.889-5.183,3.66-6.06,4.702H20.52V9.619z M21.373,2.191H2.564C1.148,2.191,0,3.34,0,4.756v13.68
					C0,19.852,1.148,21,2.564,21h18.809c1.416,0,2.564-1.148,2.564-2.564V4.756C23.938,3.34,22.789,2.191,21.373,2.191z M22,19.198
					H2v-15h20V19.198z M6.839,11.596c1.416,0,2.565-1.149,2.565-2.565S8.255,6.466,6.839,6.466S4.274,7.615,4.274,9.031
					S5.423,11.596,6.839,11.596z"/>
			</g>
		</g>
	</g>
</g>
<g id="java-script-file" display="none">
	<path display="inline" d="M9.44,16.973c0.472,0.34,1.31,0.701,2.109,0.701c1.165,0,1.711-0.642,1.711-1.441
		c0-0.84-0.455-1.301-1.638-1.774c-1.583-0.62-2.329-1.581-2.329-2.741c0-1.561,1.146-2.841,3.039-2.841
		c0.891,0,1.673,0.279,2.163,0.6l-0.399,1.28c-0.344-0.24-0.979-0.56-1.8-0.56c-0.946,0-1.473,0.599-1.473,1.319
		c0,0.801,0.527,1.162,1.672,1.644c1.526,0.641,2.312,1.479,2.312,2.92c0,1.698-1.201,2.899-3.292,2.899
		c-0.962,0-1.855-0.264-2.474-0.662L9.44,16.973z"/>
	<path display="inline" d="M6.34,8.869v6.552c0,1.935-0.971,2.244-1.74,2.244c-0.425,0-0.806-0.09-1.069-0.192l-0.267,1.243
		c0.322,0.132,0.894,0.234,1.362,0.234c1.699,0,3.154-0.854,3.154-3.478V8.869"/>
	<g id="Doc_16_2_" display="inline">
		<g>
			<path d="M20,7h-0.016L14,0H0v24h20.012L20,7z M19,23H1V1h12.998l-0.014,6H19V23z"/>
		</g>
	</g>
</g>
<g id="jso-file" display="none">
	<g display="inline">
		<path d="M4.329,9.698H5.29v4.999c0,1.982-0.975,2.593-2.259,2.593c-0.355,0-0.79-0.078-1.032-0.181l0.144-0.782
			c0.2,0.073,0.487,0.144,0.809,0.144c0.864,0,1.376-0.389,1.376-1.853L4.329,9.698L4.329,9.698z"/>
		<path d="M6.763,15.993c0.431,0.266,1.062,0.487,1.729,0.487c0.986,0,1.562-0.521,1.562-1.276c0-0.697-0.399-1.095-1.408-1.483
			c-1.218-0.434-1.973-1.062-1.973-2.117c0-1.163,0.964-2.027,2.415-2.027c0.768,0,1.321,0.178,1.651,0.365l-0.266,0.788
			c-0.242-0.133-0.741-0.355-1.418-0.355c-1.019,0-1.406,0.609-1.406,1.12c0,0.698,0.457,1.042,1.485,1.44
			c1.263,0.482,1.905,1.097,1.905,2.188c0,1.146-0.853,2.146-2.616,2.146c-0.719,0-1.506-0.209-1.906-0.478L6.763,15.993z"/>
		<path d="M18.736,13.355c0,2.564-1.562,3.934-3.467,3.934c-1.979,0-3.358-1.529-3.358-3.79c0-2.372,1.478-3.923,3.47-3.923
			C17.419,9.576,18.736,11.139,18.736,13.355z M12.941,13.477c0,1.603,0.863,3.025,2.381,3.025c1.531,0,2.396-1.406,2.396-3.104
			c0-1.484-0.774-3.042-2.381-3.042C13.74,10.364,12.941,11.837,12.941,13.477z"/>
	</g>
	<g id="Doc_XML_16_7_" display="inline">
		<g>
			<path d="M19,7v2h1V7H19z M1,1h13V0H0v9.012h1V1z M19,23H1v-3.162H0v4.161l20,0.009v-4.17h-1V23z"/>
		</g>
	</g>
	<polygon display="inline" points="14,0 14,7 19.984,7 	"/>
	<g id="Doc_XML_16_5_" display="inline">
		<g>
			<path d="M19,7v2h1V7H19z M1,1h13V0H0v9.012h1V1z M19,23H1v-3.162H0v4.161l20,0.009v-4.17h-1V23z"/>
		</g>
	</g>
	<polygon display="inline" points="14,0 14,7 19.984,7 	"/>
</g>
<g id="java-file" display="none">
	<path display="inline" d="M10.07,15.422c0,1.934-0.97,2.243-1.74,2.243c-0.424,0-0.805-0.089-1.069-0.192l-0.266,1.244
		c0.322,0.131,0.893,0.234,1.362,0.234c1.699,0,3.154-0.855,3.154-3.477V8.869l-1.44-0.005L10.07,15.422L10.07,15.422z"/>
	<g id="Doc_16_7_" display="inline">
		<g>
			<path d="M20,7h-0.016L14,0H0v24h20.012L20,7z M19,23H1V1h12.998l-0.014,6H19V23z"/>
		</g>
	</g>
</g>
<g id="leave-conversation" display="none">
	<g display="inline">
		<path d="M16.16,12.654c0,0.587-0.346,1.089-0.842,1.324l-6.503,4.553v-4.407H2.938c-0.812,0-1.469-0.658-1.469-1.47V5.308
			c0-0.812,0.656-1.469,1.469-1.469h11.753c0.812,0,1.469,0.657,1.469,1.469v0.938h1.471V5.308c0-1.622-1.316-2.938-2.939-2.938
			H2.938C1.316,2.37,0,3.686,0,5.308v7.346c0,1.621,1.316,2.938,2.938,2.938h4.408V20h1.47l7.17-4.711
			c0.224-0.107,0.429-0.244,0.613-0.403l0.105-0.073l-0.033,0.002c0.59-0.532,0.953-1.305,0.953-2.157v-0.668h-1.471L16.16,12.654
			L16.16,12.654z"/>
		<path d="M23.508,8.498L20,5.306v2h-7v3h7l-0.025,2l3.533-2.699c0,0,0.492-0.313,0.492-0.555C24,8.931,23.508,8.498,23.508,8.498z"
			/>
	</g>
</g>
<g id="list" display="none">
	<g id="Detail_view16_1_" display="inline">
		<g>
			<path d="M19,12H9v1h10V12z M19.004,6H9v1h10L19.004,6z M19,9H9v1h10V9z M8.808,1H2.571H1v22h1.571H6h1h1.808H23V1H8.808z
				 M6,21.43H2.571V4.143H6V21.43z M21.43,21.43H8.808H7V4.143h14.43V21.43z M19,18H9v1h10V18z M19,15H9v1h10V15z"/>
		</g>
	</g>
</g>
<g id="pane-scroll-arrow-down" display="none">
	<g display="inline">
		<path d="M12.039,18L1.387,8.666c-0.468-0.41-0.516-1.122-0.105-1.59c0.41-0.469,1.122-0.515,1.59-0.104l9.166,8.031l9.149-8.023
			c0.467-0.41,1.18-0.362,1.59,0.104c0.41,0.468,0.363,1.18-0.104,1.59L12.039,18z"/>
	</g>
</g>
<g id="pane-scroll-arrow-up" display="none">
	<g display="inline">
		<path d="M12.021,6.691l10.652,9.334c0.468,0.408,0.517,1.121,0.104,1.59c-0.409,0.469-1.121,0.516-1.59,0.104L12.02,9.688
			l-9.149,8.023c-0.467,0.41-1.18,0.362-1.591-0.104c-0.409-0.469-0.362-1.188,0.105-1.592L12.021,6.691z"/>
	</g>
</g>
<g id="pencil-small" display="none">
	
		<rect x="8.757" y="8.585" transform="matrix(0.707 -0.7072 0.7072 0.707 -3.2624 12.1237)" display="inline" width="8.487" height="2.828"/>
	<rect x="7" y="13" display="inline" width="1" height="3"/>
	<rect x="8" y="15" display="inline" width="2" height="1"/>
</g>
<g id="run" display="none">
	<g display="inline">
		<g>
			<path d="M9.847,7.999C9.492,7.794,9.134,8.055,9.134,8.404v6.459c0,0.386,0.396,0.572,0.698,0.402
				c0.413-0.229,6.105-3.022,6.455-3.229c0.312-0.187,0.318-0.629,0-0.815C15.805,10.938,10.13,8.163,9.847,7.999z M11.838,3.644
				c-4.418,0-8,3.582-8,8c0,4.418,3.582,8,8,8s8-3.582,8-8C19.838,7.226,16.256,3.644,11.838,3.644z M11.838,18.473
				c-3.771,0-6.829-3.058-6.829-6.829s3.058-6.829,6.829-6.829c3.771,0,6.829,3.058,6.829,6.829S15.609,18.473,11.838,18.473z"/>
		</g>
	</g>
</g>
<g id="tringle-arrow" display="none">
	
		<use xlink:href="#New_Symbol_166"  width="7.017" height="7.966" x="-3.509" y="-3.983" transform="matrix(2.0034 0 0 -2.0034 12.0273 11.9805)" display="inline" overflow="visible"/>
</g>
<g id="triangle-down" display="none">
	
		<use xlink:href="#New_Symbol_166"  width="7.017" height="7.966" x="-3.509" y="-3.983" transform="matrix(0 2.0034 2.0034 0 12.0312 11.9795)" display="inline" overflow="visible"/>
</g>
<g id="user_1_" display="none">
	<g id="user" display="inline">
		<g>
			<g>
				<path d="M20.107,17.309c-1.246-0.623-2.498-1.666-5.746-2.877c1.423-1.098,3.012-2.904,2.964-5.474
					C17.325,5.115,14.833,2,11.758,2C8.684,2,6.192,5.115,6.192,8.958c0.798,3.287,2.125,4.976,3.33,5.851
					c-3.524,1.205-4.82,1.854-6.114,2.5c-1.392,0.697-1.392,4.176-1.392,4.176H21.5C21.5,21.484,21.5,18.006,20.107,17.309z
					 M11.868,17.357c-1.392,0-2.197-2.14-2.197-2.14l0.127-1.163c-1.283-0.703-2.215-2.261-2.215-5.101
					c0-1.392,1.522-0.261,2.915-1.652c0.964-0.965,1.913-3.393,1.913-3.393c2.13,0,3.522,1.97,3.522,5.045
					c0,2.498-0.918,4.606-2.761,5.312l1.363,0.428C14.541,14.699,13.26,17.357,11.868,17.357z"/>
			</g>
		</g>
	</g>
</g>
<g id="user_in_frame" display="none">
	<g id="user-framed" display="inline">
		<g>
			<g>
				<path d="M17.855,15.57c-1.021-0.512-2.062-1.366-4.726-2.359c1.168-0.902,2.479-2.385,2.438-4.497C15.57,5.558,13.525,3,11,3
					C8.477,3,6.43,5.558,6.43,8.714c0.655,2.7,1.746,4.086,2.735,4.806c-2.879,0.985-3.963,1.521-5.022,2.051C3,16.143,3,19,3,19h16
					C19,19,19,16.143,17.855,15.57z M11.09,15.609c-1.143,0-1.804-1.752-1.804-1.752l0.106-0.979
					C8.341,12.301,7.57,11.04,7.57,8.712c0-1.143,1.25-0.214,2.395-1.356c0.792-0.793,1.571-2.787,1.571-2.787
					c1.748,0,2.892,1.618,2.892,4.143c0,2.062-0.775,3.784-2.301,4.354l1.157,0.355C13.284,13.43,12.232,15.609,11.09,15.609z"/>
			</g>
		</g>
		<path d="M0,0v22h22V0H0z M21,21H1V1h20V21z"/>
	</g>
</g>
<g id="xml-file" display="none">
	<g id="Doc_XML_16_1_" display="inline">
		<g>
			<path d="M19,7v2h1V7H19z M1,1h13V0H0v9.012h1V1z M19,23H1v-3.162H0v4.161l20,0.009v-4.17h-1V23z"/>
		</g>
	</g>
	<g display="inline">
		<path d="M6.41,17.23l-0.974-1.688c-0.394-0.646-0.644-1.062-0.88-1.503H4.532c-0.214,0.438-0.429,0.852-0.824,1.52L2.793,17.23
			h-1.13l2.326-3.855L1.753,9.614h1.141L3.9,11.399c0.282,0.498,0.497,0.882,0.7,1.291h0.036c0.214-0.456,0.406-0.805,0.688-1.291
			l1.04-1.785h1.129L5.176,13.32l2.374,3.91H6.41z"/>
		<path d="M15.105,13.887c-0.062-1.062-0.127-2.34-0.114-3.29h-0.032c-0.262,0.892-0.579,1.843-0.964,2.894l-1.343,3.692h-0.745
			l-1.232-3.627c-0.361-1.079-0.666-2.062-0.882-2.959H9.771c-0.021,0.95-0.079,2.227-0.146,3.368l-0.204,3.268H8.483L9.014,9.62
			h1.254l1.299,3.683c0.316,0.938,0.578,1.775,0.769,2.566h0.034c0.19-0.771,0.46-1.604,0.8-2.566l1.355-3.683h1.256l0.476,7.612
			h-0.963L15.105,13.887z"/>
		<path d="M17.764,9.614h0.982v6.79H22v0.828h-4.236V9.614z"/>
	</g>
	<polygon display="inline" points="14,0 14,7 19.984,7 	"/>
	<g id="Doc_XML_16_2_" display="inline">
		<g>
			<path d="M19,7v2h1V7H19z M1,1h13V0H0v9.012h1V1z M19,23H1v-3.162H0v4.161l20,0.009v-4.17h-1V23z"/>
		</g>
	</g>
	<polygon display="inline" points="14,0 14,7 19.984,7 	"/>
</g>
<g id="archive" display="none">
	<g id="_x34_8_1_" display="inline">
		<g>
			<path fill-rule="evenodd" clip-rule="evenodd" d="M14.719,17.063l-1.557,1.557H10.05l-1.557-1.557H0.711V22.5H22.5v-5.437H14.719
				z M5.967,13.5h11.278l0.586,2.785h3.892L17.831,1.5H16.5h-1.781H8.493H6.5H5.381L1.489,16.285h3.892L5.967,13.5z M7.862,4.5
				h7.489l0.632,3H7.23L7.862,4.5z M6.809,9.5h9.594l0.421,2H6.388L6.809,9.5z"/>
		</g>
	</g>
</g>
<g id="unarchive">
	<g>
		<polygon points="7.5,8.5 8.5,4.5 15.5,4.5 18.271,16.074 22.109,16.074 18.271,1.5 5.999,1.5 3.5,10.5 6.5,8.5 		"/>
		<polygon points="13.5,16.5 13.5,20.5 13.5,20.5 12.5,20.5 7.5,20.5 7.5,22.5 22.5,22.5 22.5,16.5 		"/>
		<polygon points="6.423,9.5 17.423,9.5 16.5,7.5 7.5,7.5 		"/>
		<polyline points="7.5,11.5 7.5,13.5 17.5,13.5 17.5,11.5 		"/>
		<polygon points="12.5,15.5 6.5,15.5 6.491,11.068 0,17.151 6.491,23.236 6.491,19.433 12.5,19.5 		"/>
	</g>
</g>
</svg>
