<?xml version="1.0" encoding="utf-8"?>
<!-- Generator: Adobe Illustrator 15.1.0, SVG Export Plug-In . SVG Version: 6.00 Build 0)  -->
<!DOCTYPE svg PUBLIC "-//W3C//DTD SVG 1.1//EN" "http://www.w3.org/Graphics/SVG/1.1/DTD/svg11.dtd">
<svg version="1.1" id="Layer_1" xmlns="http://www.w3.org/2000/svg" xmlns:xlink="http://www.w3.org/1999/xlink" x="0px" y="0px"
	 width="24px" height="24px" viewBox="0 0 24 24" enable-background="new 0 0 24 24" xml:space="preserve">
<path d="M12,15H5v-2h7l1-1H5v-2h9v1l3,2V0H2v24h11l-1-2v-1l0,0 M4,15H3v-1h1V15z M4,12H3v-1h1V12z M4,9H3V8h1V9z M14,9H5V7h9V9z
	 M16,9h-1V8h1V9z"/>
<g>
	<polygon fill-rule="evenodd" clip-rule="evenodd" points="13,15 16,18 13,21 14,23 17,21 17,15 14,13 	"/>
	<polygon fill-rule="evenodd" clip-rule="evenodd" points="22,15 21,13 18,15 18,21 21,23 22,21 19,18 	"/>
</g>
</svg>
