<?xml version="1.0" encoding="utf-8"?>
<!-- Generator: Adobe Illustrator 16.0.3, SVG Export Plug-In . SVG Version: 6.00 Build 0)  -->
<!DOCTYPE svg PUBLIC "-//W3C//DTD SVG 1.1//EN" "http://www.w3.org/Graphics/SVG/1.1/DTD/svg11.dtd" [
	<!ENTITY st0 "fill-rule:evenodd;clip-rule:evenodd;">
]>
<svg version="1.1" id="Layer_1" xmlns="http://www.w3.org/2000/svg" xmlns:xlink="http://www.w3.org/1999/xlink" x="0px" y="0px"
	 width="16px" height="16px" viewBox="0 0 16 16" style="enable-background:new 0 0 16 16;" xml:space="preserve">
<g id="_x31_6_32_">
	<path style="&st0;" d="M5.162,5.448C4.742,6.025,4.486,6.73,4.486,7.5c0,0.686,0.205,1.32,0.546,1.861l0.694-0.833
		C5.584,8.214,5.5,7.867,5.5,7.5c0-0.547,0.181-1.05,0.479-1.461L5.162,5.448z M6.097,8.084l1.02-1.223l-0.732-0.53
		C6.145,6.66,6,7.063,6,7.5C6,7.705,6.04,7.898,6.097,8.084z M9.294,4.247C8.893,4.088,8.458,3.994,8,3.994
		c-0.305,0-0.596,0.051-0.877,0.124l0.252,0.971C7.575,5.036,7.783,5,8,5c0.208,0,0.406,0.033,0.6,0.081L9.294,4.247z M3.797,10.844
		l0.463-0.556C3.081,9.581,2.152,8.59,1.684,7.5C2.583,5.407,5.159,3.65,8,3.65c0.555,0,1.094,0.084,1.618,0.208l0.485-0.583
		C9.439,3.106,8.74,3,8,3C4.623,3,1.923,4.904,1,7.5C1.487,8.871,2.48,10.038,3.797,10.844z M7.5,5.571l0.164,0.632l0.566-0.68
		C8.154,5.514,8.079,5.5,8,5.5C7.826,5.5,7.66,5.529,7.5,5.571z M8.691,9.37c0.659-0.244,1.151-0.82,1.274-1.528L8.691,9.37z
		 M12.733,4.52l-0.46,0.553c0.92,0.668,1.648,1.51,2.043,2.428C13.417,9.593,10.841,11.35,8,11.35c-0.305,0-0.604-0.029-0.901-0.068
		l-0.496,0.596C7.054,11.951,7.518,12,8,12c3.377,0,6.077-1.904,7-4.5C14.581,6.322,13.782,5.299,12.733,4.52z M7.381,10.943
		C7.582,10.979,7.788,11.006,8,11.006c1.94,0,3.514-1.569,3.514-3.506c0-0.436-0.09-0.849-0.235-1.234l-0.806,0.967
		C10.482,7.321,10.5,7.408,10.5,7.5c0,1.318-1.023,2.387-2.318,2.481L7.381,10.943z M12.5,1.5l-10,12l1,1l10-12L12.5,1.5z"/>
</g>
</svg>
