<?xml version="1.0" encoding="utf-8"?>
<!-- Generator: Adobe Illustrator 16.0.3, SVG Export Plug-In . SVG Version: 6.00 Build 0)  -->
<!DOCTYPE svg PUBLIC "-//W3C//DTD SVG 1.1//EN" "http://www.w3.org/Graphics/SVG/1.1/DTD/svg11.dtd" [
	<!ENTITY st0 "fill-rule:evenodd;clip-rule:evenodd;">
]>
<svg version="1.1" id="Layer_1" xmlns="http://www.w3.org/2000/svg" xmlns:xlink="http://www.w3.org/1999/xlink" x="0px" y="0px"
	 width="16px" height="16px" viewBox="0 0 16 16" style="enable-background:new 0 0 16 16;" xml:space="preserve">
<g id="Ellipse_1_2_">
	<path d="M14.857,10.249c-0.083-0.392-0.313-0.712-0.619-0.922L9.385,5.326L9.374,5.339C9.035,5.066,8.585,4.937,8.126,5.034
		c-0.235,0.05-0.435,0.163-0.61,0.304l-0.01-0.012L2.652,9.327c-0.306,0.21-0.536,0.53-0.619,0.922
		c-0.172,0.811,0.345,1.606,1.155,1.779c0.481,0.102,0.954-0.043,1.298-0.344l0.009,0.012l3.95-3.256l3.95,3.256l0.009-0.012
		c0.344,0.301,0.816,0.445,1.298,0.344C14.513,11.855,15.029,11.06,14.857,10.249z"/>
</g>
</svg>
