<?xml version="1.0" encoding="utf-8"?>
<!-- Generator: Adobe Illustrator 16.0.4, SVG Export Plug-In . SVG Version: 6.00 Build 0)  -->
<!DOCTYPE svg PUBLIC "-//W3C//DTD SVG 1.1//EN" "http://www.w3.org/Graphics/SVG/1.1/DTD/svg11.dtd">
<svg version="1.1" id="Layer_1" xmlns="http://www.w3.org/2000/svg" xmlns:xlink="http://www.w3.org/1999/xlink" x="0px" y="0px"
	 width="24px" height="24px" viewBox="0 0 24 24" enable-background="new 0 0 24 24" xml:space="preserve">
<path d="M20.607,16.825c-1.246-0.624-2.498-1.666-5.746-2.877c1.423-1.099,3.012-2.904,2.964-5.474c0-3.843-2.492-6.958-5.567-6.958
	c-3.074,0-5.566,3.115-5.566,6.958c0.798,3.287,2.125,4.975,3.33,5.851c-3.524,1.205-4.82,1.853-6.114,2.5
	C2.516,17.521,2.516,21,2.516,21H22C22,21,22,17.521,20.607,16.825z M12.368,16.873c-1.392,0-2.197-2.137-2.197-2.137l0.127-1.166
	c-1.283-0.702-2.215-2.256-2.215-5.096c0-1.392,1.522-0.261,2.915-1.652c0.964-0.965,1.913-3.393,1.913-3.393
	c2.13,0,3.522,1.97,3.522,5.045c0,2.498-0.918,4.61-2.756,5.315l1.363,0.426C15.041,14.215,13.76,16.873,12.368,16.873z"/>
</svg>
