<?xml version="1.0" encoding="utf-8"?>
<!-- Generator: Adobe Illustrator 16.0.3, SVG Export Plug-In . SVG Version: 6.00 Build 0)  -->
<!DOCTYPE svg PUBLIC "-//W3C//DTD SVG 1.1//EN" "http://www.w3.org/Graphics/SVG/1.1/DTD/svg11.dtd" [
	<!ENTITY st0 "fill-rule:evenodd;clip-rule:evenodd;">
]>
<svg version="1.1" id="Layer_1" xmlns="http://www.w3.org/2000/svg" xmlns:xlink="http://www.w3.org/1999/xlink" x="0px" y="0px"
	 width="16px" height="16px" viewBox="0 0 16 16" style="enable-background:new 0 0 16 16;" xml:space="preserve">
<g id="usersgroup_16">
	<path style="&st0;" d="M14.5,6.5c-0.404-0.202-0.817-0.406-1.75-0.74c0.537-0.398,0.75-1.257,0.75-2.26c0-1.381-0.896-2.5-2-2.5
		c-0.957,0-1.754,0.841-1.951,1.963c0.168,0.123,0.323,0.263,0.473,0.417c0.051-0.364,0.311-0.415,0.76-0.864
		c0.347-0.347,0.953-0.828,0.953-0.828C12.5,1.688,13,2.396,13,3.5c0,0.901-0.339,1.655-1.005,1.904L12.5,5.563L12,7.75h-0.703
		c-0.07,0.856-0.248,1.619-0.556,2.22c0.525,0.199,0.951,0.374,1.302,0.53H15V8C15,8,15,6.75,14.5,6.5z M12.25,11.25
		c-0.606-0.303-1.227-0.609-2.625-1.111c0.806-0.598,1.125-1.885,1.125-3.389c0-2.071-1.343-3.75-3-3.75s-3,1.679-3,3.75
		c0,0.551,0.187,1.304,0.242,1.802C5.053,9.095,4.74,9.346,4.385,9.466c0.042-0.134,0.06-0.29,0.039-0.476
		C4.365,8.466,4.194,7.713,4.151,7.088L4,7.75H3l-0.25-2l0.047-0.427C2.337,5.07,2,4.519,2,3.5C2,3,2.281,3.016,2.781,2.516
		c0.347-0.347,0.953-0.828,0.953-0.828C4.5,1.688,5,2.396,5,3.5c0,0.178-0.023,0.343-0.05,0.507c0.16-0.247,0.339-0.47,0.537-0.669
		C5.419,2.034,4.561,1,3.5,1c-1.104,0-2,1.119-2,2.5c0,0.367,0.124,0.869,0.161,1.201c0.057,0.508-0.036,0.725,0.254,1.181
		C1.212,6.146,0.853,6.324,0.5,6.5C0,6.75,0,8,0,8l0.016,2.5h3.219l-0.648-0.297c0,0,0.751,0.082,1.296-0.186l0.181,0.075
		l-0.212,0.09l0.53,0.121l-0.232,0.184c0,0,0.146,0.081,0.336,0.187c-0.517,0.219-0.878,0.398-1.234,0.576
		C2.5,11.625,2.5,13.5,2.5,13.5V15H13v-1.5C13,13.5,13,11.625,12.25,11.25z M8.5,13.125H7l-0.375-3l0.07-0.641
		C6.005,9.105,5.5,8.278,5.5,6.75C5.5,6,6.32,6.609,7.07,5.859c0.52-0.52,1.031-1.828,1.031-1.828C9.25,4.031,10,5.093,10,6.75
		c0,1.353-0.509,2.482-1.508,2.857L9.25,9.844L8.5,13.125z M4.398,5.15C4.28,5.257,4.148,5.347,3.995,5.404l0.315,0.099
		C4.34,5.386,4.361,5.264,4.398,5.15z"/>
</g>
</svg>
