<?xml version="1.0" encoding="utf-8"?>
<!-- Generator: Adobe Illustrator 15.1.0, SVG Export Plug-In . SVG Version: 6.00 Build 0)  -->
<!DOCTYPE svg PUBLIC "-//W3C//DTD SVG 1.1//EN" "http://www.w3.org/Graphics/SVG/1.1/DTD/svg11.dtd">
<svg version="1.1" id="Layer_1" xmlns="http://www.w3.org/2000/svg" xmlns:xlink="http://www.w3.org/1999/xlink" x="0px" y="0px"
	 width="24px" height="24px" viewBox="0 0 24 24" enable-background="new 0 0 24 24" xml:space="preserve">
<g>
	<polygon points="2,2 13,2 13,6 17,6 17,9 19,9 19,5.998 13,0 0,0 0,19 9.011,19 9,17 2,17 	"/>
	<rect x="4" y="5" width="8" height="2"/>
	<polygon points="4,10 11.264,10 13.34,8 4,8 	"/>
	<polygon points="4,11 4,13 9,13 11,11 	"/>
	<path d="M16.998,13.499c-1.934,0-3.5,1.567-3.5,3.5s1.566,3.5,3.5,3.5c1.933,0,3.5-1.567,3.5-3.5S18.931,13.499,16.998,13.499z
		 M16.998,19.999c-1.657,0-3-1.343-3-3s1.343-3,3-3s3,1.343,3,3S18.655,19.999,16.998,19.999z"/>
	<path d="M23.532,16h-0.993c-0.063,0-0.176-0.76-0.333-1.156l0.858-0.45c0.224-0.129,0.301-0.391,0.172-0.614l-0.351-0.596
		c-0.129-0.224-0.414-0.294-0.638-0.165l-0.86,0.5c-0.268-0.338-0.575-0.644-0.912-0.911l0.497-0.859
		c0.129-0.224,0.053-0.508-0.171-0.637l-0.606-0.351c-0.224-0.129-0.509-0.052-0.638,0.171l-0.403,0.859
		C18.759,11.634,18,11.521,18,11.458v-0.993C18,10.207,17.605,10,17.348,10h-0.7C16.391,10,16,10.207,16,10.465v0.993
		c0,0.063-0.761,0.176-1.157,0.333l-0.45-0.859c-0.129-0.223-0.391-0.299-0.614-0.171l-0.595,0.351
		c-0.223,0.129-0.295,0.414-0.166,0.638l0.5,0.859c-0.338,0.269-0.643,0.575-0.912,0.913l-0.858-0.497
		c-0.224-0.129-0.509-0.052-0.638,0.171l-0.35,0.606c-0.129,0.224-0.052,0.509,0.171,0.638l0.86,0.404
		C11.633,15.24,11.52,16,11.457,16h-0.994C10.206,16,10,16.392,10,16.649v0.699C10,17.606,10.206,18,10.463,18h0.994
		c0.063,0,0.176,0.76,0.334,1.154l-0.86,0.45c-0.223,0.129-0.3,0.392-0.171,0.615l0.351,0.595c0.129,0.223,0.414,0.294,0.638,0.165
		l0.859-0.5c0.269,0.338,0.575,0.644,0.913,0.911l-0.497,0.859c-0.129,0.224-0.053,0.508,0.171,0.637l0.606,0.351
		c0.223,0.129,0.509,0.052,0.638-0.171l0.404-0.859C15.239,22.364,16,22.477,16,22.54v0.993C16,23.791,16.391,24,16.647,24h0.7
		C17.605,24,18,23.791,18,23.533V22.54c0-0.063,0.759-0.176,1.154-0.333l0.449,0.859c0.129,0.223,0.392,0.299,0.615,0.17l0.595-0.35
		c0.223-0.129,0.294-0.414,0.165-0.638l-0.5-0.859c0.337-0.269,0.643-0.575,0.912-0.913l0.857,0.497
		c0.225,0.129,0.51,0.052,0.639-0.171l0.349-0.606c0.129-0.224,0.053-0.509-0.171-0.638l-0.858-0.404
		C22.363,18.76,22.477,18,22.539,18h0.993C23.791,18,24,17.606,24,17.349v-0.699C24,16.392,23.791,16,23.532,16z M16.998,20.998
		c-2.209,0-3.998-1.791-3.998-3.999S14.789,13,16.998,13c2.208,0,3.999,1.791,3.999,3.999S19.206,20.998,16.998,20.998z"/>
</g>
</svg>
