<?xml version="1.0" encoding="utf-8"?>
<!-- Generator: Adobe Illustrator 16.0.3, SVG Export Plug-In . SVG Version: 6.00 Build 0)  -->
<!DOCTYPE svg PUBLIC "-//W3C//DTD SVG 1.1//EN" "http://www.w3.org/Graphics/SVG/1.1/DTD/svg11.dtd" [
	<!ENTITY st0 "fill-rule:evenodd;clip-rule:evenodd;">
]>
<svg version="1.1" id="Layer_1" xmlns="http://www.w3.org/2000/svg" xmlns:xlink="http://www.w3.org/1999/xlink" x="0px" y="0px"
	 width="16px" height="16px" viewBox="0 0 16 16" style="enable-background:new 0 0 16 16;" xml:space="preserve">
<g id="View_16">
	<path d="M15.02,7.02h-0.864c-0.477-0.765-1.461-1.041-2.601-1.041c-1.141,0-2.125,0.26-2.601,1.024H7.14
		C6.664,6.238,5.72,5.979,4.579,5.979C3.456,5.979,2.483,6.271,2,7.016H0.981v0.961l0.722,0.007c-0.018,0.105-0.03,0.212-0.03,0.32
		c0,1.284,1.301,2.669,2.906,2.669s2.866-1.385,2.866-2.669c0-0.107-0.012-0.246-0.029-0.35h1.262
		C8.66,8.058,8.648,8.196,8.648,8.304c0,1.284,1.332,2.638,2.938,2.638s2.875-1.354,2.875-2.638c0-0.107-0.013-0.212-0.03-0.315
		h0.589V7.02z M4.579,10.204c-1.204,0-2.18-0.938-2.18-1.9s0.976-1.681,2.18-1.681s2.18,0.718,2.18,1.681S5.783,10.204,4.579,10.204
		z M11.554,10.204c-1.204,0-2.18-0.938-2.18-1.9s0.976-1.681,2.18-1.681s2.18,0.718,2.18,1.681S12.758,10.204,11.554,10.204z"/>
</g>
</svg>
