<?xml version="1.0" encoding="utf-8"?>
<!-- Generator: Adobe Illustrator 15.1.0, SVG Export Plug-In . SVG Version: 6.00 Build 0)  -->
<!DOCTYPE svg PUBLIC "-//W3C//DTD SVG 1.1//EN" "http://www.w3.org/Graphics/SVG/1.1/DTD/svg11.dtd">
<svg version="1.1" xmlns="http://www.w3.org/2000/svg" xmlns:xlink="http://www.w3.org/1999/xlink" x="0px" y="0px" width="24px"
	 height="24px" viewBox="0 0 24 24" enable-background="new 0 0 24 24" xml:space="preserve">
<g id="Layer_1">
	<rect x="2" y="1" width="1" height="2"/>
	<rect x="2" y="5" width="1" height="2"/>
	<rect x="2" y="9" width="1" height="2"/>
	<rect x="2" y="13" width="1" height="2"/>
	<rect x="2" y="17" width="1" height="2"/>
	<rect x="2" y="21" width="1" height="2"/>
	<rect x="20" y="1" width="1" height="2"/>
	<rect x="20" y="5" width="1" height="2"/>
	<rect x="20" y="9" width="1" height="2"/>
	<rect x="20" y="13" width="1" height="2"/>
	<rect x="20" y="17" width="1" height="2"/>
	<rect x="20" y="21" width="1" height="2"/>
	<path d="M18,0v1h-2V0h-2v1h-2V0h-2v1H8V0H6v1H4v23h1v-1h2v1h2v-1h2v1h2v-1h2v1h2v-1h2V0H18z M6,15H5v-1h1V15z M6,12H5v-1h1V12z
		 M6,9H5V8h1V9z M16,21h-4v-4h4V21z M16,15H7v-2h9V15z M16,12H7v-2h9V12z M16,9H7V7h9V9z M18,15h-1v-1h1V15z M18,12h-1v-1h1V12z
		 M18,9h-1V8h1V9z"/>
	<rect x="13" y="18" width="2" height="2"/>
</g>
<g id="Layer_2">
</g>
</svg>
