<?xml version="1.0" encoding="utf-8"?>
<!-- Generator: Adobe Illustrator 16.0.3, SVG Export Plug-In . SVG Version: 6.00 Build 0)  -->
<!DOCTYPE svg PUBLIC "-//W3C//DTD SVG 1.1//EN" "http://www.w3.org/Graphics/SVG/1.1/DTD/svg11.dtd" [
	<!ENTITY st0 "fill-rule:evenodd;clip-rule:evenodd;">
]>
<svg version="1.1" id="Layer_1" xmlns="http://www.w3.org/2000/svg" xmlns:xlink="http://www.w3.org/1999/xlink" x="0px" y="0px"
	 width="16px" height="16px" viewBox="0 0 16 16" style="enable-background:new 0 0 16 16;" xml:space="preserve">
<g id="volume_16">
	<path d="M0.003,5.754v4.5c0,0.414,0.348,0.75,0.777,0.75H3v-6H0.78C0.351,5.004,0.003,5.34,0.003,5.754z M9.806,5.713L9.75,5.775
		v1.289C9.853,7.357,9.909,7.672,9.909,8c0,0.329-0.057,0.643-0.159,0.936v1.289l0.056,0.063C10.317,9.66,10.637,8.871,10.637,8
		S10.317,6.34,9.806,5.713z M4,5v6.004h0.004L8,15h1V1H8L4,5z"/>
</g>
</svg>
