<?xml version="1.0" encoding="utf-8"?>
<!-- Generator: Adobe Illustrator 16.0.3, SVG Export Plug-In . SVG Version: 6.00 Build 0)  -->
<!DOCTYPE svg PUBLIC "-//W3C//DTD SVG 1.1//EN" "http://www.w3.org/Graphics/SVG/1.1/DTD/svg11.dtd" [
	<!ENTITY st0 "fill-rule:evenodd;clip-rule:evenodd;">
]>
<svg version="1.1" id="Layer_1" xmlns="http://www.w3.org/2000/svg" xmlns:xlink="http://www.w3.org/1999/xlink" x="0px" y="0px"
	 width="16px" height="16px" viewBox="0 0 16 16" style="enable-background:new 0 0 16 16;" xml:space="preserve">
<g id="volume_16_copy_2">
	<path d="M9.75,5.775v1.289C9.853,7.357,9.909,7.672,9.909,8c0,0.329-0.057,0.643-0.159,0.936v1.289l0.056,0.063
		C10.317,9.66,10.637,8.871,10.637,8s-0.319-1.66-0.831-2.287L9.75,5.775z M4,5v6.004h0.004L8,15h1V1H8L4,5z M0.003,5.754v4.5
		c0,0.414,0.348,0.75,0.777,0.75H3v-6H0.78C0.351,5.004,0.003,5.34,0.003,5.754z M11.282,4.09L10.79,4.631
		C11.59,5.53,12.091,6.702,12.091,8s-0.501,2.47-1.301,3.369l0.492,0.541c0.945-1.034,1.536-2.398,1.536-3.91
		S12.228,5.124,11.282,4.09z M12.764,2.46l-0.497,0.547C13.502,4.311,14.272,6.062,14.272,8s-0.771,3.689-2.006,4.993l0.497,0.547
		C14.146,12.102,15,10.152,15,8S14.146,3.898,12.764,2.46z"/>
</g>
</svg>
