<?xml version="1.0" encoding="utf-8"?>
<!-- Generator: Adobe Illustrator 16.0.0, SVG Export Plug-In . SVG Version: 6.00 Build 0)  -->
<!DOCTYPE svg PUBLIC "-//W3C//DTD SVG 1.1//EN" "http://www.w3.org/Graphics/SVG/1.1/DTD/svg11.dtd">
<svg version="1.1" id="Layer_1" xmlns="http://www.w3.org/2000/svg" xmlns:xlink="http://www.w3.org/1999/xlink" x="0px" y="0px"
	 width="16px" height="16px" viewBox="0 0 16 16" enable-background="new 0 0 16 16" xml:space="preserve">
<g>
	<path d="M15.75,13.04l-6.02-11C9.38,1.4,8.71,1,7.98,1c0,0,0,0-0.011,0C7.24,1,6.57,1.4,6.22,2.04l-5.979,11
		c-0.33,0.63-0.32,1.38,0.04,1.979C0.64,15.63,1.29,16,2,16h12c0.71,0,1.36-0.37,1.72-0.98C16.08,14.41,16.09,13.66,15.75,13.04z
		 M14.86,14.51C14.68,14.81,14.35,15,14,15H2c-0.35,0-0.68-0.19-0.86-0.49c-0.18-0.3-0.189-0.68-0.02-0.99l5.979-11
		C7.27,2.2,7.61,2,7.98,2C8.34,2,8.68,2.2,8.85,2.52l6.03,11C15.05,13.83,15.04,14.21,14.86,14.51z"/>
	<polygon points="14,14 2,14 7.98,3 	"/>
</g>
<g>
	<path  d="M8.815,12.206c0,0.28-0.065,0.483-0.198,0.608c-0.131,0.126-0.352,0.188-0.662,0.188
		c-0.312,0-0.533-0.063-0.664-0.188c-0.132-0.125-0.197-0.328-0.197-0.608c0-0.281,0.065-0.484,0.197-0.61
		c0.131-0.125,0.353-0.188,0.664-0.188c0.311,0,0.531,0.063,0.662,0.188C8.75,11.722,8.815,11.925,8.815,12.206z M7.39,10.557
		c-0.03-0.203-0.057-0.422-0.081-0.654c-0.023-0.233-0.044-0.463-0.063-0.69C7.229,8.984,7.214,8.77,7.202,8.566
		C7.189,8.363,7.184,8.188,7.184,8.038V6.72h1.21c0.221,0,0.331,0.105,0.331,0.313v0.96c0,0.161-0.007,0.366-0.021,0.613
		c-0.015,0.248-0.035,0.508-0.059,0.78s-0.051,0.541-0.08,0.807c-0.03,0.267-0.057,0.497-0.081,0.694H7.695
		c-0.091,0-0.159-0.024-0.207-0.076C7.441,10.761,7.407,10.676,7.39,10.557z"/>
</g>
</svg>
