<?xml version="1.0" encoding="utf-8"?>
<!-- Generator: Adobe Illustrator 15.1.0, SVG Export Plug-In . SVG Version: 6.00 Build 0)  -->
<!DOCTYPE svg PUBLIC "-//W3C//DTD SVG 1.1//EN" "http://www.w3.org/Graphics/SVG/1.1/DTD/svg11.dtd">
<svg version="1.1" xmlns="http://www.w3.org/2000/svg" xmlns:xlink="http://www.w3.org/1999/xlink" x="0px" y="0px" width="24px"
	 height="24px" viewBox="0 0 24 24" enable-background="new 0 0 24 24" xml:space="preserve">
<g id="Layer_1">
	<g id="_x31_6_7_">
		<g>
			<path fill-rule="evenodd" clip-rule="evenodd" d="M20.469,20.195c0.651-0.904,1.039-2.01,1.039-3.209s-0.388-2.305-1.039-3.209
				l0,0c-0.001-0.002-0.003-0.003-0.004-0.005c-0.999-1.383-2.62-2.286-4.457-2.286s-3.458,0.903-4.457,2.286
				c-0.001,0.002-0.003,0.003-0.004,0.005l0,0c-0.651,0.904-1.039,2.01-1.039,3.209s0.388,2.305,1.039,3.209l0,0
				c0.001,0.002,0.003,0.003,0.004,0.005c0.999,1.383,2.62,2.286,4.457,2.286s3.458-0.903,4.457-2.286
				C20.466,20.198,20.468,20.197,20.469,20.195L20.469,20.195z M19.851,19.771c-0.27-0.16-0.564-0.303-0.885-0.427
				c0.172-0.613,0.288-1.28,0.316-1.991h1.466C20.678,18.256,20.354,19.082,19.851,19.771z M13.46,17.354h2.181v1.48
				c-0.678,0.027-1.32,0.127-1.908,0.288C13.586,18.582,13.486,17.989,13.46,17.354z M18.556,16.619h-2.181v-1.48
				c0.678-0.027,1.319-0.127,1.907-0.288C18.43,15.391,18.529,15.983,18.556,16.619z M13.732,14.851
				c0.588,0.161,1.23,0.261,1.908,0.288v1.48H13.46C13.486,15.983,13.586,15.391,13.732,14.851z M16.375,17.354h2.181
				c-0.026,0.636-0.126,1.229-0.273,1.769c-0.588-0.161-1.229-0.261-1.907-0.288V17.354z M20.748,16.619h-1.466
				c-0.028-0.711-0.145-1.378-0.316-1.991c0.32-0.124,0.615-0.267,0.885-0.427C20.354,14.891,20.678,15.717,20.748,16.619z
				 M19.384,13.657c-0.2,0.108-0.417,0.208-0.65,0.297c-0.183-0.462-0.392-0.892-0.649-1.24
				C18.572,12.952,19.007,13.276,19.384,13.657z M18.055,14.165c-0.516,0.134-1.081,0.217-1.68,0.242v-2.119
				C17.065,12.474,17.658,13.175,18.055,14.165z M15.641,12.288v2.119c-0.599-0.025-1.164-0.108-1.68-0.242
				C14.356,13.175,14.95,12.474,15.641,12.288z M13.282,13.954c-0.233-0.089-0.45-0.188-0.65-0.297
				c0.377-0.381,0.812-0.704,1.299-0.942C13.674,13.063,13.464,13.492,13.282,13.954z M12.165,14.201
				c0.27,0.16,0.564,0.303,0.885,0.427c-0.172,0.613-0.288,1.28-0.316,1.991h-1.466C11.338,15.717,11.663,14.891,12.165,14.201z
				 M11.268,17.354h1.466c0.028,0.711,0.145,1.378,0.316,1.991c-0.32,0.124-0.615,0.267-0.885,0.427
				C11.663,19.082,11.338,18.256,11.268,17.354z M12.632,20.315c0.2-0.109,0.417-0.208,0.65-0.297
				c0.182,0.462,0.392,0.892,0.648,1.239C13.443,21.02,13.009,20.696,12.632,20.315z M13.961,19.808
				c0.516-0.134,1.081-0.217,1.68-0.242v2.119C14.95,21.499,14.356,20.798,13.961,19.808z M16.375,21.685v-2.119
				c0.599,0.025,1.164,0.108,1.68,0.242C17.658,20.798,17.065,21.499,16.375,21.685z M18.733,20.019
				c0.233,0.089,0.45,0.188,0.65,0.297c-0.377,0.381-0.812,0.705-1.3,0.943C18.342,20.91,18.551,20.48,18.733,20.019z"/>
		</g>
	</g>
	<g>
		<path d="M10,20.592C9.369,19.541,9,18.315,9,17c0-0.695,0.105-1.366,0.294-2H5v-2h5.26c0.251-0.359,0.533-0.694,0.846-1H5v-2h9
			v0.294C14.635,10.104,15.305,10,16,10c0.34,0,0.672,0.032,1,0.08V0H2v24h14c-2.378,0-4.475-1.188-5.74-3 M15,8h1v1h-1V8z M5,7h9v2
			H5V7z M4,15H3v-1h1V15z M4,12H3v-1h1V12z M4,9H3V8h1V9z"/>
		<path d="M16,24h1v-0.08C16.672,23.968,16.34,24,16,24z"/>
	</g>
</g>
<g id="Layer_2">
</g>
</svg>
