<?xml version="1.0" encoding="utf-8"?>
<!-- Generator: Adobe Illustrator 16.0.0, SVG Export Plug-In . SVG Version: 6.00 Build 0)  -->
<!DOCTYPE svg PUBLIC "-//W3C//DTD SVG 1.1//EN" "http://www.w3.org/Graphics/SVG/1.1/DTD/svg11.dtd">
<svg version="1.1" id="Layer_1" xmlns="http://www.w3.org/2000/svg" xmlns:xlink="http://www.w3.org/1999/xlink" x="0px" y="0px"
	 width="16px" height="16px" viewBox="0 0 16 16" enable-background="new 0 0 16 16" xml:space="preserve">
<g id="_x31_6_46_">
	<path d="M8,0C3.581,0,0,3.581,0,8c0,4.419,3.581,8,8,8c4.419,0,8-3.581,8-8C16,3.581,12.419,0,8,0z M11.708,7.467H8.533V5.313
		c0.987-0.04,1.923-0.186,2.777-0.421C11.525,5.68,11.669,6.542,11.708,7.467z M4.292,8.533h3.175v2.154
		c-0.988,0.04-1.923,0.186-2.778,0.421C4.475,10.319,4.332,9.457,4.292,8.533z M4.689,4.893c0.854,0.236,1.79,0.381,2.778,0.42
		v2.154H4.292C4.332,6.542,4.475,5.68,4.689,4.893z M8.533,8.533h3.175c-0.039,0.924-0.183,1.786-0.396,2.574
		c-0.856-0.236-1.792-0.38-2.779-0.42V8.533z M13.599,3.944c0.727,1.006,1.195,2.211,1.296,3.522h-2.113
		c-0.042-1.037-0.203-2.013-0.458-2.905C12.783,4.383,13.209,4.175,13.599,3.944z M12.923,3.15
		c-0.287,0.156-0.596,0.301-0.928,0.428c-0.276-0.69-0.611-1.307-0.999-1.824C11.721,2.104,12.366,2.583,12.923,3.15z M10.982,3.896
		C10.23,4.089,9.406,4.211,8.533,4.248V1.146C9.54,1.415,10.406,2.444,10.982,3.896z M7.467,1.146v3.102
		C6.594,4.211,5.77,4.089,5.018,3.896C5.594,2.444,6.46,1.415,7.467,1.146z M4.005,3.578C3.671,3.451,3.363,3.307,3.078,3.15
		c0.555-0.566,1.201-1.046,1.927-1.396C4.617,2.272,4.281,2.888,4.005,3.578z M2.401,3.944c0.39,0.23,0.815,0.438,1.276,0.618
		C3.423,5.454,3.261,6.43,3.219,7.467H1.105C1.206,6.156,1.674,4.951,2.401,3.944z M3.219,8.533
		c0.042,1.038,0.204,2.013,0.458,2.904c-0.461,0.179-0.886,0.388-1.276,0.619C1.674,11.05,1.206,9.844,1.105,8.533H3.219z
		 M3.078,12.85c0.287-0.156,0.595-0.3,0.928-0.427c0.275,0.689,0.611,1.307,1,1.823C4.279,13.896,3.633,13.417,3.078,12.85z
		 M5.018,12.104c0.752-0.194,1.577-0.314,2.449-0.353v3.103C6.46,14.585,5.594,13.557,5.018,12.104z M8.533,14.854v-3.103
		c0.873,0.038,1.697,0.158,2.449,0.353C10.406,13.557,9.54,14.585,8.533,14.854z M11.995,12.423
		c0.334,0.127,0.643,0.271,0.928,0.427c-0.557,0.567-1.202,1.046-1.927,1.396C11.384,13.729,11.721,13.112,11.995,12.423z
		 M13.599,12.057c-0.39-0.231-0.815-0.44-1.275-0.619c0.254-0.892,0.416-1.866,0.458-2.904h2.113
		C14.794,9.844,14.325,11.05,13.599,12.057z"/>
</g>
</svg>
