<?xml version="1.0" encoding="utf-8"?>
<!-- Generator: Adobe Illustrator 15.1.0, SVG Export Plug-In . SVG Version: 6.00 Build 0)  -->
<!DOCTYPE svg PUBLIC "-//W3C//DTD SVG 1.1//EN" "http://www.w3.org/Graphics/SVG/1.1/DTD/svg11.dtd">
<svg version="1.1" xmlns="http://www.w3.org/2000/svg" xmlns:xlink="http://www.w3.org/1999/xlink" x="0px" y="0px" width="24px"
	 height="24px" viewBox="0 0 24 24" enable-background="new 0 0 24 24" xml:space="preserve">
<g id="Layer_1">
	<path d="M10.25,17l0.593-2.035L4,15v-2h7.656L12,12H4v-2h9v1h1l0,0h1l0,0h1V0H1v24h14l-5.833-2.048 M14,8h1v1h-1V8z M4,7h9v2H4V7z
		 M3,15H2v-1h1V15z M3,12H2v-1h1V12z M3,9H2V8h1V9z"/>
	<g>
		<path d="M15.637,16.588l1.229-3.689c-1.229-1.538-3.997-0.615-3.997-0.615L11.64,16.28C14.1,15.357,15.637,16.588,15.637,16.588z"
			/>
		<path d="M20.249,17.817l1.537-4.305c0,0-3.382,0.923-4.305-0.307l-1.229,3.688C16.252,16.895,17.789,17.817,20.249,17.817z"/>
		<path d="M11.332,17.203l-0.922,3.688c0,0,1.845-0.921,4.304,0.309l0.923-3.997C15.637,17.203,12.869,15.665,11.332,17.203z"/>
		<path d="M16.252,17.51l-1.111,3.892c0,0,2.04,0.817,3.578,0.817l1.188-3.781C19.906,18.438,17.175,18.74,16.252,17.51z"/>
	</g>
	<polygon points="8.167,21.417 16,22.792 16,24 13,24 	"/>
</g>
<g id="Layer_2">
</g>
</svg>
