<?xml version="1.0" encoding="utf-8"?>
<!-- Generator: Adobe Illustrator 16.0.3, SVG Export Plug-In . SVG Version: 6.00 Build 0)  -->
<!DOCTYPE svg PUBLIC "-//W3C//DTD SVG 1.1//EN" "http://www.w3.org/Graphics/SVG/1.1/DTD/svg11.dtd" [
	<!ENTITY st0 "fill-rule:evenodd;clip-rule:evenodd;">
]>
<svg version="1.1" id="Layer_1" xmlns="http://www.w3.org/2000/svg" xmlns:xlink="http://www.w3.org/1999/xlink" x="0px" y="0px"
	 width="16px" height="16px" viewBox="0 0 16 16" style="enable-background:new 0 0 16 16;" xml:space="preserve">
<g id="Wireless_16">
	<path style="&st0;" d="M4.442,3.666c-1.962,1.962-1.962,5.154,0,7.115l0.638-0.638c-1.61-1.609-1.61-4.229,0-5.84L4.442,3.666z
		 M11.558,3.666L10.92,4.304c1.61,1.61,1.61,4.23,0,5.84l0.638,0.638C13.52,8.82,13.52,5.628,11.558,3.666z M3.809,2.62L3.171,1.981
		C1.771,3.382,1,5.243,1,7.224s0.771,3.842,2.171,5.242l0.638-0.638c-1.229-1.229-1.907-2.865-1.907-4.604S2.579,3.85,3.809,2.62z
		 M12.829,1.981L12.191,2.62c1.229,1.229,1.907,2.864,1.907,4.604s-0.678,3.375-1.907,4.604l0.638,0.638
		c1.4-1.4,2.171-3.262,2.171-5.242S14.229,3.382,12.829,1.981z M8,5C6.896,5,6,5.896,6,7c0,0.738,0.404,1.376,1,1.723V15h2V8.723
		C9.596,8.376,10,7.738,10,7C10,5.896,9.104,5,8,5z"/>
</g>
</svg>
