<?xml version="1.0" encoding="utf-8"?>
<!-- Generator: Adobe Illustrator 15.1.0, SVG Export Plug-In . SVG Version: 6.00 Build 0)  -->
<!DOCTYPE svg PUBLIC "-//W3C//DTD SVG 1.1//EN" "http://www.w3.org/Graphics/SVG/1.1/DTD/svg11.dtd">
<svg version="1.1" id="Layer_1" xmlns="http://www.w3.org/2000/svg" xmlns:xlink="http://www.w3.org/1999/xlink" x="0px" y="0px"
	 width="24px" height="24px" viewBox="0 0 24 24" enable-background="new 0 0 24 24" xml:space="preserve">
<symbol  id="workflow" viewBox="-12 -3 24 6">
	<path fill="#5A5A5A" d="M10.286,3H7.714C6.768,3,6,2.232,6,1.286V1H3v0.286C3,2.232,2.232,3,1.286,3h-2.571
		C-2.232,3-3,2.232-3,1.286V1h-3v0.286C-6,2.232-6.768,3-7.714,3h-2.571C-11.232,3-12,2.232-12,1.286v-2.572
		C-12-2.232-11.232-3-10.286-3h2.571C-6.768-3-6-2.232-6-1.286V-1h3v-0.286C-3-2.232-2.232-3-1.286-3h2.571C2.232-3,3-2.232,3-1.286
		V-1h3v-0.286C6-2.232,6.768-3,7.714-3h2.571C11.232-3,12-2.232,12-1.286v2.572C12,2.232,11.232,3,10.286,3z"/>
	<polygon display="none" fill="none" points="-12,3 12,3 12,-3 -12,-3 	"/>
</symbol>
<use xlink:href="#workflow"  width="24" height="6" x="-12" y="-3" transform="matrix(1 0 0 -1 12 12)" overflow="visible"/>
</svg>
