<?xml version="1.0" encoding="utf-8"?>
<!-- Generator: Adobe Illustrator 16.0.4, SVG Export Plug-In . SVG Version: 6.00 Build 0)  -->
<!DOCTYPE svg PUBLIC "-//W3C//DTD SVG 1.1//EN" "http://www.w3.org/Graphics/SVG/1.1/DTD/svg11.dtd">
<svg version="1.1" id="Layer_1" xmlns="http://www.w3.org/2000/svg" xmlns:xlink="http://www.w3.org/1999/xlink" x="0px" y="0px"
	 width="24px" height="24px" viewBox="0 0 24 24" enable-background="new 0 0 24 24" xml:space="preserve">
<path d="M19,7v2h1V7H19z M1,1h13V0H0v9.012h1V1z M19,23H1v-3.162H0v4.161l20,0.009v-4.17h-1V23z"/>
<path d="M6.41,17.23l-0.974-1.685c-0.394-0.646-0.644-1.062-0.88-1.503H4.532c-0.214,0.439-0.429,0.848-0.824,1.516L2.793,17.23
	h-1.13l2.326-3.855L1.753,9.614h1.141L3.9,11.399c0.282,0.498,0.497,0.882,0.7,1.291h0.036c0.214-0.456,0.406-0.805,0.688-1.291
	l1.04-1.785h1.129L5.176,13.32l2.374,3.91H6.41z"/>
<path d="M15.105,13.887c-0.06-1.062-0.127-2.34-0.114-3.29h-0.032c-0.262,0.892-0.579,1.843-0.964,2.894l-1.343,3.692h-0.745
	l-1.232-3.627c-0.361-1.073-0.666-2.057-0.882-2.959H9.771c-0.021,0.95-0.079,2.227-0.146,3.368l-0.204,3.268H8.483l0.531-7.618
	h1.254l1.299,3.683c0.316,0.939,0.578,1.775,0.769,2.566h0.034c0.19-0.769,0.46-1.604,0.8-2.566l1.355-3.683h1.256l0.476,7.618
	h-0.963L15.105,13.887z"/>
<path d="M17.764,9.614h0.982v6.791H22v0.827h-4.236V9.614z"/>
<path d="M19,7v2h1V7H19z M1,1h13V0H0v9.012h1V1z M19,23H1v-3.162H0v4.161l20,0.009v-4.17h-1V23z"/>
<polygon points="14,0 14,7 19.984,7 "/>
<polygon points="14,0 14,7 19.984,7 "/>
</svg>
